%TF.GenerationSoftware,KiCad,Pcbnew,9.0.2*%
%TF.CreationDate,2026-05-01T14:56:34-04:00*%
%TF.ProjectId,TurbineMCU,54757262-696e-4654-9d43-552e6b696361,rev?*%
%TF.SameCoordinates,Original*%
%TF.FileFunction,Paste,Top*%
%TF.FilePolarity,Positive*%
%FSLAX46Y46*%
G04 Gerber Fmt 4.6, Leading zero omitted, Abs format (unit mm)*
G04 Created by KiCad (PCBNEW 9.0.2) date 2026-05-01 14:56:34*
%MOMM*%
%LPD*%
G01*
G04 APERTURE LIST*
G04 Aperture macros list*
%AMRoundRect*
0 Rectangle with rounded corners*
0 $1 Rounding radius*
0 $2 $3 $4 $5 $6 $7 $8 $9 X,Y pos of 4 corners*
0 Add a 4 corners polygon primitive as box body*
4,1,4,$2,$3,$4,$5,$6,$7,$8,$9,$2,$3,0*
0 Add four circle primitives for the rounded corners*
1,1,$1+$1,$2,$3*
1,1,$1+$1,$4,$5*
1,1,$1+$1,$6,$7*
1,1,$1+$1,$8,$9*
0 Add four rect primitives between the rounded corners*
20,1,$1+$1,$2,$3,$4,$5,0*
20,1,$1+$1,$4,$5,$6,$7,0*
20,1,$1+$1,$6,$7,$8,$9,0*
20,1,$1+$1,$8,$9,$2,$3,0*%
G04 Aperture macros list end*
%ADD10R,1.475000X0.300000*%
%ADD11R,0.300000X1.475000*%
%ADD12R,0.600000X0.350000*%
%ADD13R,1.100000X1.700000*%
%ADD14RoundRect,0.250000X0.350000X0.450000X-0.350000X0.450000X-0.350000X-0.450000X0.350000X-0.450000X0*%
%ADD15RoundRect,0.250000X-0.400000X-0.625000X0.400000X-0.625000X0.400000X0.625000X-0.400000X0.625000X0*%
%ADD16RoundRect,0.250000X-0.350000X-0.450000X0.350000X-0.450000X0.350000X0.450000X-0.350000X0.450000X0*%
%ADD17RoundRect,0.250000X-0.337500X-0.475000X0.337500X-0.475000X0.337500X0.475000X-0.337500X0.475000X0*%
%ADD18RoundRect,0.237500X-0.287500X-0.237500X0.287500X-0.237500X0.287500X0.237500X-0.287500X0.237500X0*%
%ADD19RoundRect,0.155000X0.212500X0.155000X-0.212500X0.155000X-0.212500X-0.155000X0.212500X-0.155000X0*%
%ADD20RoundRect,0.250000X0.337500X0.475000X-0.337500X0.475000X-0.337500X-0.475000X0.337500X-0.475000X0*%
%ADD21RoundRect,0.160000X0.197500X0.160000X-0.197500X0.160000X-0.197500X-0.160000X0.197500X-0.160000X0*%
%ADD22RoundRect,0.250000X0.400000X0.625000X-0.400000X0.625000X-0.400000X-0.625000X0.400000X-0.625000X0*%
%ADD23RoundRect,0.250000X0.475000X-0.337500X0.475000X0.337500X-0.475000X0.337500X-0.475000X-0.337500X0*%
%ADD24RoundRect,0.250000X-0.650000X0.412500X-0.650000X-0.412500X0.650000X-0.412500X0.650000X0.412500X0*%
%ADD25RoundRect,0.237500X-0.250000X-0.237500X0.250000X-0.237500X0.250000X0.237500X-0.250000X0.237500X0*%
%ADD26RoundRect,0.250000X-0.412500X-0.650000X0.412500X-0.650000X0.412500X0.650000X-0.412500X0.650000X0*%
%ADD27RoundRect,0.250000X0.325000X0.450000X-0.325000X0.450000X-0.325000X-0.450000X0.325000X-0.450000X0*%
%ADD28RoundRect,0.155000X-0.155000X0.212500X-0.155000X-0.212500X0.155000X-0.212500X0.155000X0.212500X0*%
G04 APERTURE END LIST*
D10*
%TO.C,IC1*%
X165524000Y-88100000D03*
X165524000Y-88600000D03*
X165524000Y-89100000D03*
X165524000Y-89600000D03*
X165524000Y-90100000D03*
X165524000Y-90600000D03*
X165524000Y-91100000D03*
X165524000Y-91600000D03*
X165524000Y-92100000D03*
X165524000Y-92600000D03*
X165524000Y-93100000D03*
X165524000Y-93600000D03*
X165524000Y-94100000D03*
X165524000Y-94600000D03*
X165524000Y-95100000D03*
X165524000Y-95600000D03*
D11*
X167512000Y-97588000D03*
X168012000Y-97588000D03*
X168512000Y-97588000D03*
X169012000Y-97588000D03*
X169512000Y-97588000D03*
X170012000Y-97588000D03*
X170512000Y-97588000D03*
X171012000Y-97588000D03*
X171512000Y-97588000D03*
X172012000Y-97588000D03*
X172512000Y-97588000D03*
X173012000Y-97588000D03*
X173512000Y-97588000D03*
X174012000Y-97588000D03*
X174512000Y-97588000D03*
X175012000Y-97588000D03*
D10*
X177000000Y-95600000D03*
X177000000Y-95100000D03*
X177000000Y-94600000D03*
X177000000Y-94100000D03*
X177000000Y-93600000D03*
X177000000Y-93100000D03*
X177000000Y-92600000D03*
X177000000Y-92100000D03*
X177000000Y-91600000D03*
X177000000Y-91100000D03*
X177000000Y-90600000D03*
X177000000Y-90100000D03*
X177000000Y-89600000D03*
X177000000Y-89100000D03*
X177000000Y-88600000D03*
X177000000Y-88100000D03*
D11*
X175012000Y-86112000D03*
X174512000Y-86112000D03*
X174012000Y-86112000D03*
X173512000Y-86112000D03*
X173012000Y-86112000D03*
X172512000Y-86112000D03*
X172012000Y-86112000D03*
X171512000Y-86112000D03*
X171012000Y-86112000D03*
X170512000Y-86112000D03*
X170012000Y-86112000D03*
X169512000Y-86112000D03*
X169012000Y-86112000D03*
X168512000Y-86112000D03*
X168012000Y-86112000D03*
X167512000Y-86112000D03*
%TD*%
D12*
%TO.C,IC2*%
X179050000Y-78850000D03*
X179050000Y-79500000D03*
X179050000Y-80150000D03*
X181150000Y-80150000D03*
X181150000Y-79500000D03*
X181150000Y-78850000D03*
D13*
X180100000Y-79500000D03*
%TD*%
D14*
%TO.C,R3*%
X173100000Y-107700000D03*
X171100000Y-107700000D03*
%TD*%
D15*
%TO.C,R1*%
X158300000Y-95000000D03*
X161400000Y-95000000D03*
%TD*%
D14*
%TO.C,R2*%
X181600000Y-93300000D03*
X179600000Y-93300000D03*
%TD*%
D16*
%TO.C,R8*%
X179400000Y-98900000D03*
X181400000Y-98900000D03*
%TD*%
D17*
%TO.C,C9*%
X183700000Y-106900000D03*
X185775000Y-106900000D03*
%TD*%
D18*
%TO.C,D2*%
X158225000Y-107400000D03*
X159975000Y-107400000D03*
%TD*%
D19*
%TO.C,C10*%
X166900000Y-104150000D03*
X165765000Y-104150000D03*
%TD*%
D20*
%TO.C,C8*%
X160100000Y-99100000D03*
X158025000Y-99100000D03*
%TD*%
D21*
%TO.C,R7*%
X166695000Y-99500000D03*
X165500000Y-99500000D03*
%TD*%
D22*
%TO.C,R6*%
X160400000Y-103200000D03*
X157300000Y-103200000D03*
%TD*%
D23*
%TO.C,C2*%
X184400000Y-80075000D03*
X184400000Y-78000000D03*
%TD*%
D15*
%TO.C,R12*%
X177800000Y-106900000D03*
X180900000Y-106900000D03*
%TD*%
D24*
%TO.C,C1*%
X174700000Y-78700000D03*
X174700000Y-81825000D03*
%TD*%
D17*
%TO.C,C5*%
X184125000Y-89800000D03*
X186200000Y-89800000D03*
%TD*%
D25*
%TO.C,R5*%
X179475000Y-89800000D03*
X181300000Y-89800000D03*
%TD*%
D26*
%TO.C,C4*%
X183675000Y-94300000D03*
X186800000Y-94300000D03*
%TD*%
D14*
%TO.C,R4*%
X178900000Y-83300000D03*
X176900000Y-83300000D03*
%TD*%
D26*
%TO.C,C6*%
X184675000Y-102600000D03*
X187800000Y-102600000D03*
%TD*%
D16*
%TO.C,R9*%
X184700000Y-98900000D03*
X186700000Y-98900000D03*
%TD*%
D27*
%TO.C,D1*%
X183900000Y-83800000D03*
X181850000Y-83800000D03*
%TD*%
D15*
%TO.C,R10*%
X158800000Y-86300000D03*
X161900000Y-86300000D03*
%TD*%
D17*
%TO.C,C7*%
X173525000Y-103000000D03*
X175600000Y-103000000D03*
%TD*%
D28*
%TO.C,C3*%
X177900000Y-79500000D03*
X177900000Y-80635000D03*
%TD*%
D15*
%TO.C,R11*%
X158300000Y-90700000D03*
X161400000Y-90700000D03*
%TD*%
M02*
