M48
; DRILL file {KiCad 9.0.2} date 2026-04-21T03:21:52-0400
; FORMAT={-:-/ absolute / metric / decimal}
; #@! TF.CreationDate,2026-04-21T03:21:52-04:00
; #@! TF.GenerationSoftware,Kicad,Pcbnew,9.0.2
; #@! TF.FileFunction,Plated,1,4,PTH
FMAT,2
METRIC
; #@! TA.AperFunction,Plated,PTH,ViaDrill
T1C0.300
; #@! TA.AperFunction,Plated,PTH,ComponentDrill
T2C0.800
; #@! TA.AperFunction,Plated,PTH,ComponentDrill
T3C1.000
; #@! TA.AperFunction,Plated,PTH,ComponentDrill
T4C1.100
; #@! TA.AperFunction,Plated,PTH,ComponentDrill
T5C1.200
%
G90
G05
T1
X157.7Y-88.0
X158.6Y-72.2
X161.0Y-92.5
X162.0Y-92.9
X163.0Y-94.4
X163.8Y-74.6
X164.0Y-72.2
X165.2Y-113.2
X166.4Y-84.3
X166.9Y-71.955
X167.6Y-84.2
X168.5Y-83.727
X169.2Y-72.0
X170.6Y-90.4
X171.2Y-95.0
X173.2Y-114.2
X174.1Y-90.9
X174.3Y-89.8
X174.3Y-112.8
X175.3Y-93.1
X175.5Y-106.9
X177.0Y-113.6
X177.5Y-99.1
X179.3Y-101.4
X179.6Y-93.3
X182.9Y-101.1
X183.675Y-94.3
X184.7Y-104.2
X187.2Y-107.0
X188.5Y-94.3
X188.5Y-98.9
X188.9Y-92.4
X189.9Y-80.9
T2
X163.19Y-103.0
X170.81Y-103.0
T3
X149.84Y-78.1
X152.38Y-78.1
X154.92Y-78.1
X157.46Y-78.1
X160.0Y-78.1
X162.54Y-78.1
X165.08Y-78.1
X167.62Y-78.1
T4
X152.1Y-113.8
X152.1Y-118.3
X158.6Y-113.8
X158.6Y-118.3
X185.75Y-113.75
X185.75Y-118.25
X192.25Y-113.75
X192.25Y-118.25
T5
X149.8Y-85.42
X149.8Y-87.96
X149.8Y-90.5
X149.8Y-95.1
X149.8Y-97.64
X149.8Y-102.3
X149.8Y-104.84
X156.06Y-69.8
X158.6Y-69.8
X164.0Y-69.8
X165.255Y-115.617
X166.54Y-69.8
X167.795Y-115.617
X169.08Y-69.8
X170.335Y-115.617
X174.36Y-69.8
X176.7Y-115.9
X176.9Y-69.8
X179.24Y-115.9
X181.78Y-115.9
X194.6Y-85.86
X194.6Y-88.4
X194.6Y-90.94
X194.7Y-95.3
X194.7Y-97.84
X194.7Y-100.38
M30
