%TF.GenerationSoftware,KiCad,Pcbnew,9.0.2*%
%TF.CreationDate,2026-04-21T03:23:11-04:00*%
%TF.ProjectId,TurbineMCU,54757262-696e-4654-9d43-552e6b696361,rev?*%
%TF.SameCoordinates,Original*%
%TF.FileFunction,Soldermask,Bot*%
%TF.FilePolarity,Negative*%
%FSLAX46Y46*%
G04 Gerber Fmt 4.6, Leading zero omitted, Abs format (unit mm)*
G04 Created by KiCad (PCBNEW 9.0.2) date 2026-04-21 03:23:11*
%MOMM*%
%LPD*%
G01*
G04 APERTURE LIST*
G04 APERTURE END LIST*
G36*
X152390285Y-117343060D02*
G01*
X152571397Y-117418079D01*
X152734393Y-117526990D01*
X152873010Y-117665607D01*
X152981921Y-117828603D01*
X153056940Y-118009715D01*
X153095185Y-118201983D01*
X153095185Y-118398017D01*
X153056940Y-118590285D01*
X152981921Y-118771397D01*
X152873010Y-118934393D01*
X152734393Y-119073010D01*
X152571397Y-119181921D01*
X152390285Y-119256940D01*
X152198017Y-119295185D01*
X152001983Y-119295185D01*
X151809715Y-119256940D01*
X151628603Y-119181921D01*
X151465607Y-119073010D01*
X151326990Y-118934393D01*
X151218079Y-118771397D01*
X151143060Y-118590285D01*
X151104815Y-118398017D01*
X151104815Y-118201983D01*
X151143060Y-118009715D01*
X151218079Y-117828603D01*
X151326990Y-117665607D01*
X151465607Y-117526990D01*
X151628603Y-117418079D01*
X151809715Y-117343060D01*
X152001983Y-117304815D01*
X152198017Y-117304815D01*
X152390285Y-117343060D01*
G37*
G36*
X158890285Y-117343060D02*
G01*
X159071397Y-117418079D01*
X159234393Y-117526990D01*
X159373010Y-117665607D01*
X159481921Y-117828603D01*
X159556940Y-118009715D01*
X159595185Y-118201983D01*
X159595185Y-118398017D01*
X159556940Y-118590285D01*
X159481921Y-118771397D01*
X159373010Y-118934393D01*
X159234393Y-119073010D01*
X159071397Y-119181921D01*
X158890285Y-119256940D01*
X158698017Y-119295185D01*
X158501983Y-119295185D01*
X158309715Y-119256940D01*
X158128603Y-119181921D01*
X157965607Y-119073010D01*
X157826990Y-118934393D01*
X157718079Y-118771397D01*
X157643060Y-118590285D01*
X157604815Y-118398017D01*
X157604815Y-118201983D01*
X157643060Y-118009715D01*
X157718079Y-117828603D01*
X157826990Y-117665607D01*
X157965607Y-117526990D01*
X158128603Y-117418079D01*
X158309715Y-117343060D01*
X158501983Y-117304815D01*
X158698017Y-117304815D01*
X158890285Y-117343060D01*
G37*
G36*
X186040285Y-117293060D02*
G01*
X186221397Y-117368079D01*
X186384393Y-117476990D01*
X186523010Y-117615607D01*
X186631921Y-117778603D01*
X186706940Y-117959715D01*
X186745185Y-118151983D01*
X186745185Y-118348017D01*
X186706940Y-118540285D01*
X186631921Y-118721397D01*
X186523010Y-118884393D01*
X186384393Y-119023010D01*
X186221397Y-119131921D01*
X186040285Y-119206940D01*
X185848017Y-119245185D01*
X185651983Y-119245185D01*
X185459715Y-119206940D01*
X185278603Y-119131921D01*
X185115607Y-119023010D01*
X184976990Y-118884393D01*
X184868079Y-118721397D01*
X184793060Y-118540285D01*
X184754815Y-118348017D01*
X184754815Y-118151983D01*
X184793060Y-117959715D01*
X184868079Y-117778603D01*
X184976990Y-117615607D01*
X185115607Y-117476990D01*
X185278603Y-117368079D01*
X185459715Y-117293060D01*
X185651983Y-117254815D01*
X185848017Y-117254815D01*
X186040285Y-117293060D01*
G37*
G36*
X192540285Y-117293060D02*
G01*
X192721397Y-117368079D01*
X192884393Y-117476990D01*
X193023010Y-117615607D01*
X193131921Y-117778603D01*
X193206940Y-117959715D01*
X193245185Y-118151983D01*
X193245185Y-118348017D01*
X193206940Y-118540285D01*
X193131921Y-118721397D01*
X193023010Y-118884393D01*
X192884393Y-119023010D01*
X192721397Y-119131921D01*
X192540285Y-119206940D01*
X192348017Y-119245185D01*
X192151983Y-119245185D01*
X191959715Y-119206940D01*
X191778603Y-119131921D01*
X191615607Y-119023010D01*
X191476990Y-118884393D01*
X191368079Y-118721397D01*
X191293060Y-118540285D01*
X191254815Y-118348017D01*
X191254815Y-118151983D01*
X191293060Y-117959715D01*
X191368079Y-117778603D01*
X191476990Y-117615607D01*
X191615607Y-117476990D01*
X191778603Y-117368079D01*
X191959715Y-117293060D01*
X192151983Y-117254815D01*
X192348017Y-117254815D01*
X192540285Y-117293060D01*
G37*
G36*
X148092687Y-116555056D02*
G01*
X148102918Y-116555056D01*
X148142893Y-116563007D01*
X148245074Y-116579191D01*
X148277943Y-116589870D01*
X148304799Y-116595213D01*
X148342700Y-116610912D01*
X148401741Y-116630096D01*
X148457052Y-116658278D01*
X148494967Y-116673983D01*
X148517742Y-116689201D01*
X148548528Y-116704887D01*
X148632217Y-116765690D01*
X148666113Y-116788339D01*
X148673347Y-116795573D01*
X148681798Y-116801713D01*
X148798286Y-116918201D01*
X148804425Y-116926651D01*
X148811661Y-116933887D01*
X148834312Y-116967787D01*
X148895112Y-117051471D01*
X148910796Y-117082254D01*
X148926017Y-117105033D01*
X148941723Y-117142952D01*
X148969903Y-117198258D01*
X148989084Y-117257292D01*
X149004787Y-117295201D01*
X149010130Y-117322062D01*
X149020808Y-117354925D01*
X149036990Y-117457098D01*
X149044944Y-117497082D01*
X149044944Y-117507313D01*
X149046578Y-117517630D01*
X149046578Y-117682369D01*
X149044944Y-117692685D01*
X149044944Y-117702918D01*
X149036990Y-117742905D01*
X149020808Y-117845074D01*
X149010130Y-117877935D01*
X149004787Y-117904799D01*
X148989083Y-117942711D01*
X148969903Y-118001741D01*
X148941726Y-118057041D01*
X148926017Y-118094967D01*
X148910794Y-118117749D01*
X148895112Y-118148528D01*
X148834320Y-118232200D01*
X148811661Y-118266113D01*
X148804423Y-118273350D01*
X148798286Y-118281798D01*
X148681798Y-118398286D01*
X148673350Y-118404423D01*
X148666113Y-118411661D01*
X148632200Y-118434320D01*
X148548528Y-118495112D01*
X148517749Y-118510794D01*
X148494967Y-118526017D01*
X148457041Y-118541726D01*
X148401741Y-118569903D01*
X148342711Y-118589083D01*
X148304799Y-118604787D01*
X148277935Y-118610130D01*
X148245074Y-118620808D01*
X148142902Y-118636990D01*
X148102918Y-118644944D01*
X148092687Y-118644944D01*
X148082370Y-118646578D01*
X147917630Y-118646578D01*
X147907313Y-118644944D01*
X147897082Y-118644944D01*
X147857098Y-118636990D01*
X147754925Y-118620808D01*
X147722062Y-118610130D01*
X147695201Y-118604787D01*
X147657292Y-118589084D01*
X147598258Y-118569903D01*
X147542952Y-118541723D01*
X147505033Y-118526017D01*
X147482254Y-118510796D01*
X147451471Y-118495112D01*
X147367787Y-118434312D01*
X147333887Y-118411661D01*
X147326651Y-118404425D01*
X147318201Y-118398286D01*
X147201713Y-118281798D01*
X147195573Y-118273347D01*
X147188339Y-118266113D01*
X147165690Y-118232217D01*
X147104887Y-118148528D01*
X147089201Y-118117742D01*
X147073983Y-118094967D01*
X147058278Y-118057052D01*
X147030096Y-118001741D01*
X147010912Y-117942700D01*
X146995213Y-117904799D01*
X146989870Y-117877943D01*
X146979191Y-117845074D01*
X146963008Y-117742895D01*
X146955056Y-117702918D01*
X146955056Y-117692686D01*
X146953422Y-117682369D01*
X146953422Y-117517630D01*
X146955056Y-117507312D01*
X146955056Y-117497082D01*
X146963007Y-117457108D01*
X146979191Y-117354925D01*
X146989871Y-117322054D01*
X146995213Y-117295201D01*
X147010910Y-117257303D01*
X147030096Y-117198258D01*
X147058280Y-117142942D01*
X147073983Y-117105033D01*
X147089199Y-117082260D01*
X147104887Y-117051471D01*
X147165699Y-116967770D01*
X147188339Y-116933887D01*
X147195570Y-116926655D01*
X147201713Y-116918201D01*
X147318201Y-116801713D01*
X147326655Y-116795570D01*
X147333887Y-116788339D01*
X147367770Y-116765699D01*
X147451471Y-116704887D01*
X147482260Y-116689199D01*
X147505033Y-116673983D01*
X147542942Y-116658280D01*
X147598258Y-116630096D01*
X147657303Y-116610910D01*
X147695201Y-116595213D01*
X147722054Y-116589871D01*
X147754925Y-116579191D01*
X147857108Y-116563007D01*
X147897082Y-116555056D01*
X147907313Y-116555056D01*
X147917630Y-116553422D01*
X148082370Y-116553422D01*
X148092687Y-116555056D01*
G37*
G36*
X196592687Y-116555056D02*
G01*
X196602918Y-116555056D01*
X196642893Y-116563007D01*
X196745074Y-116579191D01*
X196777943Y-116589870D01*
X196804799Y-116595213D01*
X196842700Y-116610912D01*
X196901741Y-116630096D01*
X196957052Y-116658278D01*
X196994967Y-116673983D01*
X197017742Y-116689201D01*
X197048528Y-116704887D01*
X197132217Y-116765690D01*
X197166113Y-116788339D01*
X197173347Y-116795573D01*
X197181798Y-116801713D01*
X197298286Y-116918201D01*
X197304425Y-116926651D01*
X197311661Y-116933887D01*
X197334312Y-116967787D01*
X197395112Y-117051471D01*
X197410796Y-117082254D01*
X197426017Y-117105033D01*
X197441723Y-117142952D01*
X197469903Y-117198258D01*
X197489084Y-117257292D01*
X197504787Y-117295201D01*
X197510130Y-117322062D01*
X197520808Y-117354925D01*
X197536990Y-117457098D01*
X197544944Y-117497082D01*
X197544944Y-117507313D01*
X197546578Y-117517630D01*
X197546578Y-117682369D01*
X197544944Y-117692685D01*
X197544944Y-117702918D01*
X197536990Y-117742905D01*
X197520808Y-117845074D01*
X197510130Y-117877935D01*
X197504787Y-117904799D01*
X197489083Y-117942711D01*
X197469903Y-118001741D01*
X197441726Y-118057041D01*
X197426017Y-118094967D01*
X197410794Y-118117749D01*
X197395112Y-118148528D01*
X197334320Y-118232200D01*
X197311661Y-118266113D01*
X197304423Y-118273350D01*
X197298286Y-118281798D01*
X197181798Y-118398286D01*
X197173350Y-118404423D01*
X197166113Y-118411661D01*
X197132200Y-118434320D01*
X197048528Y-118495112D01*
X197017749Y-118510794D01*
X196994967Y-118526017D01*
X196957041Y-118541726D01*
X196901741Y-118569903D01*
X196842711Y-118589083D01*
X196804799Y-118604787D01*
X196777935Y-118610130D01*
X196745074Y-118620808D01*
X196642902Y-118636990D01*
X196602918Y-118644944D01*
X196592687Y-118644944D01*
X196582370Y-118646578D01*
X196417630Y-118646578D01*
X196407313Y-118644944D01*
X196397082Y-118644944D01*
X196357098Y-118636990D01*
X196254925Y-118620808D01*
X196222062Y-118610130D01*
X196195201Y-118604787D01*
X196157292Y-118589084D01*
X196098258Y-118569903D01*
X196042952Y-118541723D01*
X196005033Y-118526017D01*
X195982254Y-118510796D01*
X195951471Y-118495112D01*
X195867787Y-118434312D01*
X195833887Y-118411661D01*
X195826651Y-118404425D01*
X195818201Y-118398286D01*
X195701713Y-118281798D01*
X195695573Y-118273347D01*
X195688339Y-118266113D01*
X195665690Y-118232217D01*
X195604887Y-118148528D01*
X195589201Y-118117742D01*
X195573983Y-118094967D01*
X195558278Y-118057052D01*
X195530096Y-118001741D01*
X195510912Y-117942700D01*
X195495213Y-117904799D01*
X195489870Y-117877943D01*
X195479191Y-117845074D01*
X195463008Y-117742895D01*
X195455056Y-117702918D01*
X195455056Y-117692686D01*
X195453422Y-117682369D01*
X195453422Y-117517630D01*
X195455056Y-117507312D01*
X195455056Y-117497082D01*
X195463007Y-117457108D01*
X195479191Y-117354925D01*
X195489871Y-117322054D01*
X195495213Y-117295201D01*
X195510910Y-117257303D01*
X195530096Y-117198258D01*
X195558280Y-117142942D01*
X195573983Y-117105033D01*
X195589199Y-117082260D01*
X195604887Y-117051471D01*
X195665699Y-116967770D01*
X195688339Y-116933887D01*
X195695570Y-116926655D01*
X195701713Y-116918201D01*
X195818201Y-116801713D01*
X195826655Y-116795570D01*
X195833887Y-116788339D01*
X195867770Y-116765699D01*
X195951471Y-116704887D01*
X195982260Y-116689199D01*
X196005033Y-116673983D01*
X196042942Y-116658280D01*
X196098258Y-116630096D01*
X196157303Y-116610910D01*
X196195201Y-116595213D01*
X196222054Y-116589871D01*
X196254925Y-116579191D01*
X196357108Y-116563007D01*
X196397082Y-116555056D01*
X196407313Y-116555056D01*
X196417630Y-116553422D01*
X196582370Y-116553422D01*
X196592687Y-116555056D01*
G37*
G36*
X177454850Y-114900964D02*
G01*
X177505040Y-114906787D01*
X177522189Y-114914359D01*
X177545671Y-114919030D01*
X177570810Y-114935827D01*
X177590696Y-114944608D01*
X177604277Y-114958189D01*
X177626777Y-114973223D01*
X177641810Y-114995722D01*
X177655391Y-115009303D01*
X177664170Y-115029186D01*
X177680970Y-115054329D01*
X177685641Y-115077812D01*
X177693212Y-115094959D01*
X177699033Y-115145139D01*
X177700000Y-115150000D01*
X177700000Y-116650000D01*
X177699032Y-116654863D01*
X177693212Y-116705040D01*
X177685641Y-116722185D01*
X177680970Y-116745671D01*
X177664169Y-116770815D01*
X177655391Y-116790696D01*
X177641812Y-116804274D01*
X177626777Y-116826777D01*
X177604274Y-116841812D01*
X177590696Y-116855391D01*
X177570815Y-116864169D01*
X177545671Y-116880970D01*
X177522185Y-116885641D01*
X177505040Y-116893212D01*
X177454861Y-116899032D01*
X177450000Y-116900000D01*
X175950000Y-116900000D01*
X175945138Y-116899032D01*
X175894959Y-116893212D01*
X175877812Y-116885641D01*
X175854329Y-116880970D01*
X175829186Y-116864170D01*
X175809303Y-116855391D01*
X175795722Y-116841810D01*
X175773223Y-116826777D01*
X175758189Y-116804277D01*
X175744608Y-116790696D01*
X175735827Y-116770810D01*
X175719030Y-116745671D01*
X175714359Y-116722189D01*
X175706787Y-116705040D01*
X175700964Y-116654849D01*
X175700000Y-116650000D01*
X175700000Y-115150000D01*
X175700964Y-115145150D01*
X175706787Y-115094959D01*
X175714359Y-115077808D01*
X175719030Y-115054329D01*
X175735826Y-115029191D01*
X175744608Y-115009303D01*
X175758191Y-114995719D01*
X175773223Y-114973223D01*
X175795719Y-114958191D01*
X175809303Y-114944608D01*
X175829191Y-114935826D01*
X175854329Y-114919030D01*
X175877808Y-114914359D01*
X175894959Y-114906787D01*
X175945151Y-114900964D01*
X175950000Y-114900000D01*
X177450000Y-114900000D01*
X177454850Y-114900964D01*
G37*
G36*
X179530285Y-114943060D02*
G01*
X179711397Y-115018079D01*
X179874393Y-115126990D01*
X180013010Y-115265607D01*
X180121921Y-115428603D01*
X180196940Y-115609715D01*
X180235185Y-115801983D01*
X180235185Y-115998017D01*
X180196940Y-116190285D01*
X180121921Y-116371397D01*
X180013010Y-116534393D01*
X179874393Y-116673010D01*
X179711397Y-116781921D01*
X179530285Y-116856940D01*
X179338017Y-116895185D01*
X179141983Y-116895185D01*
X178949715Y-116856940D01*
X178768603Y-116781921D01*
X178605607Y-116673010D01*
X178466990Y-116534393D01*
X178358079Y-116371397D01*
X178283060Y-116190285D01*
X178244815Y-115998017D01*
X178244815Y-115801983D01*
X178283060Y-115609715D01*
X178358079Y-115428603D01*
X178466990Y-115265607D01*
X178605607Y-115126990D01*
X178768603Y-115018079D01*
X178949715Y-114943060D01*
X179141983Y-114904815D01*
X179338017Y-114904815D01*
X179530285Y-114943060D01*
G37*
G36*
X182070285Y-114943060D02*
G01*
X182251397Y-115018079D01*
X182414393Y-115126990D01*
X182553010Y-115265607D01*
X182661921Y-115428603D01*
X182736940Y-115609715D01*
X182775185Y-115801983D01*
X182775185Y-115998017D01*
X182736940Y-116190285D01*
X182661921Y-116371397D01*
X182553010Y-116534393D01*
X182414393Y-116673010D01*
X182251397Y-116781921D01*
X182070285Y-116856940D01*
X181878017Y-116895185D01*
X181681983Y-116895185D01*
X181489715Y-116856940D01*
X181308603Y-116781921D01*
X181145607Y-116673010D01*
X181006990Y-116534393D01*
X180898079Y-116371397D01*
X180823060Y-116190285D01*
X180784815Y-115998017D01*
X180784815Y-115801983D01*
X180823060Y-115609715D01*
X180898079Y-115428603D01*
X181006990Y-115265607D01*
X181145607Y-115126990D01*
X181308603Y-115018079D01*
X181489715Y-114943060D01*
X181681983Y-114904815D01*
X181878017Y-114904815D01*
X182070285Y-114943060D01*
G37*
G36*
X166009850Y-114618464D02*
G01*
X166060040Y-114624287D01*
X166077189Y-114631859D01*
X166100671Y-114636530D01*
X166125810Y-114653327D01*
X166145696Y-114662108D01*
X166159277Y-114675689D01*
X166181777Y-114690723D01*
X166196810Y-114713222D01*
X166210391Y-114726803D01*
X166219170Y-114746686D01*
X166235970Y-114771829D01*
X166240641Y-114795312D01*
X166248212Y-114812459D01*
X166254033Y-114862639D01*
X166255000Y-114867500D01*
X166255000Y-116367500D01*
X166254032Y-116372363D01*
X166248212Y-116422540D01*
X166240641Y-116439685D01*
X166235970Y-116463171D01*
X166219169Y-116488315D01*
X166210391Y-116508196D01*
X166196812Y-116521774D01*
X166181777Y-116544277D01*
X166159274Y-116559312D01*
X166145696Y-116572891D01*
X166125815Y-116581669D01*
X166100671Y-116598470D01*
X166077185Y-116603141D01*
X166060040Y-116610712D01*
X166009861Y-116616532D01*
X166005000Y-116617500D01*
X164505000Y-116617500D01*
X164500138Y-116616532D01*
X164449959Y-116610712D01*
X164432812Y-116603141D01*
X164409329Y-116598470D01*
X164384186Y-116581670D01*
X164364303Y-116572891D01*
X164350722Y-116559310D01*
X164328223Y-116544277D01*
X164313189Y-116521777D01*
X164299608Y-116508196D01*
X164290827Y-116488310D01*
X164274030Y-116463171D01*
X164269359Y-116439689D01*
X164261787Y-116422540D01*
X164255964Y-116372349D01*
X164255000Y-116367500D01*
X164255000Y-114867500D01*
X164255964Y-114862650D01*
X164261787Y-114812459D01*
X164269359Y-114795308D01*
X164274030Y-114771829D01*
X164290826Y-114746691D01*
X164299608Y-114726803D01*
X164313191Y-114713219D01*
X164328223Y-114690723D01*
X164350719Y-114675691D01*
X164364303Y-114662108D01*
X164384191Y-114653326D01*
X164409329Y-114636530D01*
X164432808Y-114631859D01*
X164449959Y-114624287D01*
X164500151Y-114618464D01*
X164505000Y-114617500D01*
X166005000Y-114617500D01*
X166009850Y-114618464D01*
G37*
G36*
X168085285Y-114660560D02*
G01*
X168266397Y-114735579D01*
X168429393Y-114844490D01*
X168568010Y-114983107D01*
X168676921Y-115146103D01*
X168751940Y-115327215D01*
X168790185Y-115519483D01*
X168790185Y-115715517D01*
X168751940Y-115907785D01*
X168676921Y-116088897D01*
X168568010Y-116251893D01*
X168429393Y-116390510D01*
X168266397Y-116499421D01*
X168085285Y-116574440D01*
X167893017Y-116612685D01*
X167696983Y-116612685D01*
X167504715Y-116574440D01*
X167323603Y-116499421D01*
X167160607Y-116390510D01*
X167021990Y-116251893D01*
X166913079Y-116088897D01*
X166838060Y-115907785D01*
X166799815Y-115715517D01*
X166799815Y-115519483D01*
X166838060Y-115327215D01*
X166913079Y-115146103D01*
X167021990Y-114983107D01*
X167160607Y-114844490D01*
X167323603Y-114735579D01*
X167504715Y-114660560D01*
X167696983Y-114622315D01*
X167893017Y-114622315D01*
X168085285Y-114660560D01*
G37*
G36*
X170625285Y-114660560D02*
G01*
X170806397Y-114735579D01*
X170969393Y-114844490D01*
X171108010Y-114983107D01*
X171216921Y-115146103D01*
X171291940Y-115327215D01*
X171330185Y-115519483D01*
X171330185Y-115715517D01*
X171291940Y-115907785D01*
X171216921Y-116088897D01*
X171108010Y-116251893D01*
X170969393Y-116390510D01*
X170806397Y-116499421D01*
X170625285Y-116574440D01*
X170433017Y-116612685D01*
X170236983Y-116612685D01*
X170044715Y-116574440D01*
X169863603Y-116499421D01*
X169700607Y-116390510D01*
X169561990Y-116251893D01*
X169453079Y-116088897D01*
X169378060Y-115907785D01*
X169339815Y-115715517D01*
X169339815Y-115519483D01*
X169378060Y-115327215D01*
X169453079Y-115146103D01*
X169561990Y-114983107D01*
X169700607Y-114844490D01*
X169863603Y-114735579D01*
X170044715Y-114660560D01*
X170236983Y-114622315D01*
X170433017Y-114622315D01*
X170625285Y-114660560D01*
G37*
G36*
X152390285Y-112843060D02*
G01*
X152571397Y-112918079D01*
X152734393Y-113026990D01*
X152873010Y-113165607D01*
X152981921Y-113328603D01*
X153056940Y-113509715D01*
X153095185Y-113701983D01*
X153095185Y-113898017D01*
X153056940Y-114090285D01*
X152981921Y-114271397D01*
X152873010Y-114434393D01*
X152734393Y-114573010D01*
X152571397Y-114681921D01*
X152390285Y-114756940D01*
X152198017Y-114795185D01*
X152001983Y-114795185D01*
X151809715Y-114756940D01*
X151628603Y-114681921D01*
X151465607Y-114573010D01*
X151326990Y-114434393D01*
X151218079Y-114271397D01*
X151143060Y-114090285D01*
X151104815Y-113898017D01*
X151104815Y-113701983D01*
X151143060Y-113509715D01*
X151218079Y-113328603D01*
X151326990Y-113165607D01*
X151465607Y-113026990D01*
X151628603Y-112918079D01*
X151809715Y-112843060D01*
X152001983Y-112804815D01*
X152198017Y-112804815D01*
X152390285Y-112843060D01*
G37*
G36*
X158890285Y-112843060D02*
G01*
X159071397Y-112918079D01*
X159234393Y-113026990D01*
X159373010Y-113165607D01*
X159481921Y-113328603D01*
X159556940Y-113509715D01*
X159595185Y-113701983D01*
X159595185Y-113898017D01*
X159556940Y-114090285D01*
X159481921Y-114271397D01*
X159373010Y-114434393D01*
X159234393Y-114573010D01*
X159071397Y-114681921D01*
X158890285Y-114756940D01*
X158698017Y-114795185D01*
X158501983Y-114795185D01*
X158309715Y-114756940D01*
X158128603Y-114681921D01*
X157965607Y-114573010D01*
X157826990Y-114434393D01*
X157718079Y-114271397D01*
X157643060Y-114090285D01*
X157604815Y-113898017D01*
X157604815Y-113701983D01*
X157643060Y-113509715D01*
X157718079Y-113328603D01*
X157826990Y-113165607D01*
X157965607Y-113026990D01*
X158128603Y-112918079D01*
X158309715Y-112843060D01*
X158501983Y-112804815D01*
X158698017Y-112804815D01*
X158890285Y-112843060D01*
G37*
G36*
X186040285Y-112793060D02*
G01*
X186221397Y-112868079D01*
X186384393Y-112976990D01*
X186523010Y-113115607D01*
X186631921Y-113278603D01*
X186706940Y-113459715D01*
X186745185Y-113651983D01*
X186745185Y-113848017D01*
X186706940Y-114040285D01*
X186631921Y-114221397D01*
X186523010Y-114384393D01*
X186384393Y-114523010D01*
X186221397Y-114631921D01*
X186040285Y-114706940D01*
X185848017Y-114745185D01*
X185651983Y-114745185D01*
X185459715Y-114706940D01*
X185278603Y-114631921D01*
X185115607Y-114523010D01*
X184976990Y-114384393D01*
X184868079Y-114221397D01*
X184793060Y-114040285D01*
X184754815Y-113848017D01*
X184754815Y-113651983D01*
X184793060Y-113459715D01*
X184868079Y-113278603D01*
X184976990Y-113115607D01*
X185115607Y-112976990D01*
X185278603Y-112868079D01*
X185459715Y-112793060D01*
X185651983Y-112754815D01*
X185848017Y-112754815D01*
X186040285Y-112793060D01*
G37*
G36*
X192540285Y-112793060D02*
G01*
X192721397Y-112868079D01*
X192884393Y-112976990D01*
X193023010Y-113115607D01*
X193131921Y-113278603D01*
X193206940Y-113459715D01*
X193245185Y-113651983D01*
X193245185Y-113848017D01*
X193206940Y-114040285D01*
X193131921Y-114221397D01*
X193023010Y-114384393D01*
X192884393Y-114523010D01*
X192721397Y-114631921D01*
X192540285Y-114706940D01*
X192348017Y-114745185D01*
X192151983Y-114745185D01*
X191959715Y-114706940D01*
X191778603Y-114631921D01*
X191615607Y-114523010D01*
X191476990Y-114384393D01*
X191368079Y-114221397D01*
X191293060Y-114040285D01*
X191254815Y-113848017D01*
X191254815Y-113651983D01*
X191293060Y-113459715D01*
X191368079Y-113278603D01*
X191476990Y-113115607D01*
X191615607Y-112976990D01*
X191778603Y-112868079D01*
X191959715Y-112793060D01*
X192151983Y-112754815D01*
X192348017Y-112754815D01*
X192540285Y-112793060D01*
G37*
G36*
X150090285Y-103883060D02*
G01*
X150271397Y-103958079D01*
X150434393Y-104066990D01*
X150573010Y-104205607D01*
X150681921Y-104368603D01*
X150756940Y-104549715D01*
X150795185Y-104741983D01*
X150795185Y-104938017D01*
X150756940Y-105130285D01*
X150681921Y-105311397D01*
X150573010Y-105474393D01*
X150434393Y-105613010D01*
X150271397Y-105721921D01*
X150090285Y-105796940D01*
X149898017Y-105835185D01*
X149701983Y-105835185D01*
X149509715Y-105796940D01*
X149328603Y-105721921D01*
X149165607Y-105613010D01*
X149026990Y-105474393D01*
X148918079Y-105311397D01*
X148843060Y-105130285D01*
X148804815Y-104938017D01*
X148804815Y-104741983D01*
X148843060Y-104549715D01*
X148918079Y-104368603D01*
X149026990Y-104205607D01*
X149165607Y-104066990D01*
X149328603Y-103958079D01*
X149509715Y-103883060D01*
X149701983Y-103844815D01*
X149898017Y-103844815D01*
X150090285Y-103883060D01*
G37*
G36*
X163422228Y-102234448D02*
G01*
X163567117Y-102294463D01*
X163697515Y-102381592D01*
X163808408Y-102492485D01*
X163895537Y-102622883D01*
X163955552Y-102767772D01*
X163986148Y-102921586D01*
X163986148Y-103078414D01*
X163955552Y-103232228D01*
X163895537Y-103377117D01*
X163808408Y-103507515D01*
X163697515Y-103618408D01*
X163567117Y-103705537D01*
X163422228Y-103765552D01*
X163268414Y-103796148D01*
X163111586Y-103796148D01*
X162957772Y-103765552D01*
X162812883Y-103705537D01*
X162682485Y-103618408D01*
X162571592Y-103507515D01*
X162484463Y-103377117D01*
X162424448Y-103232228D01*
X162393852Y-103078414D01*
X162393852Y-102921586D01*
X162424448Y-102767772D01*
X162484463Y-102622883D01*
X162571592Y-102492485D01*
X162682485Y-102381592D01*
X162812883Y-102294463D01*
X162957772Y-102234448D01*
X163111586Y-102203852D01*
X163268414Y-102203852D01*
X163422228Y-102234448D01*
G37*
G36*
X171042228Y-102234448D02*
G01*
X171187117Y-102294463D01*
X171317515Y-102381592D01*
X171428408Y-102492485D01*
X171515537Y-102622883D01*
X171575552Y-102767772D01*
X171606148Y-102921586D01*
X171606148Y-103078414D01*
X171575552Y-103232228D01*
X171515537Y-103377117D01*
X171428408Y-103507515D01*
X171317515Y-103618408D01*
X171187117Y-103705537D01*
X171042228Y-103765552D01*
X170888414Y-103796148D01*
X170731586Y-103796148D01*
X170577772Y-103765552D01*
X170432883Y-103705537D01*
X170302485Y-103618408D01*
X170191592Y-103507515D01*
X170104463Y-103377117D01*
X170044448Y-103232228D01*
X170013852Y-103078414D01*
X170013852Y-102921586D01*
X170044448Y-102767772D01*
X170104463Y-102622883D01*
X170191592Y-102492485D01*
X170302485Y-102381592D01*
X170432883Y-102294463D01*
X170577772Y-102234448D01*
X170731586Y-102203852D01*
X170888414Y-102203852D01*
X171042228Y-102234448D01*
G37*
G36*
X150554850Y-101300964D02*
G01*
X150605040Y-101306787D01*
X150622189Y-101314359D01*
X150645671Y-101319030D01*
X150670810Y-101335827D01*
X150690696Y-101344608D01*
X150704277Y-101358189D01*
X150726777Y-101373223D01*
X150741810Y-101395722D01*
X150755391Y-101409303D01*
X150764170Y-101429186D01*
X150780970Y-101454329D01*
X150785641Y-101477812D01*
X150793212Y-101494959D01*
X150799033Y-101545139D01*
X150800000Y-101550000D01*
X150800000Y-103050000D01*
X150799032Y-103054863D01*
X150793212Y-103105040D01*
X150785641Y-103122185D01*
X150780970Y-103145671D01*
X150764169Y-103170815D01*
X150755391Y-103190696D01*
X150741812Y-103204274D01*
X150726777Y-103226777D01*
X150704274Y-103241812D01*
X150690696Y-103255391D01*
X150670815Y-103264169D01*
X150645671Y-103280970D01*
X150622185Y-103285641D01*
X150605040Y-103293212D01*
X150554861Y-103299032D01*
X150550000Y-103300000D01*
X149050000Y-103300000D01*
X149045138Y-103299032D01*
X148994959Y-103293212D01*
X148977812Y-103285641D01*
X148954329Y-103280970D01*
X148929186Y-103264170D01*
X148909303Y-103255391D01*
X148895722Y-103241810D01*
X148873223Y-103226777D01*
X148858189Y-103204277D01*
X148844608Y-103190696D01*
X148835827Y-103170810D01*
X148819030Y-103145671D01*
X148814359Y-103122189D01*
X148806787Y-103105040D01*
X148800964Y-103054849D01*
X148800000Y-103050000D01*
X148800000Y-101550000D01*
X148800964Y-101545150D01*
X148806787Y-101494959D01*
X148814359Y-101477808D01*
X148819030Y-101454329D01*
X148835826Y-101429191D01*
X148844608Y-101409303D01*
X148858191Y-101395719D01*
X148873223Y-101373223D01*
X148895719Y-101358191D01*
X148909303Y-101344608D01*
X148929191Y-101335826D01*
X148954329Y-101319030D01*
X148977808Y-101314359D01*
X148994959Y-101306787D01*
X149045151Y-101300964D01*
X149050000Y-101300000D01*
X150550000Y-101300000D01*
X150554850Y-101300964D01*
G37*
G36*
X195454850Y-99380964D02*
G01*
X195505040Y-99386787D01*
X195522189Y-99394359D01*
X195545671Y-99399030D01*
X195570810Y-99415827D01*
X195590696Y-99424608D01*
X195604277Y-99438189D01*
X195626777Y-99453223D01*
X195641810Y-99475722D01*
X195655391Y-99489303D01*
X195664170Y-99509186D01*
X195680970Y-99534329D01*
X195685641Y-99557812D01*
X195693212Y-99574959D01*
X195699033Y-99625139D01*
X195700000Y-99630000D01*
X195700000Y-101130000D01*
X195699032Y-101134863D01*
X195693212Y-101185040D01*
X195685641Y-101202185D01*
X195680970Y-101225671D01*
X195664169Y-101250815D01*
X195655391Y-101270696D01*
X195641812Y-101284274D01*
X195626777Y-101306777D01*
X195604274Y-101321812D01*
X195590696Y-101335391D01*
X195570815Y-101344169D01*
X195545671Y-101360970D01*
X195522185Y-101365641D01*
X195505040Y-101373212D01*
X195454861Y-101379032D01*
X195450000Y-101380000D01*
X193950000Y-101380000D01*
X193945138Y-101379032D01*
X193894959Y-101373212D01*
X193877812Y-101365641D01*
X193854329Y-101360970D01*
X193829186Y-101344170D01*
X193809303Y-101335391D01*
X193795722Y-101321810D01*
X193773223Y-101306777D01*
X193758189Y-101284277D01*
X193744608Y-101270696D01*
X193735827Y-101250810D01*
X193719030Y-101225671D01*
X193714359Y-101202189D01*
X193706787Y-101185040D01*
X193700964Y-101134849D01*
X193700000Y-101130000D01*
X193700000Y-99630000D01*
X193700964Y-99625150D01*
X193706787Y-99574959D01*
X193714359Y-99557808D01*
X193719030Y-99534329D01*
X193735826Y-99509191D01*
X193744608Y-99489303D01*
X193758191Y-99475719D01*
X193773223Y-99453223D01*
X193795719Y-99438191D01*
X193809303Y-99424608D01*
X193829191Y-99415826D01*
X193854329Y-99399030D01*
X193877808Y-99394359D01*
X193894959Y-99386787D01*
X193945151Y-99380964D01*
X193950000Y-99380000D01*
X195450000Y-99380000D01*
X195454850Y-99380964D01*
G37*
G36*
X194990285Y-96883060D02*
G01*
X195171397Y-96958079D01*
X195334393Y-97066990D01*
X195473010Y-97205607D01*
X195581921Y-97368603D01*
X195656940Y-97549715D01*
X195695185Y-97741983D01*
X195695185Y-97938017D01*
X195656940Y-98130285D01*
X195581921Y-98311397D01*
X195473010Y-98474393D01*
X195334393Y-98613010D01*
X195171397Y-98721921D01*
X194990285Y-98796940D01*
X194798017Y-98835185D01*
X194601983Y-98835185D01*
X194409715Y-98796940D01*
X194228603Y-98721921D01*
X194065607Y-98613010D01*
X193926990Y-98474393D01*
X193818079Y-98311397D01*
X193743060Y-98130285D01*
X193704815Y-97938017D01*
X193704815Y-97741983D01*
X193743060Y-97549715D01*
X193818079Y-97368603D01*
X193926990Y-97205607D01*
X194065607Y-97066990D01*
X194228603Y-96958079D01*
X194409715Y-96883060D01*
X194601983Y-96844815D01*
X194798017Y-96844815D01*
X194990285Y-96883060D01*
G37*
G36*
X150090285Y-96683060D02*
G01*
X150271397Y-96758079D01*
X150434393Y-96866990D01*
X150573010Y-97005607D01*
X150681921Y-97168603D01*
X150756940Y-97349715D01*
X150795185Y-97541983D01*
X150795185Y-97738017D01*
X150756940Y-97930285D01*
X150681921Y-98111397D01*
X150573010Y-98274393D01*
X150434393Y-98413010D01*
X150271397Y-98521921D01*
X150090285Y-98596940D01*
X149898017Y-98635185D01*
X149701983Y-98635185D01*
X149509715Y-98596940D01*
X149328603Y-98521921D01*
X149165607Y-98413010D01*
X149026990Y-98274393D01*
X148918079Y-98111397D01*
X148843060Y-97930285D01*
X148804815Y-97738017D01*
X148804815Y-97541983D01*
X148843060Y-97349715D01*
X148918079Y-97168603D01*
X149026990Y-97005607D01*
X149165607Y-96866990D01*
X149328603Y-96758079D01*
X149509715Y-96683060D01*
X149701983Y-96644815D01*
X149898017Y-96644815D01*
X150090285Y-96683060D01*
G37*
G36*
X194990285Y-94343060D02*
G01*
X195171397Y-94418079D01*
X195334393Y-94526990D01*
X195473010Y-94665607D01*
X195581921Y-94828603D01*
X195656940Y-95009715D01*
X195695185Y-95201983D01*
X195695185Y-95398017D01*
X195656940Y-95590285D01*
X195581921Y-95771397D01*
X195473010Y-95934393D01*
X195334393Y-96073010D01*
X195171397Y-96181921D01*
X194990285Y-96256940D01*
X194798017Y-96295185D01*
X194601983Y-96295185D01*
X194409715Y-96256940D01*
X194228603Y-96181921D01*
X194065607Y-96073010D01*
X193926990Y-95934393D01*
X193818079Y-95771397D01*
X193743060Y-95590285D01*
X193704815Y-95398017D01*
X193704815Y-95201983D01*
X193743060Y-95009715D01*
X193818079Y-94828603D01*
X193926990Y-94665607D01*
X194065607Y-94526990D01*
X194228603Y-94418079D01*
X194409715Y-94343060D01*
X194601983Y-94304815D01*
X194798017Y-94304815D01*
X194990285Y-94343060D01*
G37*
G36*
X150554850Y-94100964D02*
G01*
X150605040Y-94106787D01*
X150622189Y-94114359D01*
X150645671Y-94119030D01*
X150670810Y-94135827D01*
X150690696Y-94144608D01*
X150704277Y-94158189D01*
X150726777Y-94173223D01*
X150741810Y-94195722D01*
X150755391Y-94209303D01*
X150764170Y-94229186D01*
X150780970Y-94254329D01*
X150785641Y-94277812D01*
X150793212Y-94294959D01*
X150799033Y-94345139D01*
X150800000Y-94350000D01*
X150800000Y-95850000D01*
X150799032Y-95854863D01*
X150793212Y-95905040D01*
X150785641Y-95922185D01*
X150780970Y-95945671D01*
X150764169Y-95970815D01*
X150755391Y-95990696D01*
X150741812Y-96004274D01*
X150726777Y-96026777D01*
X150704274Y-96041812D01*
X150690696Y-96055391D01*
X150670815Y-96064169D01*
X150645671Y-96080970D01*
X150622185Y-96085641D01*
X150605040Y-96093212D01*
X150554861Y-96099032D01*
X150550000Y-96100000D01*
X149050000Y-96100000D01*
X149045138Y-96099032D01*
X148994959Y-96093212D01*
X148977812Y-96085641D01*
X148954329Y-96080970D01*
X148929186Y-96064170D01*
X148909303Y-96055391D01*
X148895722Y-96041810D01*
X148873223Y-96026777D01*
X148858189Y-96004277D01*
X148844608Y-95990696D01*
X148835827Y-95970810D01*
X148819030Y-95945671D01*
X148814359Y-95922189D01*
X148806787Y-95905040D01*
X148800964Y-95854849D01*
X148800000Y-95850000D01*
X148800000Y-94350000D01*
X148800964Y-94345150D01*
X148806787Y-94294959D01*
X148814359Y-94277808D01*
X148819030Y-94254329D01*
X148835826Y-94229191D01*
X148844608Y-94209303D01*
X148858191Y-94195719D01*
X148873223Y-94173223D01*
X148895719Y-94158191D01*
X148909303Y-94144608D01*
X148929191Y-94135826D01*
X148954329Y-94119030D01*
X148977808Y-94114359D01*
X148994959Y-94106787D01*
X149045151Y-94100964D01*
X149050000Y-94100000D01*
X150550000Y-94100000D01*
X150554850Y-94100964D01*
G37*
G36*
X195354850Y-89940964D02*
G01*
X195405040Y-89946787D01*
X195422189Y-89954359D01*
X195445671Y-89959030D01*
X195470810Y-89975827D01*
X195490696Y-89984608D01*
X195504277Y-89998189D01*
X195526777Y-90013223D01*
X195541810Y-90035722D01*
X195555391Y-90049303D01*
X195564170Y-90069186D01*
X195580970Y-90094329D01*
X195585641Y-90117812D01*
X195593212Y-90134959D01*
X195599033Y-90185139D01*
X195600000Y-90190000D01*
X195600000Y-91690000D01*
X195599032Y-91694863D01*
X195593212Y-91745040D01*
X195585641Y-91762185D01*
X195580970Y-91785671D01*
X195564169Y-91810815D01*
X195555391Y-91830696D01*
X195541812Y-91844274D01*
X195526777Y-91866777D01*
X195504274Y-91881812D01*
X195490696Y-91895391D01*
X195470815Y-91904169D01*
X195445671Y-91920970D01*
X195422185Y-91925641D01*
X195405040Y-91933212D01*
X195354861Y-91939032D01*
X195350000Y-91940000D01*
X193850000Y-91940000D01*
X193845138Y-91939032D01*
X193794959Y-91933212D01*
X193777812Y-91925641D01*
X193754329Y-91920970D01*
X193729186Y-91904170D01*
X193709303Y-91895391D01*
X193695722Y-91881810D01*
X193673223Y-91866777D01*
X193658189Y-91844277D01*
X193644608Y-91830696D01*
X193635827Y-91810810D01*
X193619030Y-91785671D01*
X193614359Y-91762189D01*
X193606787Y-91745040D01*
X193600964Y-91694849D01*
X193600000Y-91690000D01*
X193600000Y-90190000D01*
X193600964Y-90185150D01*
X193606787Y-90134959D01*
X193614359Y-90117808D01*
X193619030Y-90094329D01*
X193635826Y-90069191D01*
X193644608Y-90049303D01*
X193658191Y-90035719D01*
X193673223Y-90013223D01*
X193695719Y-89998191D01*
X193709303Y-89984608D01*
X193729191Y-89975826D01*
X193754329Y-89959030D01*
X193777808Y-89954359D01*
X193794959Y-89946787D01*
X193845151Y-89940964D01*
X193850000Y-89940000D01*
X195350000Y-89940000D01*
X195354850Y-89940964D01*
G37*
G36*
X150090285Y-89543060D02*
G01*
X150271397Y-89618079D01*
X150434393Y-89726990D01*
X150573010Y-89865607D01*
X150681921Y-90028603D01*
X150756940Y-90209715D01*
X150795185Y-90401983D01*
X150795185Y-90598017D01*
X150756940Y-90790285D01*
X150681921Y-90971397D01*
X150573010Y-91134393D01*
X150434393Y-91273010D01*
X150271397Y-91381921D01*
X150090285Y-91456940D01*
X149898017Y-91495185D01*
X149701983Y-91495185D01*
X149509715Y-91456940D01*
X149328603Y-91381921D01*
X149165607Y-91273010D01*
X149026990Y-91134393D01*
X148918079Y-90971397D01*
X148843060Y-90790285D01*
X148804815Y-90598017D01*
X148804815Y-90401983D01*
X148843060Y-90209715D01*
X148918079Y-90028603D01*
X149026990Y-89865607D01*
X149165607Y-89726990D01*
X149328603Y-89618079D01*
X149509715Y-89543060D01*
X149701983Y-89504815D01*
X149898017Y-89504815D01*
X150090285Y-89543060D01*
G37*
G36*
X194890285Y-87443060D02*
G01*
X195071397Y-87518079D01*
X195234393Y-87626990D01*
X195373010Y-87765607D01*
X195481921Y-87928603D01*
X195556940Y-88109715D01*
X195595185Y-88301983D01*
X195595185Y-88498017D01*
X195556940Y-88690285D01*
X195481921Y-88871397D01*
X195373010Y-89034393D01*
X195234393Y-89173010D01*
X195071397Y-89281921D01*
X194890285Y-89356940D01*
X194698017Y-89395185D01*
X194501983Y-89395185D01*
X194309715Y-89356940D01*
X194128603Y-89281921D01*
X193965607Y-89173010D01*
X193826990Y-89034393D01*
X193718079Y-88871397D01*
X193643060Y-88690285D01*
X193604815Y-88498017D01*
X193604815Y-88301983D01*
X193643060Y-88109715D01*
X193718079Y-87928603D01*
X193826990Y-87765607D01*
X193965607Y-87626990D01*
X194128603Y-87518079D01*
X194309715Y-87443060D01*
X194501983Y-87404815D01*
X194698017Y-87404815D01*
X194890285Y-87443060D01*
G37*
G36*
X150090285Y-87003060D02*
G01*
X150271397Y-87078079D01*
X150434393Y-87186990D01*
X150573010Y-87325607D01*
X150681921Y-87488603D01*
X150756940Y-87669715D01*
X150795185Y-87861983D01*
X150795185Y-88058017D01*
X150756940Y-88250285D01*
X150681921Y-88431397D01*
X150573010Y-88594393D01*
X150434393Y-88733010D01*
X150271397Y-88841921D01*
X150090285Y-88916940D01*
X149898017Y-88955185D01*
X149701983Y-88955185D01*
X149509715Y-88916940D01*
X149328603Y-88841921D01*
X149165607Y-88733010D01*
X149026990Y-88594393D01*
X148918079Y-88431397D01*
X148843060Y-88250285D01*
X148804815Y-88058017D01*
X148804815Y-87861983D01*
X148843060Y-87669715D01*
X148918079Y-87488603D01*
X149026990Y-87325607D01*
X149165607Y-87186990D01*
X149328603Y-87078079D01*
X149509715Y-87003060D01*
X149701983Y-86964815D01*
X149898017Y-86964815D01*
X150090285Y-87003060D01*
G37*
G36*
X194890285Y-84903060D02*
G01*
X195071397Y-84978079D01*
X195234393Y-85086990D01*
X195373010Y-85225607D01*
X195481921Y-85388603D01*
X195556940Y-85569715D01*
X195595185Y-85761983D01*
X195595185Y-85958017D01*
X195556940Y-86150285D01*
X195481921Y-86331397D01*
X195373010Y-86494393D01*
X195234393Y-86633010D01*
X195071397Y-86741921D01*
X194890285Y-86816940D01*
X194698017Y-86855185D01*
X194501983Y-86855185D01*
X194309715Y-86816940D01*
X194128603Y-86741921D01*
X193965607Y-86633010D01*
X193826990Y-86494393D01*
X193718079Y-86331397D01*
X193643060Y-86150285D01*
X193604815Y-85958017D01*
X193604815Y-85761983D01*
X193643060Y-85569715D01*
X193718079Y-85388603D01*
X193826990Y-85225607D01*
X193965607Y-85086990D01*
X194128603Y-84978079D01*
X194309715Y-84903060D01*
X194501983Y-84864815D01*
X194698017Y-84864815D01*
X194890285Y-84903060D01*
G37*
G36*
X150554850Y-84420964D02*
G01*
X150605040Y-84426787D01*
X150622189Y-84434359D01*
X150645671Y-84439030D01*
X150670810Y-84455827D01*
X150690696Y-84464608D01*
X150704277Y-84478189D01*
X150726777Y-84493223D01*
X150741810Y-84515722D01*
X150755391Y-84529303D01*
X150764170Y-84549186D01*
X150780970Y-84574329D01*
X150785641Y-84597812D01*
X150793212Y-84614959D01*
X150799033Y-84665139D01*
X150800000Y-84670000D01*
X150800000Y-86170000D01*
X150799032Y-86174863D01*
X150793212Y-86225040D01*
X150785641Y-86242185D01*
X150780970Y-86265671D01*
X150764169Y-86290815D01*
X150755391Y-86310696D01*
X150741812Y-86324274D01*
X150726777Y-86346777D01*
X150704274Y-86361812D01*
X150690696Y-86375391D01*
X150670815Y-86384169D01*
X150645671Y-86400970D01*
X150622185Y-86405641D01*
X150605040Y-86413212D01*
X150554861Y-86419032D01*
X150550000Y-86420000D01*
X149050000Y-86420000D01*
X149045138Y-86419032D01*
X148994959Y-86413212D01*
X148977812Y-86405641D01*
X148954329Y-86400970D01*
X148929186Y-86384170D01*
X148909303Y-86375391D01*
X148895722Y-86361810D01*
X148873223Y-86346777D01*
X148858189Y-86324277D01*
X148844608Y-86310696D01*
X148835827Y-86290810D01*
X148819030Y-86265671D01*
X148814359Y-86242189D01*
X148806787Y-86225040D01*
X148800964Y-86174849D01*
X148800000Y-86170000D01*
X148800000Y-84670000D01*
X148800964Y-84665150D01*
X148806787Y-84614959D01*
X148814359Y-84597808D01*
X148819030Y-84574329D01*
X148835826Y-84549191D01*
X148844608Y-84529303D01*
X148858191Y-84515719D01*
X148873223Y-84493223D01*
X148895719Y-84478191D01*
X148909303Y-84464608D01*
X148929191Y-84455826D01*
X148954329Y-84439030D01*
X148977808Y-84434359D01*
X148994959Y-84426787D01*
X149045151Y-84420964D01*
X149050000Y-84420000D01*
X150550000Y-84420000D01*
X150554850Y-84420964D01*
G37*
G36*
X150690000Y-78950000D02*
G01*
X148990000Y-78950000D01*
X148990000Y-77250000D01*
X150690000Y-77250000D01*
X150690000Y-78950000D01*
G37*
G36*
X152626742Y-77286601D02*
G01*
X152780687Y-77350367D01*
X152919234Y-77442941D01*
X153037059Y-77560766D01*
X153129633Y-77699313D01*
X153193399Y-77853258D01*
X153225907Y-78016685D01*
X153225907Y-78183315D01*
X153193399Y-78346742D01*
X153129633Y-78500687D01*
X153037059Y-78639234D01*
X152919234Y-78757059D01*
X152780687Y-78849633D01*
X152626742Y-78913399D01*
X152463315Y-78945907D01*
X152296685Y-78945907D01*
X152133258Y-78913399D01*
X151979313Y-78849633D01*
X151840766Y-78757059D01*
X151722941Y-78639234D01*
X151630367Y-78500687D01*
X151566601Y-78346742D01*
X151534093Y-78183315D01*
X151534093Y-78016685D01*
X151566601Y-77853258D01*
X151630367Y-77699313D01*
X151722941Y-77560766D01*
X151840766Y-77442941D01*
X151979313Y-77350367D01*
X152133258Y-77286601D01*
X152296685Y-77254093D01*
X152463315Y-77254093D01*
X152626742Y-77286601D01*
G37*
G36*
X155166742Y-77286601D02*
G01*
X155320687Y-77350367D01*
X155459234Y-77442941D01*
X155577059Y-77560766D01*
X155669633Y-77699313D01*
X155733399Y-77853258D01*
X155765907Y-78016685D01*
X155765907Y-78183315D01*
X155733399Y-78346742D01*
X155669633Y-78500687D01*
X155577059Y-78639234D01*
X155459234Y-78757059D01*
X155320687Y-78849633D01*
X155166742Y-78913399D01*
X155003315Y-78945907D01*
X154836685Y-78945907D01*
X154673258Y-78913399D01*
X154519313Y-78849633D01*
X154380766Y-78757059D01*
X154262941Y-78639234D01*
X154170367Y-78500687D01*
X154106601Y-78346742D01*
X154074093Y-78183315D01*
X154074093Y-78016685D01*
X154106601Y-77853258D01*
X154170367Y-77699313D01*
X154262941Y-77560766D01*
X154380766Y-77442941D01*
X154519313Y-77350367D01*
X154673258Y-77286601D01*
X154836685Y-77254093D01*
X155003315Y-77254093D01*
X155166742Y-77286601D01*
G37*
G36*
X157706742Y-77286601D02*
G01*
X157860687Y-77350367D01*
X157999234Y-77442941D01*
X158117059Y-77560766D01*
X158209633Y-77699313D01*
X158273399Y-77853258D01*
X158305907Y-78016685D01*
X158305907Y-78183315D01*
X158273399Y-78346742D01*
X158209633Y-78500687D01*
X158117059Y-78639234D01*
X157999234Y-78757059D01*
X157860687Y-78849633D01*
X157706742Y-78913399D01*
X157543315Y-78945907D01*
X157376685Y-78945907D01*
X157213258Y-78913399D01*
X157059313Y-78849633D01*
X156920766Y-78757059D01*
X156802941Y-78639234D01*
X156710367Y-78500687D01*
X156646601Y-78346742D01*
X156614093Y-78183315D01*
X156614093Y-78016685D01*
X156646601Y-77853258D01*
X156710367Y-77699313D01*
X156802941Y-77560766D01*
X156920766Y-77442941D01*
X157059313Y-77350367D01*
X157213258Y-77286601D01*
X157376685Y-77254093D01*
X157543315Y-77254093D01*
X157706742Y-77286601D01*
G37*
G36*
X160246742Y-77286601D02*
G01*
X160400687Y-77350367D01*
X160539234Y-77442941D01*
X160657059Y-77560766D01*
X160749633Y-77699313D01*
X160813399Y-77853258D01*
X160845907Y-78016685D01*
X160845907Y-78183315D01*
X160813399Y-78346742D01*
X160749633Y-78500687D01*
X160657059Y-78639234D01*
X160539234Y-78757059D01*
X160400687Y-78849633D01*
X160246742Y-78913399D01*
X160083315Y-78945907D01*
X159916685Y-78945907D01*
X159753258Y-78913399D01*
X159599313Y-78849633D01*
X159460766Y-78757059D01*
X159342941Y-78639234D01*
X159250367Y-78500687D01*
X159186601Y-78346742D01*
X159154093Y-78183315D01*
X159154093Y-78016685D01*
X159186601Y-77853258D01*
X159250367Y-77699313D01*
X159342941Y-77560766D01*
X159460766Y-77442941D01*
X159599313Y-77350367D01*
X159753258Y-77286601D01*
X159916685Y-77254093D01*
X160083315Y-77254093D01*
X160246742Y-77286601D01*
G37*
G36*
X162786742Y-77286601D02*
G01*
X162940687Y-77350367D01*
X163079234Y-77442941D01*
X163197059Y-77560766D01*
X163289633Y-77699313D01*
X163353399Y-77853258D01*
X163385907Y-78016685D01*
X163385907Y-78183315D01*
X163353399Y-78346742D01*
X163289633Y-78500687D01*
X163197059Y-78639234D01*
X163079234Y-78757059D01*
X162940687Y-78849633D01*
X162786742Y-78913399D01*
X162623315Y-78945907D01*
X162456685Y-78945907D01*
X162293258Y-78913399D01*
X162139313Y-78849633D01*
X162000766Y-78757059D01*
X161882941Y-78639234D01*
X161790367Y-78500687D01*
X161726601Y-78346742D01*
X161694093Y-78183315D01*
X161694093Y-78016685D01*
X161726601Y-77853258D01*
X161790367Y-77699313D01*
X161882941Y-77560766D01*
X162000766Y-77442941D01*
X162139313Y-77350367D01*
X162293258Y-77286601D01*
X162456685Y-77254093D01*
X162623315Y-77254093D01*
X162786742Y-77286601D01*
G37*
G36*
X165326742Y-77286601D02*
G01*
X165480687Y-77350367D01*
X165619234Y-77442941D01*
X165737059Y-77560766D01*
X165829633Y-77699313D01*
X165893399Y-77853258D01*
X165925907Y-78016685D01*
X165925907Y-78183315D01*
X165893399Y-78346742D01*
X165829633Y-78500687D01*
X165737059Y-78639234D01*
X165619234Y-78757059D01*
X165480687Y-78849633D01*
X165326742Y-78913399D01*
X165163315Y-78945907D01*
X164996685Y-78945907D01*
X164833258Y-78913399D01*
X164679313Y-78849633D01*
X164540766Y-78757059D01*
X164422941Y-78639234D01*
X164330367Y-78500687D01*
X164266601Y-78346742D01*
X164234093Y-78183315D01*
X164234093Y-78016685D01*
X164266601Y-77853258D01*
X164330367Y-77699313D01*
X164422941Y-77560766D01*
X164540766Y-77442941D01*
X164679313Y-77350367D01*
X164833258Y-77286601D01*
X164996685Y-77254093D01*
X165163315Y-77254093D01*
X165326742Y-77286601D01*
G37*
G36*
X167866742Y-77286601D02*
G01*
X168020687Y-77350367D01*
X168159234Y-77442941D01*
X168277059Y-77560766D01*
X168369633Y-77699313D01*
X168433399Y-77853258D01*
X168465907Y-78016685D01*
X168465907Y-78183315D01*
X168433399Y-78346742D01*
X168369633Y-78500687D01*
X168277059Y-78639234D01*
X168159234Y-78757059D01*
X168020687Y-78849633D01*
X167866742Y-78913399D01*
X167703315Y-78945907D01*
X167536685Y-78945907D01*
X167373258Y-78913399D01*
X167219313Y-78849633D01*
X167080766Y-78757059D01*
X166962941Y-78639234D01*
X166870367Y-78500687D01*
X166806601Y-78346742D01*
X166774093Y-78183315D01*
X166774093Y-78016685D01*
X166806601Y-77853258D01*
X166870367Y-77699313D01*
X166962941Y-77560766D01*
X167080766Y-77442941D01*
X167219313Y-77350367D01*
X167373258Y-77286601D01*
X167536685Y-77254093D01*
X167703315Y-77254093D01*
X167866742Y-77286601D01*
G37*
G36*
X159354850Y-68800964D02*
G01*
X159405040Y-68806787D01*
X159422189Y-68814359D01*
X159445671Y-68819030D01*
X159470810Y-68835827D01*
X159490696Y-68844608D01*
X159504277Y-68858189D01*
X159526777Y-68873223D01*
X159541810Y-68895722D01*
X159555391Y-68909303D01*
X159564170Y-68929186D01*
X159580970Y-68954329D01*
X159585641Y-68977812D01*
X159593212Y-68994959D01*
X159599033Y-69045139D01*
X159600000Y-69050000D01*
X159600000Y-70550000D01*
X159599032Y-70554863D01*
X159593212Y-70605040D01*
X159585641Y-70622185D01*
X159580970Y-70645671D01*
X159564169Y-70670815D01*
X159555391Y-70690696D01*
X159541812Y-70704274D01*
X159526777Y-70726777D01*
X159504274Y-70741812D01*
X159490696Y-70755391D01*
X159470815Y-70764169D01*
X159445671Y-70780970D01*
X159422185Y-70785641D01*
X159405040Y-70793212D01*
X159354861Y-70799032D01*
X159350000Y-70800000D01*
X157850000Y-70800000D01*
X157845138Y-70799032D01*
X157794959Y-70793212D01*
X157777812Y-70785641D01*
X157754329Y-70780970D01*
X157729186Y-70764170D01*
X157709303Y-70755391D01*
X157695722Y-70741810D01*
X157673223Y-70726777D01*
X157658189Y-70704277D01*
X157644608Y-70690696D01*
X157635827Y-70670810D01*
X157619030Y-70645671D01*
X157614359Y-70622189D01*
X157606787Y-70605040D01*
X157600964Y-70554849D01*
X157600000Y-70550000D01*
X157600000Y-69050000D01*
X157600964Y-69045150D01*
X157606787Y-68994959D01*
X157614359Y-68977808D01*
X157619030Y-68954329D01*
X157635826Y-68929191D01*
X157644608Y-68909303D01*
X157658191Y-68895719D01*
X157673223Y-68873223D01*
X157695719Y-68858191D01*
X157709303Y-68844608D01*
X157729191Y-68835826D01*
X157754329Y-68819030D01*
X157777808Y-68814359D01*
X157794959Y-68806787D01*
X157845151Y-68800964D01*
X157850000Y-68800000D01*
X159350000Y-68800000D01*
X159354850Y-68800964D01*
G37*
G36*
X169834850Y-68800964D02*
G01*
X169885040Y-68806787D01*
X169902189Y-68814359D01*
X169925671Y-68819030D01*
X169950810Y-68835827D01*
X169970696Y-68844608D01*
X169984277Y-68858189D01*
X170006777Y-68873223D01*
X170021810Y-68895722D01*
X170035391Y-68909303D01*
X170044170Y-68929186D01*
X170060970Y-68954329D01*
X170065641Y-68977812D01*
X170073212Y-68994959D01*
X170079033Y-69045139D01*
X170080000Y-69050000D01*
X170080000Y-70550000D01*
X170079032Y-70554863D01*
X170073212Y-70605040D01*
X170065641Y-70622185D01*
X170060970Y-70645671D01*
X170044169Y-70670815D01*
X170035391Y-70690696D01*
X170021812Y-70704274D01*
X170006777Y-70726777D01*
X169984274Y-70741812D01*
X169970696Y-70755391D01*
X169950815Y-70764169D01*
X169925671Y-70780970D01*
X169902185Y-70785641D01*
X169885040Y-70793212D01*
X169834861Y-70799032D01*
X169830000Y-70800000D01*
X168330000Y-70800000D01*
X168325138Y-70799032D01*
X168274959Y-70793212D01*
X168257812Y-70785641D01*
X168234329Y-70780970D01*
X168209186Y-70764170D01*
X168189303Y-70755391D01*
X168175722Y-70741810D01*
X168153223Y-70726777D01*
X168138189Y-70704277D01*
X168124608Y-70690696D01*
X168115827Y-70670810D01*
X168099030Y-70645671D01*
X168094359Y-70622189D01*
X168086787Y-70605040D01*
X168080964Y-70554849D01*
X168080000Y-70550000D01*
X168080000Y-69050000D01*
X168080964Y-69045150D01*
X168086787Y-68994959D01*
X168094359Y-68977808D01*
X168099030Y-68954329D01*
X168115826Y-68929191D01*
X168124608Y-68909303D01*
X168138191Y-68895719D01*
X168153223Y-68873223D01*
X168175719Y-68858191D01*
X168189303Y-68844608D01*
X168209191Y-68835826D01*
X168234329Y-68819030D01*
X168257808Y-68814359D01*
X168274959Y-68806787D01*
X168325151Y-68800964D01*
X168330000Y-68800000D01*
X169830000Y-68800000D01*
X169834850Y-68800964D01*
G37*
G36*
X177654850Y-68800964D02*
G01*
X177705040Y-68806787D01*
X177722189Y-68814359D01*
X177745671Y-68819030D01*
X177770810Y-68835827D01*
X177790696Y-68844608D01*
X177804277Y-68858189D01*
X177826777Y-68873223D01*
X177841810Y-68895722D01*
X177855391Y-68909303D01*
X177864170Y-68929186D01*
X177880970Y-68954329D01*
X177885641Y-68977812D01*
X177893212Y-68994959D01*
X177899033Y-69045139D01*
X177900000Y-69050000D01*
X177900000Y-70550000D01*
X177899032Y-70554863D01*
X177893212Y-70605040D01*
X177885641Y-70622185D01*
X177880970Y-70645671D01*
X177864169Y-70670815D01*
X177855391Y-70690696D01*
X177841812Y-70704274D01*
X177826777Y-70726777D01*
X177804274Y-70741812D01*
X177790696Y-70755391D01*
X177770815Y-70764169D01*
X177745671Y-70780970D01*
X177722185Y-70785641D01*
X177705040Y-70793212D01*
X177654861Y-70799032D01*
X177650000Y-70800000D01*
X176150000Y-70800000D01*
X176145138Y-70799032D01*
X176094959Y-70793212D01*
X176077812Y-70785641D01*
X176054329Y-70780970D01*
X176029186Y-70764170D01*
X176009303Y-70755391D01*
X175995722Y-70741810D01*
X175973223Y-70726777D01*
X175958189Y-70704277D01*
X175944608Y-70690696D01*
X175935827Y-70670810D01*
X175919030Y-70645671D01*
X175914359Y-70622189D01*
X175906787Y-70605040D01*
X175900964Y-70554849D01*
X175900000Y-70550000D01*
X175900000Y-69050000D01*
X175900964Y-69045150D01*
X175906787Y-68994959D01*
X175914359Y-68977808D01*
X175919030Y-68954329D01*
X175935826Y-68929191D01*
X175944608Y-68909303D01*
X175958191Y-68895719D01*
X175973223Y-68873223D01*
X175995719Y-68858191D01*
X176009303Y-68844608D01*
X176029191Y-68835826D01*
X176054329Y-68819030D01*
X176077808Y-68814359D01*
X176094959Y-68806787D01*
X176145151Y-68800964D01*
X176150000Y-68800000D01*
X177650000Y-68800000D01*
X177654850Y-68800964D01*
G37*
G36*
X156350285Y-68843060D02*
G01*
X156531397Y-68918079D01*
X156694393Y-69026990D01*
X156833010Y-69165607D01*
X156941921Y-69328603D01*
X157016940Y-69509715D01*
X157055185Y-69701983D01*
X157055185Y-69898017D01*
X157016940Y-70090285D01*
X156941921Y-70271397D01*
X156833010Y-70434393D01*
X156694393Y-70573010D01*
X156531397Y-70681921D01*
X156350285Y-70756940D01*
X156158017Y-70795185D01*
X155961983Y-70795185D01*
X155769715Y-70756940D01*
X155588603Y-70681921D01*
X155425607Y-70573010D01*
X155286990Y-70434393D01*
X155178079Y-70271397D01*
X155103060Y-70090285D01*
X155064815Y-69898017D01*
X155064815Y-69701983D01*
X155103060Y-69509715D01*
X155178079Y-69328603D01*
X155286990Y-69165607D01*
X155425607Y-69026990D01*
X155588603Y-68918079D01*
X155769715Y-68843060D01*
X155961983Y-68804815D01*
X156158017Y-68804815D01*
X156350285Y-68843060D01*
G37*
G36*
X164290285Y-68843060D02*
G01*
X164471397Y-68918079D01*
X164634393Y-69026990D01*
X164773010Y-69165607D01*
X164881921Y-69328603D01*
X164956940Y-69509715D01*
X164995185Y-69701983D01*
X164995185Y-69898017D01*
X164956940Y-70090285D01*
X164881921Y-70271397D01*
X164773010Y-70434393D01*
X164634393Y-70573010D01*
X164471397Y-70681921D01*
X164290285Y-70756940D01*
X164098017Y-70795185D01*
X163901983Y-70795185D01*
X163709715Y-70756940D01*
X163528603Y-70681921D01*
X163365607Y-70573010D01*
X163226990Y-70434393D01*
X163118079Y-70271397D01*
X163043060Y-70090285D01*
X163004815Y-69898017D01*
X163004815Y-69701983D01*
X163043060Y-69509715D01*
X163118079Y-69328603D01*
X163226990Y-69165607D01*
X163365607Y-69026990D01*
X163528603Y-68918079D01*
X163709715Y-68843060D01*
X163901983Y-68804815D01*
X164098017Y-68804815D01*
X164290285Y-68843060D01*
G37*
G36*
X166830285Y-68843060D02*
G01*
X167011397Y-68918079D01*
X167174393Y-69026990D01*
X167313010Y-69165607D01*
X167421921Y-69328603D01*
X167496940Y-69509715D01*
X167535185Y-69701983D01*
X167535185Y-69898017D01*
X167496940Y-70090285D01*
X167421921Y-70271397D01*
X167313010Y-70434393D01*
X167174393Y-70573010D01*
X167011397Y-70681921D01*
X166830285Y-70756940D01*
X166638017Y-70795185D01*
X166441983Y-70795185D01*
X166249715Y-70756940D01*
X166068603Y-70681921D01*
X165905607Y-70573010D01*
X165766990Y-70434393D01*
X165658079Y-70271397D01*
X165583060Y-70090285D01*
X165544815Y-69898017D01*
X165544815Y-69701983D01*
X165583060Y-69509715D01*
X165658079Y-69328603D01*
X165766990Y-69165607D01*
X165905607Y-69026990D01*
X166068603Y-68918079D01*
X166249715Y-68843060D01*
X166441983Y-68804815D01*
X166638017Y-68804815D01*
X166830285Y-68843060D01*
G37*
G36*
X174650285Y-68843060D02*
G01*
X174831397Y-68918079D01*
X174994393Y-69026990D01*
X175133010Y-69165607D01*
X175241921Y-69328603D01*
X175316940Y-69509715D01*
X175355185Y-69701983D01*
X175355185Y-69898017D01*
X175316940Y-70090285D01*
X175241921Y-70271397D01*
X175133010Y-70434393D01*
X174994393Y-70573010D01*
X174831397Y-70681921D01*
X174650285Y-70756940D01*
X174458017Y-70795185D01*
X174261983Y-70795185D01*
X174069715Y-70756940D01*
X173888603Y-70681921D01*
X173725607Y-70573010D01*
X173586990Y-70434393D01*
X173478079Y-70271397D01*
X173403060Y-70090285D01*
X173364815Y-69898017D01*
X173364815Y-69701983D01*
X173403060Y-69509715D01*
X173478079Y-69328603D01*
X173586990Y-69165607D01*
X173725607Y-69026990D01*
X173888603Y-68918079D01*
X174069715Y-68843060D01*
X174261983Y-68804815D01*
X174458017Y-68804815D01*
X174650285Y-68843060D01*
G37*
G36*
X148192687Y-67155056D02*
G01*
X148202918Y-67155056D01*
X148242893Y-67163007D01*
X148345074Y-67179191D01*
X148377943Y-67189870D01*
X148404799Y-67195213D01*
X148442700Y-67210912D01*
X148501741Y-67230096D01*
X148557052Y-67258278D01*
X148594967Y-67273983D01*
X148617742Y-67289201D01*
X148648528Y-67304887D01*
X148732217Y-67365690D01*
X148766113Y-67388339D01*
X148773347Y-67395573D01*
X148781798Y-67401713D01*
X148898286Y-67518201D01*
X148904425Y-67526651D01*
X148911661Y-67533887D01*
X148934312Y-67567787D01*
X148995112Y-67651471D01*
X149010796Y-67682254D01*
X149026017Y-67705033D01*
X149041723Y-67742952D01*
X149069903Y-67798258D01*
X149089084Y-67857292D01*
X149104787Y-67895201D01*
X149110130Y-67922062D01*
X149120808Y-67954925D01*
X149136990Y-68057098D01*
X149144944Y-68097082D01*
X149144944Y-68107313D01*
X149146578Y-68117630D01*
X149146578Y-68282369D01*
X149144944Y-68292685D01*
X149144944Y-68302918D01*
X149136990Y-68342905D01*
X149120808Y-68445074D01*
X149110130Y-68477935D01*
X149104787Y-68504799D01*
X149089083Y-68542711D01*
X149069903Y-68601741D01*
X149041726Y-68657041D01*
X149026017Y-68694967D01*
X149010794Y-68717749D01*
X148995112Y-68748528D01*
X148934320Y-68832200D01*
X148911661Y-68866113D01*
X148904423Y-68873350D01*
X148898286Y-68881798D01*
X148781798Y-68998286D01*
X148773350Y-69004423D01*
X148766113Y-69011661D01*
X148732200Y-69034320D01*
X148648528Y-69095112D01*
X148617749Y-69110794D01*
X148594967Y-69126017D01*
X148557041Y-69141726D01*
X148501741Y-69169903D01*
X148442711Y-69189083D01*
X148404799Y-69204787D01*
X148377935Y-69210130D01*
X148345074Y-69220808D01*
X148242902Y-69236990D01*
X148202918Y-69244944D01*
X148192687Y-69244944D01*
X148182370Y-69246578D01*
X148017630Y-69246578D01*
X148007313Y-69244944D01*
X147997082Y-69244944D01*
X147957098Y-69236990D01*
X147854925Y-69220808D01*
X147822062Y-69210130D01*
X147795201Y-69204787D01*
X147757292Y-69189084D01*
X147698258Y-69169903D01*
X147642952Y-69141723D01*
X147605033Y-69126017D01*
X147582254Y-69110796D01*
X147551471Y-69095112D01*
X147467787Y-69034312D01*
X147433887Y-69011661D01*
X147426651Y-69004425D01*
X147418201Y-68998286D01*
X147301713Y-68881798D01*
X147295573Y-68873347D01*
X147288339Y-68866113D01*
X147265690Y-68832217D01*
X147204887Y-68748528D01*
X147189201Y-68717742D01*
X147173983Y-68694967D01*
X147158278Y-68657052D01*
X147130096Y-68601741D01*
X147110912Y-68542700D01*
X147095213Y-68504799D01*
X147089870Y-68477943D01*
X147079191Y-68445074D01*
X147063008Y-68342895D01*
X147055056Y-68302918D01*
X147055056Y-68292686D01*
X147053422Y-68282369D01*
X147053422Y-68117630D01*
X147055056Y-68107312D01*
X147055056Y-68097082D01*
X147063007Y-68057108D01*
X147079191Y-67954925D01*
X147089871Y-67922054D01*
X147095213Y-67895201D01*
X147110910Y-67857303D01*
X147130096Y-67798258D01*
X147158280Y-67742942D01*
X147173983Y-67705033D01*
X147189199Y-67682260D01*
X147204887Y-67651471D01*
X147265699Y-67567770D01*
X147288339Y-67533887D01*
X147295570Y-67526655D01*
X147301713Y-67518201D01*
X147418201Y-67401713D01*
X147426655Y-67395570D01*
X147433887Y-67388339D01*
X147467770Y-67365699D01*
X147551471Y-67304887D01*
X147582260Y-67289199D01*
X147605033Y-67273983D01*
X147642942Y-67258280D01*
X147698258Y-67230096D01*
X147757303Y-67210910D01*
X147795201Y-67195213D01*
X147822054Y-67189871D01*
X147854925Y-67179191D01*
X147957108Y-67163007D01*
X147997082Y-67155056D01*
X148007313Y-67155056D01*
X148017630Y-67153422D01*
X148182370Y-67153422D01*
X148192687Y-67155056D01*
G37*
G36*
X196542687Y-67105056D02*
G01*
X196552918Y-67105056D01*
X196592893Y-67113007D01*
X196695074Y-67129191D01*
X196727943Y-67139870D01*
X196754799Y-67145213D01*
X196792700Y-67160912D01*
X196851741Y-67180096D01*
X196907052Y-67208278D01*
X196944967Y-67223983D01*
X196967742Y-67239201D01*
X196998528Y-67254887D01*
X197082217Y-67315690D01*
X197116113Y-67338339D01*
X197123347Y-67345573D01*
X197131798Y-67351713D01*
X197248286Y-67468201D01*
X197254425Y-67476651D01*
X197261661Y-67483887D01*
X197284312Y-67517787D01*
X197345112Y-67601471D01*
X197360796Y-67632254D01*
X197376017Y-67655033D01*
X197391723Y-67692952D01*
X197419903Y-67748258D01*
X197439084Y-67807292D01*
X197454787Y-67845201D01*
X197460130Y-67872062D01*
X197470808Y-67904925D01*
X197486990Y-68007098D01*
X197494944Y-68047082D01*
X197494944Y-68057313D01*
X197496578Y-68067630D01*
X197496578Y-68232369D01*
X197494944Y-68242685D01*
X197494944Y-68252918D01*
X197486990Y-68292905D01*
X197470808Y-68395074D01*
X197460130Y-68427935D01*
X197454787Y-68454799D01*
X197439083Y-68492711D01*
X197419903Y-68551741D01*
X197391726Y-68607041D01*
X197376017Y-68644967D01*
X197360794Y-68667749D01*
X197345112Y-68698528D01*
X197284320Y-68782200D01*
X197261661Y-68816113D01*
X197254423Y-68823350D01*
X197248286Y-68831798D01*
X197131798Y-68948286D01*
X197123350Y-68954423D01*
X197116113Y-68961661D01*
X197082200Y-68984320D01*
X196998528Y-69045112D01*
X196967749Y-69060794D01*
X196944967Y-69076017D01*
X196907041Y-69091726D01*
X196851741Y-69119903D01*
X196792711Y-69139083D01*
X196754799Y-69154787D01*
X196727935Y-69160130D01*
X196695074Y-69170808D01*
X196592902Y-69186990D01*
X196552918Y-69194944D01*
X196542687Y-69194944D01*
X196532370Y-69196578D01*
X196367630Y-69196578D01*
X196357313Y-69194944D01*
X196347082Y-69194944D01*
X196307098Y-69186990D01*
X196204925Y-69170808D01*
X196172062Y-69160130D01*
X196145201Y-69154787D01*
X196107292Y-69139084D01*
X196048258Y-69119903D01*
X195992952Y-69091723D01*
X195955033Y-69076017D01*
X195932254Y-69060796D01*
X195901471Y-69045112D01*
X195817787Y-68984312D01*
X195783887Y-68961661D01*
X195776651Y-68954425D01*
X195768201Y-68948286D01*
X195651713Y-68831798D01*
X195645573Y-68823347D01*
X195638339Y-68816113D01*
X195615690Y-68782217D01*
X195554887Y-68698528D01*
X195539201Y-68667742D01*
X195523983Y-68644967D01*
X195508278Y-68607052D01*
X195480096Y-68551741D01*
X195460912Y-68492700D01*
X195445213Y-68454799D01*
X195439870Y-68427943D01*
X195429191Y-68395074D01*
X195413008Y-68292895D01*
X195405056Y-68252918D01*
X195405056Y-68242686D01*
X195403422Y-68232369D01*
X195403422Y-68067630D01*
X195405056Y-68057312D01*
X195405056Y-68047082D01*
X195413007Y-68007108D01*
X195429191Y-67904925D01*
X195439871Y-67872054D01*
X195445213Y-67845201D01*
X195460910Y-67807303D01*
X195480096Y-67748258D01*
X195508280Y-67692942D01*
X195523983Y-67655033D01*
X195539199Y-67632260D01*
X195554887Y-67601471D01*
X195615699Y-67517770D01*
X195638339Y-67483887D01*
X195645570Y-67476655D01*
X195651713Y-67468201D01*
X195768201Y-67351713D01*
X195776655Y-67345570D01*
X195783887Y-67338339D01*
X195817770Y-67315699D01*
X195901471Y-67254887D01*
X195932260Y-67239199D01*
X195955033Y-67223983D01*
X195992942Y-67208280D01*
X196048258Y-67180096D01*
X196107303Y-67160910D01*
X196145201Y-67145213D01*
X196172054Y-67139871D01*
X196204925Y-67129191D01*
X196307108Y-67113007D01*
X196347082Y-67105056D01*
X196357313Y-67105056D01*
X196367630Y-67103422D01*
X196532370Y-67103422D01*
X196542687Y-67105056D01*
G37*
M02*
