%TF.GenerationSoftware,KiCad,Pcbnew,9.0.2*%
%TF.CreationDate,2026-04-21T03:23:11-04:00*%
%TF.ProjectId,TurbineMCU,54757262-696e-4654-9d43-552e6b696361,rev?*%
%TF.SameCoordinates,Original*%
%TF.FileFunction,Soldermask,Top*%
%TF.FilePolarity,Negative*%
%FSLAX46Y46*%
G04 Gerber Fmt 4.6, Leading zero omitted, Abs format (unit mm)*
G04 Created by KiCad (PCBNEW 9.0.2) date 2026-04-21 03:23:11*
%MOMM*%
%LPD*%
G01*
G04 APERTURE LIST*
G04 APERTURE END LIST*
G36*
X152390285Y-117343060D02*
G01*
X152571397Y-117418079D01*
X152734393Y-117526990D01*
X152873010Y-117665607D01*
X152981921Y-117828603D01*
X153056940Y-118009715D01*
X153095185Y-118201983D01*
X153095185Y-118398017D01*
X153056940Y-118590285D01*
X152981921Y-118771397D01*
X152873010Y-118934393D01*
X152734393Y-119073010D01*
X152571397Y-119181921D01*
X152390285Y-119256940D01*
X152198017Y-119295185D01*
X152001983Y-119295185D01*
X151809715Y-119256940D01*
X151628603Y-119181921D01*
X151465607Y-119073010D01*
X151326990Y-118934393D01*
X151218079Y-118771397D01*
X151143060Y-118590285D01*
X151104815Y-118398017D01*
X151104815Y-118201983D01*
X151143060Y-118009715D01*
X151218079Y-117828603D01*
X151326990Y-117665607D01*
X151465607Y-117526990D01*
X151628603Y-117418079D01*
X151809715Y-117343060D01*
X152001983Y-117304815D01*
X152198017Y-117304815D01*
X152390285Y-117343060D01*
G37*
G36*
X158890285Y-117343060D02*
G01*
X159071397Y-117418079D01*
X159234393Y-117526990D01*
X159373010Y-117665607D01*
X159481921Y-117828603D01*
X159556940Y-118009715D01*
X159595185Y-118201983D01*
X159595185Y-118398017D01*
X159556940Y-118590285D01*
X159481921Y-118771397D01*
X159373010Y-118934393D01*
X159234393Y-119073010D01*
X159071397Y-119181921D01*
X158890285Y-119256940D01*
X158698017Y-119295185D01*
X158501983Y-119295185D01*
X158309715Y-119256940D01*
X158128603Y-119181921D01*
X157965607Y-119073010D01*
X157826990Y-118934393D01*
X157718079Y-118771397D01*
X157643060Y-118590285D01*
X157604815Y-118398017D01*
X157604815Y-118201983D01*
X157643060Y-118009715D01*
X157718079Y-117828603D01*
X157826990Y-117665607D01*
X157965607Y-117526990D01*
X158128603Y-117418079D01*
X158309715Y-117343060D01*
X158501983Y-117304815D01*
X158698017Y-117304815D01*
X158890285Y-117343060D01*
G37*
G36*
X186040285Y-117293060D02*
G01*
X186221397Y-117368079D01*
X186384393Y-117476990D01*
X186523010Y-117615607D01*
X186631921Y-117778603D01*
X186706940Y-117959715D01*
X186745185Y-118151983D01*
X186745185Y-118348017D01*
X186706940Y-118540285D01*
X186631921Y-118721397D01*
X186523010Y-118884393D01*
X186384393Y-119023010D01*
X186221397Y-119131921D01*
X186040285Y-119206940D01*
X185848017Y-119245185D01*
X185651983Y-119245185D01*
X185459715Y-119206940D01*
X185278603Y-119131921D01*
X185115607Y-119023010D01*
X184976990Y-118884393D01*
X184868079Y-118721397D01*
X184793060Y-118540285D01*
X184754815Y-118348017D01*
X184754815Y-118151983D01*
X184793060Y-117959715D01*
X184868079Y-117778603D01*
X184976990Y-117615607D01*
X185115607Y-117476990D01*
X185278603Y-117368079D01*
X185459715Y-117293060D01*
X185651983Y-117254815D01*
X185848017Y-117254815D01*
X186040285Y-117293060D01*
G37*
G36*
X192540285Y-117293060D02*
G01*
X192721397Y-117368079D01*
X192884393Y-117476990D01*
X193023010Y-117615607D01*
X193131921Y-117778603D01*
X193206940Y-117959715D01*
X193245185Y-118151983D01*
X193245185Y-118348017D01*
X193206940Y-118540285D01*
X193131921Y-118721397D01*
X193023010Y-118884393D01*
X192884393Y-119023010D01*
X192721397Y-119131921D01*
X192540285Y-119206940D01*
X192348017Y-119245185D01*
X192151983Y-119245185D01*
X191959715Y-119206940D01*
X191778603Y-119131921D01*
X191615607Y-119023010D01*
X191476990Y-118884393D01*
X191368079Y-118721397D01*
X191293060Y-118540285D01*
X191254815Y-118348017D01*
X191254815Y-118151983D01*
X191293060Y-117959715D01*
X191368079Y-117778603D01*
X191476990Y-117615607D01*
X191615607Y-117476990D01*
X191778603Y-117368079D01*
X191959715Y-117293060D01*
X192151983Y-117254815D01*
X192348017Y-117254815D01*
X192540285Y-117293060D01*
G37*
G36*
X148092687Y-116555056D02*
G01*
X148102918Y-116555056D01*
X148142893Y-116563007D01*
X148245074Y-116579191D01*
X148277943Y-116589870D01*
X148304799Y-116595213D01*
X148342700Y-116610912D01*
X148401741Y-116630096D01*
X148457052Y-116658278D01*
X148494967Y-116673983D01*
X148517742Y-116689201D01*
X148548528Y-116704887D01*
X148632217Y-116765690D01*
X148666113Y-116788339D01*
X148673347Y-116795573D01*
X148681798Y-116801713D01*
X148798286Y-116918201D01*
X148804425Y-116926651D01*
X148811661Y-116933887D01*
X148834312Y-116967787D01*
X148895112Y-117051471D01*
X148910796Y-117082254D01*
X148926017Y-117105033D01*
X148941723Y-117142952D01*
X148969903Y-117198258D01*
X148989084Y-117257292D01*
X149004787Y-117295201D01*
X149010130Y-117322062D01*
X149020808Y-117354925D01*
X149036990Y-117457098D01*
X149044944Y-117497082D01*
X149044944Y-117507313D01*
X149046578Y-117517630D01*
X149046578Y-117682369D01*
X149044944Y-117692685D01*
X149044944Y-117702918D01*
X149036990Y-117742905D01*
X149020808Y-117845074D01*
X149010130Y-117877935D01*
X149004787Y-117904799D01*
X148989083Y-117942711D01*
X148969903Y-118001741D01*
X148941726Y-118057041D01*
X148926017Y-118094967D01*
X148910794Y-118117749D01*
X148895112Y-118148528D01*
X148834320Y-118232200D01*
X148811661Y-118266113D01*
X148804423Y-118273350D01*
X148798286Y-118281798D01*
X148681798Y-118398286D01*
X148673350Y-118404423D01*
X148666113Y-118411661D01*
X148632200Y-118434320D01*
X148548528Y-118495112D01*
X148517749Y-118510794D01*
X148494967Y-118526017D01*
X148457041Y-118541726D01*
X148401741Y-118569903D01*
X148342711Y-118589083D01*
X148304799Y-118604787D01*
X148277935Y-118610130D01*
X148245074Y-118620808D01*
X148142902Y-118636990D01*
X148102918Y-118644944D01*
X148092687Y-118644944D01*
X148082370Y-118646578D01*
X147917630Y-118646578D01*
X147907313Y-118644944D01*
X147897082Y-118644944D01*
X147857098Y-118636990D01*
X147754925Y-118620808D01*
X147722062Y-118610130D01*
X147695201Y-118604787D01*
X147657292Y-118589084D01*
X147598258Y-118569903D01*
X147542952Y-118541723D01*
X147505033Y-118526017D01*
X147482254Y-118510796D01*
X147451471Y-118495112D01*
X147367787Y-118434312D01*
X147333887Y-118411661D01*
X147326651Y-118404425D01*
X147318201Y-118398286D01*
X147201713Y-118281798D01*
X147195573Y-118273347D01*
X147188339Y-118266113D01*
X147165690Y-118232217D01*
X147104887Y-118148528D01*
X147089201Y-118117742D01*
X147073983Y-118094967D01*
X147058278Y-118057052D01*
X147030096Y-118001741D01*
X147010912Y-117942700D01*
X146995213Y-117904799D01*
X146989870Y-117877943D01*
X146979191Y-117845074D01*
X146963008Y-117742895D01*
X146955056Y-117702918D01*
X146955056Y-117692686D01*
X146953422Y-117682369D01*
X146953422Y-117517630D01*
X146955056Y-117507312D01*
X146955056Y-117497082D01*
X146963007Y-117457108D01*
X146979191Y-117354925D01*
X146989871Y-117322054D01*
X146995213Y-117295201D01*
X147010910Y-117257303D01*
X147030096Y-117198258D01*
X147058280Y-117142942D01*
X147073983Y-117105033D01*
X147089199Y-117082260D01*
X147104887Y-117051471D01*
X147165699Y-116967770D01*
X147188339Y-116933887D01*
X147195570Y-116926655D01*
X147201713Y-116918201D01*
X147318201Y-116801713D01*
X147326655Y-116795570D01*
X147333887Y-116788339D01*
X147367770Y-116765699D01*
X147451471Y-116704887D01*
X147482260Y-116689199D01*
X147505033Y-116673983D01*
X147542942Y-116658280D01*
X147598258Y-116630096D01*
X147657303Y-116610910D01*
X147695201Y-116595213D01*
X147722054Y-116589871D01*
X147754925Y-116579191D01*
X147857108Y-116563007D01*
X147897082Y-116555056D01*
X147907313Y-116555056D01*
X147917630Y-116553422D01*
X148082370Y-116553422D01*
X148092687Y-116555056D01*
G37*
G36*
X196592687Y-116555056D02*
G01*
X196602918Y-116555056D01*
X196642893Y-116563007D01*
X196745074Y-116579191D01*
X196777943Y-116589870D01*
X196804799Y-116595213D01*
X196842700Y-116610912D01*
X196901741Y-116630096D01*
X196957052Y-116658278D01*
X196994967Y-116673983D01*
X197017742Y-116689201D01*
X197048528Y-116704887D01*
X197132217Y-116765690D01*
X197166113Y-116788339D01*
X197173347Y-116795573D01*
X197181798Y-116801713D01*
X197298286Y-116918201D01*
X197304425Y-116926651D01*
X197311661Y-116933887D01*
X197334312Y-116967787D01*
X197395112Y-117051471D01*
X197410796Y-117082254D01*
X197426017Y-117105033D01*
X197441723Y-117142952D01*
X197469903Y-117198258D01*
X197489084Y-117257292D01*
X197504787Y-117295201D01*
X197510130Y-117322062D01*
X197520808Y-117354925D01*
X197536990Y-117457098D01*
X197544944Y-117497082D01*
X197544944Y-117507313D01*
X197546578Y-117517630D01*
X197546578Y-117682369D01*
X197544944Y-117692685D01*
X197544944Y-117702918D01*
X197536990Y-117742905D01*
X197520808Y-117845074D01*
X197510130Y-117877935D01*
X197504787Y-117904799D01*
X197489083Y-117942711D01*
X197469903Y-118001741D01*
X197441726Y-118057041D01*
X197426017Y-118094967D01*
X197410794Y-118117749D01*
X197395112Y-118148528D01*
X197334320Y-118232200D01*
X197311661Y-118266113D01*
X197304423Y-118273350D01*
X197298286Y-118281798D01*
X197181798Y-118398286D01*
X197173350Y-118404423D01*
X197166113Y-118411661D01*
X197132200Y-118434320D01*
X197048528Y-118495112D01*
X197017749Y-118510794D01*
X196994967Y-118526017D01*
X196957041Y-118541726D01*
X196901741Y-118569903D01*
X196842711Y-118589083D01*
X196804799Y-118604787D01*
X196777935Y-118610130D01*
X196745074Y-118620808D01*
X196642902Y-118636990D01*
X196602918Y-118644944D01*
X196592687Y-118644944D01*
X196582370Y-118646578D01*
X196417630Y-118646578D01*
X196407313Y-118644944D01*
X196397082Y-118644944D01*
X196357098Y-118636990D01*
X196254925Y-118620808D01*
X196222062Y-118610130D01*
X196195201Y-118604787D01*
X196157292Y-118589084D01*
X196098258Y-118569903D01*
X196042952Y-118541723D01*
X196005033Y-118526017D01*
X195982254Y-118510796D01*
X195951471Y-118495112D01*
X195867787Y-118434312D01*
X195833887Y-118411661D01*
X195826651Y-118404425D01*
X195818201Y-118398286D01*
X195701713Y-118281798D01*
X195695573Y-118273347D01*
X195688339Y-118266113D01*
X195665690Y-118232217D01*
X195604887Y-118148528D01*
X195589201Y-118117742D01*
X195573983Y-118094967D01*
X195558278Y-118057052D01*
X195530096Y-118001741D01*
X195510912Y-117942700D01*
X195495213Y-117904799D01*
X195489870Y-117877943D01*
X195479191Y-117845074D01*
X195463008Y-117742895D01*
X195455056Y-117702918D01*
X195455056Y-117692686D01*
X195453422Y-117682369D01*
X195453422Y-117517630D01*
X195455056Y-117507312D01*
X195455056Y-117497082D01*
X195463007Y-117457108D01*
X195479191Y-117354925D01*
X195489871Y-117322054D01*
X195495213Y-117295201D01*
X195510910Y-117257303D01*
X195530096Y-117198258D01*
X195558280Y-117142942D01*
X195573983Y-117105033D01*
X195589199Y-117082260D01*
X195604887Y-117051471D01*
X195665699Y-116967770D01*
X195688339Y-116933887D01*
X195695570Y-116926655D01*
X195701713Y-116918201D01*
X195818201Y-116801713D01*
X195826655Y-116795570D01*
X195833887Y-116788339D01*
X195867770Y-116765699D01*
X195951471Y-116704887D01*
X195982260Y-116689199D01*
X196005033Y-116673983D01*
X196042942Y-116658280D01*
X196098258Y-116630096D01*
X196157303Y-116610910D01*
X196195201Y-116595213D01*
X196222054Y-116589871D01*
X196254925Y-116579191D01*
X196357108Y-116563007D01*
X196397082Y-116555056D01*
X196407313Y-116555056D01*
X196417630Y-116553422D01*
X196582370Y-116553422D01*
X196592687Y-116555056D01*
G37*
G36*
X177454850Y-114900964D02*
G01*
X177505040Y-114906787D01*
X177522189Y-114914359D01*
X177545671Y-114919030D01*
X177570810Y-114935827D01*
X177590696Y-114944608D01*
X177604277Y-114958189D01*
X177626777Y-114973223D01*
X177641810Y-114995722D01*
X177655391Y-115009303D01*
X177664170Y-115029186D01*
X177680970Y-115054329D01*
X177685641Y-115077812D01*
X177693212Y-115094959D01*
X177699033Y-115145139D01*
X177700000Y-115150000D01*
X177700000Y-116650000D01*
X177699032Y-116654863D01*
X177693212Y-116705040D01*
X177685641Y-116722185D01*
X177680970Y-116745671D01*
X177664169Y-116770815D01*
X177655391Y-116790696D01*
X177641812Y-116804274D01*
X177626777Y-116826777D01*
X177604274Y-116841812D01*
X177590696Y-116855391D01*
X177570815Y-116864169D01*
X177545671Y-116880970D01*
X177522185Y-116885641D01*
X177505040Y-116893212D01*
X177454861Y-116899032D01*
X177450000Y-116900000D01*
X175950000Y-116900000D01*
X175945138Y-116899032D01*
X175894959Y-116893212D01*
X175877812Y-116885641D01*
X175854329Y-116880970D01*
X175829186Y-116864170D01*
X175809303Y-116855391D01*
X175795722Y-116841810D01*
X175773223Y-116826777D01*
X175758189Y-116804277D01*
X175744608Y-116790696D01*
X175735827Y-116770810D01*
X175719030Y-116745671D01*
X175714359Y-116722189D01*
X175706787Y-116705040D01*
X175700964Y-116654849D01*
X175700000Y-116650000D01*
X175700000Y-115150000D01*
X175700964Y-115145150D01*
X175706787Y-115094959D01*
X175714359Y-115077808D01*
X175719030Y-115054329D01*
X175735826Y-115029191D01*
X175744608Y-115009303D01*
X175758191Y-114995719D01*
X175773223Y-114973223D01*
X175795719Y-114958191D01*
X175809303Y-114944608D01*
X175829191Y-114935826D01*
X175854329Y-114919030D01*
X175877808Y-114914359D01*
X175894959Y-114906787D01*
X175945151Y-114900964D01*
X175950000Y-114900000D01*
X177450000Y-114900000D01*
X177454850Y-114900964D01*
G37*
G36*
X179530285Y-114943060D02*
G01*
X179711397Y-115018079D01*
X179874393Y-115126990D01*
X180013010Y-115265607D01*
X180121921Y-115428603D01*
X180196940Y-115609715D01*
X180235185Y-115801983D01*
X180235185Y-115998017D01*
X180196940Y-116190285D01*
X180121921Y-116371397D01*
X180013010Y-116534393D01*
X179874393Y-116673010D01*
X179711397Y-116781921D01*
X179530285Y-116856940D01*
X179338017Y-116895185D01*
X179141983Y-116895185D01*
X178949715Y-116856940D01*
X178768603Y-116781921D01*
X178605607Y-116673010D01*
X178466990Y-116534393D01*
X178358079Y-116371397D01*
X178283060Y-116190285D01*
X178244815Y-115998017D01*
X178244815Y-115801983D01*
X178283060Y-115609715D01*
X178358079Y-115428603D01*
X178466990Y-115265607D01*
X178605607Y-115126990D01*
X178768603Y-115018079D01*
X178949715Y-114943060D01*
X179141983Y-114904815D01*
X179338017Y-114904815D01*
X179530285Y-114943060D01*
G37*
G36*
X182070285Y-114943060D02*
G01*
X182251397Y-115018079D01*
X182414393Y-115126990D01*
X182553010Y-115265607D01*
X182661921Y-115428603D01*
X182736940Y-115609715D01*
X182775185Y-115801983D01*
X182775185Y-115998017D01*
X182736940Y-116190285D01*
X182661921Y-116371397D01*
X182553010Y-116534393D01*
X182414393Y-116673010D01*
X182251397Y-116781921D01*
X182070285Y-116856940D01*
X181878017Y-116895185D01*
X181681983Y-116895185D01*
X181489715Y-116856940D01*
X181308603Y-116781921D01*
X181145607Y-116673010D01*
X181006990Y-116534393D01*
X180898079Y-116371397D01*
X180823060Y-116190285D01*
X180784815Y-115998017D01*
X180784815Y-115801983D01*
X180823060Y-115609715D01*
X180898079Y-115428603D01*
X181006990Y-115265607D01*
X181145607Y-115126990D01*
X181308603Y-115018079D01*
X181489715Y-114943060D01*
X181681983Y-114904815D01*
X181878017Y-114904815D01*
X182070285Y-114943060D01*
G37*
G36*
X166009850Y-114618464D02*
G01*
X166060040Y-114624287D01*
X166077189Y-114631859D01*
X166100671Y-114636530D01*
X166125810Y-114653327D01*
X166145696Y-114662108D01*
X166159277Y-114675689D01*
X166181777Y-114690723D01*
X166196810Y-114713222D01*
X166210391Y-114726803D01*
X166219170Y-114746686D01*
X166235970Y-114771829D01*
X166240641Y-114795312D01*
X166248212Y-114812459D01*
X166254033Y-114862639D01*
X166255000Y-114867500D01*
X166255000Y-116367500D01*
X166254032Y-116372363D01*
X166248212Y-116422540D01*
X166240641Y-116439685D01*
X166235970Y-116463171D01*
X166219169Y-116488315D01*
X166210391Y-116508196D01*
X166196812Y-116521774D01*
X166181777Y-116544277D01*
X166159274Y-116559312D01*
X166145696Y-116572891D01*
X166125815Y-116581669D01*
X166100671Y-116598470D01*
X166077185Y-116603141D01*
X166060040Y-116610712D01*
X166009861Y-116616532D01*
X166005000Y-116617500D01*
X164505000Y-116617500D01*
X164500138Y-116616532D01*
X164449959Y-116610712D01*
X164432812Y-116603141D01*
X164409329Y-116598470D01*
X164384186Y-116581670D01*
X164364303Y-116572891D01*
X164350722Y-116559310D01*
X164328223Y-116544277D01*
X164313189Y-116521777D01*
X164299608Y-116508196D01*
X164290827Y-116488310D01*
X164274030Y-116463171D01*
X164269359Y-116439689D01*
X164261787Y-116422540D01*
X164255964Y-116372349D01*
X164255000Y-116367500D01*
X164255000Y-114867500D01*
X164255964Y-114862650D01*
X164261787Y-114812459D01*
X164269359Y-114795308D01*
X164274030Y-114771829D01*
X164290826Y-114746691D01*
X164299608Y-114726803D01*
X164313191Y-114713219D01*
X164328223Y-114690723D01*
X164350719Y-114675691D01*
X164364303Y-114662108D01*
X164384191Y-114653326D01*
X164409329Y-114636530D01*
X164432808Y-114631859D01*
X164449959Y-114624287D01*
X164500151Y-114618464D01*
X164505000Y-114617500D01*
X166005000Y-114617500D01*
X166009850Y-114618464D01*
G37*
G36*
X168085285Y-114660560D02*
G01*
X168266397Y-114735579D01*
X168429393Y-114844490D01*
X168568010Y-114983107D01*
X168676921Y-115146103D01*
X168751940Y-115327215D01*
X168790185Y-115519483D01*
X168790185Y-115715517D01*
X168751940Y-115907785D01*
X168676921Y-116088897D01*
X168568010Y-116251893D01*
X168429393Y-116390510D01*
X168266397Y-116499421D01*
X168085285Y-116574440D01*
X167893017Y-116612685D01*
X167696983Y-116612685D01*
X167504715Y-116574440D01*
X167323603Y-116499421D01*
X167160607Y-116390510D01*
X167021990Y-116251893D01*
X166913079Y-116088897D01*
X166838060Y-115907785D01*
X166799815Y-115715517D01*
X166799815Y-115519483D01*
X166838060Y-115327215D01*
X166913079Y-115146103D01*
X167021990Y-114983107D01*
X167160607Y-114844490D01*
X167323603Y-114735579D01*
X167504715Y-114660560D01*
X167696983Y-114622315D01*
X167893017Y-114622315D01*
X168085285Y-114660560D01*
G37*
G36*
X170625285Y-114660560D02*
G01*
X170806397Y-114735579D01*
X170969393Y-114844490D01*
X171108010Y-114983107D01*
X171216921Y-115146103D01*
X171291940Y-115327215D01*
X171330185Y-115519483D01*
X171330185Y-115715517D01*
X171291940Y-115907785D01*
X171216921Y-116088897D01*
X171108010Y-116251893D01*
X170969393Y-116390510D01*
X170806397Y-116499421D01*
X170625285Y-116574440D01*
X170433017Y-116612685D01*
X170236983Y-116612685D01*
X170044715Y-116574440D01*
X169863603Y-116499421D01*
X169700607Y-116390510D01*
X169561990Y-116251893D01*
X169453079Y-116088897D01*
X169378060Y-115907785D01*
X169339815Y-115715517D01*
X169339815Y-115519483D01*
X169378060Y-115327215D01*
X169453079Y-115146103D01*
X169561990Y-114983107D01*
X169700607Y-114844490D01*
X169863603Y-114735579D01*
X170044715Y-114660560D01*
X170236983Y-114622315D01*
X170433017Y-114622315D01*
X170625285Y-114660560D01*
G37*
G36*
X152390285Y-112843060D02*
G01*
X152571397Y-112918079D01*
X152734393Y-113026990D01*
X152873010Y-113165607D01*
X152981921Y-113328603D01*
X153056940Y-113509715D01*
X153095185Y-113701983D01*
X153095185Y-113898017D01*
X153056940Y-114090285D01*
X152981921Y-114271397D01*
X152873010Y-114434393D01*
X152734393Y-114573010D01*
X152571397Y-114681921D01*
X152390285Y-114756940D01*
X152198017Y-114795185D01*
X152001983Y-114795185D01*
X151809715Y-114756940D01*
X151628603Y-114681921D01*
X151465607Y-114573010D01*
X151326990Y-114434393D01*
X151218079Y-114271397D01*
X151143060Y-114090285D01*
X151104815Y-113898017D01*
X151104815Y-113701983D01*
X151143060Y-113509715D01*
X151218079Y-113328603D01*
X151326990Y-113165607D01*
X151465607Y-113026990D01*
X151628603Y-112918079D01*
X151809715Y-112843060D01*
X152001983Y-112804815D01*
X152198017Y-112804815D01*
X152390285Y-112843060D01*
G37*
G36*
X158890285Y-112843060D02*
G01*
X159071397Y-112918079D01*
X159234393Y-113026990D01*
X159373010Y-113165607D01*
X159481921Y-113328603D01*
X159556940Y-113509715D01*
X159595185Y-113701983D01*
X159595185Y-113898017D01*
X159556940Y-114090285D01*
X159481921Y-114271397D01*
X159373010Y-114434393D01*
X159234393Y-114573010D01*
X159071397Y-114681921D01*
X158890285Y-114756940D01*
X158698017Y-114795185D01*
X158501983Y-114795185D01*
X158309715Y-114756940D01*
X158128603Y-114681921D01*
X157965607Y-114573010D01*
X157826990Y-114434393D01*
X157718079Y-114271397D01*
X157643060Y-114090285D01*
X157604815Y-113898017D01*
X157604815Y-113701983D01*
X157643060Y-113509715D01*
X157718079Y-113328603D01*
X157826990Y-113165607D01*
X157965607Y-113026990D01*
X158128603Y-112918079D01*
X158309715Y-112843060D01*
X158501983Y-112804815D01*
X158698017Y-112804815D01*
X158890285Y-112843060D01*
G37*
G36*
X186040285Y-112793060D02*
G01*
X186221397Y-112868079D01*
X186384393Y-112976990D01*
X186523010Y-113115607D01*
X186631921Y-113278603D01*
X186706940Y-113459715D01*
X186745185Y-113651983D01*
X186745185Y-113848017D01*
X186706940Y-114040285D01*
X186631921Y-114221397D01*
X186523010Y-114384393D01*
X186384393Y-114523010D01*
X186221397Y-114631921D01*
X186040285Y-114706940D01*
X185848017Y-114745185D01*
X185651983Y-114745185D01*
X185459715Y-114706940D01*
X185278603Y-114631921D01*
X185115607Y-114523010D01*
X184976990Y-114384393D01*
X184868079Y-114221397D01*
X184793060Y-114040285D01*
X184754815Y-113848017D01*
X184754815Y-113651983D01*
X184793060Y-113459715D01*
X184868079Y-113278603D01*
X184976990Y-113115607D01*
X185115607Y-112976990D01*
X185278603Y-112868079D01*
X185459715Y-112793060D01*
X185651983Y-112754815D01*
X185848017Y-112754815D01*
X186040285Y-112793060D01*
G37*
G36*
X192540285Y-112793060D02*
G01*
X192721397Y-112868079D01*
X192884393Y-112976990D01*
X193023010Y-113115607D01*
X193131921Y-113278603D01*
X193206940Y-113459715D01*
X193245185Y-113651983D01*
X193245185Y-113848017D01*
X193206940Y-114040285D01*
X193131921Y-114221397D01*
X193023010Y-114384393D01*
X192884393Y-114523010D01*
X192721397Y-114631921D01*
X192540285Y-114706940D01*
X192348017Y-114745185D01*
X192151983Y-114745185D01*
X191959715Y-114706940D01*
X191778603Y-114631921D01*
X191615607Y-114523010D01*
X191476990Y-114384393D01*
X191368079Y-114221397D01*
X191293060Y-114040285D01*
X191254815Y-113848017D01*
X191254815Y-113651983D01*
X191293060Y-113459715D01*
X191368079Y-113278603D01*
X191476990Y-113115607D01*
X191615607Y-112976990D01*
X191778603Y-112868079D01*
X191959715Y-112793060D01*
X192151983Y-112754815D01*
X192348017Y-112754815D01*
X192540285Y-112793060D01*
G37*
G36*
X163292350Y-106700964D02*
G01*
X163342540Y-106706787D01*
X163359689Y-106714359D01*
X163383171Y-106719030D01*
X163408310Y-106735827D01*
X163428196Y-106744608D01*
X163441777Y-106758189D01*
X163464277Y-106773223D01*
X163479310Y-106795722D01*
X163492891Y-106809303D01*
X163501670Y-106829186D01*
X163518470Y-106854329D01*
X163523141Y-106877812D01*
X163530712Y-106894959D01*
X163536533Y-106945139D01*
X163537500Y-106950000D01*
X163537500Y-108250000D01*
X163536532Y-108254863D01*
X163530712Y-108305040D01*
X163523141Y-108322185D01*
X163518470Y-108345671D01*
X163501669Y-108370815D01*
X163492891Y-108390696D01*
X163479312Y-108404274D01*
X163464277Y-108426777D01*
X163441774Y-108441812D01*
X163428196Y-108455391D01*
X163408315Y-108464169D01*
X163383171Y-108480970D01*
X163359685Y-108485641D01*
X163342540Y-108493212D01*
X163292361Y-108499032D01*
X163287500Y-108500000D01*
X162462500Y-108500000D01*
X162457638Y-108499032D01*
X162407459Y-108493212D01*
X162390312Y-108485641D01*
X162366829Y-108480970D01*
X162341686Y-108464170D01*
X162321803Y-108455391D01*
X162308222Y-108441810D01*
X162285723Y-108426777D01*
X162270689Y-108404277D01*
X162257108Y-108390696D01*
X162248327Y-108370810D01*
X162231530Y-108345671D01*
X162226859Y-108322189D01*
X162219287Y-108305040D01*
X162213464Y-108254849D01*
X162212500Y-108250000D01*
X162212500Y-106950000D01*
X162213464Y-106945150D01*
X162219287Y-106894959D01*
X162226859Y-106877808D01*
X162231530Y-106854329D01*
X162248326Y-106829191D01*
X162257108Y-106809303D01*
X162270691Y-106795719D01*
X162285723Y-106773223D01*
X162308219Y-106758191D01*
X162321803Y-106744608D01*
X162341691Y-106735826D01*
X162366829Y-106719030D01*
X162390308Y-106714359D01*
X162407459Y-106706787D01*
X162457651Y-106700964D01*
X162462500Y-106700000D01*
X163287500Y-106700000D01*
X163292350Y-106700964D01*
G37*
G36*
X166417350Y-106700964D02*
G01*
X166467540Y-106706787D01*
X166484689Y-106714359D01*
X166508171Y-106719030D01*
X166533310Y-106735827D01*
X166553196Y-106744608D01*
X166566777Y-106758189D01*
X166589277Y-106773223D01*
X166604310Y-106795722D01*
X166617891Y-106809303D01*
X166626670Y-106829186D01*
X166643470Y-106854329D01*
X166648141Y-106877812D01*
X166655712Y-106894959D01*
X166661533Y-106945139D01*
X166662500Y-106950000D01*
X166662500Y-108250000D01*
X166661532Y-108254863D01*
X166655712Y-108305040D01*
X166648141Y-108322185D01*
X166643470Y-108345671D01*
X166626669Y-108370815D01*
X166617891Y-108390696D01*
X166604312Y-108404274D01*
X166589277Y-108426777D01*
X166566774Y-108441812D01*
X166553196Y-108455391D01*
X166533315Y-108464169D01*
X166508171Y-108480970D01*
X166484685Y-108485641D01*
X166467540Y-108493212D01*
X166417361Y-108499032D01*
X166412500Y-108500000D01*
X165587500Y-108500000D01*
X165582638Y-108499032D01*
X165532459Y-108493212D01*
X165515312Y-108485641D01*
X165491829Y-108480970D01*
X165466686Y-108464170D01*
X165446803Y-108455391D01*
X165433222Y-108441810D01*
X165410723Y-108426777D01*
X165395689Y-108404277D01*
X165382108Y-108390696D01*
X165373327Y-108370810D01*
X165356530Y-108345671D01*
X165351859Y-108322189D01*
X165344287Y-108305040D01*
X165338464Y-108254849D01*
X165337500Y-108250000D01*
X165337500Y-106950000D01*
X165338464Y-106945150D01*
X165344287Y-106894959D01*
X165351859Y-106877808D01*
X165356530Y-106854329D01*
X165373326Y-106829191D01*
X165382108Y-106809303D01*
X165395691Y-106795719D01*
X165410723Y-106773223D01*
X165433219Y-106758191D01*
X165446803Y-106744608D01*
X165466691Y-106735826D01*
X165491829Y-106719030D01*
X165515308Y-106714359D01*
X165532459Y-106706787D01*
X165582651Y-106700964D01*
X165587500Y-106700000D01*
X166412500Y-106700000D01*
X166417350Y-106700964D01*
G37*
G36*
X171454850Y-107000964D02*
G01*
X171505040Y-107006787D01*
X171522189Y-107014359D01*
X171545671Y-107019030D01*
X171570810Y-107035827D01*
X171590696Y-107044608D01*
X171604277Y-107058189D01*
X171626777Y-107073223D01*
X171641810Y-107095722D01*
X171655391Y-107109303D01*
X171664170Y-107129186D01*
X171680970Y-107154329D01*
X171685641Y-107177812D01*
X171693212Y-107194959D01*
X171699033Y-107245139D01*
X171700000Y-107250000D01*
X171700000Y-108150000D01*
X171699032Y-108154863D01*
X171693212Y-108205040D01*
X171685641Y-108222185D01*
X171680970Y-108245671D01*
X171664169Y-108270815D01*
X171655391Y-108290696D01*
X171641812Y-108304274D01*
X171626777Y-108326777D01*
X171604274Y-108341812D01*
X171590696Y-108355391D01*
X171570815Y-108364169D01*
X171545671Y-108380970D01*
X171522185Y-108385641D01*
X171505040Y-108393212D01*
X171454861Y-108399032D01*
X171450000Y-108400000D01*
X170750000Y-108400000D01*
X170745138Y-108399032D01*
X170694959Y-108393212D01*
X170677812Y-108385641D01*
X170654329Y-108380970D01*
X170629186Y-108364170D01*
X170609303Y-108355391D01*
X170595722Y-108341810D01*
X170573223Y-108326777D01*
X170558189Y-108304277D01*
X170544608Y-108290696D01*
X170535827Y-108270810D01*
X170519030Y-108245671D01*
X170514359Y-108222189D01*
X170506787Y-108205040D01*
X170500964Y-108154849D01*
X170500000Y-108150000D01*
X170500000Y-107250000D01*
X170500964Y-107245150D01*
X170506787Y-107194959D01*
X170514359Y-107177808D01*
X170519030Y-107154329D01*
X170535826Y-107129191D01*
X170544608Y-107109303D01*
X170558191Y-107095719D01*
X170573223Y-107073223D01*
X170595719Y-107058191D01*
X170609303Y-107044608D01*
X170629191Y-107035826D01*
X170654329Y-107019030D01*
X170677808Y-107014359D01*
X170694959Y-107006787D01*
X170745151Y-107000964D01*
X170750000Y-107000000D01*
X171450000Y-107000000D01*
X171454850Y-107000964D01*
G37*
G36*
X173454850Y-107000964D02*
G01*
X173505040Y-107006787D01*
X173522189Y-107014359D01*
X173545671Y-107019030D01*
X173570810Y-107035827D01*
X173590696Y-107044608D01*
X173604277Y-107058189D01*
X173626777Y-107073223D01*
X173641810Y-107095722D01*
X173655391Y-107109303D01*
X173664170Y-107129186D01*
X173680970Y-107154329D01*
X173685641Y-107177812D01*
X173693212Y-107194959D01*
X173699033Y-107245139D01*
X173700000Y-107250000D01*
X173700000Y-108150000D01*
X173699032Y-108154863D01*
X173693212Y-108205040D01*
X173685641Y-108222185D01*
X173680970Y-108245671D01*
X173664169Y-108270815D01*
X173655391Y-108290696D01*
X173641812Y-108304274D01*
X173626777Y-108326777D01*
X173604274Y-108341812D01*
X173590696Y-108355391D01*
X173570815Y-108364169D01*
X173545671Y-108380970D01*
X173522185Y-108385641D01*
X173505040Y-108393212D01*
X173454861Y-108399032D01*
X173450000Y-108400000D01*
X172750000Y-108400000D01*
X172745138Y-108399032D01*
X172694959Y-108393212D01*
X172677812Y-108385641D01*
X172654329Y-108380970D01*
X172629186Y-108364170D01*
X172609303Y-108355391D01*
X172595722Y-108341810D01*
X172573223Y-108326777D01*
X172558189Y-108304277D01*
X172544608Y-108290696D01*
X172535827Y-108270810D01*
X172519030Y-108245671D01*
X172514359Y-108222189D01*
X172506787Y-108205040D01*
X172500964Y-108154849D01*
X172500000Y-108150000D01*
X172500000Y-107250000D01*
X172500964Y-107245150D01*
X172506787Y-107194959D01*
X172514359Y-107177808D01*
X172519030Y-107154329D01*
X172535826Y-107129191D01*
X172544608Y-107109303D01*
X172558191Y-107095719D01*
X172573223Y-107073223D01*
X172595719Y-107058191D01*
X172609303Y-107044608D01*
X172629191Y-107035826D01*
X172654329Y-107019030D01*
X172677808Y-107014359D01*
X172694959Y-107006787D01*
X172745151Y-107000964D01*
X172750000Y-107000000D01*
X173450000Y-107000000D01*
X173454850Y-107000964D01*
G37*
G36*
X158517350Y-106925964D02*
G01*
X158564679Y-106931455D01*
X158580853Y-106938596D01*
X158603387Y-106943079D01*
X158627511Y-106959198D01*
X158646132Y-106967420D01*
X158658848Y-106980136D01*
X158680438Y-106994562D01*
X158694863Y-107016151D01*
X158707579Y-107028867D01*
X158715800Y-107047486D01*
X158731921Y-107071613D01*
X158736403Y-107094147D01*
X158743544Y-107110319D01*
X158749033Y-107157640D01*
X158750000Y-107162500D01*
X158750000Y-107637500D01*
X158749032Y-107642362D01*
X158743544Y-107689679D01*
X158736404Y-107705849D01*
X158731921Y-107728387D01*
X158715798Y-107752516D01*
X158707579Y-107771132D01*
X158694865Y-107783845D01*
X158680438Y-107805438D01*
X158658845Y-107819865D01*
X158646132Y-107832579D01*
X158627515Y-107840799D01*
X158603387Y-107856921D01*
X158580850Y-107861403D01*
X158564680Y-107868544D01*
X158517361Y-107874033D01*
X158512500Y-107875000D01*
X157937500Y-107875000D01*
X157932638Y-107874033D01*
X157885320Y-107868544D01*
X157869148Y-107861403D01*
X157846613Y-107856921D01*
X157822485Y-107840800D01*
X157803867Y-107832579D01*
X157791151Y-107819863D01*
X157769562Y-107805438D01*
X157755136Y-107783848D01*
X157742420Y-107771132D01*
X157734198Y-107752511D01*
X157718079Y-107728387D01*
X157713596Y-107705854D01*
X157706455Y-107689680D01*
X157700964Y-107642348D01*
X157700000Y-107637500D01*
X157700000Y-107162500D01*
X157700964Y-107157651D01*
X157706455Y-107110320D01*
X157713597Y-107094144D01*
X157718079Y-107071613D01*
X157734197Y-107047490D01*
X157742420Y-107028867D01*
X157755138Y-107016148D01*
X157769562Y-106994562D01*
X157791148Y-106980138D01*
X157803867Y-106967420D01*
X157822490Y-106959196D01*
X157846613Y-106943079D01*
X157869143Y-106938597D01*
X157885319Y-106931455D01*
X157932652Y-106925964D01*
X157937500Y-106925000D01*
X158512500Y-106925000D01*
X158517350Y-106925964D01*
G37*
G36*
X160267350Y-106925964D02*
G01*
X160314679Y-106931455D01*
X160330853Y-106938596D01*
X160353387Y-106943079D01*
X160377511Y-106959198D01*
X160396132Y-106967420D01*
X160408848Y-106980136D01*
X160430438Y-106994562D01*
X160444863Y-107016151D01*
X160457579Y-107028867D01*
X160465800Y-107047486D01*
X160481921Y-107071613D01*
X160486403Y-107094147D01*
X160493544Y-107110319D01*
X160499033Y-107157640D01*
X160500000Y-107162500D01*
X160500000Y-107637500D01*
X160499032Y-107642362D01*
X160493544Y-107689679D01*
X160486404Y-107705849D01*
X160481921Y-107728387D01*
X160465798Y-107752516D01*
X160457579Y-107771132D01*
X160444865Y-107783845D01*
X160430438Y-107805438D01*
X160408845Y-107819865D01*
X160396132Y-107832579D01*
X160377515Y-107840799D01*
X160353387Y-107856921D01*
X160330850Y-107861403D01*
X160314680Y-107868544D01*
X160267361Y-107874033D01*
X160262500Y-107875000D01*
X159687500Y-107875000D01*
X159682638Y-107874033D01*
X159635320Y-107868544D01*
X159619148Y-107861403D01*
X159596613Y-107856921D01*
X159572485Y-107840800D01*
X159553867Y-107832579D01*
X159541151Y-107819863D01*
X159519562Y-107805438D01*
X159505136Y-107783848D01*
X159492420Y-107771132D01*
X159484198Y-107752511D01*
X159468079Y-107728387D01*
X159463596Y-107705854D01*
X159456455Y-107689680D01*
X159450964Y-107642348D01*
X159450000Y-107637500D01*
X159450000Y-107162500D01*
X159450964Y-107157651D01*
X159456455Y-107110320D01*
X159463597Y-107094144D01*
X159468079Y-107071613D01*
X159484197Y-107047490D01*
X159492420Y-107028867D01*
X159505138Y-107016148D01*
X159519562Y-106994562D01*
X159541148Y-106980138D01*
X159553867Y-106967420D01*
X159572490Y-106959196D01*
X159596613Y-106943079D01*
X159619143Y-106938597D01*
X159635319Y-106931455D01*
X159682652Y-106925964D01*
X159687500Y-106925000D01*
X160262500Y-106925000D01*
X160267350Y-106925964D01*
G37*
G36*
X178204850Y-106025964D02*
G01*
X178255040Y-106031787D01*
X178272189Y-106039359D01*
X178295671Y-106044030D01*
X178320810Y-106060827D01*
X178340696Y-106069608D01*
X178354277Y-106083189D01*
X178376777Y-106098223D01*
X178391810Y-106120722D01*
X178405391Y-106134303D01*
X178414170Y-106154186D01*
X178430970Y-106179329D01*
X178435641Y-106202812D01*
X178443212Y-106219959D01*
X178449033Y-106270139D01*
X178450000Y-106275000D01*
X178450000Y-107525000D01*
X178449032Y-107529863D01*
X178443212Y-107580040D01*
X178435641Y-107597185D01*
X178430970Y-107620671D01*
X178414169Y-107645815D01*
X178405391Y-107665696D01*
X178391812Y-107679274D01*
X178376777Y-107701777D01*
X178354274Y-107716812D01*
X178340696Y-107730391D01*
X178320815Y-107739169D01*
X178295671Y-107755970D01*
X178272185Y-107760641D01*
X178255040Y-107768212D01*
X178204861Y-107774032D01*
X178200000Y-107775000D01*
X177400000Y-107775000D01*
X177395138Y-107774032D01*
X177344959Y-107768212D01*
X177327812Y-107760641D01*
X177304329Y-107755970D01*
X177279186Y-107739170D01*
X177259303Y-107730391D01*
X177245722Y-107716810D01*
X177223223Y-107701777D01*
X177208189Y-107679277D01*
X177194608Y-107665696D01*
X177185827Y-107645810D01*
X177169030Y-107620671D01*
X177164359Y-107597189D01*
X177156787Y-107580040D01*
X177150964Y-107529849D01*
X177150000Y-107525000D01*
X177150000Y-106275000D01*
X177150964Y-106270150D01*
X177156787Y-106219959D01*
X177164359Y-106202808D01*
X177169030Y-106179329D01*
X177185826Y-106154191D01*
X177194608Y-106134303D01*
X177208191Y-106120719D01*
X177223223Y-106098223D01*
X177245719Y-106083191D01*
X177259303Y-106069608D01*
X177279191Y-106060826D01*
X177304329Y-106044030D01*
X177327808Y-106039359D01*
X177344959Y-106031787D01*
X177395151Y-106025964D01*
X177400000Y-106025000D01*
X178200000Y-106025000D01*
X178204850Y-106025964D01*
G37*
G36*
X181304850Y-106025964D02*
G01*
X181355040Y-106031787D01*
X181372189Y-106039359D01*
X181395671Y-106044030D01*
X181420810Y-106060827D01*
X181440696Y-106069608D01*
X181454277Y-106083189D01*
X181476777Y-106098223D01*
X181491810Y-106120722D01*
X181505391Y-106134303D01*
X181514170Y-106154186D01*
X181530970Y-106179329D01*
X181535641Y-106202812D01*
X181543212Y-106219959D01*
X181549033Y-106270139D01*
X181550000Y-106275000D01*
X181550000Y-107525000D01*
X181549032Y-107529863D01*
X181543212Y-107580040D01*
X181535641Y-107597185D01*
X181530970Y-107620671D01*
X181514169Y-107645815D01*
X181505391Y-107665696D01*
X181491812Y-107679274D01*
X181476777Y-107701777D01*
X181454274Y-107716812D01*
X181440696Y-107730391D01*
X181420815Y-107739169D01*
X181395671Y-107755970D01*
X181372185Y-107760641D01*
X181355040Y-107768212D01*
X181304861Y-107774032D01*
X181300000Y-107775000D01*
X180500000Y-107775000D01*
X180495138Y-107774032D01*
X180444959Y-107768212D01*
X180427812Y-107760641D01*
X180404329Y-107755970D01*
X180379186Y-107739170D01*
X180359303Y-107730391D01*
X180345722Y-107716810D01*
X180323223Y-107701777D01*
X180308189Y-107679277D01*
X180294608Y-107665696D01*
X180285827Y-107645810D01*
X180269030Y-107620671D01*
X180264359Y-107597189D01*
X180256787Y-107580040D01*
X180250964Y-107529849D01*
X180250000Y-107525000D01*
X180250000Y-106275000D01*
X180250964Y-106270150D01*
X180256787Y-106219959D01*
X180264359Y-106202808D01*
X180269030Y-106179329D01*
X180285826Y-106154191D01*
X180294608Y-106134303D01*
X180308191Y-106120719D01*
X180323223Y-106098223D01*
X180345719Y-106083191D01*
X180359303Y-106069608D01*
X180379191Y-106060826D01*
X180404329Y-106044030D01*
X180427808Y-106039359D01*
X180444959Y-106031787D01*
X180495151Y-106025964D01*
X180500000Y-106025000D01*
X181300000Y-106025000D01*
X181304850Y-106025964D01*
G37*
G36*
X184042350Y-106175964D02*
G01*
X184092540Y-106181787D01*
X184109689Y-106189359D01*
X184133171Y-106194030D01*
X184158310Y-106210827D01*
X184178196Y-106219608D01*
X184191777Y-106233189D01*
X184214277Y-106248223D01*
X184229310Y-106270722D01*
X184242891Y-106284303D01*
X184251670Y-106304186D01*
X184268470Y-106329329D01*
X184273141Y-106352812D01*
X184280712Y-106369959D01*
X184286533Y-106420139D01*
X184287500Y-106425000D01*
X184287500Y-107375000D01*
X184286532Y-107379863D01*
X184280712Y-107430040D01*
X184273141Y-107447185D01*
X184268470Y-107470671D01*
X184251669Y-107495815D01*
X184242891Y-107515696D01*
X184229312Y-107529274D01*
X184214277Y-107551777D01*
X184191774Y-107566812D01*
X184178196Y-107580391D01*
X184158315Y-107589169D01*
X184133171Y-107605970D01*
X184109685Y-107610641D01*
X184092540Y-107618212D01*
X184042361Y-107624032D01*
X184037500Y-107625000D01*
X183362500Y-107625000D01*
X183357638Y-107624032D01*
X183307459Y-107618212D01*
X183290312Y-107610641D01*
X183266829Y-107605970D01*
X183241686Y-107589170D01*
X183221803Y-107580391D01*
X183208222Y-107566810D01*
X183185723Y-107551777D01*
X183170689Y-107529277D01*
X183157108Y-107515696D01*
X183148327Y-107495810D01*
X183131530Y-107470671D01*
X183126859Y-107447189D01*
X183119287Y-107430040D01*
X183113464Y-107379849D01*
X183112500Y-107375000D01*
X183112500Y-106425000D01*
X183113464Y-106420150D01*
X183119287Y-106369959D01*
X183126859Y-106352808D01*
X183131530Y-106329329D01*
X183148326Y-106304191D01*
X183157108Y-106284303D01*
X183170691Y-106270719D01*
X183185723Y-106248223D01*
X183208219Y-106233191D01*
X183221803Y-106219608D01*
X183241691Y-106210826D01*
X183266829Y-106194030D01*
X183290308Y-106189359D01*
X183307459Y-106181787D01*
X183357651Y-106175964D01*
X183362500Y-106175000D01*
X184037500Y-106175000D01*
X184042350Y-106175964D01*
G37*
G36*
X186117350Y-106175964D02*
G01*
X186167540Y-106181787D01*
X186184689Y-106189359D01*
X186208171Y-106194030D01*
X186233310Y-106210827D01*
X186253196Y-106219608D01*
X186266777Y-106233189D01*
X186289277Y-106248223D01*
X186304310Y-106270722D01*
X186317891Y-106284303D01*
X186326670Y-106304186D01*
X186343470Y-106329329D01*
X186348141Y-106352812D01*
X186355712Y-106369959D01*
X186361533Y-106420139D01*
X186362500Y-106425000D01*
X186362500Y-107375000D01*
X186361532Y-107379863D01*
X186355712Y-107430040D01*
X186348141Y-107447185D01*
X186343470Y-107470671D01*
X186326669Y-107495815D01*
X186317891Y-107515696D01*
X186304312Y-107529274D01*
X186289277Y-107551777D01*
X186266774Y-107566812D01*
X186253196Y-107580391D01*
X186233315Y-107589169D01*
X186208171Y-107605970D01*
X186184685Y-107610641D01*
X186167540Y-107618212D01*
X186117361Y-107624032D01*
X186112500Y-107625000D01*
X185437500Y-107625000D01*
X185432638Y-107624032D01*
X185382459Y-107618212D01*
X185365312Y-107610641D01*
X185341829Y-107605970D01*
X185316686Y-107589170D01*
X185296803Y-107580391D01*
X185283222Y-107566810D01*
X185260723Y-107551777D01*
X185245689Y-107529277D01*
X185232108Y-107515696D01*
X185223327Y-107495810D01*
X185206530Y-107470671D01*
X185201859Y-107447189D01*
X185194287Y-107430040D01*
X185188464Y-107379849D01*
X185187500Y-107375000D01*
X185187500Y-106425000D01*
X185188464Y-106420150D01*
X185194287Y-106369959D01*
X185201859Y-106352808D01*
X185206530Y-106329329D01*
X185223326Y-106304191D01*
X185232108Y-106284303D01*
X185245691Y-106270719D01*
X185260723Y-106248223D01*
X185283219Y-106233191D01*
X185296803Y-106219608D01*
X185316691Y-106210826D01*
X185341829Y-106194030D01*
X185365308Y-106189359D01*
X185382459Y-106181787D01*
X185432651Y-106175964D01*
X185437500Y-106175000D01*
X186112500Y-106175000D01*
X186117350Y-106175964D01*
G37*
G36*
X150090285Y-103883060D02*
G01*
X150271397Y-103958079D01*
X150434393Y-104066990D01*
X150573010Y-104205607D01*
X150681921Y-104368603D01*
X150756940Y-104549715D01*
X150795185Y-104741983D01*
X150795185Y-104938017D01*
X150756940Y-105130285D01*
X150681921Y-105311397D01*
X150573010Y-105474393D01*
X150434393Y-105613010D01*
X150271397Y-105721921D01*
X150090285Y-105796940D01*
X149898017Y-105835185D01*
X149701983Y-105835185D01*
X149509715Y-105796940D01*
X149328603Y-105721921D01*
X149165607Y-105613010D01*
X149026990Y-105474393D01*
X148918079Y-105311397D01*
X148843060Y-105130285D01*
X148804815Y-104938017D01*
X148804815Y-104741983D01*
X148843060Y-104549715D01*
X148918079Y-104368603D01*
X149026990Y-104205607D01*
X149165607Y-104066990D01*
X149328603Y-103958079D01*
X149509715Y-103883060D01*
X149701983Y-103844815D01*
X149898017Y-103844815D01*
X150090285Y-103883060D01*
G37*
G36*
X157704850Y-102325964D02*
G01*
X157755040Y-102331787D01*
X157772189Y-102339359D01*
X157795671Y-102344030D01*
X157820810Y-102360827D01*
X157840696Y-102369608D01*
X157854277Y-102383189D01*
X157876777Y-102398223D01*
X157891810Y-102420722D01*
X157905391Y-102434303D01*
X157914170Y-102454186D01*
X157930970Y-102479329D01*
X157935641Y-102502812D01*
X157943212Y-102519959D01*
X157949033Y-102570139D01*
X157950000Y-102575000D01*
X157950000Y-103825000D01*
X157949032Y-103829863D01*
X157943212Y-103880040D01*
X157935641Y-103897185D01*
X157930970Y-103920671D01*
X157914169Y-103945815D01*
X157905391Y-103965696D01*
X157891812Y-103979274D01*
X157876777Y-104001777D01*
X157854274Y-104016812D01*
X157840696Y-104030391D01*
X157820815Y-104039169D01*
X157795671Y-104055970D01*
X157772185Y-104060641D01*
X157755040Y-104068212D01*
X157704861Y-104074032D01*
X157700000Y-104075000D01*
X156900000Y-104075000D01*
X156895138Y-104074032D01*
X156844959Y-104068212D01*
X156827812Y-104060641D01*
X156804329Y-104055970D01*
X156779186Y-104039170D01*
X156759303Y-104030391D01*
X156745722Y-104016810D01*
X156723223Y-104001777D01*
X156708189Y-103979277D01*
X156694608Y-103965696D01*
X156685827Y-103945810D01*
X156669030Y-103920671D01*
X156664359Y-103897189D01*
X156656787Y-103880040D01*
X156650964Y-103829849D01*
X156650000Y-103825000D01*
X156650000Y-102575000D01*
X156650964Y-102570150D01*
X156656787Y-102519959D01*
X156664359Y-102502808D01*
X156669030Y-102479329D01*
X156685826Y-102454191D01*
X156694608Y-102434303D01*
X156708191Y-102420719D01*
X156723223Y-102398223D01*
X156745719Y-102383191D01*
X156759303Y-102369608D01*
X156779191Y-102360826D01*
X156804329Y-102344030D01*
X156827808Y-102339359D01*
X156844959Y-102331787D01*
X156895151Y-102325964D01*
X156900000Y-102325000D01*
X157700000Y-102325000D01*
X157704850Y-102325964D01*
G37*
G36*
X160804850Y-102325964D02*
G01*
X160855040Y-102331787D01*
X160872189Y-102339359D01*
X160895671Y-102344030D01*
X160920810Y-102360827D01*
X160940696Y-102369608D01*
X160954277Y-102383189D01*
X160976777Y-102398223D01*
X160991810Y-102420722D01*
X161005391Y-102434303D01*
X161014170Y-102454186D01*
X161030970Y-102479329D01*
X161035641Y-102502812D01*
X161043212Y-102519959D01*
X161049033Y-102570139D01*
X161050000Y-102575000D01*
X161050000Y-103825000D01*
X161049032Y-103829863D01*
X161043212Y-103880040D01*
X161035641Y-103897185D01*
X161030970Y-103920671D01*
X161014169Y-103945815D01*
X161005391Y-103965696D01*
X160991812Y-103979274D01*
X160976777Y-104001777D01*
X160954274Y-104016812D01*
X160940696Y-104030391D01*
X160920815Y-104039169D01*
X160895671Y-104055970D01*
X160872185Y-104060641D01*
X160855040Y-104068212D01*
X160804861Y-104074032D01*
X160800000Y-104075000D01*
X160000000Y-104075000D01*
X159995138Y-104074032D01*
X159944959Y-104068212D01*
X159927812Y-104060641D01*
X159904329Y-104055970D01*
X159879186Y-104039170D01*
X159859303Y-104030391D01*
X159845722Y-104016810D01*
X159823223Y-104001777D01*
X159808189Y-103979277D01*
X159794608Y-103965696D01*
X159785827Y-103945810D01*
X159769030Y-103920671D01*
X159764359Y-103897189D01*
X159756787Y-103880040D01*
X159750964Y-103829849D01*
X159750000Y-103825000D01*
X159750000Y-102575000D01*
X159750964Y-102570150D01*
X159756787Y-102519959D01*
X159764359Y-102502808D01*
X159769030Y-102479329D01*
X159785826Y-102454191D01*
X159794608Y-102434303D01*
X159808191Y-102420719D01*
X159823223Y-102398223D01*
X159845719Y-102383191D01*
X159859303Y-102369608D01*
X159879191Y-102360826D01*
X159904329Y-102344030D01*
X159927808Y-102339359D01*
X159944959Y-102331787D01*
X159995151Y-102325964D01*
X160000000Y-102325000D01*
X160800000Y-102325000D01*
X160804850Y-102325964D01*
G37*
G36*
X163422228Y-102234448D02*
G01*
X163567117Y-102294463D01*
X163697515Y-102381592D01*
X163808408Y-102492485D01*
X163895537Y-102622883D01*
X163955552Y-102767772D01*
X163986148Y-102921586D01*
X163986148Y-103078414D01*
X163955552Y-103232228D01*
X163895537Y-103377117D01*
X163808408Y-103507515D01*
X163697515Y-103618408D01*
X163567117Y-103705537D01*
X163422228Y-103765552D01*
X163268414Y-103796148D01*
X163111586Y-103796148D01*
X162957772Y-103765552D01*
X162812883Y-103705537D01*
X162682485Y-103618408D01*
X162571592Y-103507515D01*
X162484463Y-103377117D01*
X162424448Y-103232228D01*
X162393852Y-103078414D01*
X162393852Y-102921586D01*
X162424448Y-102767772D01*
X162484463Y-102622883D01*
X162571592Y-102492485D01*
X162682485Y-102381592D01*
X162812883Y-102294463D01*
X162957772Y-102234448D01*
X163111586Y-102203852D01*
X163268414Y-102203852D01*
X163422228Y-102234448D01*
G37*
G36*
X171042228Y-102234448D02*
G01*
X171187117Y-102294463D01*
X171317515Y-102381592D01*
X171428408Y-102492485D01*
X171515537Y-102622883D01*
X171575552Y-102767772D01*
X171606148Y-102921586D01*
X171606148Y-103078414D01*
X171575552Y-103232228D01*
X171515537Y-103377117D01*
X171428408Y-103507515D01*
X171317515Y-103618408D01*
X171187117Y-103705537D01*
X171042228Y-103765552D01*
X170888414Y-103796148D01*
X170731586Y-103796148D01*
X170577772Y-103765552D01*
X170432883Y-103705537D01*
X170302485Y-103618408D01*
X170191592Y-103507515D01*
X170104463Y-103377117D01*
X170044448Y-103232228D01*
X170013852Y-103078414D01*
X170013852Y-102921586D01*
X170044448Y-102767772D01*
X170104463Y-102622883D01*
X170191592Y-102492485D01*
X170302485Y-102381592D01*
X170432883Y-102294463D01*
X170577772Y-102234448D01*
X170731586Y-102203852D01*
X170888414Y-102203852D01*
X171042228Y-102234448D01*
G37*
G36*
X173867350Y-102275964D02*
G01*
X173917540Y-102281787D01*
X173934689Y-102289359D01*
X173958171Y-102294030D01*
X173983310Y-102310827D01*
X174003196Y-102319608D01*
X174016777Y-102333189D01*
X174039277Y-102348223D01*
X174054310Y-102370722D01*
X174067891Y-102384303D01*
X174076670Y-102404186D01*
X174093470Y-102429329D01*
X174098141Y-102452812D01*
X174105712Y-102469959D01*
X174111533Y-102520139D01*
X174112500Y-102525000D01*
X174112500Y-103475000D01*
X174111532Y-103479863D01*
X174105712Y-103530040D01*
X174098141Y-103547185D01*
X174093470Y-103570671D01*
X174076669Y-103595815D01*
X174067891Y-103615696D01*
X174054312Y-103629274D01*
X174039277Y-103651777D01*
X174016774Y-103666812D01*
X174003196Y-103680391D01*
X173983315Y-103689169D01*
X173958171Y-103705970D01*
X173934685Y-103710641D01*
X173917540Y-103718212D01*
X173867361Y-103724032D01*
X173862500Y-103725000D01*
X173187500Y-103725000D01*
X173182638Y-103724032D01*
X173132459Y-103718212D01*
X173115312Y-103710641D01*
X173091829Y-103705970D01*
X173066686Y-103689170D01*
X173046803Y-103680391D01*
X173033222Y-103666810D01*
X173010723Y-103651777D01*
X172995689Y-103629277D01*
X172982108Y-103615696D01*
X172973327Y-103595810D01*
X172956530Y-103570671D01*
X172951859Y-103547189D01*
X172944287Y-103530040D01*
X172938464Y-103479849D01*
X172937500Y-103475000D01*
X172937500Y-102525000D01*
X172938464Y-102520150D01*
X172944287Y-102469959D01*
X172951859Y-102452808D01*
X172956530Y-102429329D01*
X172973326Y-102404191D01*
X172982108Y-102384303D01*
X172995691Y-102370719D01*
X173010723Y-102348223D01*
X173033219Y-102333191D01*
X173046803Y-102319608D01*
X173066691Y-102310826D01*
X173091829Y-102294030D01*
X173115308Y-102289359D01*
X173132459Y-102281787D01*
X173182651Y-102275964D01*
X173187500Y-102275000D01*
X173862500Y-102275000D01*
X173867350Y-102275964D01*
G37*
G36*
X175942350Y-102275964D02*
G01*
X175992540Y-102281787D01*
X176009689Y-102289359D01*
X176033171Y-102294030D01*
X176058310Y-102310827D01*
X176078196Y-102319608D01*
X176091777Y-102333189D01*
X176114277Y-102348223D01*
X176129310Y-102370722D01*
X176142891Y-102384303D01*
X176151670Y-102404186D01*
X176168470Y-102429329D01*
X176173141Y-102452812D01*
X176180712Y-102469959D01*
X176186533Y-102520139D01*
X176187500Y-102525000D01*
X176187500Y-103475000D01*
X176186532Y-103479863D01*
X176180712Y-103530040D01*
X176173141Y-103547185D01*
X176168470Y-103570671D01*
X176151669Y-103595815D01*
X176142891Y-103615696D01*
X176129312Y-103629274D01*
X176114277Y-103651777D01*
X176091774Y-103666812D01*
X176078196Y-103680391D01*
X176058315Y-103689169D01*
X176033171Y-103705970D01*
X176009685Y-103710641D01*
X175992540Y-103718212D01*
X175942361Y-103724032D01*
X175937500Y-103725000D01*
X175262500Y-103725000D01*
X175257638Y-103724032D01*
X175207459Y-103718212D01*
X175190312Y-103710641D01*
X175166829Y-103705970D01*
X175141686Y-103689170D01*
X175121803Y-103680391D01*
X175108222Y-103666810D01*
X175085723Y-103651777D01*
X175070689Y-103629277D01*
X175057108Y-103615696D01*
X175048327Y-103595810D01*
X175031530Y-103570671D01*
X175026859Y-103547189D01*
X175019287Y-103530040D01*
X175013464Y-103479849D01*
X175012500Y-103475000D01*
X175012500Y-102525000D01*
X175013464Y-102520150D01*
X175019287Y-102469959D01*
X175026859Y-102452808D01*
X175031530Y-102429329D01*
X175048326Y-102404191D01*
X175057108Y-102384303D01*
X175070691Y-102370719D01*
X175085723Y-102348223D01*
X175108219Y-102333191D01*
X175121803Y-102319608D01*
X175141691Y-102310826D01*
X175166829Y-102294030D01*
X175190308Y-102289359D01*
X175207459Y-102281787D01*
X175257651Y-102275964D01*
X175262500Y-102275000D01*
X175937500Y-102275000D01*
X175942350Y-102275964D01*
G37*
G36*
X185092350Y-101700964D02*
G01*
X185142540Y-101706787D01*
X185159689Y-101714359D01*
X185183171Y-101719030D01*
X185208310Y-101735827D01*
X185228196Y-101744608D01*
X185241777Y-101758189D01*
X185264277Y-101773223D01*
X185279310Y-101795722D01*
X185292891Y-101809303D01*
X185301670Y-101829186D01*
X185318470Y-101854329D01*
X185323141Y-101877812D01*
X185330712Y-101894959D01*
X185336533Y-101945139D01*
X185337500Y-101950000D01*
X185337500Y-103250000D01*
X185336532Y-103254863D01*
X185330712Y-103305040D01*
X185323141Y-103322185D01*
X185318470Y-103345671D01*
X185301669Y-103370815D01*
X185292891Y-103390696D01*
X185279312Y-103404274D01*
X185264277Y-103426777D01*
X185241774Y-103441812D01*
X185228196Y-103455391D01*
X185208315Y-103464169D01*
X185183171Y-103480970D01*
X185159685Y-103485641D01*
X185142540Y-103493212D01*
X185092361Y-103499032D01*
X185087500Y-103500000D01*
X184262500Y-103500000D01*
X184257638Y-103499032D01*
X184207459Y-103493212D01*
X184190312Y-103485641D01*
X184166829Y-103480970D01*
X184141686Y-103464170D01*
X184121803Y-103455391D01*
X184108222Y-103441810D01*
X184085723Y-103426777D01*
X184070689Y-103404277D01*
X184057108Y-103390696D01*
X184048327Y-103370810D01*
X184031530Y-103345671D01*
X184026859Y-103322189D01*
X184019287Y-103305040D01*
X184013464Y-103254849D01*
X184012500Y-103250000D01*
X184012500Y-101950000D01*
X184013464Y-101945150D01*
X184019287Y-101894959D01*
X184026859Y-101877808D01*
X184031530Y-101854329D01*
X184048326Y-101829191D01*
X184057108Y-101809303D01*
X184070691Y-101795719D01*
X184085723Y-101773223D01*
X184108219Y-101758191D01*
X184121803Y-101744608D01*
X184141691Y-101735826D01*
X184166829Y-101719030D01*
X184190308Y-101714359D01*
X184207459Y-101706787D01*
X184257651Y-101700964D01*
X184262500Y-101700000D01*
X185087500Y-101700000D01*
X185092350Y-101700964D01*
G37*
G36*
X188217350Y-101700964D02*
G01*
X188267540Y-101706787D01*
X188284689Y-101714359D01*
X188308171Y-101719030D01*
X188333310Y-101735827D01*
X188353196Y-101744608D01*
X188366777Y-101758189D01*
X188389277Y-101773223D01*
X188404310Y-101795722D01*
X188417891Y-101809303D01*
X188426670Y-101829186D01*
X188443470Y-101854329D01*
X188448141Y-101877812D01*
X188455712Y-101894959D01*
X188461533Y-101945139D01*
X188462500Y-101950000D01*
X188462500Y-103250000D01*
X188461532Y-103254863D01*
X188455712Y-103305040D01*
X188448141Y-103322185D01*
X188443470Y-103345671D01*
X188426669Y-103370815D01*
X188417891Y-103390696D01*
X188404312Y-103404274D01*
X188389277Y-103426777D01*
X188366774Y-103441812D01*
X188353196Y-103455391D01*
X188333315Y-103464169D01*
X188308171Y-103480970D01*
X188284685Y-103485641D01*
X188267540Y-103493212D01*
X188217361Y-103499032D01*
X188212500Y-103500000D01*
X187387500Y-103500000D01*
X187382638Y-103499032D01*
X187332459Y-103493212D01*
X187315312Y-103485641D01*
X187291829Y-103480970D01*
X187266686Y-103464170D01*
X187246803Y-103455391D01*
X187233222Y-103441810D01*
X187210723Y-103426777D01*
X187195689Y-103404277D01*
X187182108Y-103390696D01*
X187173327Y-103370810D01*
X187156530Y-103345671D01*
X187151859Y-103322189D01*
X187144287Y-103305040D01*
X187138464Y-103254849D01*
X187137500Y-103250000D01*
X187137500Y-101950000D01*
X187138464Y-101945150D01*
X187144287Y-101894959D01*
X187151859Y-101877808D01*
X187156530Y-101854329D01*
X187173326Y-101829191D01*
X187182108Y-101809303D01*
X187195691Y-101795719D01*
X187210723Y-101773223D01*
X187233219Y-101758191D01*
X187246803Y-101744608D01*
X187266691Y-101735826D01*
X187291829Y-101719030D01*
X187315308Y-101714359D01*
X187332459Y-101706787D01*
X187382651Y-101700964D01*
X187387500Y-101700000D01*
X188212500Y-101700000D01*
X188217350Y-101700964D01*
G37*
G36*
X150554850Y-101300964D02*
G01*
X150605040Y-101306787D01*
X150622189Y-101314359D01*
X150645671Y-101319030D01*
X150670810Y-101335827D01*
X150690696Y-101344608D01*
X150704277Y-101358189D01*
X150726777Y-101373223D01*
X150741810Y-101395722D01*
X150755391Y-101409303D01*
X150764170Y-101429186D01*
X150780970Y-101454329D01*
X150785641Y-101477812D01*
X150793212Y-101494959D01*
X150799033Y-101545139D01*
X150800000Y-101550000D01*
X150800000Y-103050000D01*
X150799032Y-103054863D01*
X150793212Y-103105040D01*
X150785641Y-103122185D01*
X150780970Y-103145671D01*
X150764169Y-103170815D01*
X150755391Y-103190696D01*
X150741812Y-103204274D01*
X150726777Y-103226777D01*
X150704274Y-103241812D01*
X150690696Y-103255391D01*
X150670815Y-103264169D01*
X150645671Y-103280970D01*
X150622185Y-103285641D01*
X150605040Y-103293212D01*
X150554861Y-103299032D01*
X150550000Y-103300000D01*
X149050000Y-103300000D01*
X149045138Y-103299032D01*
X148994959Y-103293212D01*
X148977812Y-103285641D01*
X148954329Y-103280970D01*
X148929186Y-103264170D01*
X148909303Y-103255391D01*
X148895722Y-103241810D01*
X148873223Y-103226777D01*
X148858189Y-103204277D01*
X148844608Y-103190696D01*
X148835827Y-103170810D01*
X148819030Y-103145671D01*
X148814359Y-103122189D01*
X148806787Y-103105040D01*
X148800964Y-103054849D01*
X148800000Y-103050000D01*
X148800000Y-101550000D01*
X148800964Y-101545150D01*
X148806787Y-101494959D01*
X148814359Y-101477808D01*
X148819030Y-101454329D01*
X148835826Y-101429191D01*
X148844608Y-101409303D01*
X148858191Y-101395719D01*
X148873223Y-101373223D01*
X148895719Y-101358191D01*
X148909303Y-101344608D01*
X148929191Y-101335826D01*
X148954329Y-101319030D01*
X148977808Y-101314359D01*
X148994959Y-101306787D01*
X149045151Y-101300964D01*
X149050000Y-101300000D01*
X150550000Y-101300000D01*
X150554850Y-101300964D01*
G37*
G36*
X195454850Y-99380964D02*
G01*
X195505040Y-99386787D01*
X195522189Y-99394359D01*
X195545671Y-99399030D01*
X195570810Y-99415827D01*
X195590696Y-99424608D01*
X195604277Y-99438189D01*
X195626777Y-99453223D01*
X195641810Y-99475722D01*
X195655391Y-99489303D01*
X195664170Y-99509186D01*
X195680970Y-99534329D01*
X195685641Y-99557812D01*
X195693212Y-99574959D01*
X195699033Y-99625139D01*
X195700000Y-99630000D01*
X195700000Y-101130000D01*
X195699032Y-101134863D01*
X195693212Y-101185040D01*
X195685641Y-101202185D01*
X195680970Y-101225671D01*
X195664169Y-101250815D01*
X195655391Y-101270696D01*
X195641812Y-101284274D01*
X195626777Y-101306777D01*
X195604274Y-101321812D01*
X195590696Y-101335391D01*
X195570815Y-101344169D01*
X195545671Y-101360970D01*
X195522185Y-101365641D01*
X195505040Y-101373212D01*
X195454861Y-101379032D01*
X195450000Y-101380000D01*
X193950000Y-101380000D01*
X193945138Y-101379032D01*
X193894959Y-101373212D01*
X193877812Y-101365641D01*
X193854329Y-101360970D01*
X193829186Y-101344170D01*
X193809303Y-101335391D01*
X193795722Y-101321810D01*
X193773223Y-101306777D01*
X193758189Y-101284277D01*
X193744608Y-101270696D01*
X193735827Y-101250810D01*
X193719030Y-101225671D01*
X193714359Y-101202189D01*
X193706787Y-101185040D01*
X193700964Y-101134849D01*
X193700000Y-101130000D01*
X193700000Y-99630000D01*
X193700964Y-99625150D01*
X193706787Y-99574959D01*
X193714359Y-99557808D01*
X193719030Y-99534329D01*
X193735826Y-99509191D01*
X193744608Y-99489303D01*
X193758191Y-99475719D01*
X193773223Y-99453223D01*
X193795719Y-99438191D01*
X193809303Y-99424608D01*
X193829191Y-99415826D01*
X193854329Y-99399030D01*
X193877808Y-99394359D01*
X193894959Y-99386787D01*
X193945151Y-99380964D01*
X193950000Y-99380000D01*
X195450000Y-99380000D01*
X195454850Y-99380964D01*
G37*
G36*
X158367350Y-98375964D02*
G01*
X158417540Y-98381787D01*
X158434689Y-98389359D01*
X158458171Y-98394030D01*
X158483310Y-98410827D01*
X158503196Y-98419608D01*
X158516777Y-98433189D01*
X158539277Y-98448223D01*
X158554310Y-98470722D01*
X158567891Y-98484303D01*
X158576670Y-98504186D01*
X158593470Y-98529329D01*
X158598141Y-98552812D01*
X158605712Y-98569959D01*
X158611533Y-98620139D01*
X158612500Y-98625000D01*
X158612500Y-99575000D01*
X158611532Y-99579863D01*
X158605712Y-99630040D01*
X158598141Y-99647185D01*
X158593470Y-99670671D01*
X158576669Y-99695815D01*
X158567891Y-99715696D01*
X158554312Y-99729274D01*
X158539277Y-99751777D01*
X158516774Y-99766812D01*
X158503196Y-99780391D01*
X158483315Y-99789169D01*
X158458171Y-99805970D01*
X158434685Y-99810641D01*
X158417540Y-99818212D01*
X158367361Y-99824032D01*
X158362500Y-99825000D01*
X157687500Y-99825000D01*
X157682638Y-99824032D01*
X157632459Y-99818212D01*
X157615312Y-99810641D01*
X157591829Y-99805970D01*
X157566686Y-99789170D01*
X157546803Y-99780391D01*
X157533222Y-99766810D01*
X157510723Y-99751777D01*
X157495689Y-99729277D01*
X157482108Y-99715696D01*
X157473327Y-99695810D01*
X157456530Y-99670671D01*
X157451859Y-99647189D01*
X157444287Y-99630040D01*
X157438464Y-99579849D01*
X157437500Y-99575000D01*
X157437500Y-98625000D01*
X157438464Y-98620150D01*
X157444287Y-98569959D01*
X157451859Y-98552808D01*
X157456530Y-98529329D01*
X157473326Y-98504191D01*
X157482108Y-98484303D01*
X157495691Y-98470719D01*
X157510723Y-98448223D01*
X157533219Y-98433191D01*
X157546803Y-98419608D01*
X157566691Y-98410826D01*
X157591829Y-98394030D01*
X157615308Y-98389359D01*
X157632459Y-98381787D01*
X157682651Y-98375964D01*
X157687500Y-98375000D01*
X158362500Y-98375000D01*
X158367350Y-98375964D01*
G37*
G36*
X160442350Y-98375964D02*
G01*
X160492540Y-98381787D01*
X160509689Y-98389359D01*
X160533171Y-98394030D01*
X160558310Y-98410827D01*
X160578196Y-98419608D01*
X160591777Y-98433189D01*
X160614277Y-98448223D01*
X160629310Y-98470722D01*
X160642891Y-98484303D01*
X160651670Y-98504186D01*
X160668470Y-98529329D01*
X160673141Y-98552812D01*
X160680712Y-98569959D01*
X160686533Y-98620139D01*
X160687500Y-98625000D01*
X160687500Y-99575000D01*
X160686532Y-99579863D01*
X160680712Y-99630040D01*
X160673141Y-99647185D01*
X160668470Y-99670671D01*
X160651669Y-99695815D01*
X160642891Y-99715696D01*
X160629312Y-99729274D01*
X160614277Y-99751777D01*
X160591774Y-99766812D01*
X160578196Y-99780391D01*
X160558315Y-99789169D01*
X160533171Y-99805970D01*
X160509685Y-99810641D01*
X160492540Y-99818212D01*
X160442361Y-99824032D01*
X160437500Y-99825000D01*
X159762500Y-99825000D01*
X159757638Y-99824032D01*
X159707459Y-99818212D01*
X159690312Y-99810641D01*
X159666829Y-99805970D01*
X159641686Y-99789170D01*
X159621803Y-99780391D01*
X159608222Y-99766810D01*
X159585723Y-99751777D01*
X159570689Y-99729277D01*
X159557108Y-99715696D01*
X159548327Y-99695810D01*
X159531530Y-99670671D01*
X159526859Y-99647189D01*
X159519287Y-99630040D01*
X159513464Y-99579849D01*
X159512500Y-99575000D01*
X159512500Y-98625000D01*
X159513464Y-98620150D01*
X159519287Y-98569959D01*
X159526859Y-98552808D01*
X159531530Y-98529329D01*
X159548326Y-98504191D01*
X159557108Y-98484303D01*
X159570691Y-98470719D01*
X159585723Y-98448223D01*
X159608219Y-98433191D01*
X159621803Y-98419608D01*
X159641691Y-98410826D01*
X159666829Y-98394030D01*
X159690308Y-98389359D01*
X159707459Y-98381787D01*
X159757651Y-98375964D01*
X159762500Y-98375000D01*
X160437500Y-98375000D01*
X160442350Y-98375964D01*
G37*
G36*
X179754850Y-98200964D02*
G01*
X179805040Y-98206787D01*
X179822189Y-98214359D01*
X179845671Y-98219030D01*
X179870810Y-98235827D01*
X179890696Y-98244608D01*
X179904277Y-98258189D01*
X179926777Y-98273223D01*
X179941810Y-98295722D01*
X179955391Y-98309303D01*
X179964170Y-98329186D01*
X179980970Y-98354329D01*
X179985641Y-98377812D01*
X179993212Y-98394959D01*
X179999033Y-98445139D01*
X180000000Y-98450000D01*
X180000000Y-99350000D01*
X179999032Y-99354863D01*
X179993212Y-99405040D01*
X179985641Y-99422185D01*
X179980970Y-99445671D01*
X179964169Y-99470815D01*
X179955391Y-99490696D01*
X179941812Y-99504274D01*
X179926777Y-99526777D01*
X179904274Y-99541812D01*
X179890696Y-99555391D01*
X179870815Y-99564169D01*
X179845671Y-99580970D01*
X179822185Y-99585641D01*
X179805040Y-99593212D01*
X179754861Y-99599032D01*
X179750000Y-99600000D01*
X179050000Y-99600000D01*
X179045138Y-99599032D01*
X178994959Y-99593212D01*
X178977812Y-99585641D01*
X178954329Y-99580970D01*
X178929186Y-99564170D01*
X178909303Y-99555391D01*
X178895722Y-99541810D01*
X178873223Y-99526777D01*
X178858189Y-99504277D01*
X178844608Y-99490696D01*
X178835827Y-99470810D01*
X178819030Y-99445671D01*
X178814359Y-99422189D01*
X178806787Y-99405040D01*
X178800964Y-99354849D01*
X178800000Y-99350000D01*
X178800000Y-98450000D01*
X178800964Y-98445150D01*
X178806787Y-98394959D01*
X178814359Y-98377808D01*
X178819030Y-98354329D01*
X178835826Y-98329191D01*
X178844608Y-98309303D01*
X178858191Y-98295719D01*
X178873223Y-98273223D01*
X178895719Y-98258191D01*
X178909303Y-98244608D01*
X178929191Y-98235826D01*
X178954329Y-98219030D01*
X178977808Y-98214359D01*
X178994959Y-98206787D01*
X179045151Y-98200964D01*
X179050000Y-98200000D01*
X179750000Y-98200000D01*
X179754850Y-98200964D01*
G37*
G36*
X181754850Y-98200964D02*
G01*
X181805040Y-98206787D01*
X181822189Y-98214359D01*
X181845671Y-98219030D01*
X181870810Y-98235827D01*
X181890696Y-98244608D01*
X181904277Y-98258189D01*
X181926777Y-98273223D01*
X181941810Y-98295722D01*
X181955391Y-98309303D01*
X181964170Y-98329186D01*
X181980970Y-98354329D01*
X181985641Y-98377812D01*
X181993212Y-98394959D01*
X181999033Y-98445139D01*
X182000000Y-98450000D01*
X182000000Y-99350000D01*
X181999032Y-99354863D01*
X181993212Y-99405040D01*
X181985641Y-99422185D01*
X181980970Y-99445671D01*
X181964169Y-99470815D01*
X181955391Y-99490696D01*
X181941812Y-99504274D01*
X181926777Y-99526777D01*
X181904274Y-99541812D01*
X181890696Y-99555391D01*
X181870815Y-99564169D01*
X181845671Y-99580970D01*
X181822185Y-99585641D01*
X181805040Y-99593212D01*
X181754861Y-99599032D01*
X181750000Y-99600000D01*
X181050000Y-99600000D01*
X181045138Y-99599032D01*
X180994959Y-99593212D01*
X180977812Y-99585641D01*
X180954329Y-99580970D01*
X180929186Y-99564170D01*
X180909303Y-99555391D01*
X180895722Y-99541810D01*
X180873223Y-99526777D01*
X180858189Y-99504277D01*
X180844608Y-99490696D01*
X180835827Y-99470810D01*
X180819030Y-99445671D01*
X180814359Y-99422189D01*
X180806787Y-99405040D01*
X180800964Y-99354849D01*
X180800000Y-99350000D01*
X180800000Y-98450000D01*
X180800964Y-98445150D01*
X180806787Y-98394959D01*
X180814359Y-98377808D01*
X180819030Y-98354329D01*
X180835826Y-98329191D01*
X180844608Y-98309303D01*
X180858191Y-98295719D01*
X180873223Y-98273223D01*
X180895719Y-98258191D01*
X180909303Y-98244608D01*
X180929191Y-98235826D01*
X180954329Y-98219030D01*
X180977808Y-98214359D01*
X180994959Y-98206787D01*
X181045151Y-98200964D01*
X181050000Y-98200000D01*
X181750000Y-98200000D01*
X181754850Y-98200964D01*
G37*
G36*
X185054850Y-98200964D02*
G01*
X185105040Y-98206787D01*
X185122189Y-98214359D01*
X185145671Y-98219030D01*
X185170810Y-98235827D01*
X185190696Y-98244608D01*
X185204277Y-98258189D01*
X185226777Y-98273223D01*
X185241810Y-98295722D01*
X185255391Y-98309303D01*
X185264170Y-98329186D01*
X185280970Y-98354329D01*
X185285641Y-98377812D01*
X185293212Y-98394959D01*
X185299033Y-98445139D01*
X185300000Y-98450000D01*
X185300000Y-99350000D01*
X185299032Y-99354863D01*
X185293212Y-99405040D01*
X185285641Y-99422185D01*
X185280970Y-99445671D01*
X185264169Y-99470815D01*
X185255391Y-99490696D01*
X185241812Y-99504274D01*
X185226777Y-99526777D01*
X185204274Y-99541812D01*
X185190696Y-99555391D01*
X185170815Y-99564169D01*
X185145671Y-99580970D01*
X185122185Y-99585641D01*
X185105040Y-99593212D01*
X185054861Y-99599032D01*
X185050000Y-99600000D01*
X184350000Y-99600000D01*
X184345138Y-99599032D01*
X184294959Y-99593212D01*
X184277812Y-99585641D01*
X184254329Y-99580970D01*
X184229186Y-99564170D01*
X184209303Y-99555391D01*
X184195722Y-99541810D01*
X184173223Y-99526777D01*
X184158189Y-99504277D01*
X184144608Y-99490696D01*
X184135827Y-99470810D01*
X184119030Y-99445671D01*
X184114359Y-99422189D01*
X184106787Y-99405040D01*
X184100964Y-99354849D01*
X184100000Y-99350000D01*
X184100000Y-98450000D01*
X184100964Y-98445150D01*
X184106787Y-98394959D01*
X184114359Y-98377808D01*
X184119030Y-98354329D01*
X184135826Y-98329191D01*
X184144608Y-98309303D01*
X184158191Y-98295719D01*
X184173223Y-98273223D01*
X184195719Y-98258191D01*
X184209303Y-98244608D01*
X184229191Y-98235826D01*
X184254329Y-98219030D01*
X184277808Y-98214359D01*
X184294959Y-98206787D01*
X184345151Y-98200964D01*
X184350000Y-98200000D01*
X185050000Y-98200000D01*
X185054850Y-98200964D01*
G37*
G36*
X187054850Y-98200964D02*
G01*
X187105040Y-98206787D01*
X187122189Y-98214359D01*
X187145671Y-98219030D01*
X187170810Y-98235827D01*
X187190696Y-98244608D01*
X187204277Y-98258189D01*
X187226777Y-98273223D01*
X187241810Y-98295722D01*
X187255391Y-98309303D01*
X187264170Y-98329186D01*
X187280970Y-98354329D01*
X187285641Y-98377812D01*
X187293212Y-98394959D01*
X187299033Y-98445139D01*
X187300000Y-98450000D01*
X187300000Y-99350000D01*
X187299032Y-99354863D01*
X187293212Y-99405040D01*
X187285641Y-99422185D01*
X187280970Y-99445671D01*
X187264169Y-99470815D01*
X187255391Y-99490696D01*
X187241812Y-99504274D01*
X187226777Y-99526777D01*
X187204274Y-99541812D01*
X187190696Y-99555391D01*
X187170815Y-99564169D01*
X187145671Y-99580970D01*
X187122185Y-99585641D01*
X187105040Y-99593212D01*
X187054861Y-99599032D01*
X187050000Y-99600000D01*
X186350000Y-99600000D01*
X186345138Y-99599032D01*
X186294959Y-99593212D01*
X186277812Y-99585641D01*
X186254329Y-99580970D01*
X186229186Y-99564170D01*
X186209303Y-99555391D01*
X186195722Y-99541810D01*
X186173223Y-99526777D01*
X186158189Y-99504277D01*
X186144608Y-99490696D01*
X186135827Y-99470810D01*
X186119030Y-99445671D01*
X186114359Y-99422189D01*
X186106787Y-99405040D01*
X186100964Y-99354849D01*
X186100000Y-99350000D01*
X186100000Y-98450000D01*
X186100964Y-98445150D01*
X186106787Y-98394959D01*
X186114359Y-98377808D01*
X186119030Y-98354329D01*
X186135826Y-98329191D01*
X186144608Y-98309303D01*
X186158191Y-98295719D01*
X186173223Y-98273223D01*
X186195719Y-98258191D01*
X186209303Y-98244608D01*
X186229191Y-98235826D01*
X186254329Y-98219030D01*
X186277808Y-98214359D01*
X186294959Y-98206787D01*
X186345151Y-98200964D01*
X186350000Y-98200000D01*
X187050000Y-98200000D01*
X187054850Y-98200964D01*
G37*
G36*
X194990285Y-96883060D02*
G01*
X195171397Y-96958079D01*
X195334393Y-97066990D01*
X195473010Y-97205607D01*
X195581921Y-97368603D01*
X195656940Y-97549715D01*
X195695185Y-97741983D01*
X195695185Y-97938017D01*
X195656940Y-98130285D01*
X195581921Y-98311397D01*
X195473010Y-98474393D01*
X195334393Y-98613010D01*
X195171397Y-98721921D01*
X194990285Y-98796940D01*
X194798017Y-98835185D01*
X194601983Y-98835185D01*
X194409715Y-98796940D01*
X194228603Y-98721921D01*
X194065607Y-98613010D01*
X193926990Y-98474393D01*
X193818079Y-98311397D01*
X193743060Y-98130285D01*
X193704815Y-97938017D01*
X193704815Y-97741983D01*
X193743060Y-97549715D01*
X193818079Y-97368603D01*
X193926990Y-97205607D01*
X194065607Y-97066990D01*
X194228603Y-96958079D01*
X194409715Y-96883060D01*
X194601983Y-96844815D01*
X194798017Y-96844815D01*
X194990285Y-96883060D01*
G37*
G36*
X150090285Y-96683060D02*
G01*
X150271397Y-96758079D01*
X150434393Y-96866990D01*
X150573010Y-97005607D01*
X150681921Y-97168603D01*
X150756940Y-97349715D01*
X150795185Y-97541983D01*
X150795185Y-97738017D01*
X150756940Y-97930285D01*
X150681921Y-98111397D01*
X150573010Y-98274393D01*
X150434393Y-98413010D01*
X150271397Y-98521921D01*
X150090285Y-98596940D01*
X149898017Y-98635185D01*
X149701983Y-98635185D01*
X149509715Y-98596940D01*
X149328603Y-98521921D01*
X149165607Y-98413010D01*
X149026990Y-98274393D01*
X148918079Y-98111397D01*
X148843060Y-97930285D01*
X148804815Y-97738017D01*
X148804815Y-97541983D01*
X148843060Y-97349715D01*
X148918079Y-97168603D01*
X149026990Y-97005607D01*
X149165607Y-96866990D01*
X149328603Y-96758079D01*
X149509715Y-96683060D01*
X149701983Y-96644815D01*
X149898017Y-96644815D01*
X150090285Y-96683060D01*
G37*
G36*
X167662000Y-98325500D02*
G01*
X167362000Y-98325500D01*
X167362000Y-96850500D01*
X167662000Y-96850500D01*
X167662000Y-98325500D01*
G37*
G36*
X168162000Y-98325500D02*
G01*
X167862000Y-98325500D01*
X167862000Y-96850500D01*
X168162000Y-96850500D01*
X168162000Y-98325500D01*
G37*
G36*
X168662000Y-98325500D02*
G01*
X168362000Y-98325500D01*
X168362000Y-96850500D01*
X168662000Y-96850500D01*
X168662000Y-98325500D01*
G37*
G36*
X169162000Y-98325500D02*
G01*
X168862000Y-98325500D01*
X168862000Y-96850500D01*
X169162000Y-96850500D01*
X169162000Y-98325500D01*
G37*
G36*
X169662000Y-98325500D02*
G01*
X169362000Y-98325500D01*
X169362000Y-96850500D01*
X169662000Y-96850500D01*
X169662000Y-98325500D01*
G37*
G36*
X170162000Y-98325500D02*
G01*
X169862000Y-98325500D01*
X169862000Y-96850500D01*
X170162000Y-96850500D01*
X170162000Y-98325500D01*
G37*
G36*
X170662000Y-98325500D02*
G01*
X170362000Y-98325500D01*
X170362000Y-96850500D01*
X170662000Y-96850500D01*
X170662000Y-98325500D01*
G37*
G36*
X171162000Y-98325500D02*
G01*
X170862000Y-98325500D01*
X170862000Y-96850500D01*
X171162000Y-96850500D01*
X171162000Y-98325500D01*
G37*
G36*
X171662000Y-98325500D02*
G01*
X171362000Y-98325500D01*
X171362000Y-96850500D01*
X171662000Y-96850500D01*
X171662000Y-98325500D01*
G37*
G36*
X172162000Y-98325500D02*
G01*
X171862000Y-98325500D01*
X171862000Y-96850500D01*
X172162000Y-96850500D01*
X172162000Y-98325500D01*
G37*
G36*
X172662000Y-98325500D02*
G01*
X172362000Y-98325500D01*
X172362000Y-96850500D01*
X172662000Y-96850500D01*
X172662000Y-98325500D01*
G37*
G36*
X173162000Y-98325500D02*
G01*
X172862000Y-98325500D01*
X172862000Y-96850500D01*
X173162000Y-96850500D01*
X173162000Y-98325500D01*
G37*
G36*
X173662000Y-98325500D02*
G01*
X173362000Y-98325500D01*
X173362000Y-96850500D01*
X173662000Y-96850500D01*
X173662000Y-98325500D01*
G37*
G36*
X174162000Y-98325500D02*
G01*
X173862000Y-98325500D01*
X173862000Y-96850500D01*
X174162000Y-96850500D01*
X174162000Y-98325500D01*
G37*
G36*
X174662000Y-98325500D02*
G01*
X174362000Y-98325500D01*
X174362000Y-96850500D01*
X174662000Y-96850500D01*
X174662000Y-98325500D01*
G37*
G36*
X175162000Y-98325500D02*
G01*
X174862000Y-98325500D01*
X174862000Y-96850500D01*
X175162000Y-96850500D01*
X175162000Y-98325500D01*
G37*
G36*
X194990285Y-94343060D02*
G01*
X195171397Y-94418079D01*
X195334393Y-94526990D01*
X195473010Y-94665607D01*
X195581921Y-94828603D01*
X195656940Y-95009715D01*
X195695185Y-95201983D01*
X195695185Y-95398017D01*
X195656940Y-95590285D01*
X195581921Y-95771397D01*
X195473010Y-95934393D01*
X195334393Y-96073010D01*
X195171397Y-96181921D01*
X194990285Y-96256940D01*
X194798017Y-96295185D01*
X194601983Y-96295185D01*
X194409715Y-96256940D01*
X194228603Y-96181921D01*
X194065607Y-96073010D01*
X193926990Y-95934393D01*
X193818079Y-95771397D01*
X193743060Y-95590285D01*
X193704815Y-95398017D01*
X193704815Y-95201983D01*
X193743060Y-95009715D01*
X193818079Y-94828603D01*
X193926990Y-94665607D01*
X194065607Y-94526990D01*
X194228603Y-94418079D01*
X194409715Y-94343060D01*
X194601983Y-94304815D01*
X194798017Y-94304815D01*
X194990285Y-94343060D01*
G37*
G36*
X150554850Y-94100964D02*
G01*
X150605040Y-94106787D01*
X150622189Y-94114359D01*
X150645671Y-94119030D01*
X150670810Y-94135827D01*
X150690696Y-94144608D01*
X150704277Y-94158189D01*
X150726777Y-94173223D01*
X150741810Y-94195722D01*
X150755391Y-94209303D01*
X150764170Y-94229186D01*
X150780970Y-94254329D01*
X150785641Y-94277812D01*
X150793212Y-94294959D01*
X150799033Y-94345139D01*
X150800000Y-94350000D01*
X150800000Y-95850000D01*
X150799032Y-95854863D01*
X150793212Y-95905040D01*
X150785641Y-95922185D01*
X150780970Y-95945671D01*
X150764169Y-95970815D01*
X150755391Y-95990696D01*
X150741812Y-96004274D01*
X150726777Y-96026777D01*
X150704274Y-96041812D01*
X150690696Y-96055391D01*
X150670815Y-96064169D01*
X150645671Y-96080970D01*
X150622185Y-96085641D01*
X150605040Y-96093212D01*
X150554861Y-96099032D01*
X150550000Y-96100000D01*
X149050000Y-96100000D01*
X149045138Y-96099032D01*
X148994959Y-96093212D01*
X148977812Y-96085641D01*
X148954329Y-96080970D01*
X148929186Y-96064170D01*
X148909303Y-96055391D01*
X148895722Y-96041810D01*
X148873223Y-96026777D01*
X148858189Y-96004277D01*
X148844608Y-95990696D01*
X148835827Y-95970810D01*
X148819030Y-95945671D01*
X148814359Y-95922189D01*
X148806787Y-95905040D01*
X148800964Y-95854849D01*
X148800000Y-95850000D01*
X148800000Y-94350000D01*
X148800964Y-94345150D01*
X148806787Y-94294959D01*
X148814359Y-94277808D01*
X148819030Y-94254329D01*
X148835826Y-94229191D01*
X148844608Y-94209303D01*
X148858191Y-94195719D01*
X148873223Y-94173223D01*
X148895719Y-94158191D01*
X148909303Y-94144608D01*
X148929191Y-94135826D01*
X148954329Y-94119030D01*
X148977808Y-94114359D01*
X148994959Y-94106787D01*
X149045151Y-94100964D01*
X149050000Y-94100000D01*
X150550000Y-94100000D01*
X150554850Y-94100964D01*
G37*
G36*
X158704850Y-94125964D02*
G01*
X158755040Y-94131787D01*
X158772189Y-94139359D01*
X158795671Y-94144030D01*
X158820810Y-94160827D01*
X158840696Y-94169608D01*
X158854277Y-94183189D01*
X158876777Y-94198223D01*
X158891810Y-94220722D01*
X158905391Y-94234303D01*
X158914170Y-94254186D01*
X158930970Y-94279329D01*
X158935641Y-94302812D01*
X158943212Y-94319959D01*
X158949033Y-94370139D01*
X158950000Y-94375000D01*
X158950000Y-95625000D01*
X158949032Y-95629863D01*
X158943212Y-95680040D01*
X158935641Y-95697185D01*
X158930970Y-95720671D01*
X158914169Y-95745815D01*
X158905391Y-95765696D01*
X158891812Y-95779274D01*
X158876777Y-95801777D01*
X158854274Y-95816812D01*
X158840696Y-95830391D01*
X158820815Y-95839169D01*
X158795671Y-95855970D01*
X158772185Y-95860641D01*
X158755040Y-95868212D01*
X158704861Y-95874032D01*
X158700000Y-95875000D01*
X157900000Y-95875000D01*
X157895138Y-95874032D01*
X157844959Y-95868212D01*
X157827812Y-95860641D01*
X157804329Y-95855970D01*
X157779186Y-95839170D01*
X157759303Y-95830391D01*
X157745722Y-95816810D01*
X157723223Y-95801777D01*
X157708189Y-95779277D01*
X157694608Y-95765696D01*
X157685827Y-95745810D01*
X157669030Y-95720671D01*
X157664359Y-95697189D01*
X157656787Y-95680040D01*
X157650964Y-95629849D01*
X157650000Y-95625000D01*
X157650000Y-94375000D01*
X157650964Y-94370150D01*
X157656787Y-94319959D01*
X157664359Y-94302808D01*
X157669030Y-94279329D01*
X157685826Y-94254191D01*
X157694608Y-94234303D01*
X157708191Y-94220719D01*
X157723223Y-94198223D01*
X157745719Y-94183191D01*
X157759303Y-94169608D01*
X157779191Y-94160826D01*
X157804329Y-94144030D01*
X157827808Y-94139359D01*
X157844959Y-94131787D01*
X157895151Y-94125964D01*
X157900000Y-94125000D01*
X158700000Y-94125000D01*
X158704850Y-94125964D01*
G37*
G36*
X161804850Y-94125964D02*
G01*
X161855040Y-94131787D01*
X161872189Y-94139359D01*
X161895671Y-94144030D01*
X161920810Y-94160827D01*
X161940696Y-94169608D01*
X161954277Y-94183189D01*
X161976777Y-94198223D01*
X161991810Y-94220722D01*
X162005391Y-94234303D01*
X162014170Y-94254186D01*
X162030970Y-94279329D01*
X162035641Y-94302812D01*
X162043212Y-94319959D01*
X162049033Y-94370139D01*
X162050000Y-94375000D01*
X162050000Y-95625000D01*
X162049032Y-95629863D01*
X162043212Y-95680040D01*
X162035641Y-95697185D01*
X162030970Y-95720671D01*
X162014169Y-95745815D01*
X162005391Y-95765696D01*
X161991812Y-95779274D01*
X161976777Y-95801777D01*
X161954274Y-95816812D01*
X161940696Y-95830391D01*
X161920815Y-95839169D01*
X161895671Y-95855970D01*
X161872185Y-95860641D01*
X161855040Y-95868212D01*
X161804861Y-95874032D01*
X161800000Y-95875000D01*
X161000000Y-95875000D01*
X160995138Y-95874032D01*
X160944959Y-95868212D01*
X160927812Y-95860641D01*
X160904329Y-95855970D01*
X160879186Y-95839170D01*
X160859303Y-95830391D01*
X160845722Y-95816810D01*
X160823223Y-95801777D01*
X160808189Y-95779277D01*
X160794608Y-95765696D01*
X160785827Y-95745810D01*
X160769030Y-95720671D01*
X160764359Y-95697189D01*
X160756787Y-95680040D01*
X160750964Y-95629849D01*
X160750000Y-95625000D01*
X160750000Y-94375000D01*
X160750964Y-94370150D01*
X160756787Y-94319959D01*
X160764359Y-94302808D01*
X160769030Y-94279329D01*
X160785826Y-94254191D01*
X160794608Y-94234303D01*
X160808191Y-94220719D01*
X160823223Y-94198223D01*
X160845719Y-94183191D01*
X160859303Y-94169608D01*
X160879191Y-94160826D01*
X160904329Y-94144030D01*
X160927808Y-94139359D01*
X160944959Y-94131787D01*
X160995151Y-94125964D01*
X161000000Y-94125000D01*
X161800000Y-94125000D01*
X161804850Y-94125964D01*
G37*
G36*
X166261500Y-95750000D02*
G01*
X164786500Y-95750000D01*
X164786500Y-95450000D01*
X166261500Y-95450000D01*
X166261500Y-95750000D01*
G37*
G36*
X177737500Y-95750000D02*
G01*
X176262500Y-95750000D01*
X176262500Y-95450000D01*
X177737500Y-95450000D01*
X177737500Y-95750000D01*
G37*
G36*
X166261500Y-95250000D02*
G01*
X164786500Y-95250000D01*
X164786500Y-94950000D01*
X166261500Y-94950000D01*
X166261500Y-95250000D01*
G37*
G36*
X177737500Y-95250000D02*
G01*
X176262500Y-95250000D01*
X176262500Y-94950000D01*
X177737500Y-94950000D01*
X177737500Y-95250000D01*
G37*
G36*
X184092350Y-93400964D02*
G01*
X184142540Y-93406787D01*
X184159689Y-93414359D01*
X184183171Y-93419030D01*
X184208310Y-93435827D01*
X184228196Y-93444608D01*
X184241777Y-93458189D01*
X184264277Y-93473223D01*
X184279310Y-93495722D01*
X184292891Y-93509303D01*
X184301670Y-93529186D01*
X184318470Y-93554329D01*
X184323141Y-93577812D01*
X184330712Y-93594959D01*
X184336533Y-93645139D01*
X184337500Y-93650000D01*
X184337500Y-94950000D01*
X184336532Y-94954863D01*
X184330712Y-95005040D01*
X184323141Y-95022185D01*
X184318470Y-95045671D01*
X184301669Y-95070815D01*
X184292891Y-95090696D01*
X184279312Y-95104274D01*
X184264277Y-95126777D01*
X184241774Y-95141812D01*
X184228196Y-95155391D01*
X184208315Y-95164169D01*
X184183171Y-95180970D01*
X184159685Y-95185641D01*
X184142540Y-95193212D01*
X184092361Y-95199032D01*
X184087500Y-95200000D01*
X183262500Y-95200000D01*
X183257638Y-95199032D01*
X183207459Y-95193212D01*
X183190312Y-95185641D01*
X183166829Y-95180970D01*
X183141686Y-95164170D01*
X183121803Y-95155391D01*
X183108222Y-95141810D01*
X183085723Y-95126777D01*
X183070689Y-95104277D01*
X183057108Y-95090696D01*
X183048327Y-95070810D01*
X183031530Y-95045671D01*
X183026859Y-95022189D01*
X183019287Y-95005040D01*
X183013464Y-94954849D01*
X183012500Y-94950000D01*
X183012500Y-93650000D01*
X183013464Y-93645150D01*
X183019287Y-93594959D01*
X183026859Y-93577808D01*
X183031530Y-93554329D01*
X183048326Y-93529191D01*
X183057108Y-93509303D01*
X183070691Y-93495719D01*
X183085723Y-93473223D01*
X183108219Y-93458191D01*
X183121803Y-93444608D01*
X183141691Y-93435826D01*
X183166829Y-93419030D01*
X183190308Y-93414359D01*
X183207459Y-93406787D01*
X183257651Y-93400964D01*
X183262500Y-93400000D01*
X184087500Y-93400000D01*
X184092350Y-93400964D01*
G37*
G36*
X187217350Y-93400964D02*
G01*
X187267540Y-93406787D01*
X187284689Y-93414359D01*
X187308171Y-93419030D01*
X187333310Y-93435827D01*
X187353196Y-93444608D01*
X187366777Y-93458189D01*
X187389277Y-93473223D01*
X187404310Y-93495722D01*
X187417891Y-93509303D01*
X187426670Y-93529186D01*
X187443470Y-93554329D01*
X187448141Y-93577812D01*
X187455712Y-93594959D01*
X187461533Y-93645139D01*
X187462500Y-93650000D01*
X187462500Y-94950000D01*
X187461532Y-94954863D01*
X187455712Y-95005040D01*
X187448141Y-95022185D01*
X187443470Y-95045671D01*
X187426669Y-95070815D01*
X187417891Y-95090696D01*
X187404312Y-95104274D01*
X187389277Y-95126777D01*
X187366774Y-95141812D01*
X187353196Y-95155391D01*
X187333315Y-95164169D01*
X187308171Y-95180970D01*
X187284685Y-95185641D01*
X187267540Y-95193212D01*
X187217361Y-95199032D01*
X187212500Y-95200000D01*
X186387500Y-95200000D01*
X186382638Y-95199032D01*
X186332459Y-95193212D01*
X186315312Y-95185641D01*
X186291829Y-95180970D01*
X186266686Y-95164170D01*
X186246803Y-95155391D01*
X186233222Y-95141810D01*
X186210723Y-95126777D01*
X186195689Y-95104277D01*
X186182108Y-95090696D01*
X186173327Y-95070810D01*
X186156530Y-95045671D01*
X186151859Y-95022189D01*
X186144287Y-95005040D01*
X186138464Y-94954849D01*
X186137500Y-94950000D01*
X186137500Y-93650000D01*
X186138464Y-93645150D01*
X186144287Y-93594959D01*
X186151859Y-93577808D01*
X186156530Y-93554329D01*
X186173326Y-93529191D01*
X186182108Y-93509303D01*
X186195691Y-93495719D01*
X186210723Y-93473223D01*
X186233219Y-93458191D01*
X186246803Y-93444608D01*
X186266691Y-93435826D01*
X186291829Y-93419030D01*
X186315308Y-93414359D01*
X186332459Y-93406787D01*
X186382651Y-93400964D01*
X186387500Y-93400000D01*
X187212500Y-93400000D01*
X187217350Y-93400964D01*
G37*
G36*
X166261500Y-94750000D02*
G01*
X164786500Y-94750000D01*
X164786500Y-94450000D01*
X166261500Y-94450000D01*
X166261500Y-94750000D01*
G37*
G36*
X177737500Y-94750000D02*
G01*
X176262500Y-94750000D01*
X176262500Y-94450000D01*
X177737500Y-94450000D01*
X177737500Y-94750000D01*
G37*
G36*
X166261500Y-94250000D02*
G01*
X164786500Y-94250000D01*
X164786500Y-93950000D01*
X166261500Y-93950000D01*
X166261500Y-94250000D01*
G37*
G36*
X177737500Y-94250000D02*
G01*
X176262500Y-94250000D01*
X176262500Y-93950000D01*
X177737500Y-93950000D01*
X177737500Y-94250000D01*
G37*
G36*
X179954850Y-92600964D02*
G01*
X180005040Y-92606787D01*
X180022189Y-92614359D01*
X180045671Y-92619030D01*
X180070810Y-92635827D01*
X180090696Y-92644608D01*
X180104277Y-92658189D01*
X180126777Y-92673223D01*
X180141810Y-92695722D01*
X180155391Y-92709303D01*
X180164170Y-92729186D01*
X180180970Y-92754329D01*
X180185641Y-92777812D01*
X180193212Y-92794959D01*
X180199033Y-92845139D01*
X180200000Y-92850000D01*
X180200000Y-93750000D01*
X180199032Y-93754863D01*
X180193212Y-93805040D01*
X180185641Y-93822185D01*
X180180970Y-93845671D01*
X180164169Y-93870815D01*
X180155391Y-93890696D01*
X180141812Y-93904274D01*
X180126777Y-93926777D01*
X180104274Y-93941812D01*
X180090696Y-93955391D01*
X180070815Y-93964169D01*
X180045671Y-93980970D01*
X180022185Y-93985641D01*
X180005040Y-93993212D01*
X179954861Y-93999032D01*
X179950000Y-94000000D01*
X179250000Y-94000000D01*
X179245138Y-93999032D01*
X179194959Y-93993212D01*
X179177812Y-93985641D01*
X179154329Y-93980970D01*
X179129186Y-93964170D01*
X179109303Y-93955391D01*
X179095722Y-93941810D01*
X179073223Y-93926777D01*
X179058189Y-93904277D01*
X179044608Y-93890696D01*
X179035827Y-93870810D01*
X179019030Y-93845671D01*
X179014359Y-93822189D01*
X179006787Y-93805040D01*
X179000964Y-93754849D01*
X179000000Y-93750000D01*
X179000000Y-92850000D01*
X179000964Y-92845150D01*
X179006787Y-92794959D01*
X179014359Y-92777808D01*
X179019030Y-92754329D01*
X179035826Y-92729191D01*
X179044608Y-92709303D01*
X179058191Y-92695719D01*
X179073223Y-92673223D01*
X179095719Y-92658191D01*
X179109303Y-92644608D01*
X179129191Y-92635826D01*
X179154329Y-92619030D01*
X179177808Y-92614359D01*
X179194959Y-92606787D01*
X179245151Y-92600964D01*
X179250000Y-92600000D01*
X179950000Y-92600000D01*
X179954850Y-92600964D01*
G37*
G36*
X181954850Y-92600964D02*
G01*
X182005040Y-92606787D01*
X182022189Y-92614359D01*
X182045671Y-92619030D01*
X182070810Y-92635827D01*
X182090696Y-92644608D01*
X182104277Y-92658189D01*
X182126777Y-92673223D01*
X182141810Y-92695722D01*
X182155391Y-92709303D01*
X182164170Y-92729186D01*
X182180970Y-92754329D01*
X182185641Y-92777812D01*
X182193212Y-92794959D01*
X182199033Y-92845139D01*
X182200000Y-92850000D01*
X182200000Y-93750000D01*
X182199032Y-93754863D01*
X182193212Y-93805040D01*
X182185641Y-93822185D01*
X182180970Y-93845671D01*
X182164169Y-93870815D01*
X182155391Y-93890696D01*
X182141812Y-93904274D01*
X182126777Y-93926777D01*
X182104274Y-93941812D01*
X182090696Y-93955391D01*
X182070815Y-93964169D01*
X182045671Y-93980970D01*
X182022185Y-93985641D01*
X182005040Y-93993212D01*
X181954861Y-93999032D01*
X181950000Y-94000000D01*
X181250000Y-94000000D01*
X181245138Y-93999032D01*
X181194959Y-93993212D01*
X181177812Y-93985641D01*
X181154329Y-93980970D01*
X181129186Y-93964170D01*
X181109303Y-93955391D01*
X181095722Y-93941810D01*
X181073223Y-93926777D01*
X181058189Y-93904277D01*
X181044608Y-93890696D01*
X181035827Y-93870810D01*
X181019030Y-93845671D01*
X181014359Y-93822189D01*
X181006787Y-93805040D01*
X181000964Y-93754849D01*
X181000000Y-93750000D01*
X181000000Y-92850000D01*
X181000964Y-92845150D01*
X181006787Y-92794959D01*
X181014359Y-92777808D01*
X181019030Y-92754329D01*
X181035826Y-92729191D01*
X181044608Y-92709303D01*
X181058191Y-92695719D01*
X181073223Y-92673223D01*
X181095719Y-92658191D01*
X181109303Y-92644608D01*
X181129191Y-92635826D01*
X181154329Y-92619030D01*
X181177808Y-92614359D01*
X181194959Y-92606787D01*
X181245151Y-92600964D01*
X181250000Y-92600000D01*
X181950000Y-92600000D01*
X181954850Y-92600964D01*
G37*
G36*
X166261500Y-93750000D02*
G01*
X164786500Y-93750000D01*
X164786500Y-93450000D01*
X166261500Y-93450000D01*
X166261500Y-93750000D01*
G37*
G36*
X177737500Y-93750000D02*
G01*
X176262500Y-93750000D01*
X176262500Y-93450000D01*
X177737500Y-93450000D01*
X177737500Y-93750000D01*
G37*
G36*
X166261500Y-93250000D02*
G01*
X164786500Y-93250000D01*
X164786500Y-92950000D01*
X166261500Y-92950000D01*
X166261500Y-93250000D01*
G37*
G36*
X177737500Y-93250000D02*
G01*
X176262500Y-93250000D01*
X176262500Y-92950000D01*
X177737500Y-92950000D01*
X177737500Y-93250000D01*
G37*
G36*
X166261500Y-92750000D02*
G01*
X164786500Y-92750000D01*
X164786500Y-92450000D01*
X166261500Y-92450000D01*
X166261500Y-92750000D01*
G37*
G36*
X177737500Y-92750000D02*
G01*
X176262500Y-92750000D01*
X176262500Y-92450000D01*
X177737500Y-92450000D01*
X177737500Y-92750000D01*
G37*
G36*
X166261500Y-92250000D02*
G01*
X164786500Y-92250000D01*
X164786500Y-91950000D01*
X166261500Y-91950000D01*
X166261500Y-92250000D01*
G37*
G36*
X177737500Y-92250000D02*
G01*
X176262500Y-92250000D01*
X176262500Y-91950000D01*
X177737500Y-91950000D01*
X177737500Y-92250000D01*
G37*
G36*
X195354850Y-89940964D02*
G01*
X195405040Y-89946787D01*
X195422189Y-89954359D01*
X195445671Y-89959030D01*
X195470810Y-89975827D01*
X195490696Y-89984608D01*
X195504277Y-89998189D01*
X195526777Y-90013223D01*
X195541810Y-90035722D01*
X195555391Y-90049303D01*
X195564170Y-90069186D01*
X195580970Y-90094329D01*
X195585641Y-90117812D01*
X195593212Y-90134959D01*
X195599033Y-90185139D01*
X195600000Y-90190000D01*
X195600000Y-91690000D01*
X195599032Y-91694863D01*
X195593212Y-91745040D01*
X195585641Y-91762185D01*
X195580970Y-91785671D01*
X195564169Y-91810815D01*
X195555391Y-91830696D01*
X195541812Y-91844274D01*
X195526777Y-91866777D01*
X195504274Y-91881812D01*
X195490696Y-91895391D01*
X195470815Y-91904169D01*
X195445671Y-91920970D01*
X195422185Y-91925641D01*
X195405040Y-91933212D01*
X195354861Y-91939032D01*
X195350000Y-91940000D01*
X193850000Y-91940000D01*
X193845138Y-91939032D01*
X193794959Y-91933212D01*
X193777812Y-91925641D01*
X193754329Y-91920970D01*
X193729186Y-91904170D01*
X193709303Y-91895391D01*
X193695722Y-91881810D01*
X193673223Y-91866777D01*
X193658189Y-91844277D01*
X193644608Y-91830696D01*
X193635827Y-91810810D01*
X193619030Y-91785671D01*
X193614359Y-91762189D01*
X193606787Y-91745040D01*
X193600964Y-91694849D01*
X193600000Y-91690000D01*
X193600000Y-90190000D01*
X193600964Y-90185150D01*
X193606787Y-90134959D01*
X193614359Y-90117808D01*
X193619030Y-90094329D01*
X193635826Y-90069191D01*
X193644608Y-90049303D01*
X193658191Y-90035719D01*
X193673223Y-90013223D01*
X193695719Y-89998191D01*
X193709303Y-89984608D01*
X193729191Y-89975826D01*
X193754329Y-89959030D01*
X193777808Y-89954359D01*
X193794959Y-89946787D01*
X193845151Y-89940964D01*
X193850000Y-89940000D01*
X195350000Y-89940000D01*
X195354850Y-89940964D01*
G37*
G36*
X166261500Y-91750000D02*
G01*
X164786500Y-91750000D01*
X164786500Y-91450000D01*
X166261500Y-91450000D01*
X166261500Y-91750000D01*
G37*
G36*
X177737500Y-91750000D02*
G01*
X176262500Y-91750000D01*
X176262500Y-91450000D01*
X177737500Y-91450000D01*
X177737500Y-91750000D01*
G37*
G36*
X158704850Y-89825964D02*
G01*
X158755040Y-89831787D01*
X158772189Y-89839359D01*
X158795671Y-89844030D01*
X158820810Y-89860827D01*
X158840696Y-89869608D01*
X158854277Y-89883189D01*
X158876777Y-89898223D01*
X158891810Y-89920722D01*
X158905391Y-89934303D01*
X158914170Y-89954186D01*
X158930970Y-89979329D01*
X158935641Y-90002812D01*
X158943212Y-90019959D01*
X158949033Y-90070139D01*
X158950000Y-90075000D01*
X158950000Y-91325000D01*
X158949032Y-91329863D01*
X158943212Y-91380040D01*
X158935641Y-91397185D01*
X158930970Y-91420671D01*
X158914169Y-91445815D01*
X158905391Y-91465696D01*
X158891812Y-91479274D01*
X158876777Y-91501777D01*
X158854274Y-91516812D01*
X158840696Y-91530391D01*
X158820815Y-91539169D01*
X158795671Y-91555970D01*
X158772185Y-91560641D01*
X158755040Y-91568212D01*
X158704861Y-91574032D01*
X158700000Y-91575000D01*
X157900000Y-91575000D01*
X157895138Y-91574032D01*
X157844959Y-91568212D01*
X157827812Y-91560641D01*
X157804329Y-91555970D01*
X157779186Y-91539170D01*
X157759303Y-91530391D01*
X157745722Y-91516810D01*
X157723223Y-91501777D01*
X157708189Y-91479277D01*
X157694608Y-91465696D01*
X157685827Y-91445810D01*
X157669030Y-91420671D01*
X157664359Y-91397189D01*
X157656787Y-91380040D01*
X157650964Y-91329849D01*
X157650000Y-91325000D01*
X157650000Y-90075000D01*
X157650964Y-90070150D01*
X157656787Y-90019959D01*
X157664359Y-90002808D01*
X157669030Y-89979329D01*
X157685826Y-89954191D01*
X157694608Y-89934303D01*
X157708191Y-89920719D01*
X157723223Y-89898223D01*
X157745719Y-89883191D01*
X157759303Y-89869608D01*
X157779191Y-89860826D01*
X157804329Y-89844030D01*
X157827808Y-89839359D01*
X157844959Y-89831787D01*
X157895151Y-89825964D01*
X157900000Y-89825000D01*
X158700000Y-89825000D01*
X158704850Y-89825964D01*
G37*
G36*
X161804850Y-89825964D02*
G01*
X161855040Y-89831787D01*
X161872189Y-89839359D01*
X161895671Y-89844030D01*
X161920810Y-89860827D01*
X161940696Y-89869608D01*
X161954277Y-89883189D01*
X161976777Y-89898223D01*
X161991810Y-89920722D01*
X162005391Y-89934303D01*
X162014170Y-89954186D01*
X162030970Y-89979329D01*
X162035641Y-90002812D01*
X162043212Y-90019959D01*
X162049033Y-90070139D01*
X162050000Y-90075000D01*
X162050000Y-91325000D01*
X162049032Y-91329863D01*
X162043212Y-91380040D01*
X162035641Y-91397185D01*
X162030970Y-91420671D01*
X162014169Y-91445815D01*
X162005391Y-91465696D01*
X161991812Y-91479274D01*
X161976777Y-91501777D01*
X161954274Y-91516812D01*
X161940696Y-91530391D01*
X161920815Y-91539169D01*
X161895671Y-91555970D01*
X161872185Y-91560641D01*
X161855040Y-91568212D01*
X161804861Y-91574032D01*
X161800000Y-91575000D01*
X161000000Y-91575000D01*
X160995138Y-91574032D01*
X160944959Y-91568212D01*
X160927812Y-91560641D01*
X160904329Y-91555970D01*
X160879186Y-91539170D01*
X160859303Y-91530391D01*
X160845722Y-91516810D01*
X160823223Y-91501777D01*
X160808189Y-91479277D01*
X160794608Y-91465696D01*
X160785827Y-91445810D01*
X160769030Y-91420671D01*
X160764359Y-91397189D01*
X160756787Y-91380040D01*
X160750964Y-91329849D01*
X160750000Y-91325000D01*
X160750000Y-90075000D01*
X160750964Y-90070150D01*
X160756787Y-90019959D01*
X160764359Y-90002808D01*
X160769030Y-89979329D01*
X160785826Y-89954191D01*
X160794608Y-89934303D01*
X160808191Y-89920719D01*
X160823223Y-89898223D01*
X160845719Y-89883191D01*
X160859303Y-89869608D01*
X160879191Y-89860826D01*
X160904329Y-89844030D01*
X160927808Y-89839359D01*
X160944959Y-89831787D01*
X160995151Y-89825964D01*
X161000000Y-89825000D01*
X161800000Y-89825000D01*
X161804850Y-89825964D01*
G37*
G36*
X150090285Y-89543060D02*
G01*
X150271397Y-89618079D01*
X150434393Y-89726990D01*
X150573010Y-89865607D01*
X150681921Y-90028603D01*
X150756940Y-90209715D01*
X150795185Y-90401983D01*
X150795185Y-90598017D01*
X150756940Y-90790285D01*
X150681921Y-90971397D01*
X150573010Y-91134393D01*
X150434393Y-91273010D01*
X150271397Y-91381921D01*
X150090285Y-91456940D01*
X149898017Y-91495185D01*
X149701983Y-91495185D01*
X149509715Y-91456940D01*
X149328603Y-91381921D01*
X149165607Y-91273010D01*
X149026990Y-91134393D01*
X148918079Y-90971397D01*
X148843060Y-90790285D01*
X148804815Y-90598017D01*
X148804815Y-90401983D01*
X148843060Y-90209715D01*
X148918079Y-90028603D01*
X149026990Y-89865607D01*
X149165607Y-89726990D01*
X149328603Y-89618079D01*
X149509715Y-89543060D01*
X149701983Y-89504815D01*
X149898017Y-89504815D01*
X150090285Y-89543060D01*
G37*
G36*
X166261500Y-91250000D02*
G01*
X164786500Y-91250000D01*
X164786500Y-90950000D01*
X166261500Y-90950000D01*
X166261500Y-91250000D01*
G37*
G36*
X177737500Y-91250000D02*
G01*
X176262500Y-91250000D01*
X176262500Y-90950000D01*
X177737500Y-90950000D01*
X177737500Y-91250000D01*
G37*
G36*
X166261500Y-90750000D02*
G01*
X164786500Y-90750000D01*
X164786500Y-90450000D01*
X166261500Y-90450000D01*
X166261500Y-90750000D01*
G37*
G36*
X177737500Y-90750000D02*
G01*
X176262500Y-90750000D01*
X176262500Y-90450000D01*
X177737500Y-90450000D01*
X177737500Y-90750000D01*
G37*
G36*
X184467350Y-89075964D02*
G01*
X184517540Y-89081787D01*
X184534689Y-89089359D01*
X184558171Y-89094030D01*
X184583310Y-89110827D01*
X184603196Y-89119608D01*
X184616777Y-89133189D01*
X184639277Y-89148223D01*
X184654310Y-89170722D01*
X184667891Y-89184303D01*
X184676670Y-89204186D01*
X184693470Y-89229329D01*
X184698141Y-89252812D01*
X184705712Y-89269959D01*
X184711533Y-89320139D01*
X184712500Y-89325000D01*
X184712500Y-90275000D01*
X184711532Y-90279863D01*
X184705712Y-90330040D01*
X184698141Y-90347185D01*
X184693470Y-90370671D01*
X184676669Y-90395815D01*
X184667891Y-90415696D01*
X184654312Y-90429274D01*
X184639277Y-90451777D01*
X184616774Y-90466812D01*
X184603196Y-90480391D01*
X184583315Y-90489169D01*
X184558171Y-90505970D01*
X184534685Y-90510641D01*
X184517540Y-90518212D01*
X184467361Y-90524032D01*
X184462500Y-90525000D01*
X183787500Y-90525000D01*
X183782638Y-90524032D01*
X183732459Y-90518212D01*
X183715312Y-90510641D01*
X183691829Y-90505970D01*
X183666686Y-90489170D01*
X183646803Y-90480391D01*
X183633222Y-90466810D01*
X183610723Y-90451777D01*
X183595689Y-90429277D01*
X183582108Y-90415696D01*
X183573327Y-90395810D01*
X183556530Y-90370671D01*
X183551859Y-90347189D01*
X183544287Y-90330040D01*
X183538464Y-90279849D01*
X183537500Y-90275000D01*
X183537500Y-89325000D01*
X183538464Y-89320150D01*
X183544287Y-89269959D01*
X183551859Y-89252808D01*
X183556530Y-89229329D01*
X183573326Y-89204191D01*
X183582108Y-89184303D01*
X183595691Y-89170719D01*
X183610723Y-89148223D01*
X183633219Y-89133191D01*
X183646803Y-89119608D01*
X183666691Y-89110826D01*
X183691829Y-89094030D01*
X183715308Y-89089359D01*
X183732459Y-89081787D01*
X183782651Y-89075964D01*
X183787500Y-89075000D01*
X184462500Y-89075000D01*
X184467350Y-89075964D01*
G37*
G36*
X186542350Y-89075964D02*
G01*
X186592540Y-89081787D01*
X186609689Y-89089359D01*
X186633171Y-89094030D01*
X186658310Y-89110827D01*
X186678196Y-89119608D01*
X186691777Y-89133189D01*
X186714277Y-89148223D01*
X186729310Y-89170722D01*
X186742891Y-89184303D01*
X186751670Y-89204186D01*
X186768470Y-89229329D01*
X186773141Y-89252812D01*
X186780712Y-89269959D01*
X186786533Y-89320139D01*
X186787500Y-89325000D01*
X186787500Y-90275000D01*
X186786532Y-90279863D01*
X186780712Y-90330040D01*
X186773141Y-90347185D01*
X186768470Y-90370671D01*
X186751669Y-90395815D01*
X186742891Y-90415696D01*
X186729312Y-90429274D01*
X186714277Y-90451777D01*
X186691774Y-90466812D01*
X186678196Y-90480391D01*
X186658315Y-90489169D01*
X186633171Y-90505970D01*
X186609685Y-90510641D01*
X186592540Y-90518212D01*
X186542361Y-90524032D01*
X186537500Y-90525000D01*
X185862500Y-90525000D01*
X185857638Y-90524032D01*
X185807459Y-90518212D01*
X185790312Y-90510641D01*
X185766829Y-90505970D01*
X185741686Y-90489170D01*
X185721803Y-90480391D01*
X185708222Y-90466810D01*
X185685723Y-90451777D01*
X185670689Y-90429277D01*
X185657108Y-90415696D01*
X185648327Y-90395810D01*
X185631530Y-90370671D01*
X185626859Y-90347189D01*
X185619287Y-90330040D01*
X185613464Y-90279849D01*
X185612500Y-90275000D01*
X185612500Y-89325000D01*
X185613464Y-89320150D01*
X185619287Y-89269959D01*
X185626859Y-89252808D01*
X185631530Y-89229329D01*
X185648326Y-89204191D01*
X185657108Y-89184303D01*
X185670691Y-89170719D01*
X185685723Y-89148223D01*
X185708219Y-89133191D01*
X185721803Y-89119608D01*
X185741691Y-89110826D01*
X185766829Y-89094030D01*
X185790308Y-89089359D01*
X185807459Y-89081787D01*
X185857651Y-89075964D01*
X185862500Y-89075000D01*
X186537500Y-89075000D01*
X186542350Y-89075964D01*
G37*
G36*
X179729850Y-89325964D02*
G01*
X179777179Y-89331455D01*
X179793353Y-89338596D01*
X179815887Y-89343079D01*
X179840011Y-89359198D01*
X179858632Y-89367420D01*
X179871348Y-89380136D01*
X179892938Y-89394562D01*
X179907363Y-89416151D01*
X179920079Y-89428867D01*
X179928300Y-89447486D01*
X179944421Y-89471613D01*
X179948903Y-89494147D01*
X179956044Y-89510319D01*
X179961533Y-89557640D01*
X179962500Y-89562500D01*
X179962500Y-90037500D01*
X179961532Y-90042362D01*
X179956044Y-90089679D01*
X179948904Y-90105849D01*
X179944421Y-90128387D01*
X179928298Y-90152516D01*
X179920079Y-90171132D01*
X179907365Y-90183845D01*
X179892938Y-90205438D01*
X179871345Y-90219865D01*
X179858632Y-90232579D01*
X179840015Y-90240799D01*
X179815887Y-90256921D01*
X179793350Y-90261403D01*
X179777180Y-90268544D01*
X179729861Y-90274033D01*
X179725000Y-90275000D01*
X179225000Y-90275000D01*
X179220138Y-90274033D01*
X179172820Y-90268544D01*
X179156648Y-90261403D01*
X179134113Y-90256921D01*
X179109985Y-90240800D01*
X179091367Y-90232579D01*
X179078651Y-90219863D01*
X179057062Y-90205438D01*
X179042636Y-90183848D01*
X179029920Y-90171132D01*
X179021698Y-90152511D01*
X179005579Y-90128387D01*
X179001096Y-90105854D01*
X178993955Y-90089680D01*
X178988464Y-90042348D01*
X178987500Y-90037500D01*
X178987500Y-89562500D01*
X178988464Y-89557651D01*
X178993955Y-89510320D01*
X179001097Y-89494144D01*
X179005579Y-89471613D01*
X179021697Y-89447490D01*
X179029920Y-89428867D01*
X179042638Y-89416148D01*
X179057062Y-89394562D01*
X179078648Y-89380138D01*
X179091367Y-89367420D01*
X179109990Y-89359196D01*
X179134113Y-89343079D01*
X179156643Y-89338597D01*
X179172819Y-89331455D01*
X179220152Y-89325964D01*
X179225000Y-89325000D01*
X179725000Y-89325000D01*
X179729850Y-89325964D01*
G37*
G36*
X181554850Y-89325964D02*
G01*
X181602179Y-89331455D01*
X181618353Y-89338596D01*
X181640887Y-89343079D01*
X181665011Y-89359198D01*
X181683632Y-89367420D01*
X181696348Y-89380136D01*
X181717938Y-89394562D01*
X181732363Y-89416151D01*
X181745079Y-89428867D01*
X181753300Y-89447486D01*
X181769421Y-89471613D01*
X181773903Y-89494147D01*
X181781044Y-89510319D01*
X181786533Y-89557640D01*
X181787500Y-89562500D01*
X181787500Y-90037500D01*
X181786532Y-90042362D01*
X181781044Y-90089679D01*
X181773904Y-90105849D01*
X181769421Y-90128387D01*
X181753298Y-90152516D01*
X181745079Y-90171132D01*
X181732365Y-90183845D01*
X181717938Y-90205438D01*
X181696345Y-90219865D01*
X181683632Y-90232579D01*
X181665015Y-90240799D01*
X181640887Y-90256921D01*
X181618350Y-90261403D01*
X181602180Y-90268544D01*
X181554861Y-90274033D01*
X181550000Y-90275000D01*
X181050000Y-90275000D01*
X181045138Y-90274033D01*
X180997820Y-90268544D01*
X180981648Y-90261403D01*
X180959113Y-90256921D01*
X180934985Y-90240800D01*
X180916367Y-90232579D01*
X180903651Y-90219863D01*
X180882062Y-90205438D01*
X180867636Y-90183848D01*
X180854920Y-90171132D01*
X180846698Y-90152511D01*
X180830579Y-90128387D01*
X180826096Y-90105854D01*
X180818955Y-90089680D01*
X180813464Y-90042348D01*
X180812500Y-90037500D01*
X180812500Y-89562500D01*
X180813464Y-89557651D01*
X180818955Y-89510320D01*
X180826097Y-89494144D01*
X180830579Y-89471613D01*
X180846697Y-89447490D01*
X180854920Y-89428867D01*
X180867638Y-89416148D01*
X180882062Y-89394562D01*
X180903648Y-89380138D01*
X180916367Y-89367420D01*
X180934990Y-89359196D01*
X180959113Y-89343079D01*
X180981643Y-89338597D01*
X180997819Y-89331455D01*
X181045152Y-89325964D01*
X181050000Y-89325000D01*
X181550000Y-89325000D01*
X181554850Y-89325964D01*
G37*
G36*
X166261500Y-90250000D02*
G01*
X164786500Y-90250000D01*
X164786500Y-89950000D01*
X166261500Y-89950000D01*
X166261500Y-90250000D01*
G37*
G36*
X177737500Y-90250000D02*
G01*
X176262500Y-90250000D01*
X176262500Y-89950000D01*
X177737500Y-89950000D01*
X177737500Y-90250000D01*
G37*
G36*
X166261500Y-89750000D02*
G01*
X164786500Y-89750000D01*
X164786500Y-89450000D01*
X166261500Y-89450000D01*
X166261500Y-89750000D01*
G37*
G36*
X177737500Y-89750000D02*
G01*
X176262500Y-89750000D01*
X176262500Y-89450000D01*
X177737500Y-89450000D01*
X177737500Y-89750000D01*
G37*
G36*
X194890285Y-87443060D02*
G01*
X195071397Y-87518079D01*
X195234393Y-87626990D01*
X195373010Y-87765607D01*
X195481921Y-87928603D01*
X195556940Y-88109715D01*
X195595185Y-88301983D01*
X195595185Y-88498017D01*
X195556940Y-88690285D01*
X195481921Y-88871397D01*
X195373010Y-89034393D01*
X195234393Y-89173010D01*
X195071397Y-89281921D01*
X194890285Y-89356940D01*
X194698017Y-89395185D01*
X194501983Y-89395185D01*
X194309715Y-89356940D01*
X194128603Y-89281921D01*
X193965607Y-89173010D01*
X193826990Y-89034393D01*
X193718079Y-88871397D01*
X193643060Y-88690285D01*
X193604815Y-88498017D01*
X193604815Y-88301983D01*
X193643060Y-88109715D01*
X193718079Y-87928603D01*
X193826990Y-87765607D01*
X193965607Y-87626990D01*
X194128603Y-87518079D01*
X194309715Y-87443060D01*
X194501983Y-87404815D01*
X194698017Y-87404815D01*
X194890285Y-87443060D01*
G37*
G36*
X166261500Y-89250000D02*
G01*
X164786500Y-89250000D01*
X164786500Y-88950000D01*
X166261500Y-88950000D01*
X166261500Y-89250000D01*
G37*
G36*
X177737500Y-89250000D02*
G01*
X176262500Y-89250000D01*
X176262500Y-88950000D01*
X177737500Y-88950000D01*
X177737500Y-89250000D01*
G37*
G36*
X150090285Y-87003060D02*
G01*
X150271397Y-87078079D01*
X150434393Y-87186990D01*
X150573010Y-87325607D01*
X150681921Y-87488603D01*
X150756940Y-87669715D01*
X150795185Y-87861983D01*
X150795185Y-88058017D01*
X150756940Y-88250285D01*
X150681921Y-88431397D01*
X150573010Y-88594393D01*
X150434393Y-88733010D01*
X150271397Y-88841921D01*
X150090285Y-88916940D01*
X149898017Y-88955185D01*
X149701983Y-88955185D01*
X149509715Y-88916940D01*
X149328603Y-88841921D01*
X149165607Y-88733010D01*
X149026990Y-88594393D01*
X148918079Y-88431397D01*
X148843060Y-88250285D01*
X148804815Y-88058017D01*
X148804815Y-87861983D01*
X148843060Y-87669715D01*
X148918079Y-87488603D01*
X149026990Y-87325607D01*
X149165607Y-87186990D01*
X149328603Y-87078079D01*
X149509715Y-87003060D01*
X149701983Y-86964815D01*
X149898017Y-86964815D01*
X150090285Y-87003060D01*
G37*
G36*
X166261500Y-88750000D02*
G01*
X164786500Y-88750000D01*
X164786500Y-88450000D01*
X166261500Y-88450000D01*
X166261500Y-88750000D01*
G37*
G36*
X177737500Y-88750000D02*
G01*
X176262500Y-88750000D01*
X176262500Y-88450000D01*
X177737500Y-88450000D01*
X177737500Y-88750000D01*
G37*
G36*
X166261500Y-88250000D02*
G01*
X164786500Y-88250000D01*
X164786500Y-87950000D01*
X166261500Y-87950000D01*
X166261500Y-88250000D01*
G37*
G36*
X177737500Y-88250000D02*
G01*
X176262500Y-88250000D01*
X176262500Y-87950000D01*
X177737500Y-87950000D01*
X177737500Y-88250000D01*
G37*
G36*
X159204850Y-85425964D02*
G01*
X159255040Y-85431787D01*
X159272189Y-85439359D01*
X159295671Y-85444030D01*
X159320810Y-85460827D01*
X159340696Y-85469608D01*
X159354277Y-85483189D01*
X159376777Y-85498223D01*
X159391810Y-85520722D01*
X159405391Y-85534303D01*
X159414170Y-85554186D01*
X159430970Y-85579329D01*
X159435641Y-85602812D01*
X159443212Y-85619959D01*
X159449033Y-85670139D01*
X159450000Y-85675000D01*
X159450000Y-86925000D01*
X159449032Y-86929863D01*
X159443212Y-86980040D01*
X159435641Y-86997185D01*
X159430970Y-87020671D01*
X159414169Y-87045815D01*
X159405391Y-87065696D01*
X159391812Y-87079274D01*
X159376777Y-87101777D01*
X159354274Y-87116812D01*
X159340696Y-87130391D01*
X159320815Y-87139169D01*
X159295671Y-87155970D01*
X159272185Y-87160641D01*
X159255040Y-87168212D01*
X159204861Y-87174032D01*
X159200000Y-87175000D01*
X158400000Y-87175000D01*
X158395138Y-87174032D01*
X158344959Y-87168212D01*
X158327812Y-87160641D01*
X158304329Y-87155970D01*
X158279186Y-87139170D01*
X158259303Y-87130391D01*
X158245722Y-87116810D01*
X158223223Y-87101777D01*
X158208189Y-87079277D01*
X158194608Y-87065696D01*
X158185827Y-87045810D01*
X158169030Y-87020671D01*
X158164359Y-86997189D01*
X158156787Y-86980040D01*
X158150964Y-86929849D01*
X158150000Y-86925000D01*
X158150000Y-85675000D01*
X158150964Y-85670150D01*
X158156787Y-85619959D01*
X158164359Y-85602808D01*
X158169030Y-85579329D01*
X158185826Y-85554191D01*
X158194608Y-85534303D01*
X158208191Y-85520719D01*
X158223223Y-85498223D01*
X158245719Y-85483191D01*
X158259303Y-85469608D01*
X158279191Y-85460826D01*
X158304329Y-85444030D01*
X158327808Y-85439359D01*
X158344959Y-85431787D01*
X158395151Y-85425964D01*
X158400000Y-85425000D01*
X159200000Y-85425000D01*
X159204850Y-85425964D01*
G37*
G36*
X162304850Y-85425964D02*
G01*
X162355040Y-85431787D01*
X162372189Y-85439359D01*
X162395671Y-85444030D01*
X162420810Y-85460827D01*
X162440696Y-85469608D01*
X162454277Y-85483189D01*
X162476777Y-85498223D01*
X162491810Y-85520722D01*
X162505391Y-85534303D01*
X162514170Y-85554186D01*
X162530970Y-85579329D01*
X162535641Y-85602812D01*
X162543212Y-85619959D01*
X162549033Y-85670139D01*
X162550000Y-85675000D01*
X162550000Y-86925000D01*
X162549032Y-86929863D01*
X162543212Y-86980040D01*
X162535641Y-86997185D01*
X162530970Y-87020671D01*
X162514169Y-87045815D01*
X162505391Y-87065696D01*
X162491812Y-87079274D01*
X162476777Y-87101777D01*
X162454274Y-87116812D01*
X162440696Y-87130391D01*
X162420815Y-87139169D01*
X162395671Y-87155970D01*
X162372185Y-87160641D01*
X162355040Y-87168212D01*
X162304861Y-87174032D01*
X162300000Y-87175000D01*
X161500000Y-87175000D01*
X161495138Y-87174032D01*
X161444959Y-87168212D01*
X161427812Y-87160641D01*
X161404329Y-87155970D01*
X161379186Y-87139170D01*
X161359303Y-87130391D01*
X161345722Y-87116810D01*
X161323223Y-87101777D01*
X161308189Y-87079277D01*
X161294608Y-87065696D01*
X161285827Y-87045810D01*
X161269030Y-87020671D01*
X161264359Y-86997189D01*
X161256787Y-86980040D01*
X161250964Y-86929849D01*
X161250000Y-86925000D01*
X161250000Y-85675000D01*
X161250964Y-85670150D01*
X161256787Y-85619959D01*
X161264359Y-85602808D01*
X161269030Y-85579329D01*
X161285826Y-85554191D01*
X161294608Y-85534303D01*
X161308191Y-85520719D01*
X161323223Y-85498223D01*
X161345719Y-85483191D01*
X161359303Y-85469608D01*
X161379191Y-85460826D01*
X161404329Y-85444030D01*
X161427808Y-85439359D01*
X161444959Y-85431787D01*
X161495151Y-85425964D01*
X161500000Y-85425000D01*
X162300000Y-85425000D01*
X162304850Y-85425964D01*
G37*
G36*
X194890285Y-84903060D02*
G01*
X195071397Y-84978079D01*
X195234393Y-85086990D01*
X195373010Y-85225607D01*
X195481921Y-85388603D01*
X195556940Y-85569715D01*
X195595185Y-85761983D01*
X195595185Y-85958017D01*
X195556940Y-86150285D01*
X195481921Y-86331397D01*
X195373010Y-86494393D01*
X195234393Y-86633010D01*
X195071397Y-86741921D01*
X194890285Y-86816940D01*
X194698017Y-86855185D01*
X194501983Y-86855185D01*
X194309715Y-86816940D01*
X194128603Y-86741921D01*
X193965607Y-86633010D01*
X193826990Y-86494393D01*
X193718079Y-86331397D01*
X193643060Y-86150285D01*
X193604815Y-85958017D01*
X193604815Y-85761983D01*
X193643060Y-85569715D01*
X193718079Y-85388603D01*
X193826990Y-85225607D01*
X193965607Y-85086990D01*
X194128603Y-84978079D01*
X194309715Y-84903060D01*
X194501983Y-84864815D01*
X194698017Y-84864815D01*
X194890285Y-84903060D01*
G37*
G36*
X167662000Y-86849500D02*
G01*
X167362000Y-86849500D01*
X167362000Y-85374500D01*
X167662000Y-85374500D01*
X167662000Y-86849500D01*
G37*
G36*
X168162000Y-86849500D02*
G01*
X167862000Y-86849500D01*
X167862000Y-85374500D01*
X168162000Y-85374500D01*
X168162000Y-86849500D01*
G37*
G36*
X168662000Y-86849500D02*
G01*
X168362000Y-86849500D01*
X168362000Y-85374500D01*
X168662000Y-85374500D01*
X168662000Y-86849500D01*
G37*
G36*
X169162000Y-86849500D02*
G01*
X168862000Y-86849500D01*
X168862000Y-85374500D01*
X169162000Y-85374500D01*
X169162000Y-86849500D01*
G37*
G36*
X169662000Y-86849500D02*
G01*
X169362000Y-86849500D01*
X169362000Y-85374500D01*
X169662000Y-85374500D01*
X169662000Y-86849500D01*
G37*
G36*
X170162000Y-86849500D02*
G01*
X169862000Y-86849500D01*
X169862000Y-85374500D01*
X170162000Y-85374500D01*
X170162000Y-86849500D01*
G37*
G36*
X170662000Y-86849500D02*
G01*
X170362000Y-86849500D01*
X170362000Y-85374500D01*
X170662000Y-85374500D01*
X170662000Y-86849500D01*
G37*
G36*
X171162000Y-86849500D02*
G01*
X170862000Y-86849500D01*
X170862000Y-85374500D01*
X171162000Y-85374500D01*
X171162000Y-86849500D01*
G37*
G36*
X171662000Y-86849500D02*
G01*
X171362000Y-86849500D01*
X171362000Y-85374500D01*
X171662000Y-85374500D01*
X171662000Y-86849500D01*
G37*
G36*
X172162000Y-86849500D02*
G01*
X171862000Y-86849500D01*
X171862000Y-85374500D01*
X172162000Y-85374500D01*
X172162000Y-86849500D01*
G37*
G36*
X172662000Y-86849500D02*
G01*
X172362000Y-86849500D01*
X172362000Y-85374500D01*
X172662000Y-85374500D01*
X172662000Y-86849500D01*
G37*
G36*
X173162000Y-86849500D02*
G01*
X172862000Y-86849500D01*
X172862000Y-85374500D01*
X173162000Y-85374500D01*
X173162000Y-86849500D01*
G37*
G36*
X173662000Y-86849500D02*
G01*
X173362000Y-86849500D01*
X173362000Y-85374500D01*
X173662000Y-85374500D01*
X173662000Y-86849500D01*
G37*
G36*
X174162000Y-86849500D02*
G01*
X173862000Y-86849500D01*
X173862000Y-85374500D01*
X174162000Y-85374500D01*
X174162000Y-86849500D01*
G37*
G36*
X174662000Y-86849500D02*
G01*
X174362000Y-86849500D01*
X174362000Y-85374500D01*
X174662000Y-85374500D01*
X174662000Y-86849500D01*
G37*
G36*
X175162000Y-86849500D02*
G01*
X174862000Y-86849500D01*
X174862000Y-85374500D01*
X175162000Y-85374500D01*
X175162000Y-86849500D01*
G37*
G36*
X150554850Y-84420964D02*
G01*
X150605040Y-84426787D01*
X150622189Y-84434359D01*
X150645671Y-84439030D01*
X150670810Y-84455827D01*
X150690696Y-84464608D01*
X150704277Y-84478189D01*
X150726777Y-84493223D01*
X150741810Y-84515722D01*
X150755391Y-84529303D01*
X150764170Y-84549186D01*
X150780970Y-84574329D01*
X150785641Y-84597812D01*
X150793212Y-84614959D01*
X150799033Y-84665139D01*
X150800000Y-84670000D01*
X150800000Y-86170000D01*
X150799032Y-86174863D01*
X150793212Y-86225040D01*
X150785641Y-86242185D01*
X150780970Y-86265671D01*
X150764169Y-86290815D01*
X150755391Y-86310696D01*
X150741812Y-86324274D01*
X150726777Y-86346777D01*
X150704274Y-86361812D01*
X150690696Y-86375391D01*
X150670815Y-86384169D01*
X150645671Y-86400970D01*
X150622185Y-86405641D01*
X150605040Y-86413212D01*
X150554861Y-86419032D01*
X150550000Y-86420000D01*
X149050000Y-86420000D01*
X149045138Y-86419032D01*
X148994959Y-86413212D01*
X148977812Y-86405641D01*
X148954329Y-86400970D01*
X148929186Y-86384170D01*
X148909303Y-86375391D01*
X148895722Y-86361810D01*
X148873223Y-86346777D01*
X148858189Y-86324277D01*
X148844608Y-86310696D01*
X148835827Y-86290810D01*
X148819030Y-86265671D01*
X148814359Y-86242189D01*
X148806787Y-86225040D01*
X148800964Y-86174849D01*
X148800000Y-86170000D01*
X148800000Y-84670000D01*
X148800964Y-84665150D01*
X148806787Y-84614959D01*
X148814359Y-84597808D01*
X148819030Y-84574329D01*
X148835826Y-84549191D01*
X148844608Y-84529303D01*
X148858191Y-84515719D01*
X148873223Y-84493223D01*
X148895719Y-84478191D01*
X148909303Y-84464608D01*
X148929191Y-84455826D01*
X148954329Y-84439030D01*
X148977808Y-84434359D01*
X148994959Y-84426787D01*
X149045151Y-84420964D01*
X149050000Y-84420000D01*
X150550000Y-84420000D01*
X150554850Y-84420964D01*
G37*
G36*
X183592350Y-84600964D02*
G01*
X183642540Y-84606787D01*
X183659689Y-84614359D01*
X183683171Y-84619030D01*
X183708310Y-84635827D01*
X183728196Y-84644608D01*
X183741777Y-84658189D01*
X183764277Y-84673223D01*
X183779310Y-84695722D01*
X183792891Y-84709303D01*
X183801670Y-84729186D01*
X183818470Y-84754329D01*
X183823141Y-84777812D01*
X183830712Y-84794959D01*
X183836533Y-84845139D01*
X183837500Y-84850000D01*
X183837500Y-86150000D01*
X183836532Y-86154863D01*
X183830712Y-86205040D01*
X183823141Y-86222185D01*
X183818470Y-86245671D01*
X183801669Y-86270815D01*
X183792891Y-86290696D01*
X183779312Y-86304274D01*
X183764277Y-86326777D01*
X183741774Y-86341812D01*
X183728196Y-86355391D01*
X183708315Y-86364169D01*
X183683171Y-86380970D01*
X183659685Y-86385641D01*
X183642540Y-86393212D01*
X183592361Y-86399032D01*
X183587500Y-86400000D01*
X182762500Y-86400000D01*
X182757638Y-86399032D01*
X182707459Y-86393212D01*
X182690312Y-86385641D01*
X182666829Y-86380970D01*
X182641686Y-86364170D01*
X182621803Y-86355391D01*
X182608222Y-86341810D01*
X182585723Y-86326777D01*
X182570689Y-86304277D01*
X182557108Y-86290696D01*
X182548327Y-86270810D01*
X182531530Y-86245671D01*
X182526859Y-86222189D01*
X182519287Y-86205040D01*
X182513464Y-86154849D01*
X182512500Y-86150000D01*
X182512500Y-84850000D01*
X182513464Y-84845150D01*
X182519287Y-84794959D01*
X182526859Y-84777808D01*
X182531530Y-84754329D01*
X182548326Y-84729191D01*
X182557108Y-84709303D01*
X182570691Y-84695719D01*
X182585723Y-84673223D01*
X182608219Y-84658191D01*
X182621803Y-84644608D01*
X182641691Y-84635826D01*
X182666829Y-84619030D01*
X182690308Y-84614359D01*
X182707459Y-84606787D01*
X182757651Y-84600964D01*
X182762500Y-84600000D01*
X183587500Y-84600000D01*
X183592350Y-84600964D01*
G37*
G36*
X186717350Y-84600964D02*
G01*
X186767540Y-84606787D01*
X186784689Y-84614359D01*
X186808171Y-84619030D01*
X186833310Y-84635827D01*
X186853196Y-84644608D01*
X186866777Y-84658189D01*
X186889277Y-84673223D01*
X186904310Y-84695722D01*
X186917891Y-84709303D01*
X186926670Y-84729186D01*
X186943470Y-84754329D01*
X186948141Y-84777812D01*
X186955712Y-84794959D01*
X186961533Y-84845139D01*
X186962500Y-84850000D01*
X186962500Y-86150000D01*
X186961532Y-86154863D01*
X186955712Y-86205040D01*
X186948141Y-86222185D01*
X186943470Y-86245671D01*
X186926669Y-86270815D01*
X186917891Y-86290696D01*
X186904312Y-86304274D01*
X186889277Y-86326777D01*
X186866774Y-86341812D01*
X186853196Y-86355391D01*
X186833315Y-86364169D01*
X186808171Y-86380970D01*
X186784685Y-86385641D01*
X186767540Y-86393212D01*
X186717361Y-86399032D01*
X186712500Y-86400000D01*
X185887500Y-86400000D01*
X185882638Y-86399032D01*
X185832459Y-86393212D01*
X185815312Y-86385641D01*
X185791829Y-86380970D01*
X185766686Y-86364170D01*
X185746803Y-86355391D01*
X185733222Y-86341810D01*
X185710723Y-86326777D01*
X185695689Y-86304277D01*
X185682108Y-86290696D01*
X185673327Y-86270810D01*
X185656530Y-86245671D01*
X185651859Y-86222189D01*
X185644287Y-86205040D01*
X185638464Y-86154849D01*
X185637500Y-86150000D01*
X185637500Y-84850000D01*
X185638464Y-84845150D01*
X185644287Y-84794959D01*
X185651859Y-84777808D01*
X185656530Y-84754329D01*
X185673326Y-84729191D01*
X185682108Y-84709303D01*
X185695691Y-84695719D01*
X185710723Y-84673223D01*
X185733219Y-84658191D01*
X185746803Y-84644608D01*
X185766691Y-84635826D01*
X185791829Y-84619030D01*
X185815308Y-84614359D01*
X185832459Y-84606787D01*
X185882651Y-84600964D01*
X185887500Y-84600000D01*
X186712500Y-84600000D01*
X186717350Y-84600964D01*
G37*
G36*
X172092350Y-81500964D02*
G01*
X172142540Y-81506787D01*
X172159689Y-81514359D01*
X172183171Y-81519030D01*
X172208310Y-81535827D01*
X172228196Y-81544608D01*
X172241777Y-81558189D01*
X172264277Y-81573223D01*
X172279310Y-81595722D01*
X172292891Y-81609303D01*
X172301670Y-81629186D01*
X172318470Y-81654329D01*
X172323141Y-81677812D01*
X172330712Y-81694959D01*
X172336533Y-81745139D01*
X172337500Y-81750000D01*
X172337500Y-83050000D01*
X172336532Y-83054863D01*
X172330712Y-83105040D01*
X172323141Y-83122185D01*
X172318470Y-83145671D01*
X172301669Y-83170815D01*
X172292891Y-83190696D01*
X172279312Y-83204274D01*
X172264277Y-83226777D01*
X172241774Y-83241812D01*
X172228196Y-83255391D01*
X172208315Y-83264169D01*
X172183171Y-83280970D01*
X172159685Y-83285641D01*
X172142540Y-83293212D01*
X172092361Y-83299032D01*
X172087500Y-83300000D01*
X171262500Y-83300000D01*
X171257638Y-83299032D01*
X171207459Y-83293212D01*
X171190312Y-83285641D01*
X171166829Y-83280970D01*
X171141686Y-83264170D01*
X171121803Y-83255391D01*
X171108222Y-83241810D01*
X171085723Y-83226777D01*
X171070689Y-83204277D01*
X171057108Y-83190696D01*
X171048327Y-83170810D01*
X171031530Y-83145671D01*
X171026859Y-83122189D01*
X171019287Y-83105040D01*
X171013464Y-83054849D01*
X171012500Y-83050000D01*
X171012500Y-81750000D01*
X171013464Y-81745150D01*
X171019287Y-81694959D01*
X171026859Y-81677808D01*
X171031530Y-81654329D01*
X171048326Y-81629191D01*
X171057108Y-81609303D01*
X171070691Y-81595719D01*
X171085723Y-81573223D01*
X171108219Y-81558191D01*
X171121803Y-81544608D01*
X171141691Y-81535826D01*
X171166829Y-81519030D01*
X171190308Y-81514359D01*
X171207459Y-81506787D01*
X171257651Y-81500964D01*
X171262500Y-81500000D01*
X172087500Y-81500000D01*
X172092350Y-81500964D01*
G37*
G36*
X175217350Y-81500964D02*
G01*
X175267540Y-81506787D01*
X175284689Y-81514359D01*
X175308171Y-81519030D01*
X175333310Y-81535827D01*
X175353196Y-81544608D01*
X175366777Y-81558189D01*
X175389277Y-81573223D01*
X175404310Y-81595722D01*
X175417891Y-81609303D01*
X175426670Y-81629186D01*
X175443470Y-81654329D01*
X175448141Y-81677812D01*
X175455712Y-81694959D01*
X175461533Y-81745139D01*
X175462500Y-81750000D01*
X175462500Y-83050000D01*
X175461532Y-83054863D01*
X175455712Y-83105040D01*
X175448141Y-83122185D01*
X175443470Y-83145671D01*
X175426669Y-83170815D01*
X175417891Y-83190696D01*
X175404312Y-83204274D01*
X175389277Y-83226777D01*
X175366774Y-83241812D01*
X175353196Y-83255391D01*
X175333315Y-83264169D01*
X175308171Y-83280970D01*
X175284685Y-83285641D01*
X175267540Y-83293212D01*
X175217361Y-83299032D01*
X175212500Y-83300000D01*
X174387500Y-83300000D01*
X174382638Y-83299032D01*
X174332459Y-83293212D01*
X174315312Y-83285641D01*
X174291829Y-83280970D01*
X174266686Y-83264170D01*
X174246803Y-83255391D01*
X174233222Y-83241810D01*
X174210723Y-83226777D01*
X174195689Y-83204277D01*
X174182108Y-83190696D01*
X174173327Y-83170810D01*
X174156530Y-83145671D01*
X174151859Y-83122189D01*
X174144287Y-83105040D01*
X174138464Y-83054849D01*
X174137500Y-83050000D01*
X174137500Y-81750000D01*
X174138464Y-81745150D01*
X174144287Y-81694959D01*
X174151859Y-81677808D01*
X174156530Y-81654329D01*
X174173326Y-81629191D01*
X174182108Y-81609303D01*
X174195691Y-81595719D01*
X174210723Y-81573223D01*
X174233219Y-81558191D01*
X174246803Y-81544608D01*
X174266691Y-81535826D01*
X174291829Y-81519030D01*
X174315308Y-81514359D01*
X174332459Y-81506787D01*
X174382651Y-81500964D01*
X174387500Y-81500000D01*
X175212500Y-81500000D01*
X175217350Y-81500964D01*
G37*
G36*
X186079850Y-81788464D02*
G01*
X186130040Y-81794287D01*
X186147189Y-81801859D01*
X186170671Y-81806530D01*
X186195810Y-81823327D01*
X186215696Y-81832108D01*
X186229277Y-81845689D01*
X186251777Y-81860723D01*
X186266810Y-81883222D01*
X186280391Y-81896803D01*
X186289170Y-81916686D01*
X186305970Y-81941829D01*
X186310641Y-81965312D01*
X186318212Y-81982459D01*
X186324033Y-82032639D01*
X186325000Y-82037500D01*
X186325000Y-82712500D01*
X186324032Y-82717363D01*
X186318212Y-82767540D01*
X186310641Y-82784685D01*
X186305970Y-82808171D01*
X186289169Y-82833315D01*
X186280391Y-82853196D01*
X186266812Y-82866774D01*
X186251777Y-82889277D01*
X186229274Y-82904312D01*
X186215696Y-82917891D01*
X186195815Y-82926669D01*
X186170671Y-82943470D01*
X186147185Y-82948141D01*
X186130040Y-82955712D01*
X186079861Y-82961532D01*
X186075000Y-82962500D01*
X185125000Y-82962500D01*
X185120138Y-82961532D01*
X185069959Y-82955712D01*
X185052812Y-82948141D01*
X185029329Y-82943470D01*
X185004186Y-82926670D01*
X184984303Y-82917891D01*
X184970722Y-82904310D01*
X184948223Y-82889277D01*
X184933189Y-82866777D01*
X184919608Y-82853196D01*
X184910827Y-82833310D01*
X184894030Y-82808171D01*
X184889359Y-82784689D01*
X184881787Y-82767540D01*
X184875964Y-82717349D01*
X184875000Y-82712500D01*
X184875000Y-82037500D01*
X184875964Y-82032650D01*
X184881787Y-81982459D01*
X184889359Y-81965308D01*
X184894030Y-81941829D01*
X184910826Y-81916691D01*
X184919608Y-81896803D01*
X184933191Y-81883219D01*
X184948223Y-81860723D01*
X184970719Y-81845691D01*
X184984303Y-81832108D01*
X185004191Y-81823326D01*
X185029329Y-81806530D01*
X185052808Y-81801859D01*
X185069959Y-81794287D01*
X185120151Y-81788464D01*
X185125000Y-81787500D01*
X186075000Y-81787500D01*
X186079850Y-81788464D01*
G37*
G36*
X180600000Y-82900000D02*
G01*
X179500000Y-82900000D01*
X179500000Y-81200000D01*
X180600000Y-81200000D01*
X180600000Y-82900000D01*
G37*
G36*
X179300000Y-82875000D02*
G01*
X178700000Y-82875000D01*
X178700000Y-82525000D01*
X179300000Y-82525000D01*
X179300000Y-82875000D01*
G37*
G36*
X181400000Y-82875000D02*
G01*
X180800000Y-82875000D01*
X180800000Y-82525000D01*
X181400000Y-82525000D01*
X181400000Y-82875000D01*
G37*
G36*
X179300000Y-82225000D02*
G01*
X178700000Y-82225000D01*
X178700000Y-81875000D01*
X179300000Y-81875000D01*
X179300000Y-82225000D01*
G37*
G36*
X181400000Y-82225000D02*
G01*
X180800000Y-82225000D01*
X180800000Y-81875000D01*
X181400000Y-81875000D01*
X181400000Y-82225000D01*
G37*
G36*
X179300000Y-81575000D02*
G01*
X178700000Y-81575000D01*
X178700000Y-81225000D01*
X179300000Y-81225000D01*
X179300000Y-81575000D01*
G37*
G36*
X181400000Y-81575000D02*
G01*
X180800000Y-81575000D01*
X180800000Y-81225000D01*
X181400000Y-81225000D01*
X181400000Y-81575000D01*
G37*
G36*
X186079850Y-79713464D02*
G01*
X186130040Y-79719287D01*
X186147189Y-79726859D01*
X186170671Y-79731530D01*
X186195810Y-79748327D01*
X186215696Y-79757108D01*
X186229277Y-79770689D01*
X186251777Y-79785723D01*
X186266810Y-79808222D01*
X186280391Y-79821803D01*
X186289170Y-79841686D01*
X186305970Y-79866829D01*
X186310641Y-79890312D01*
X186318212Y-79907459D01*
X186324033Y-79957639D01*
X186325000Y-79962500D01*
X186325000Y-80637500D01*
X186324032Y-80642363D01*
X186318212Y-80692540D01*
X186310641Y-80709685D01*
X186305970Y-80733171D01*
X186289169Y-80758315D01*
X186280391Y-80778196D01*
X186266812Y-80791774D01*
X186251777Y-80814277D01*
X186229274Y-80829312D01*
X186215696Y-80842891D01*
X186195815Y-80851669D01*
X186170671Y-80868470D01*
X186147185Y-80873141D01*
X186130040Y-80880712D01*
X186079861Y-80886532D01*
X186075000Y-80887500D01*
X185125000Y-80887500D01*
X185120138Y-80886532D01*
X185069959Y-80880712D01*
X185052812Y-80873141D01*
X185029329Y-80868470D01*
X185004186Y-80851670D01*
X184984303Y-80842891D01*
X184970722Y-80829310D01*
X184948223Y-80814277D01*
X184933189Y-80791777D01*
X184919608Y-80778196D01*
X184910827Y-80758310D01*
X184894030Y-80733171D01*
X184889359Y-80709689D01*
X184881787Y-80692540D01*
X184875964Y-80642349D01*
X184875000Y-80637500D01*
X184875000Y-79962500D01*
X184875964Y-79957650D01*
X184881787Y-79907459D01*
X184889359Y-79890308D01*
X184894030Y-79866829D01*
X184910826Y-79841691D01*
X184919608Y-79821803D01*
X184933191Y-79808219D01*
X184948223Y-79785723D01*
X184970719Y-79770691D01*
X184984303Y-79757108D01*
X185004191Y-79748326D01*
X185029329Y-79731530D01*
X185052808Y-79726859D01*
X185069959Y-79719287D01*
X185120151Y-79713464D01*
X185125000Y-79712500D01*
X186075000Y-79712500D01*
X186079850Y-79713464D01*
G37*
G36*
X171404850Y-77625964D02*
G01*
X171455040Y-77631787D01*
X171472189Y-77639359D01*
X171495671Y-77644030D01*
X171520810Y-77660827D01*
X171540696Y-77669608D01*
X171554277Y-77683189D01*
X171576777Y-77698223D01*
X171591810Y-77720722D01*
X171605391Y-77734303D01*
X171614170Y-77754186D01*
X171630970Y-77779329D01*
X171635641Y-77802812D01*
X171643212Y-77819959D01*
X171649033Y-77870139D01*
X171650000Y-77875000D01*
X171650000Y-79125000D01*
X171649032Y-79129863D01*
X171643212Y-79180040D01*
X171635641Y-79197185D01*
X171630970Y-79220671D01*
X171614169Y-79245815D01*
X171605391Y-79265696D01*
X171591812Y-79279274D01*
X171576777Y-79301777D01*
X171554274Y-79316812D01*
X171540696Y-79330391D01*
X171520815Y-79339169D01*
X171495671Y-79355970D01*
X171472185Y-79360641D01*
X171455040Y-79368212D01*
X171404861Y-79374032D01*
X171400000Y-79375000D01*
X170600000Y-79375000D01*
X170595138Y-79374032D01*
X170544959Y-79368212D01*
X170527812Y-79360641D01*
X170504329Y-79355970D01*
X170479186Y-79339170D01*
X170459303Y-79330391D01*
X170445722Y-79316810D01*
X170423223Y-79301777D01*
X170408189Y-79279277D01*
X170394608Y-79265696D01*
X170385827Y-79245810D01*
X170369030Y-79220671D01*
X170364359Y-79197189D01*
X170356787Y-79180040D01*
X170350964Y-79129849D01*
X170350000Y-79125000D01*
X170350000Y-77875000D01*
X170350964Y-77870150D01*
X170356787Y-77819959D01*
X170364359Y-77802808D01*
X170369030Y-77779329D01*
X170385826Y-77754191D01*
X170394608Y-77734303D01*
X170408191Y-77720719D01*
X170423223Y-77698223D01*
X170445719Y-77683191D01*
X170459303Y-77669608D01*
X170479191Y-77660826D01*
X170504329Y-77644030D01*
X170527808Y-77639359D01*
X170544959Y-77631787D01*
X170595151Y-77625964D01*
X170600000Y-77625000D01*
X171400000Y-77625000D01*
X171404850Y-77625964D01*
G37*
G36*
X174504850Y-77625964D02*
G01*
X174555040Y-77631787D01*
X174572189Y-77639359D01*
X174595671Y-77644030D01*
X174620810Y-77660827D01*
X174640696Y-77669608D01*
X174654277Y-77683189D01*
X174676777Y-77698223D01*
X174691810Y-77720722D01*
X174705391Y-77734303D01*
X174714170Y-77754186D01*
X174730970Y-77779329D01*
X174735641Y-77802812D01*
X174743212Y-77819959D01*
X174749033Y-77870139D01*
X174750000Y-77875000D01*
X174750000Y-79125000D01*
X174749032Y-79129863D01*
X174743212Y-79180040D01*
X174735641Y-79197185D01*
X174730970Y-79220671D01*
X174714169Y-79245815D01*
X174705391Y-79265696D01*
X174691812Y-79279274D01*
X174676777Y-79301777D01*
X174654274Y-79316812D01*
X174640696Y-79330391D01*
X174620815Y-79339169D01*
X174595671Y-79355970D01*
X174572185Y-79360641D01*
X174555040Y-79368212D01*
X174504861Y-79374032D01*
X174500000Y-79375000D01*
X173700000Y-79375000D01*
X173695138Y-79374032D01*
X173644959Y-79368212D01*
X173627812Y-79360641D01*
X173604329Y-79355970D01*
X173579186Y-79339170D01*
X173559303Y-79330391D01*
X173545722Y-79316810D01*
X173523223Y-79301777D01*
X173508189Y-79279277D01*
X173494608Y-79265696D01*
X173485827Y-79245810D01*
X173469030Y-79220671D01*
X173464359Y-79197189D01*
X173456787Y-79180040D01*
X173450964Y-79129849D01*
X173450000Y-79125000D01*
X173450000Y-77875000D01*
X173450964Y-77870150D01*
X173456787Y-77819959D01*
X173464359Y-77802808D01*
X173469030Y-77779329D01*
X173485826Y-77754191D01*
X173494608Y-77734303D01*
X173508191Y-77720719D01*
X173523223Y-77698223D01*
X173545719Y-77683191D01*
X173559303Y-77669608D01*
X173579191Y-77660826D01*
X173604329Y-77644030D01*
X173627808Y-77639359D01*
X173644959Y-77631787D01*
X173695151Y-77625964D01*
X173700000Y-77625000D01*
X174500000Y-77625000D01*
X174504850Y-77625964D01*
G37*
G36*
X150690000Y-78950000D02*
G01*
X148990000Y-78950000D01*
X148990000Y-77250000D01*
X150690000Y-77250000D01*
X150690000Y-78950000D01*
G37*
G36*
X152626742Y-77286601D02*
G01*
X152780687Y-77350367D01*
X152919234Y-77442941D01*
X153037059Y-77560766D01*
X153129633Y-77699313D01*
X153193399Y-77853258D01*
X153225907Y-78016685D01*
X153225907Y-78183315D01*
X153193399Y-78346742D01*
X153129633Y-78500687D01*
X153037059Y-78639234D01*
X152919234Y-78757059D01*
X152780687Y-78849633D01*
X152626742Y-78913399D01*
X152463315Y-78945907D01*
X152296685Y-78945907D01*
X152133258Y-78913399D01*
X151979313Y-78849633D01*
X151840766Y-78757059D01*
X151722941Y-78639234D01*
X151630367Y-78500687D01*
X151566601Y-78346742D01*
X151534093Y-78183315D01*
X151534093Y-78016685D01*
X151566601Y-77853258D01*
X151630367Y-77699313D01*
X151722941Y-77560766D01*
X151840766Y-77442941D01*
X151979313Y-77350367D01*
X152133258Y-77286601D01*
X152296685Y-77254093D01*
X152463315Y-77254093D01*
X152626742Y-77286601D01*
G37*
G36*
X155166742Y-77286601D02*
G01*
X155320687Y-77350367D01*
X155459234Y-77442941D01*
X155577059Y-77560766D01*
X155669633Y-77699313D01*
X155733399Y-77853258D01*
X155765907Y-78016685D01*
X155765907Y-78183315D01*
X155733399Y-78346742D01*
X155669633Y-78500687D01*
X155577059Y-78639234D01*
X155459234Y-78757059D01*
X155320687Y-78849633D01*
X155166742Y-78913399D01*
X155003315Y-78945907D01*
X154836685Y-78945907D01*
X154673258Y-78913399D01*
X154519313Y-78849633D01*
X154380766Y-78757059D01*
X154262941Y-78639234D01*
X154170367Y-78500687D01*
X154106601Y-78346742D01*
X154074093Y-78183315D01*
X154074093Y-78016685D01*
X154106601Y-77853258D01*
X154170367Y-77699313D01*
X154262941Y-77560766D01*
X154380766Y-77442941D01*
X154519313Y-77350367D01*
X154673258Y-77286601D01*
X154836685Y-77254093D01*
X155003315Y-77254093D01*
X155166742Y-77286601D01*
G37*
G36*
X157706742Y-77286601D02*
G01*
X157860687Y-77350367D01*
X157999234Y-77442941D01*
X158117059Y-77560766D01*
X158209633Y-77699313D01*
X158273399Y-77853258D01*
X158305907Y-78016685D01*
X158305907Y-78183315D01*
X158273399Y-78346742D01*
X158209633Y-78500687D01*
X158117059Y-78639234D01*
X157999234Y-78757059D01*
X157860687Y-78849633D01*
X157706742Y-78913399D01*
X157543315Y-78945907D01*
X157376685Y-78945907D01*
X157213258Y-78913399D01*
X157059313Y-78849633D01*
X156920766Y-78757059D01*
X156802941Y-78639234D01*
X156710367Y-78500687D01*
X156646601Y-78346742D01*
X156614093Y-78183315D01*
X156614093Y-78016685D01*
X156646601Y-77853258D01*
X156710367Y-77699313D01*
X156802941Y-77560766D01*
X156920766Y-77442941D01*
X157059313Y-77350367D01*
X157213258Y-77286601D01*
X157376685Y-77254093D01*
X157543315Y-77254093D01*
X157706742Y-77286601D01*
G37*
G36*
X160246742Y-77286601D02*
G01*
X160400687Y-77350367D01*
X160539234Y-77442941D01*
X160657059Y-77560766D01*
X160749633Y-77699313D01*
X160813399Y-77853258D01*
X160845907Y-78016685D01*
X160845907Y-78183315D01*
X160813399Y-78346742D01*
X160749633Y-78500687D01*
X160657059Y-78639234D01*
X160539234Y-78757059D01*
X160400687Y-78849633D01*
X160246742Y-78913399D01*
X160083315Y-78945907D01*
X159916685Y-78945907D01*
X159753258Y-78913399D01*
X159599313Y-78849633D01*
X159460766Y-78757059D01*
X159342941Y-78639234D01*
X159250367Y-78500687D01*
X159186601Y-78346742D01*
X159154093Y-78183315D01*
X159154093Y-78016685D01*
X159186601Y-77853258D01*
X159250367Y-77699313D01*
X159342941Y-77560766D01*
X159460766Y-77442941D01*
X159599313Y-77350367D01*
X159753258Y-77286601D01*
X159916685Y-77254093D01*
X160083315Y-77254093D01*
X160246742Y-77286601D01*
G37*
G36*
X162786742Y-77286601D02*
G01*
X162940687Y-77350367D01*
X163079234Y-77442941D01*
X163197059Y-77560766D01*
X163289633Y-77699313D01*
X163353399Y-77853258D01*
X163385907Y-78016685D01*
X163385907Y-78183315D01*
X163353399Y-78346742D01*
X163289633Y-78500687D01*
X163197059Y-78639234D01*
X163079234Y-78757059D01*
X162940687Y-78849633D01*
X162786742Y-78913399D01*
X162623315Y-78945907D01*
X162456685Y-78945907D01*
X162293258Y-78913399D01*
X162139313Y-78849633D01*
X162000766Y-78757059D01*
X161882941Y-78639234D01*
X161790367Y-78500687D01*
X161726601Y-78346742D01*
X161694093Y-78183315D01*
X161694093Y-78016685D01*
X161726601Y-77853258D01*
X161790367Y-77699313D01*
X161882941Y-77560766D01*
X162000766Y-77442941D01*
X162139313Y-77350367D01*
X162293258Y-77286601D01*
X162456685Y-77254093D01*
X162623315Y-77254093D01*
X162786742Y-77286601D01*
G37*
G36*
X165326742Y-77286601D02*
G01*
X165480687Y-77350367D01*
X165619234Y-77442941D01*
X165737059Y-77560766D01*
X165829633Y-77699313D01*
X165893399Y-77853258D01*
X165925907Y-78016685D01*
X165925907Y-78183315D01*
X165893399Y-78346742D01*
X165829633Y-78500687D01*
X165737059Y-78639234D01*
X165619234Y-78757059D01*
X165480687Y-78849633D01*
X165326742Y-78913399D01*
X165163315Y-78945907D01*
X164996685Y-78945907D01*
X164833258Y-78913399D01*
X164679313Y-78849633D01*
X164540766Y-78757059D01*
X164422941Y-78639234D01*
X164330367Y-78500687D01*
X164266601Y-78346742D01*
X164234093Y-78183315D01*
X164234093Y-78016685D01*
X164266601Y-77853258D01*
X164330367Y-77699313D01*
X164422941Y-77560766D01*
X164540766Y-77442941D01*
X164679313Y-77350367D01*
X164833258Y-77286601D01*
X164996685Y-77254093D01*
X165163315Y-77254093D01*
X165326742Y-77286601D01*
G37*
G36*
X167866742Y-77286601D02*
G01*
X168020687Y-77350367D01*
X168159234Y-77442941D01*
X168277059Y-77560766D01*
X168369633Y-77699313D01*
X168433399Y-77853258D01*
X168465907Y-78016685D01*
X168465907Y-78183315D01*
X168433399Y-78346742D01*
X168369633Y-78500687D01*
X168277059Y-78639234D01*
X168159234Y-78757059D01*
X168020687Y-78849633D01*
X167866742Y-78913399D01*
X167703315Y-78945907D01*
X167536685Y-78945907D01*
X167373258Y-78913399D01*
X167219313Y-78849633D01*
X167080766Y-78757059D01*
X166962941Y-78639234D01*
X166870367Y-78500687D01*
X166806601Y-78346742D01*
X166774093Y-78183315D01*
X166774093Y-78016685D01*
X166806601Y-77853258D01*
X166870367Y-77699313D01*
X166962941Y-77560766D01*
X167080766Y-77442941D01*
X167219313Y-77350367D01*
X167373258Y-77286601D01*
X167536685Y-77254093D01*
X167703315Y-77254093D01*
X167866742Y-77286601D01*
G37*
G36*
X177429850Y-77000964D02*
G01*
X177480040Y-77006787D01*
X177497189Y-77014359D01*
X177520671Y-77019030D01*
X177545810Y-77035827D01*
X177565696Y-77044608D01*
X177579277Y-77058189D01*
X177601777Y-77073223D01*
X177616810Y-77095722D01*
X177630391Y-77109303D01*
X177639170Y-77129186D01*
X177655970Y-77154329D01*
X177660641Y-77177812D01*
X177668212Y-77194959D01*
X177674033Y-77245139D01*
X177675000Y-77250000D01*
X177675000Y-78150000D01*
X177674032Y-78154863D01*
X177668212Y-78205040D01*
X177660641Y-78222185D01*
X177655970Y-78245671D01*
X177639169Y-78270815D01*
X177630391Y-78290696D01*
X177616812Y-78304274D01*
X177601777Y-78326777D01*
X177579274Y-78341812D01*
X177565696Y-78355391D01*
X177545815Y-78364169D01*
X177520671Y-78380970D01*
X177497185Y-78385641D01*
X177480040Y-78393212D01*
X177429861Y-78399032D01*
X177425000Y-78400000D01*
X176775000Y-78400000D01*
X176770138Y-78399032D01*
X176719959Y-78393212D01*
X176702812Y-78385641D01*
X176679329Y-78380970D01*
X176654186Y-78364170D01*
X176634303Y-78355391D01*
X176620722Y-78341810D01*
X176598223Y-78326777D01*
X176583189Y-78304277D01*
X176569608Y-78290696D01*
X176560827Y-78270810D01*
X176544030Y-78245671D01*
X176539359Y-78222189D01*
X176531787Y-78205040D01*
X176525964Y-78154849D01*
X176525000Y-78150000D01*
X176525000Y-77250000D01*
X176525964Y-77245150D01*
X176531787Y-77194959D01*
X176539359Y-77177808D01*
X176544030Y-77154329D01*
X176560826Y-77129191D01*
X176569608Y-77109303D01*
X176583191Y-77095719D01*
X176598223Y-77073223D01*
X176620719Y-77058191D01*
X176634303Y-77044608D01*
X176654191Y-77035826D01*
X176679329Y-77019030D01*
X176702808Y-77014359D01*
X176719959Y-77006787D01*
X176770151Y-77000964D01*
X176775000Y-77000000D01*
X177425000Y-77000000D01*
X177429850Y-77000964D01*
G37*
G36*
X179479850Y-77000964D02*
G01*
X179530040Y-77006787D01*
X179547189Y-77014359D01*
X179570671Y-77019030D01*
X179595810Y-77035827D01*
X179615696Y-77044608D01*
X179629277Y-77058189D01*
X179651777Y-77073223D01*
X179666810Y-77095722D01*
X179680391Y-77109303D01*
X179689170Y-77129186D01*
X179705970Y-77154329D01*
X179710641Y-77177812D01*
X179718212Y-77194959D01*
X179724033Y-77245139D01*
X179725000Y-77250000D01*
X179725000Y-78150000D01*
X179724032Y-78154863D01*
X179718212Y-78205040D01*
X179710641Y-78222185D01*
X179705970Y-78245671D01*
X179689169Y-78270815D01*
X179680391Y-78290696D01*
X179666812Y-78304274D01*
X179651777Y-78326777D01*
X179629274Y-78341812D01*
X179615696Y-78355391D01*
X179595815Y-78364169D01*
X179570671Y-78380970D01*
X179547185Y-78385641D01*
X179530040Y-78393212D01*
X179479861Y-78399032D01*
X179475000Y-78400000D01*
X178825000Y-78400000D01*
X178820138Y-78399032D01*
X178769959Y-78393212D01*
X178752812Y-78385641D01*
X178729329Y-78380970D01*
X178704186Y-78364170D01*
X178684303Y-78355391D01*
X178670722Y-78341810D01*
X178648223Y-78326777D01*
X178633189Y-78304277D01*
X178619608Y-78290696D01*
X178610827Y-78270810D01*
X178594030Y-78245671D01*
X178589359Y-78222189D01*
X178581787Y-78205040D01*
X178575964Y-78154849D01*
X178575000Y-78150000D01*
X178575000Y-77250000D01*
X178575964Y-77245150D01*
X178581787Y-77194959D01*
X178589359Y-77177808D01*
X178594030Y-77154329D01*
X178610826Y-77129191D01*
X178619608Y-77109303D01*
X178633191Y-77095719D01*
X178648223Y-77073223D01*
X178670719Y-77058191D01*
X178684303Y-77044608D01*
X178704191Y-77035826D01*
X178729329Y-77019030D01*
X178752808Y-77014359D01*
X178769959Y-77006787D01*
X178820151Y-77000964D01*
X178825000Y-77000000D01*
X179475000Y-77000000D01*
X179479850Y-77000964D01*
G37*
G36*
X159354850Y-68800964D02*
G01*
X159405040Y-68806787D01*
X159422189Y-68814359D01*
X159445671Y-68819030D01*
X159470810Y-68835827D01*
X159490696Y-68844608D01*
X159504277Y-68858189D01*
X159526777Y-68873223D01*
X159541810Y-68895722D01*
X159555391Y-68909303D01*
X159564170Y-68929186D01*
X159580970Y-68954329D01*
X159585641Y-68977812D01*
X159593212Y-68994959D01*
X159599033Y-69045139D01*
X159600000Y-69050000D01*
X159600000Y-70550000D01*
X159599032Y-70554863D01*
X159593212Y-70605040D01*
X159585641Y-70622185D01*
X159580970Y-70645671D01*
X159564169Y-70670815D01*
X159555391Y-70690696D01*
X159541812Y-70704274D01*
X159526777Y-70726777D01*
X159504274Y-70741812D01*
X159490696Y-70755391D01*
X159470815Y-70764169D01*
X159445671Y-70780970D01*
X159422185Y-70785641D01*
X159405040Y-70793212D01*
X159354861Y-70799032D01*
X159350000Y-70800000D01*
X157850000Y-70800000D01*
X157845138Y-70799032D01*
X157794959Y-70793212D01*
X157777812Y-70785641D01*
X157754329Y-70780970D01*
X157729186Y-70764170D01*
X157709303Y-70755391D01*
X157695722Y-70741810D01*
X157673223Y-70726777D01*
X157658189Y-70704277D01*
X157644608Y-70690696D01*
X157635827Y-70670810D01*
X157619030Y-70645671D01*
X157614359Y-70622189D01*
X157606787Y-70605040D01*
X157600964Y-70554849D01*
X157600000Y-70550000D01*
X157600000Y-69050000D01*
X157600964Y-69045150D01*
X157606787Y-68994959D01*
X157614359Y-68977808D01*
X157619030Y-68954329D01*
X157635826Y-68929191D01*
X157644608Y-68909303D01*
X157658191Y-68895719D01*
X157673223Y-68873223D01*
X157695719Y-68858191D01*
X157709303Y-68844608D01*
X157729191Y-68835826D01*
X157754329Y-68819030D01*
X157777808Y-68814359D01*
X157794959Y-68806787D01*
X157845151Y-68800964D01*
X157850000Y-68800000D01*
X159350000Y-68800000D01*
X159354850Y-68800964D01*
G37*
G36*
X169834850Y-68800964D02*
G01*
X169885040Y-68806787D01*
X169902189Y-68814359D01*
X169925671Y-68819030D01*
X169950810Y-68835827D01*
X169970696Y-68844608D01*
X169984277Y-68858189D01*
X170006777Y-68873223D01*
X170021810Y-68895722D01*
X170035391Y-68909303D01*
X170044170Y-68929186D01*
X170060970Y-68954329D01*
X170065641Y-68977812D01*
X170073212Y-68994959D01*
X170079033Y-69045139D01*
X170080000Y-69050000D01*
X170080000Y-70550000D01*
X170079032Y-70554863D01*
X170073212Y-70605040D01*
X170065641Y-70622185D01*
X170060970Y-70645671D01*
X170044169Y-70670815D01*
X170035391Y-70690696D01*
X170021812Y-70704274D01*
X170006777Y-70726777D01*
X169984274Y-70741812D01*
X169970696Y-70755391D01*
X169950815Y-70764169D01*
X169925671Y-70780970D01*
X169902185Y-70785641D01*
X169885040Y-70793212D01*
X169834861Y-70799032D01*
X169830000Y-70800000D01*
X168330000Y-70800000D01*
X168325138Y-70799032D01*
X168274959Y-70793212D01*
X168257812Y-70785641D01*
X168234329Y-70780970D01*
X168209186Y-70764170D01*
X168189303Y-70755391D01*
X168175722Y-70741810D01*
X168153223Y-70726777D01*
X168138189Y-70704277D01*
X168124608Y-70690696D01*
X168115827Y-70670810D01*
X168099030Y-70645671D01*
X168094359Y-70622189D01*
X168086787Y-70605040D01*
X168080964Y-70554849D01*
X168080000Y-70550000D01*
X168080000Y-69050000D01*
X168080964Y-69045150D01*
X168086787Y-68994959D01*
X168094359Y-68977808D01*
X168099030Y-68954329D01*
X168115826Y-68929191D01*
X168124608Y-68909303D01*
X168138191Y-68895719D01*
X168153223Y-68873223D01*
X168175719Y-68858191D01*
X168189303Y-68844608D01*
X168209191Y-68835826D01*
X168234329Y-68819030D01*
X168257808Y-68814359D01*
X168274959Y-68806787D01*
X168325151Y-68800964D01*
X168330000Y-68800000D01*
X169830000Y-68800000D01*
X169834850Y-68800964D01*
G37*
G36*
X177654850Y-68800964D02*
G01*
X177705040Y-68806787D01*
X177722189Y-68814359D01*
X177745671Y-68819030D01*
X177770810Y-68835827D01*
X177790696Y-68844608D01*
X177804277Y-68858189D01*
X177826777Y-68873223D01*
X177841810Y-68895722D01*
X177855391Y-68909303D01*
X177864170Y-68929186D01*
X177880970Y-68954329D01*
X177885641Y-68977812D01*
X177893212Y-68994959D01*
X177899033Y-69045139D01*
X177900000Y-69050000D01*
X177900000Y-70550000D01*
X177899032Y-70554863D01*
X177893212Y-70605040D01*
X177885641Y-70622185D01*
X177880970Y-70645671D01*
X177864169Y-70670815D01*
X177855391Y-70690696D01*
X177841812Y-70704274D01*
X177826777Y-70726777D01*
X177804274Y-70741812D01*
X177790696Y-70755391D01*
X177770815Y-70764169D01*
X177745671Y-70780970D01*
X177722185Y-70785641D01*
X177705040Y-70793212D01*
X177654861Y-70799032D01*
X177650000Y-70800000D01*
X176150000Y-70800000D01*
X176145138Y-70799032D01*
X176094959Y-70793212D01*
X176077812Y-70785641D01*
X176054329Y-70780970D01*
X176029186Y-70764170D01*
X176009303Y-70755391D01*
X175995722Y-70741810D01*
X175973223Y-70726777D01*
X175958189Y-70704277D01*
X175944608Y-70690696D01*
X175935827Y-70670810D01*
X175919030Y-70645671D01*
X175914359Y-70622189D01*
X175906787Y-70605040D01*
X175900964Y-70554849D01*
X175900000Y-70550000D01*
X175900000Y-69050000D01*
X175900964Y-69045150D01*
X175906787Y-68994959D01*
X175914359Y-68977808D01*
X175919030Y-68954329D01*
X175935826Y-68929191D01*
X175944608Y-68909303D01*
X175958191Y-68895719D01*
X175973223Y-68873223D01*
X175995719Y-68858191D01*
X176009303Y-68844608D01*
X176029191Y-68835826D01*
X176054329Y-68819030D01*
X176077808Y-68814359D01*
X176094959Y-68806787D01*
X176145151Y-68800964D01*
X176150000Y-68800000D01*
X177650000Y-68800000D01*
X177654850Y-68800964D01*
G37*
G36*
X156350285Y-68843060D02*
G01*
X156531397Y-68918079D01*
X156694393Y-69026990D01*
X156833010Y-69165607D01*
X156941921Y-69328603D01*
X157016940Y-69509715D01*
X157055185Y-69701983D01*
X157055185Y-69898017D01*
X157016940Y-70090285D01*
X156941921Y-70271397D01*
X156833010Y-70434393D01*
X156694393Y-70573010D01*
X156531397Y-70681921D01*
X156350285Y-70756940D01*
X156158017Y-70795185D01*
X155961983Y-70795185D01*
X155769715Y-70756940D01*
X155588603Y-70681921D01*
X155425607Y-70573010D01*
X155286990Y-70434393D01*
X155178079Y-70271397D01*
X155103060Y-70090285D01*
X155064815Y-69898017D01*
X155064815Y-69701983D01*
X155103060Y-69509715D01*
X155178079Y-69328603D01*
X155286990Y-69165607D01*
X155425607Y-69026990D01*
X155588603Y-68918079D01*
X155769715Y-68843060D01*
X155961983Y-68804815D01*
X156158017Y-68804815D01*
X156350285Y-68843060D01*
G37*
G36*
X164290285Y-68843060D02*
G01*
X164471397Y-68918079D01*
X164634393Y-69026990D01*
X164773010Y-69165607D01*
X164881921Y-69328603D01*
X164956940Y-69509715D01*
X164995185Y-69701983D01*
X164995185Y-69898017D01*
X164956940Y-70090285D01*
X164881921Y-70271397D01*
X164773010Y-70434393D01*
X164634393Y-70573010D01*
X164471397Y-70681921D01*
X164290285Y-70756940D01*
X164098017Y-70795185D01*
X163901983Y-70795185D01*
X163709715Y-70756940D01*
X163528603Y-70681921D01*
X163365607Y-70573010D01*
X163226990Y-70434393D01*
X163118079Y-70271397D01*
X163043060Y-70090285D01*
X163004815Y-69898017D01*
X163004815Y-69701983D01*
X163043060Y-69509715D01*
X163118079Y-69328603D01*
X163226990Y-69165607D01*
X163365607Y-69026990D01*
X163528603Y-68918079D01*
X163709715Y-68843060D01*
X163901983Y-68804815D01*
X164098017Y-68804815D01*
X164290285Y-68843060D01*
G37*
G36*
X166830285Y-68843060D02*
G01*
X167011397Y-68918079D01*
X167174393Y-69026990D01*
X167313010Y-69165607D01*
X167421921Y-69328603D01*
X167496940Y-69509715D01*
X167535185Y-69701983D01*
X167535185Y-69898017D01*
X167496940Y-70090285D01*
X167421921Y-70271397D01*
X167313010Y-70434393D01*
X167174393Y-70573010D01*
X167011397Y-70681921D01*
X166830285Y-70756940D01*
X166638017Y-70795185D01*
X166441983Y-70795185D01*
X166249715Y-70756940D01*
X166068603Y-70681921D01*
X165905607Y-70573010D01*
X165766990Y-70434393D01*
X165658079Y-70271397D01*
X165583060Y-70090285D01*
X165544815Y-69898017D01*
X165544815Y-69701983D01*
X165583060Y-69509715D01*
X165658079Y-69328603D01*
X165766990Y-69165607D01*
X165905607Y-69026990D01*
X166068603Y-68918079D01*
X166249715Y-68843060D01*
X166441983Y-68804815D01*
X166638017Y-68804815D01*
X166830285Y-68843060D01*
G37*
G36*
X174650285Y-68843060D02*
G01*
X174831397Y-68918079D01*
X174994393Y-69026990D01*
X175133010Y-69165607D01*
X175241921Y-69328603D01*
X175316940Y-69509715D01*
X175355185Y-69701983D01*
X175355185Y-69898017D01*
X175316940Y-70090285D01*
X175241921Y-70271397D01*
X175133010Y-70434393D01*
X174994393Y-70573010D01*
X174831397Y-70681921D01*
X174650285Y-70756940D01*
X174458017Y-70795185D01*
X174261983Y-70795185D01*
X174069715Y-70756940D01*
X173888603Y-70681921D01*
X173725607Y-70573010D01*
X173586990Y-70434393D01*
X173478079Y-70271397D01*
X173403060Y-70090285D01*
X173364815Y-69898017D01*
X173364815Y-69701983D01*
X173403060Y-69509715D01*
X173478079Y-69328603D01*
X173586990Y-69165607D01*
X173725607Y-69026990D01*
X173888603Y-68918079D01*
X174069715Y-68843060D01*
X174261983Y-68804815D01*
X174458017Y-68804815D01*
X174650285Y-68843060D01*
G37*
G36*
X148192687Y-67155056D02*
G01*
X148202918Y-67155056D01*
X148242893Y-67163007D01*
X148345074Y-67179191D01*
X148377943Y-67189870D01*
X148404799Y-67195213D01*
X148442700Y-67210912D01*
X148501741Y-67230096D01*
X148557052Y-67258278D01*
X148594967Y-67273983D01*
X148617742Y-67289201D01*
X148648528Y-67304887D01*
X148732217Y-67365690D01*
X148766113Y-67388339D01*
X148773347Y-67395573D01*
X148781798Y-67401713D01*
X148898286Y-67518201D01*
X148904425Y-67526651D01*
X148911661Y-67533887D01*
X148934312Y-67567787D01*
X148995112Y-67651471D01*
X149010796Y-67682254D01*
X149026017Y-67705033D01*
X149041723Y-67742952D01*
X149069903Y-67798258D01*
X149089084Y-67857292D01*
X149104787Y-67895201D01*
X149110130Y-67922062D01*
X149120808Y-67954925D01*
X149136990Y-68057098D01*
X149144944Y-68097082D01*
X149144944Y-68107313D01*
X149146578Y-68117630D01*
X149146578Y-68282369D01*
X149144944Y-68292685D01*
X149144944Y-68302918D01*
X149136990Y-68342905D01*
X149120808Y-68445074D01*
X149110130Y-68477935D01*
X149104787Y-68504799D01*
X149089083Y-68542711D01*
X149069903Y-68601741D01*
X149041726Y-68657041D01*
X149026017Y-68694967D01*
X149010794Y-68717749D01*
X148995112Y-68748528D01*
X148934320Y-68832200D01*
X148911661Y-68866113D01*
X148904423Y-68873350D01*
X148898286Y-68881798D01*
X148781798Y-68998286D01*
X148773350Y-69004423D01*
X148766113Y-69011661D01*
X148732200Y-69034320D01*
X148648528Y-69095112D01*
X148617749Y-69110794D01*
X148594967Y-69126017D01*
X148557041Y-69141726D01*
X148501741Y-69169903D01*
X148442711Y-69189083D01*
X148404799Y-69204787D01*
X148377935Y-69210130D01*
X148345074Y-69220808D01*
X148242902Y-69236990D01*
X148202918Y-69244944D01*
X148192687Y-69244944D01*
X148182370Y-69246578D01*
X148017630Y-69246578D01*
X148007313Y-69244944D01*
X147997082Y-69244944D01*
X147957098Y-69236990D01*
X147854925Y-69220808D01*
X147822062Y-69210130D01*
X147795201Y-69204787D01*
X147757292Y-69189084D01*
X147698258Y-69169903D01*
X147642952Y-69141723D01*
X147605033Y-69126017D01*
X147582254Y-69110796D01*
X147551471Y-69095112D01*
X147467787Y-69034312D01*
X147433887Y-69011661D01*
X147426651Y-69004425D01*
X147418201Y-68998286D01*
X147301713Y-68881798D01*
X147295573Y-68873347D01*
X147288339Y-68866113D01*
X147265690Y-68832217D01*
X147204887Y-68748528D01*
X147189201Y-68717742D01*
X147173983Y-68694967D01*
X147158278Y-68657052D01*
X147130096Y-68601741D01*
X147110912Y-68542700D01*
X147095213Y-68504799D01*
X147089870Y-68477943D01*
X147079191Y-68445074D01*
X147063008Y-68342895D01*
X147055056Y-68302918D01*
X147055056Y-68292686D01*
X147053422Y-68282369D01*
X147053422Y-68117630D01*
X147055056Y-68107312D01*
X147055056Y-68097082D01*
X147063007Y-68057108D01*
X147079191Y-67954925D01*
X147089871Y-67922054D01*
X147095213Y-67895201D01*
X147110910Y-67857303D01*
X147130096Y-67798258D01*
X147158280Y-67742942D01*
X147173983Y-67705033D01*
X147189199Y-67682260D01*
X147204887Y-67651471D01*
X147265699Y-67567770D01*
X147288339Y-67533887D01*
X147295570Y-67526655D01*
X147301713Y-67518201D01*
X147418201Y-67401713D01*
X147426655Y-67395570D01*
X147433887Y-67388339D01*
X147467770Y-67365699D01*
X147551471Y-67304887D01*
X147582260Y-67289199D01*
X147605033Y-67273983D01*
X147642942Y-67258280D01*
X147698258Y-67230096D01*
X147757303Y-67210910D01*
X147795201Y-67195213D01*
X147822054Y-67189871D01*
X147854925Y-67179191D01*
X147957108Y-67163007D01*
X147997082Y-67155056D01*
X148007313Y-67155056D01*
X148017630Y-67153422D01*
X148182370Y-67153422D01*
X148192687Y-67155056D01*
G37*
G36*
X196542687Y-67105056D02*
G01*
X196552918Y-67105056D01*
X196592893Y-67113007D01*
X196695074Y-67129191D01*
X196727943Y-67139870D01*
X196754799Y-67145213D01*
X196792700Y-67160912D01*
X196851741Y-67180096D01*
X196907052Y-67208278D01*
X196944967Y-67223983D01*
X196967742Y-67239201D01*
X196998528Y-67254887D01*
X197082217Y-67315690D01*
X197116113Y-67338339D01*
X197123347Y-67345573D01*
X197131798Y-67351713D01*
X197248286Y-67468201D01*
X197254425Y-67476651D01*
X197261661Y-67483887D01*
X197284312Y-67517787D01*
X197345112Y-67601471D01*
X197360796Y-67632254D01*
X197376017Y-67655033D01*
X197391723Y-67692952D01*
X197419903Y-67748258D01*
X197439084Y-67807292D01*
X197454787Y-67845201D01*
X197460130Y-67872062D01*
X197470808Y-67904925D01*
X197486990Y-68007098D01*
X197494944Y-68047082D01*
X197494944Y-68057313D01*
X197496578Y-68067630D01*
X197496578Y-68232369D01*
X197494944Y-68242685D01*
X197494944Y-68252918D01*
X197486990Y-68292905D01*
X197470808Y-68395074D01*
X197460130Y-68427935D01*
X197454787Y-68454799D01*
X197439083Y-68492711D01*
X197419903Y-68551741D01*
X197391726Y-68607041D01*
X197376017Y-68644967D01*
X197360794Y-68667749D01*
X197345112Y-68698528D01*
X197284320Y-68782200D01*
X197261661Y-68816113D01*
X197254423Y-68823350D01*
X197248286Y-68831798D01*
X197131798Y-68948286D01*
X197123350Y-68954423D01*
X197116113Y-68961661D01*
X197082200Y-68984320D01*
X196998528Y-69045112D01*
X196967749Y-69060794D01*
X196944967Y-69076017D01*
X196907041Y-69091726D01*
X196851741Y-69119903D01*
X196792711Y-69139083D01*
X196754799Y-69154787D01*
X196727935Y-69160130D01*
X196695074Y-69170808D01*
X196592902Y-69186990D01*
X196552918Y-69194944D01*
X196542687Y-69194944D01*
X196532370Y-69196578D01*
X196367630Y-69196578D01*
X196357313Y-69194944D01*
X196347082Y-69194944D01*
X196307098Y-69186990D01*
X196204925Y-69170808D01*
X196172062Y-69160130D01*
X196145201Y-69154787D01*
X196107292Y-69139084D01*
X196048258Y-69119903D01*
X195992952Y-69091723D01*
X195955033Y-69076017D01*
X195932254Y-69060796D01*
X195901471Y-69045112D01*
X195817787Y-68984312D01*
X195783887Y-68961661D01*
X195776651Y-68954425D01*
X195768201Y-68948286D01*
X195651713Y-68831798D01*
X195645573Y-68823347D01*
X195638339Y-68816113D01*
X195615690Y-68782217D01*
X195554887Y-68698528D01*
X195539201Y-68667742D01*
X195523983Y-68644967D01*
X195508278Y-68607052D01*
X195480096Y-68551741D01*
X195460912Y-68492700D01*
X195445213Y-68454799D01*
X195439870Y-68427943D01*
X195429191Y-68395074D01*
X195413008Y-68292895D01*
X195405056Y-68252918D01*
X195405056Y-68242686D01*
X195403422Y-68232369D01*
X195403422Y-68067630D01*
X195405056Y-68057312D01*
X195405056Y-68047082D01*
X195413007Y-68007108D01*
X195429191Y-67904925D01*
X195439871Y-67872054D01*
X195445213Y-67845201D01*
X195460910Y-67807303D01*
X195480096Y-67748258D01*
X195508280Y-67692942D01*
X195523983Y-67655033D01*
X195539199Y-67632260D01*
X195554887Y-67601471D01*
X195615699Y-67517770D01*
X195638339Y-67483887D01*
X195645570Y-67476655D01*
X195651713Y-67468201D01*
X195768201Y-67351713D01*
X195776655Y-67345570D01*
X195783887Y-67338339D01*
X195817770Y-67315699D01*
X195901471Y-67254887D01*
X195932260Y-67239199D01*
X195955033Y-67223983D01*
X195992942Y-67208280D01*
X196048258Y-67180096D01*
X196107303Y-67160910D01*
X196145201Y-67145213D01*
X196172054Y-67139871D01*
X196204925Y-67129191D01*
X196307108Y-67113007D01*
X196347082Y-67105056D01*
X196357313Y-67105056D01*
X196367630Y-67103422D01*
X196532370Y-67103422D01*
X196542687Y-67105056D01*
G37*
M02*
