%TF.GenerationSoftware,KiCad,Pcbnew,9.0.2*%
%TF.CreationDate,2026-05-01T14:56:34-04:00*%
%TF.ProjectId,TurbineMCU,54757262-696e-4654-9d43-552e6b696361,rev?*%
%TF.SameCoordinates,Original*%
%TF.FileFunction,Copper,L3,Inr*%
%TF.FilePolarity,Positive*%
%FSLAX46Y46*%
G04 Gerber Fmt 4.6, Leading zero omitted, Abs format (unit mm)*
G04 Created by KiCad (PCBNEW 9.0.2) date 2026-05-01 14:56:34*
%MOMM*%
%LPD*%
G01*
G04 APERTURE LIST*
G04 Aperture macros list*
%AMRoundRect*
0 Rectangle with rounded corners*
0 $1 Rounding radius*
0 $2 $3 $4 $5 $6 $7 $8 $9 X,Y pos of 4 corners*
0 Add a 4 corners polygon primitive as box body*
4,1,4,$2,$3,$4,$5,$6,$7,$8,$9,$2,$3,0*
0 Add four circle primitives for the rounded corners*
1,1,$1+$1,$2,$3*
1,1,$1+$1,$4,$5*
1,1,$1+$1,$6,$7*
1,1,$1+$1,$8,$9*
0 Add four rect primitives between the rounded corners*
20,1,$1+$1,$2,$3,$4,$5,0*
20,1,$1+$1,$4,$5,$6,$7,0*
20,1,$1+$1,$6,$7,$8,$9,0*
20,1,$1+$1,$8,$9,$2,$3,0*%
G04 Aperture macros list end*
%TA.AperFunction,ComponentPad*%
%ADD10RoundRect,0.250000X-0.725000X0.600000X-0.725000X-0.600000X0.725000X-0.600000X0.725000X0.600000X0*%
%TD*%
%TA.AperFunction,ComponentPad*%
%ADD11O,1.950000X1.700000*%
%TD*%
%TA.AperFunction,ComponentPad*%
%ADD12R,1.700000X1.700000*%
%TD*%
%TA.AperFunction,ComponentPad*%
%ADD13C,1.700000*%
%TD*%
%TA.AperFunction,ComponentPad*%
%ADD14RoundRect,0.250000X-0.750000X-0.750000X0.750000X-0.750000X0.750000X0.750000X-0.750000X0.750000X0*%
%TD*%
%TA.AperFunction,ComponentPad*%
%ADD15C,2.000000*%
%TD*%
%TA.AperFunction,ComponentPad*%
%ADD16RoundRect,0.250000X0.725000X-0.600000X0.725000X0.600000X-0.725000X0.600000X-0.725000X-0.600000X0*%
%TD*%
%TA.AperFunction,ComponentPad*%
%ADD17RoundRect,0.250000X0.750000X-0.750000X0.750000X0.750000X-0.750000X0.750000X-0.750000X-0.750000X0*%
%TD*%
%TA.AperFunction,ComponentPad*%
%ADD18RoundRect,0.250000X0.750000X0.750000X-0.750000X0.750000X-0.750000X-0.750000X0.750000X-0.750000X0*%
%TD*%
%TA.AperFunction,ComponentPad*%
%ADD19RoundRect,0.250000X0.600000X0.725000X-0.600000X0.725000X-0.600000X-0.725000X0.600000X-0.725000X0*%
%TD*%
%TA.AperFunction,ComponentPad*%
%ADD20O,1.700000X1.950000*%
%TD*%
%TA.AperFunction,ViaPad*%
%ADD21C,0.600000*%
%TD*%
G04 APERTURE END LIST*
D10*
%TO.N,+5V*%
%TO.C,J5*%
X195600000Y-84800000D03*
D11*
%TO.N,Right_Servo_PWM*%
X195600000Y-87300000D03*
%TO.N,GND*%
X195600000Y-89800000D03*
%TD*%
D12*
%TO.N,+3.3V*%
%TO.C,J15*%
X149840000Y-78100000D03*
D13*
%TO.N,GND*%
X152380000Y-78100000D03*
%TO.N,SWDIO*%
X154920000Y-78100000D03*
%TO.N,SWDCLK*%
X157460000Y-78100000D03*
%TO.N,UART0_RX_XDS*%
X160000000Y-78100000D03*
%TO.N,UART0_TX_XDS*%
X162540000Y-78100000D03*
%TO.N,NRST*%
X165080000Y-78100000D03*
%TO.N,+5V*%
X167620000Y-78100000D03*
%TD*%
D14*
%TO.N,Critical_Condition*%
%TO.C,J10*%
X176920000Y-115900000D03*
D15*
%TO.N,PA_1*%
X179460000Y-115900000D03*
%TO.N,PA_0*%
X182000000Y-115900000D03*
%TD*%
D16*
%TO.N,GND*%
%TO.C,J6*%
X148600000Y-92400000D03*
D11*
%TO.N,Left_Servo_PWM*%
X148600000Y-89900000D03*
%TO.N,+5V*%
X148600000Y-87400000D03*
%TD*%
D17*
%TO.N,PA_28*%
%TO.C,J13*%
X194700000Y-100380000D03*
D15*
%TO.N,PA_29*%
X194700000Y-97840000D03*
%TO.N,PA_30*%
X194700000Y-95300000D03*
%TD*%
%TO.N,NRST*%
%TO.C,SW1*%
X192250000Y-118250000D03*
X185750000Y-118250000D03*
%TO.N,GND*%
X192250000Y-113750000D03*
X185750000Y-113750000D03*
%TD*%
D18*
%TO.N,UART1_TX*%
%TO.C,J2*%
X158600000Y-69800000D03*
D15*
%TO.N,UART1_RX*%
X156060000Y-69800000D03*
%TD*%
D18*
%TO.N,PA_6*%
%TO.C,J14*%
X169080000Y-69800000D03*
D15*
%TO.N,PA_5*%
X166540000Y-69800000D03*
%TO.N,PB_17*%
X164000000Y-69800000D03*
%TD*%
D19*
%TO.N,Hall_Effect_Out*%
%TO.C,J8*%
X171800000Y-116900000D03*
D20*
%TO.N,+5V*%
X169300000Y-116900000D03*
%TO.N,GND*%
X166800000Y-116900000D03*
%TD*%
D16*
%TO.N,GND*%
%TO.C,J3*%
X148675000Y-107350000D03*
D11*
%TO.N,+5V*%
X148675000Y-104850000D03*
%TO.N,Net-(J3-Pin_3)*%
X148675000Y-102350000D03*
%TO.N,Net-(J3-Pin_4)*%
X148675000Y-99850000D03*
%TD*%
D15*
%TO.N,GND*%
%TO.C,SW2*%
X155650000Y-113550000D03*
X162150000Y-113550000D03*
%TO.N,Net-(IC1-PB22)*%
X155650000Y-118050000D03*
X162150000Y-118050000D03*
%TD*%
D18*
%TO.N,GND*%
%TO.C,J1*%
X176900000Y-69800000D03*
D15*
%TO.N,+5V*%
X174360000Y-69800000D03*
%TD*%
D21*
%TO.N,+3.3V*%
X188500000Y-94300000D03*
X188500000Y-98900000D03*
%TO.N,GND*%
X195800000Y-76500000D03*
X181000000Y-110100000D03*
X159300000Y-67700000D03*
X176600000Y-80600000D03*
X161000000Y-112050000D03*
X189000000Y-117000000D03*
X155250000Y-96650000D03*
X158150000Y-89050000D03*
X175800000Y-100400000D03*
X148100000Y-113800000D03*
X188900000Y-92400000D03*
X176700000Y-81750000D03*
X169250000Y-94850000D03*
X182400000Y-113500000D03*
X184700000Y-69100000D03*
X157850000Y-106000000D03*
X187850000Y-101200000D03*
X181300000Y-90850000D03*
X182500000Y-91400000D03*
X174650000Y-80400000D03*
X180100000Y-79500000D03*
X152300000Y-109200000D03*
X175700000Y-74600000D03*
X179700000Y-70700000D03*
X154400000Y-88900000D03*
X182600000Y-77400000D03*
X151200000Y-113100000D03*
X169000000Y-80500000D03*
X167500000Y-92700000D03*
X185300000Y-83800000D03*
X155850000Y-105900000D03*
X156500000Y-99200000D03*
X185100000Y-110300000D03*
X157000000Y-107500000D03*
X157950000Y-97850000D03*
X189250000Y-102856000D03*
X192300000Y-94600000D03*
X158150000Y-108550000D03*
X190400000Y-69000000D03*
X184750000Y-94350000D03*
X175200000Y-91500000D03*
X176500000Y-85100000D03*
X193800000Y-88700000D03*
X174400000Y-109900000D03*
X152200000Y-67100000D03*
X177950000Y-81900000D03*
X196200000Y-113800000D03*
X183675000Y-94300000D03*
X177000000Y-86500000D03*
X155800000Y-93200000D03*
X187200000Y-107000000D03*
X187200000Y-83600000D03*
X180850000Y-108450000D03*
X181700000Y-81200000D03*
X185950000Y-77800000D03*
X170000000Y-67700000D03*
X167500000Y-95400000D03*
X190200000Y-93300000D03*
X147100000Y-74200000D03*
X182200000Y-106900000D03*
X158050000Y-100400000D03*
X154200000Y-74100000D03*
X152700000Y-116600000D03*
X196200000Y-81000000D03*
X180100000Y-78250000D03*
X163600000Y-112200000D03*
X147100000Y-81200000D03*
X176500000Y-77400000D03*
X162900000Y-100100000D03*
X175000000Y-87800000D03*
%TO.N,NRST*%
X182900000Y-101100000D03*
X179600000Y-93300000D03*
X175300000Y-93100000D03*
X184700000Y-104200000D03*
%TO.N,Anemometer_RV*%
X174300000Y-112800000D03*
X175350000Y-108350000D03*
%TO.N,PB_17*%
X163000000Y-94400000D03*
X164000000Y-72200000D03*
%TO.N,UART1_TX*%
X158600000Y-72200000D03*
X157700000Y-88000000D03*
%TO.N,SWDIO*%
X161000000Y-92500000D03*
%TO.N,SWDCLK*%
X162000000Y-92900000D03*
%TO.N,UART1_RX*%
X163800000Y-74600000D03*
X168500000Y-83727000D03*
%TO.N,Hall_Effect_Out*%
X165200000Y-113200000D03*
X170600000Y-90400000D03*
%TO.N,UART0_TX_XDS*%
X167600000Y-84200000D03*
%TO.N,UART0_RX_XDS*%
X166400000Y-84300000D03*
%TO.N,PA_0*%
X177000000Y-113600000D03*
X177500000Y-99100000D03*
%TO.N,PA_1*%
X179300000Y-101400000D03*
%TO.N,PA_5*%
X166900000Y-71955000D03*
X173800000Y-91400000D03*
%TO.N,PA_6*%
X174500000Y-89600000D03*
X169200000Y-72000000D03*
%TO.N,Net-(IC1-PB22)*%
X166550000Y-102150000D03*
X164100000Y-106400000D03*
%TO.N,Right_Servo_PWM*%
X189900000Y-80900000D03*
%TO.N,Critical_Condition*%
X173200000Y-113200000D03*
X171200000Y-95000000D03*
%TD*%
M02*
