%TF.GenerationSoftware,KiCad,Pcbnew,9.0.2*%
%TF.CreationDate,2026-04-21T03:23:10-04:00*%
%TF.ProjectId,TurbineMCU,54757262-696e-4654-9d43-552e6b696361,rev?*%
%TF.SameCoordinates,Original*%
%TF.FileFunction,Copper,L1,Top*%
%TF.FilePolarity,Positive*%
%FSLAX46Y46*%
G04 Gerber Fmt 4.6, Leading zero omitted, Abs format (unit mm)*
G04 Created by KiCad (PCBNEW 9.0.2) date 2026-04-21 03:23:10*
%MOMM*%
%LPD*%
G01*
G04 APERTURE LIST*
G04 Aperture macros list*
%AMRoundRect*
0 Rectangle with rounded corners*
0 $1 Rounding radius*
0 $2 $3 $4 $5 $6 $7 $8 $9 X,Y pos of 4 corners*
0 Add a 4 corners polygon primitive as box body*
4,1,4,$2,$3,$4,$5,$6,$7,$8,$9,$2,$3,0*
0 Add four circle primitives for the rounded corners*
1,1,$1+$1,$2,$3*
1,1,$1+$1,$4,$5*
1,1,$1+$1,$6,$7*
1,1,$1+$1,$8,$9*
0 Add four rect primitives between the rounded corners*
20,1,$1+$1,$2,$3,$4,$5,0*
20,1,$1+$1,$4,$5,$6,$7,0*
20,1,$1+$1,$6,$7,$8,$9,0*
20,1,$1+$1,$8,$9,$2,$3,0*%
G04 Aperture macros list end*
%TA.AperFunction,SMDPad,CuDef*%
%ADD10RoundRect,0.250000X0.412500X0.650000X-0.412500X0.650000X-0.412500X-0.650000X0.412500X-0.650000X0*%
%TD*%
%TA.AperFunction,ComponentPad*%
%ADD11R,1.700000X1.700000*%
%TD*%
%TA.AperFunction,ComponentPad*%
%ADD12C,1.700000*%
%TD*%
%TA.AperFunction,SMDPad,CuDef*%
%ADD13R,1.475000X0.300000*%
%TD*%
%TA.AperFunction,SMDPad,CuDef*%
%ADD14R,0.300000X1.475000*%
%TD*%
%TA.AperFunction,ComponentPad*%
%ADD15RoundRect,0.250000X-0.750000X-0.750000X0.750000X-0.750000X0.750000X0.750000X-0.750000X0.750000X0*%
%TD*%
%TA.AperFunction,ComponentPad*%
%ADD16C,2.000000*%
%TD*%
%TA.AperFunction,SMDPad,CuDef*%
%ADD17R,0.600000X0.350000*%
%TD*%
%TA.AperFunction,SMDPad,CuDef*%
%ADD18R,1.100000X1.700000*%
%TD*%
%TA.AperFunction,SMDPad,CuDef*%
%ADD19RoundRect,0.250000X-0.412500X-0.650000X0.412500X-0.650000X0.412500X0.650000X-0.412500X0.650000X0*%
%TD*%
%TA.AperFunction,SMDPad,CuDef*%
%ADD20RoundRect,0.250000X0.350000X0.450000X-0.350000X0.450000X-0.350000X-0.450000X0.350000X-0.450000X0*%
%TD*%
%TA.AperFunction,ComponentPad*%
%ADD21RoundRect,0.250000X-0.750000X0.750000X-0.750000X-0.750000X0.750000X-0.750000X0.750000X0.750000X0*%
%TD*%
%TA.AperFunction,SMDPad,CuDef*%
%ADD22RoundRect,0.250000X-0.400000X-0.625000X0.400000X-0.625000X0.400000X0.625000X-0.400000X0.625000X0*%
%TD*%
%TA.AperFunction,SMDPad,CuDef*%
%ADD23RoundRect,0.250000X-0.350000X-0.450000X0.350000X-0.450000X0.350000X0.450000X-0.350000X0.450000X0*%
%TD*%
%TA.AperFunction,ComponentPad*%
%ADD24RoundRect,0.250000X0.750000X-0.750000X0.750000X0.750000X-0.750000X0.750000X-0.750000X-0.750000X0*%
%TD*%
%TA.AperFunction,SMDPad,CuDef*%
%ADD25RoundRect,0.250000X-0.337500X-0.475000X0.337500X-0.475000X0.337500X0.475000X-0.337500X0.475000X0*%
%TD*%
%TA.AperFunction,SMDPad,CuDef*%
%ADD26RoundRect,0.237500X-0.287500X-0.237500X0.287500X-0.237500X0.287500X0.237500X-0.287500X0.237500X0*%
%TD*%
%TA.AperFunction,SMDPad,CuDef*%
%ADD27RoundRect,0.250000X0.337500X0.475000X-0.337500X0.475000X-0.337500X-0.475000X0.337500X-0.475000X0*%
%TD*%
%TA.AperFunction,SMDPad,CuDef*%
%ADD28RoundRect,0.250000X0.400000X0.625000X-0.400000X0.625000X-0.400000X-0.625000X0.400000X-0.625000X0*%
%TD*%
%TA.AperFunction,SMDPad,CuDef*%
%ADD29RoundRect,0.250000X-0.475000X0.337500X-0.475000X-0.337500X0.475000X-0.337500X0.475000X0.337500X0*%
%TD*%
%TA.AperFunction,ComponentPad*%
%ADD30C,1.600000*%
%TD*%
%TA.AperFunction,ComponentPad*%
%ADD31RoundRect,0.250000X0.750000X0.750000X-0.750000X0.750000X-0.750000X-0.750000X0.750000X-0.750000X0*%
%TD*%
%TA.AperFunction,SMDPad,CuDef*%
%ADD32RoundRect,0.237500X-0.250000X-0.237500X0.250000X-0.237500X0.250000X0.237500X-0.250000X0.237500X0*%
%TD*%
%TA.AperFunction,SMDPad,CuDef*%
%ADD33RoundRect,0.250000X-0.325000X-0.450000X0.325000X-0.450000X0.325000X0.450000X-0.325000X0.450000X0*%
%TD*%
%TA.AperFunction,ViaPad*%
%ADD34C,0.600000*%
%TD*%
%TA.AperFunction,Conductor*%
%ADD35C,0.600000*%
%TD*%
%TA.AperFunction,Conductor*%
%ADD36C,0.200000*%
%TD*%
%TA.AperFunction,Conductor*%
%ADD37C,0.400000*%
%TD*%
%TA.AperFunction,Conductor*%
%ADD38C,0.127000*%
%TD*%
G04 APERTURE END LIST*
D10*
%TO.P,C1,2*%
%TO.N,GND*%
X171675000Y-82400000D03*
%TO.P,C1,1*%
%TO.N,+3.3V*%
X174800000Y-82400000D03*
%TD*%
D11*
%TO.P,J15,1,Pin_1*%
%TO.N,+3.3V*%
X149840000Y-78100000D03*
D12*
%TO.P,J15,2,Pin_2*%
%TO.N,GND*%
X152380000Y-78100000D03*
%TO.P,J15,3,Pin_3*%
%TO.N,SWDIO*%
X154920000Y-78100000D03*
%TO.P,J15,4,Pin_4*%
%TO.N,SWDCLK*%
X157460000Y-78100000D03*
%TO.P,J15,5,Pin_5*%
%TO.N,UART0_RX_XDS*%
X160000000Y-78100000D03*
%TO.P,J15,6,Pin_6*%
%TO.N,UART0_TX_XDS*%
X162540000Y-78100000D03*
%TO.P,J15,7,Pin_7*%
%TO.N,NRST*%
X165080000Y-78100000D03*
%TO.P,J15,8,Pin_8*%
%TO.N,+5V*%
X167620000Y-78100000D03*
%TD*%
D13*
%TO.P,IC1,1,PB13*%
%TO.N,unconnected-(IC1-PB13-Pad1)*%
X165524000Y-88100000D03*
%TO.P,IC1,2,PB14*%
%TO.N,unconnected-(IC1-PB14-Pad2)*%
X165524000Y-88600000D03*
%TO.P,IC1,3,PB15*%
%TO.N,unconnected-(IC1-PB15-Pad3)*%
X165524000Y-89100000D03*
%TO.P,IC1,4,PB16*%
%TO.N,Critical_Condition*%
X165524000Y-89600000D03*
%TO.P,IC1,5,PA12_/_FCC_IN*%
%TO.N,unconnected-(IC1-PA12_{slash}_FCC_IN-Pad5)*%
X165524000Y-90100000D03*
%TO.P,IC1,6,PA13*%
%TO.N,unconnected-(IC1-PA13-Pad6)*%
X165524000Y-90600000D03*
%TO.P,IC1,7,PA14_/_CLK_OUT_/_A0_12*%
%TO.N,unconnected-(IC1-PA14_{slash}_CLK_OUT_{slash}_A0_12-Pad7)*%
X165524000Y-91100000D03*
%TO.P,IC1,8,PA15_/_A1_0*%
%TO.N,unconnected-(IC1-PA15_{slash}_A1_0-Pad8)*%
X165524000Y-91600000D03*
%TO.P,IC1,9,PA16_/A1_1_/FCC_IN*%
%TO.N,OPA1_OUT*%
X165524000Y-92100000D03*
%TO.P,IC1,10,PA17_/_A1_2*%
%TO.N,UART1_TX*%
X165524000Y-92600000D03*
%TO.P,IC1,11,PA18_/_A1_3*%
%TO.N,unconnected-(IC1-PA18_{slash}_A1_3-Pad11)*%
X165524000Y-93100000D03*
%TO.P,IC1,12,PA19_/_SWDIO*%
%TO.N,SWDIO*%
X165524000Y-93600000D03*
%TO.P,IC1,13,PA20_/_SWCLK*%
%TO.N,SWDCLK*%
X165524000Y-94100000D03*
%TO.P,IC1,14,PB17_/_A1_4*%
%TO.N,PB_17*%
X165524000Y-94600000D03*
%TO.P,IC1,15,PB18_/_A1_5*%
%TO.N,unconnected-(IC1-PB18_{slash}_A1_5-Pad15)*%
X165524000Y-95100000D03*
%TO.P,IC1,16,PB19_/_A1_6*%
%TO.N,Anemometer_TMP*%
X165524000Y-95600000D03*
D14*
%TO.P,IC1,17,PA21_/_A1_7_/_VREF-*%
%TO.N,Net-(IC1-PA21_{slash}_A1_7_{slash}_VREF-)*%
X167512000Y-97588000D03*
%TO.P,IC1,18,PA22_/_CLK_OUT_/_A0_7*%
%TO.N,unconnected-(IC1-PA22_{slash}_CLK_OUT_{slash}_A0_7-Pad18)*%
X168012000Y-97588000D03*
%TO.P,IC1,19,PB20_/_A0_6*%
%TO.N,unconnected-(IC1-PB20_{slash}_A0_6-Pad19)*%
X168512000Y-97588000D03*
%TO.P,IC1,20,PB21*%
%TO.N,Net-(IC1-PB21)*%
X169012000Y-97588000D03*
%TO.P,IC1,21,PB22*%
%TO.N,Net-(IC1-PB22)*%
X169512000Y-97588000D03*
%TO.P,IC1,22,PB23*%
%TO.N,unconnected-(IC1-PB23-Pad22)*%
X170012000Y-97588000D03*
%TO.P,IC1,23,PB24_/_A0_5*%
%TO.N,unconnected-(IC1-PB24_{slash}_A0_5-Pad23)*%
X170512000Y-97588000D03*
%TO.P,IC1,24,PA23_VREF+*%
%TO.N,Net-(IC1-PA23_VREF+)*%
X171012000Y-97588000D03*
%TO.P,IC1,25,PA24_/_A0_3*%
%TO.N,unconnected-(IC1-PA24_{slash}_A0_3-Pad25)*%
X171512000Y-97588000D03*
%TO.P,IC1,26,PA25_/_A0_2*%
%TO.N,Anemometer_RV*%
X172012000Y-97588000D03*
%TO.P,IC1,27,PB25_/_A0_4*%
%TO.N,unconnected-(IC1-PB25_{slash}_A0_4-Pad27)*%
X172512000Y-97588000D03*
%TO.P,IC1,28,PB26*%
%TO.N,unconnected-(IC1-PB26-Pad28)*%
X173012000Y-97588000D03*
%TO.P,IC1,29,PB27*%
%TO.N,unconnected-(IC1-PB27-Pad29)*%
X173512000Y-97588000D03*
%TO.P,IC1,30,PA26_/_A0_1*%
%TO.N,unconnected-(IC1-PA26_{slash}_A0_1-Pad30)*%
X174012000Y-97588000D03*
%TO.P,IC1,31,PA27/_A0_0*%
%TO.N,OPA1_OUT*%
X174512000Y-97588000D03*
%TO.P,IC1,32,VCORE*%
%TO.N,Net-(IC1-VCORE)*%
X175012000Y-97588000D03*
D13*
%TO.P,IC1,33,PA0_/_FCC_IN*%
%TO.N,PA_0*%
X177000000Y-95600000D03*
%TO.P,IC1,34,PA1*%
%TO.N,PA_1*%
X177000000Y-95100000D03*
%TO.P,IC1,35,PA28*%
%TO.N,PA_28*%
X177000000Y-94600000D03*
%TO.P,IC1,36,PA29*%
%TO.N,PA_29*%
X177000000Y-94100000D03*
%TO.P,IC1,37,PA30*%
%TO.N,PA_30*%
X177000000Y-93600000D03*
%TO.P,IC1,38,NRST*%
%TO.N,NRST*%
X177000000Y-93100000D03*
%TO.P,IC1,39,PA31_/_CLK_OUT*%
%TO.N,unconnected-(IC1-PA31_{slash}_CLK_OUT-Pad39)*%
X177000000Y-92600000D03*
%TO.P,IC1,40,VDD*%
%TO.N,+3.3V*%
X177000000Y-92100000D03*
%TO.P,IC1,41,VSS*%
%TO.N,GND*%
X177000000Y-91600000D03*
%TO.P,IC1,42,PA2_/_ROSC*%
%TO.N,Net-(IC1-PA2_{slash}_ROSC)*%
X177000000Y-91100000D03*
%TO.P,IC1,43,PA3_/_LFXIN*%
%TO.N,unconnected-(IC1-PA3_{slash}_LFXIN-Pad43)*%
X177000000Y-90600000D03*
%TO.P,IC1,44,PA4_/_LFCLK_IN_/_LFXOUT*%
%TO.N,unconnected-(IC1-PA4_{slash}_LFCLK_IN_{slash}_LFXOUT-Pad44)*%
X177000000Y-90100000D03*
%TO.P,IC1,45,PA5_/_HFXIN_/_FCC_IN*%
%TO.N,PA_5*%
X177000000Y-89600000D03*
%TO.P,IC1,46,PA6_/_HFCLK_IN_/_HFXOUT*%
%TO.N,PA_6*%
X177000000Y-89100000D03*
%TO.P,IC1,47,PB0*%
%TO.N,unconnected-(IC1-PB0-Pad47)*%
X177000000Y-88600000D03*
%TO.P,IC1,48,PB1*%
%TO.N,Right_Servo_PWM*%
X177000000Y-88100000D03*
D14*
%TO.P,IC1,49,PA7_/_CLK_OUT*%
%TO.N,unconnected-(IC1-PA7_{slash}_CLK_OUT-Pad49)*%
X175012000Y-86112000D03*
%TO.P,IC1,50,PB2*%
%TO.N,Hall_Effect_Out*%
X174512000Y-86112000D03*
%TO.P,IC1,51,PB3*%
%TO.N,unconnected-(IC1-PB3-Pad51)*%
X174012000Y-86112000D03*
%TO.P,IC1,52,PB4*%
%TO.N,Left_Servo_PWM*%
X173512000Y-86112000D03*
%TO.P,IC1,53,PB5*%
%TO.N,unconnected-(IC1-PB5-Pad53)*%
X173012000Y-86112000D03*
%TO.P,IC1,54,PA8*%
%TO.N,unconnected-(IC1-PA8-Pad54)*%
X172512000Y-86112000D03*
%TO.P,IC1,55,PA9_/_RTC_OUT_/_CLK_OUT*%
%TO.N,UART1_RX*%
X172012000Y-86112000D03*
%TO.P,IC1,56,PA10_/_CLK_OUT*%
%TO.N,UART0_TX_XDS*%
X171512000Y-86112000D03*
%TO.P,IC1,57,PA11*%
%TO.N,UART0_RX_XDS*%
X171012000Y-86112000D03*
%TO.P,IC1,58,PB6*%
%TO.N,unconnected-(IC1-PB6-Pad58)*%
X170512000Y-86112000D03*
%TO.P,IC1,59,PB7*%
%TO.N,unconnected-(IC1-PB7-Pad59)*%
X170012000Y-86112000D03*
%TO.P,IC1,60,PB8*%
%TO.N,unconnected-(IC1-PB8-Pad60)*%
X169512000Y-86112000D03*
%TO.P,IC1,61,PB9*%
%TO.N,unconnected-(IC1-PB9-Pad61)*%
X169012000Y-86112000D03*
%TO.P,IC1,62,PB10*%
%TO.N,unconnected-(IC1-PB10-Pad62)*%
X168512000Y-86112000D03*
%TO.P,IC1,63,PB11_/_CLK_OUT*%
%TO.N,unconnected-(IC1-PB11_{slash}_CLK_OUT-Pad63)*%
X168012000Y-86112000D03*
%TO.P,IC1,64,PB12*%
%TO.N,unconnected-(IC1-PB12-Pad64)*%
X167512000Y-86112000D03*
%TD*%
D15*
%TO.P,J10,1,Pin_1*%
%TO.N,Critical_Condition*%
X176700000Y-115900000D03*
D16*
%TO.P,J10,2,Pin_2*%
%TO.N,PA_1*%
X179240000Y-115900000D03*
%TO.P,J10,3,Pin_3*%
%TO.N,PA_0*%
X181780000Y-115900000D03*
%TD*%
D17*
%TO.P,IC2,1,OUT*%
%TO.N,+3.3V*%
X179000000Y-81400000D03*
%TO.P,IC2,2,NR*%
%TO.N,Net-(IC2-NR)*%
X179000000Y-82050000D03*
%TO.P,IC2,3,GND*%
%TO.N,GND*%
X179000000Y-82700000D03*
%TO.P,IC2,4,EN*%
%TO.N,+5V*%
X181100000Y-82700000D03*
%TO.P,IC2,5,NC*%
%TO.N,unconnected-(IC2-NC-Pad5)*%
X181100000Y-82050000D03*
%TO.P,IC2,6,IN*%
%TO.N,+5V*%
X181100000Y-81400000D03*
D18*
%TO.P,IC2,7,EP*%
%TO.N,GND*%
X180050000Y-82050000D03*
%TD*%
D19*
%TO.P,C3,1*%
%TO.N,Net-(IC2-NR)*%
X183175000Y-85500000D03*
%TO.P,C3,2*%
%TO.N,GND*%
X186300000Y-85500000D03*
%TD*%
D20*
%TO.P,R3,1*%
%TO.N,+3.3V*%
X173100000Y-107700000D03*
%TO.P,R3,2*%
%TO.N,Net-(IC1-PB22)*%
X171100000Y-107700000D03*
%TD*%
D21*
%TO.P,J6,1,Pin_1*%
%TO.N,GND*%
X149800000Y-85420000D03*
D16*
%TO.P,J6,2,Pin_2*%
%TO.N,Left_Servo_PWM*%
X149800000Y-87960000D03*
%TO.P,J6,3,Pin_3*%
%TO.N,+5V*%
X149800000Y-90500000D03*
%TD*%
D22*
%TO.P,R1,1*%
%TO.N,Net-(J4-Pin_2)*%
X158300000Y-95000000D03*
%TO.P,R1,2*%
%TO.N,Anemometer_TMP*%
X161400000Y-95000000D03*
%TD*%
D20*
%TO.P,R2,1*%
%TO.N,+3.3V*%
X181600000Y-93300000D03*
%TO.P,R2,2*%
%TO.N,NRST*%
X179600000Y-93300000D03*
%TD*%
D23*
%TO.P,R8,1*%
%TO.N,PA_0*%
X179400000Y-98900000D03*
%TO.P,R8,2*%
%TO.N,+3.3V*%
X181400000Y-98900000D03*
%TD*%
D15*
%TO.P,J8,1,Pin_1*%
%TO.N,Hall_Effect_Out*%
X165255000Y-115617500D03*
D16*
%TO.P,J8,2,Pin_2*%
%TO.N,+5V*%
X167795000Y-115617500D03*
%TO.P,J8,3,Pin_3*%
%TO.N,GND*%
X170335000Y-115617500D03*
%TD*%
D24*
%TO.P,J13,1,Pin_1*%
%TO.N,PA_28*%
X194700000Y-100380000D03*
D16*
%TO.P,J13,2,Pin_2*%
%TO.N,PA_29*%
X194700000Y-97840000D03*
%TO.P,J13,3,Pin_3*%
%TO.N,PA_30*%
X194700000Y-95300000D03*
%TD*%
D25*
%TO.P,C9,1*%
%TO.N,Anemometer_RV*%
X183700000Y-106900000D03*
%TO.P,C9,2*%
%TO.N,GND*%
X185775000Y-106900000D03*
%TD*%
D26*
%TO.P,D2,1,K*%
%TO.N,GND*%
X158225000Y-107400000D03*
%TO.P,D2,2,A*%
%TO.N,Net-(D2-A)*%
X159975000Y-107400000D03*
%TD*%
D10*
%TO.P,C10,1*%
%TO.N,Net-(IC1-PA23_VREF+)*%
X166000000Y-107600000D03*
%TO.P,C10,2*%
%TO.N,Net-(IC1-PA21_{slash}_A1_7_{slash}_VREF-)*%
X162875000Y-107600000D03*
%TD*%
D27*
%TO.P,C8,1*%
%TO.N,Anemometer_TMP*%
X160100000Y-99100000D03*
%TO.P,C8,2*%
%TO.N,GND*%
X158025000Y-99100000D03*
%TD*%
D28*
%TO.P,R6,1*%
%TO.N,Net-(IC1-PB21)*%
X160400000Y-103200000D03*
%TO.P,R6,2*%
%TO.N,Net-(D2-A)*%
X157300000Y-103200000D03*
%TD*%
%TO.P,R4,1*%
%TO.N,Net-(D1-A)*%
X174100000Y-78500000D03*
%TO.P,R4,2*%
%TO.N,+3.3V*%
X171000000Y-78500000D03*
%TD*%
D16*
%TO.P,SW1,1,1*%
%TO.N,NRST*%
X192250000Y-118250000D03*
X185750000Y-118250000D03*
%TO.P,SW1,2,2*%
%TO.N,GND*%
X192250000Y-113750000D03*
X185750000Y-113750000D03*
%TD*%
D29*
%TO.P,C2,1*%
%TO.N,+5V*%
X185600000Y-80300000D03*
%TO.P,C2,2*%
%TO.N,GND*%
X185600000Y-82375000D03*
%TD*%
D30*
%TO.P,R7,1*%
%TO.N,Net-(IC1-PA21_{slash}_A1_7_{slash}_VREF-)*%
X163190000Y-103000000D03*
%TO.P,R7,2*%
%TO.N,GND*%
X170810000Y-103000000D03*
%TD*%
D22*
%TO.P,R12,1*%
%TO.N,Anemometer_RV*%
X177800000Y-106900000D03*
%TO.P,R12,2*%
%TO.N,GND*%
X180900000Y-106900000D03*
%TD*%
D24*
%TO.P,J5,1,Pin_1*%
%TO.N,GND*%
X194600000Y-90940000D03*
D16*
%TO.P,J5,2,Pin_2*%
%TO.N,Right_Servo_PWM*%
X194600000Y-88400000D03*
%TO.P,J5,3,Pin_3*%
%TO.N,+5V*%
X194600000Y-85860000D03*
%TD*%
D31*
%TO.P,J2,1,Pin_1*%
%TO.N,UART1_TX*%
X158600000Y-69800000D03*
D16*
%TO.P,J2,2,Pin_2*%
%TO.N,UART1_RX*%
X156060000Y-69800000D03*
%TD*%
D25*
%TO.P,C5,1*%
%TO.N,GND*%
X184125000Y-89800000D03*
%TO.P,C5,2*%
%TO.N,+3.3V*%
X186200000Y-89800000D03*
%TD*%
D31*
%TO.P,J14,1,Pin_1*%
%TO.N,PA_6*%
X169080000Y-69800000D03*
D16*
%TO.P,J14,2,Pin_2*%
%TO.N,PA_5*%
X166540000Y-69800000D03*
%TO.P,J14,3,Pin_3*%
%TO.N,PB_17*%
X164000000Y-69800000D03*
%TD*%
D32*
%TO.P,R5,1*%
%TO.N,Net-(IC1-PA2_{slash}_ROSC)*%
X179475000Y-89800000D03*
%TO.P,R5,2*%
%TO.N,GND*%
X181300000Y-89800000D03*
%TD*%
D19*
%TO.P,C4,1*%
%TO.N,GND*%
X183675000Y-94300000D03*
%TO.P,C4,2*%
%TO.N,+3.3V*%
X186800000Y-94300000D03*
%TD*%
D21*
%TO.P,J4,1,Pin_1*%
%TO.N,Net-(J4-Pin_1)*%
X149800000Y-95100000D03*
D16*
%TO.P,J4,2,Pin_2*%
%TO.N,Net-(J4-Pin_2)*%
X149800000Y-97640000D03*
%TD*%
D19*
%TO.P,C6,1*%
%TO.N,NRST*%
X184675000Y-102600000D03*
%TO.P,C6,2*%
%TO.N,GND*%
X187800000Y-102600000D03*
%TD*%
D23*
%TO.P,R9,1*%
%TO.N,PA_1*%
X184700000Y-98900000D03*
%TO.P,R9,2*%
%TO.N,+3.3V*%
X186700000Y-98900000D03*
%TD*%
D33*
%TO.P,D1,1,K*%
%TO.N,GND*%
X177100000Y-77700000D03*
%TO.P,D1,2,A*%
%TO.N,Net-(D1-A)*%
X179150000Y-77700000D03*
%TD*%
D21*
%TO.P,J3,1,Pin_1*%
%TO.N,GND*%
X149800000Y-102300000D03*
D16*
%TO.P,J3,2,Pin_2*%
%TO.N,+5V*%
X149800000Y-104840000D03*
%TD*%
D22*
%TO.P,R10,1*%
%TO.N,Net-(J4-Pin_1)*%
X158800000Y-86300000D03*
%TO.P,R10,2*%
%TO.N,Anemometer_RV*%
X161900000Y-86300000D03*
%TD*%
D25*
%TO.P,C7,1*%
%TO.N,Net-(IC1-VCORE)*%
X173525000Y-103000000D03*
%TO.P,C7,2*%
%TO.N,GND*%
X175600000Y-103000000D03*
%TD*%
D22*
%TO.P,R11,1*%
%TO.N,Anemometer_TMP*%
X158300000Y-90700000D03*
%TO.P,R11,2*%
%TO.N,GND*%
X161400000Y-90700000D03*
%TD*%
D16*
%TO.P,SW2,1,1*%
%TO.N,GND*%
X152100000Y-113800000D03*
X158600000Y-113800000D03*
%TO.P,SW2,2,2*%
%TO.N,Net-(IC1-PB22)*%
X152100000Y-118300000D03*
X158600000Y-118300000D03*
%TD*%
D31*
%TO.P,J1,1,Pin_1*%
%TO.N,GND*%
X176900000Y-69800000D03*
D16*
%TO.P,J1,2,Pin_2*%
%TO.N,+5V*%
X174360000Y-69800000D03*
%TD*%
D34*
%TO.N,PA_5*%
X166900000Y-71955000D03*
%TO.N,+3.3V*%
X188500000Y-94300000D03*
X188500000Y-98900000D03*
%TO.N,GND*%
X188900000Y-92400000D03*
X183675000Y-94300000D03*
X187200000Y-107000000D03*
%TO.N,NRST*%
X182900000Y-101100000D03*
X179600000Y-93300000D03*
X175300000Y-93100000D03*
X184700000Y-104200000D03*
%TO.N,Anemometer_RV*%
X174300000Y-112800000D03*
X175500000Y-106900000D03*
%TO.N,PB_17*%
X163000000Y-94400000D03*
X164000000Y-72200000D03*
%TO.N,UART1_TX*%
X158600000Y-72200000D03*
X157700000Y-88000000D03*
%TO.N,SWDIO*%
X161000000Y-92500000D03*
%TO.N,SWDCLK*%
X162000000Y-92900000D03*
%TO.N,UART1_RX*%
X163800000Y-74600000D03*
X168500000Y-83727000D03*
%TO.N,Hall_Effect_Out*%
X165200000Y-113200000D03*
X170600000Y-90400000D03*
%TO.N,UART0_TX_XDS*%
X167600000Y-84200000D03*
%TO.N,UART0_RX_XDS*%
X166400000Y-84300000D03*
%TO.N,PA_0*%
X177000000Y-113600000D03*
X177500000Y-99100000D03*
%TO.N,PA_1*%
X179300000Y-101400000D03*
%TO.N,PA_5*%
X174100000Y-90900000D03*
%TO.N,PA_6*%
X174300000Y-89800000D03*
X169200000Y-72000000D03*
%TO.N,Right_Servo_PWM*%
X189900000Y-80900000D03*
%TO.N,Critical_Condition*%
X173200000Y-114200000D03*
X171200000Y-95000000D03*
%TD*%
D35*
%TO.N,+3.3V*%
X186500000Y-103900000D02*
X187200000Y-104600000D01*
X167223497Y-76100000D02*
X151840000Y-76100000D01*
X151840000Y-76100000D02*
X149840000Y-78100000D01*
X187200000Y-104600000D02*
X195600000Y-104600000D01*
X197600000Y-102600000D02*
X197600000Y-73500000D01*
X174000000Y-67000000D02*
X172100000Y-68900000D01*
X197600000Y-73500000D02*
X191100000Y-67000000D01*
X191100000Y-67000000D02*
X174000000Y-67000000D01*
X186500000Y-99700000D02*
X186500000Y-103900000D01*
X172100000Y-68900000D02*
X172100000Y-71223497D01*
X172100000Y-71223497D02*
X167223497Y-76100000D01*
X195600000Y-104600000D02*
X197600000Y-102600000D01*
D36*
%TO.N,Anemometer_RV*%
X174300000Y-112800000D02*
X172272000Y-110772000D01*
X172300000Y-107017078D02*
X172300000Y-106500000D01*
X172272000Y-110772000D02*
X172272000Y-107045078D01*
X172272000Y-107045078D02*
X172300000Y-107017078D01*
X172300000Y-106500000D02*
X169300000Y-103500000D01*
X172012000Y-98431500D02*
X172012000Y-97588000D01*
X169300000Y-103500000D02*
X169300000Y-101143500D01*
X169300000Y-101143500D02*
X172012000Y-98431500D01*
%TO.N,Net-(IC1-PA23_VREF+)*%
X171654922Y-108628000D02*
X171928000Y-108354922D01*
X167028000Y-108628000D02*
X171654922Y-108628000D01*
X171928000Y-108354922D02*
X171928000Y-106928000D01*
X171928000Y-106928000D02*
X168500000Y-103500000D01*
X166000000Y-107600000D02*
X167028000Y-108628000D01*
X168500000Y-103500000D02*
X168500000Y-100943500D01*
X168500000Y-100943500D02*
X171012000Y-98431500D01*
X171012000Y-98431500D02*
X171012000Y-97588000D01*
%TO.N,Hall_Effect_Out*%
X170600000Y-90400000D02*
X171000000Y-90400000D01*
X171000000Y-90400000D02*
X174512000Y-86888000D01*
X174512000Y-86888000D02*
X174512000Y-86112000D01*
%TO.N,PA_6*%
X174300000Y-89800000D02*
X175100000Y-89000000D01*
X175100000Y-89000000D02*
X176900000Y-89000000D01*
X176900000Y-89000000D02*
X177000000Y-89100000D01*
%TO.N,PA_5*%
X174100000Y-90900000D02*
X175400000Y-89600000D01*
X175400000Y-89600000D02*
X177000000Y-89600000D01*
D35*
%TO.N,+3.3V*%
X171000000Y-78500000D02*
X171000000Y-78600000D01*
X171000000Y-78600000D02*
X174800000Y-82400000D01*
X179000000Y-81400000D02*
X177800000Y-81400000D01*
X177800000Y-81400000D02*
X176800000Y-82400000D01*
X174800000Y-82400000D02*
X176800000Y-82400000D01*
D36*
%TO.N,Left_Servo_PWM*%
X149800000Y-87960000D02*
X151640000Y-87960000D01*
X151640000Y-87960000D02*
X156400000Y-83200000D01*
X169612000Y-83812000D02*
X172012000Y-83812000D01*
X169000000Y-83200000D02*
X169612000Y-83812000D01*
X156400000Y-83200000D02*
X169000000Y-83200000D01*
X172012000Y-83812000D02*
X173512000Y-85312000D01*
X173512000Y-85312000D02*
X173512000Y-86112000D01*
%TO.N,+3.3V*%
X177000000Y-92100000D02*
X180400000Y-92100000D01*
D35*
X185700000Y-95800000D02*
X186800000Y-94700000D01*
X186800000Y-94700000D02*
X186800000Y-94300000D01*
X191100000Y-80400000D02*
X190600000Y-79900000D01*
X181600000Y-94900000D02*
X182500000Y-95800000D01*
X189400000Y-79900000D02*
X188600000Y-80700000D01*
X181428000Y-101701548D02*
X181428000Y-98828000D01*
X173100000Y-107700000D02*
X177600000Y-103200000D01*
X191100000Y-87100000D02*
X191100000Y-80400000D01*
D36*
X180400000Y-92100000D02*
X181600000Y-93300000D01*
D35*
X186800000Y-94300000D02*
X186800000Y-90400000D01*
X182800000Y-100300000D02*
X185300000Y-100300000D01*
X190600000Y-79900000D02*
X189400000Y-79900000D01*
X186700000Y-98900000D02*
X188500000Y-98900000D01*
X186200000Y-89800000D02*
X188400000Y-89800000D01*
X181428000Y-98828000D02*
X181400000Y-98800000D01*
X186800000Y-90400000D02*
X186200000Y-89800000D01*
X188500000Y-94300000D02*
X186800000Y-94300000D01*
X182500000Y-95800000D02*
X185700000Y-95800000D01*
X179929548Y-103200000D02*
X181428000Y-101701548D01*
X187300000Y-87000000D02*
X181400000Y-87000000D01*
X177600000Y-103200000D02*
X179929548Y-103200000D01*
X185300000Y-100300000D02*
X186700000Y-98900000D01*
X181400000Y-87000000D02*
X176800000Y-82400000D01*
X188600000Y-80700000D02*
X188600000Y-85700000D01*
X181400000Y-98900000D02*
X182800000Y-100300000D01*
X188400000Y-89800000D02*
X191100000Y-87100000D01*
X181600000Y-93300000D02*
X181600000Y-94900000D01*
X188600000Y-85700000D02*
X187300000Y-87000000D01*
D37*
%TO.N,GND*%
X172710000Y-104900000D02*
X170810000Y-103000000D01*
D35*
X190480000Y-90820000D02*
X188900000Y-92400000D01*
X185600000Y-82375000D02*
X185600000Y-84800000D01*
X185600000Y-84800000D02*
X186300000Y-85500000D01*
X196400000Y-92740000D02*
X196400000Y-101600000D01*
X196400000Y-101600000D02*
X195144000Y-102856000D01*
X161845500Y-117045500D02*
X158600000Y-113800000D01*
X192022000Y-79622000D02*
X192022000Y-88362000D01*
X195144000Y-102856000D02*
X188056000Y-102856000D01*
X185600000Y-82375000D02*
X189075000Y-78900000D01*
X185750000Y-113750000D02*
X192250000Y-113750000D01*
X183675000Y-94300000D02*
X183675000Y-90250000D01*
X186300000Y-85500000D02*
X186100000Y-85500000D01*
X187100000Y-106900000D02*
X185775000Y-106900000D01*
X179000000Y-82700000D02*
X179900000Y-82700000D01*
D36*
X177000000Y-91600000D02*
X179500000Y-91600000D01*
D35*
X170335000Y-115617500D02*
X168907000Y-117045500D01*
X189075000Y-78900000D02*
X191300000Y-78900000D01*
X185600000Y-82375000D02*
X185425000Y-82375000D01*
X194480000Y-90820000D02*
X190480000Y-90820000D01*
D37*
X175600000Y-103000000D02*
X175600000Y-103500000D01*
D35*
X179900000Y-82700000D02*
X180050000Y-82550000D01*
D36*
X179500000Y-91600000D02*
X181300000Y-89800000D01*
D35*
X192022000Y-88362000D02*
X194600000Y-90940000D01*
X188056000Y-102856000D02*
X187800000Y-102600000D01*
D37*
X174200000Y-104900000D02*
X172710000Y-104900000D01*
X175600000Y-103500000D02*
X174200000Y-104900000D01*
D35*
X191300000Y-78900000D02*
X192022000Y-79622000D01*
X184125000Y-89800000D02*
X181300000Y-89800000D01*
X183425000Y-94300000D02*
X183725000Y-94000000D01*
X168907000Y-117045500D02*
X161845500Y-117045500D01*
X187200000Y-107000000D02*
X187100000Y-106900000D01*
X180050000Y-82550000D02*
X180050000Y-82050000D01*
X194600000Y-90940000D02*
X196400000Y-92740000D01*
X183675000Y-90250000D02*
X184125000Y-89800000D01*
X194600000Y-90940000D02*
X194480000Y-90820000D01*
%TO.N,+5V*%
X167795000Y-115617500D02*
X167795000Y-114548264D01*
X188700000Y-77200000D02*
X185600000Y-80300000D01*
X167795000Y-114548264D02*
X162846736Y-109600000D01*
X150554236Y-82200000D02*
X163520000Y-82200000D01*
X163520000Y-82200000D02*
X167620000Y-78100000D01*
X179500000Y-68000000D02*
X188700000Y-77200000D01*
X154560000Y-109600000D02*
X149800000Y-104840000D01*
X148200000Y-92100000D02*
X149800000Y-90500000D01*
X148200000Y-103240000D02*
X148200000Y-92100000D01*
X174360000Y-71360000D02*
X167620000Y-78100000D01*
X184500000Y-81400000D02*
X184750000Y-81150000D01*
X194600000Y-78400000D02*
X193400000Y-77200000D01*
X174400000Y-69800000D02*
X174360000Y-69800000D01*
X194600000Y-85860000D02*
X194600000Y-78400000D01*
X176160000Y-68000000D02*
X179500000Y-68000000D01*
X147400000Y-85354236D02*
X150554236Y-82200000D01*
X162846736Y-109600000D02*
X154560000Y-109600000D01*
X174360000Y-69800000D02*
X176160000Y-68000000D01*
X193400000Y-77200000D02*
X188700000Y-77200000D01*
X183200000Y-82700000D02*
X184750000Y-81150000D01*
X184750000Y-81150000D02*
X185600000Y-80300000D01*
X149800000Y-104840000D02*
X148200000Y-103240000D01*
X174360000Y-69800000D02*
X174360000Y-71360000D01*
X147400000Y-88100000D02*
X147400000Y-85354236D01*
X181100000Y-81400000D02*
X184500000Y-81400000D01*
X149800000Y-90500000D02*
X147400000Y-88100000D01*
X181100000Y-82700000D02*
X183200000Y-82700000D01*
D36*
%TO.N,Net-(IC2-NR)*%
X181000000Y-85500000D02*
X178300000Y-82800000D01*
X178300000Y-82250000D02*
X178500000Y-82050000D01*
X178300000Y-82800000D02*
X178300000Y-82250000D01*
X183175000Y-85500000D02*
X181000000Y-85500000D01*
X178500000Y-82050000D02*
X179000000Y-82050000D01*
%TO.N,NRST*%
X184675000Y-102275000D02*
X184675000Y-102600000D01*
X184775000Y-104125000D02*
X184775000Y-102700000D01*
X183500000Y-101100000D02*
X184675000Y-102275000D01*
X179600000Y-93300000D02*
X179400000Y-93100000D01*
X179400000Y-93100000D02*
X177000000Y-93100000D01*
X182900000Y-101100000D02*
X183500000Y-101100000D01*
X184775000Y-102700000D02*
X184675000Y-102600000D01*
X185750000Y-118250000D02*
X192250000Y-118250000D01*
X175300000Y-93100000D02*
X177000000Y-93100000D01*
X184700000Y-104200000D02*
X184775000Y-104125000D01*
%TO.N,Net-(IC1-VCORE)*%
X173525000Y-103000000D02*
X173525000Y-100000000D01*
X175012000Y-98525500D02*
X174999500Y-98525500D01*
X175012000Y-97588000D02*
X175012000Y-98525500D01*
X174999500Y-98525500D02*
X173525000Y-100000000D01*
%TO.N,Anemometer_TMP*%
X161400000Y-93800000D02*
X158300000Y-90700000D01*
X165524000Y-95600000D02*
X163600000Y-95600000D01*
X161400000Y-95000000D02*
X161400000Y-93800000D01*
X161400000Y-95000000D02*
X161400000Y-97800000D01*
X157900000Y-90100000D02*
X158100000Y-90300000D01*
X161400000Y-97800000D02*
X160100000Y-99100000D01*
X161724000Y-94400000D02*
X161624000Y-94300000D01*
X163600000Y-95600000D02*
X160100000Y-99100000D01*
%TO.N,Anemometer_RV*%
X182200000Y-105400000D02*
X179300000Y-105400000D01*
X161500000Y-86300000D02*
X165067500Y-86300000D01*
X183700000Y-106900000D02*
X182200000Y-105400000D01*
X165067500Y-86300000D02*
X172012000Y-93244500D01*
X179300000Y-105400000D02*
X177800000Y-106900000D01*
X177800000Y-106900000D02*
X175500000Y-106900000D01*
X172012000Y-93244500D02*
X172012000Y-97588000D01*
%TO.N,Net-(IC1-PA23_VREF+)*%
X166000000Y-107600000D02*
X165472000Y-107072000D01*
%TO.N,Net-(IC1-PA21_{slash}_A1_7_{slash}_VREF-)*%
X167512000Y-97588000D02*
X167512000Y-98678000D01*
X159871849Y-101900000D02*
X162090000Y-101900000D01*
X159300000Y-102471849D02*
X159871849Y-101900000D01*
X162875000Y-107600000D02*
X159300000Y-104025000D01*
X162090000Y-101900000D02*
X163190000Y-103000000D01*
X167512000Y-98678000D02*
X163190000Y-103000000D01*
D38*
X163612000Y-102578000D02*
X163190000Y-103000000D01*
D36*
X159300000Y-104025000D02*
X159300000Y-102471849D01*
%TO.N,Net-(D1-A)*%
X179150000Y-77700000D02*
X178222000Y-78628000D01*
X178222000Y-78628000D02*
X174228000Y-78628000D01*
X174228000Y-78628000D02*
X174100000Y-78500000D01*
%TO.N,Net-(D2-A)*%
X159975000Y-105875000D02*
X157300000Y-103200000D01*
X159975000Y-107400000D02*
X159975000Y-105875000D01*
%TO.N,PB_17*%
X164000000Y-69800000D02*
X164000000Y-72200000D01*
X163200000Y-94600000D02*
X165524000Y-94600000D01*
X163000000Y-94400000D02*
X163200000Y-94600000D01*
%TO.N,OPA1_OUT*%
X160900000Y-85400000D02*
X160900000Y-87007922D01*
X160900000Y-87007922D02*
X164092078Y-90200000D01*
X164092078Y-91511578D02*
X164680500Y-92100000D01*
X164300000Y-84900000D02*
X161400000Y-84900000D01*
X174512000Y-97588000D02*
X174512000Y-95112000D01*
X174512000Y-95112000D02*
X164300000Y-84900000D01*
X161400000Y-84900000D02*
X160900000Y-85400000D01*
X164680500Y-92100000D02*
X165524000Y-92100000D01*
X164092078Y-90200000D02*
X164092078Y-91511578D01*
%TO.N,UART1_TX*%
X158600000Y-69800000D02*
X158600000Y-72200000D01*
X157700000Y-88000000D02*
X161100000Y-88000000D01*
X163500000Y-91600000D02*
X164500000Y-92600000D01*
X161100000Y-88000000D02*
X163500000Y-90400000D01*
X163500000Y-90400000D02*
X163500000Y-91600000D01*
X164500000Y-92600000D02*
X165524000Y-92600000D01*
%TO.N,SWDIO*%
X161000000Y-92500000D02*
X161128000Y-92372000D01*
X163452500Y-92372000D02*
X164680500Y-93600000D01*
X161128000Y-92372000D02*
X163452500Y-92372000D01*
X164680500Y-93600000D02*
X165524000Y-93600000D01*
%TO.N,SWDCLK*%
X164400000Y-94100000D02*
X165524000Y-94100000D01*
X162000000Y-92900000D02*
X163200000Y-92900000D01*
X163200000Y-92900000D02*
X164400000Y-94100000D01*
%TO.N,UART1_RX*%
X168500000Y-83727000D02*
X169073000Y-84300000D01*
X159445787Y-74600000D02*
X156060000Y-71214213D01*
X163800000Y-74600000D02*
X159445787Y-74600000D01*
X156060000Y-71214213D02*
X156060000Y-69800000D01*
X169073000Y-84300000D02*
X171600000Y-84300000D01*
X172012000Y-84712000D02*
X172012000Y-86112000D01*
X171600000Y-84300000D02*
X172012000Y-84712000D01*
%TO.N,Net-(J4-Pin_1)*%
X149800000Y-95100000D02*
X158400000Y-86500000D01*
X158400000Y-86500000D02*
X158400000Y-86300000D01*
%TO.N,Net-(J4-Pin_2)*%
X152420000Y-95020000D02*
X149800000Y-97640000D01*
X158300000Y-95000000D02*
X152440000Y-95000000D01*
X152440000Y-95000000D02*
X152420000Y-95020000D01*
%TO.N,Hall_Effect_Out*%
X165255000Y-113255000D02*
X165200000Y-113200000D01*
X165255000Y-115617500D02*
X165255000Y-113255000D01*
%TO.N,UART0_TX_XDS*%
X168100000Y-84700000D02*
X171200000Y-84700000D01*
X167600000Y-84200000D02*
X168100000Y-84700000D01*
X171512000Y-85012000D02*
X171512000Y-86112000D01*
X171200000Y-84700000D02*
X171512000Y-85012000D01*
%TO.N,UART0_RX_XDS*%
X166400000Y-86271750D02*
X168028250Y-87900000D01*
X168028250Y-87900000D02*
X170500000Y-87900000D01*
X166400000Y-84300000D02*
X166400000Y-86271750D01*
X171012000Y-87388000D02*
X171012000Y-86112000D01*
X170500000Y-87900000D02*
X171012000Y-87388000D01*
%TO.N,PA_0*%
X177000000Y-96500000D02*
X179400000Y-98900000D01*
X177500000Y-99100000D02*
X179200000Y-99100000D01*
X179200000Y-99100000D02*
X179400000Y-98900000D01*
X177000000Y-95600000D02*
X177000000Y-96500000D01*
X179480000Y-113600000D02*
X177000000Y-113600000D01*
X181780000Y-115900000D02*
X179480000Y-113600000D01*
%TO.N,PA_1*%
X179300000Y-97100000D02*
X179300000Y-96628250D01*
X179300000Y-96628250D02*
X177771750Y-95100000D01*
X180500000Y-98300000D02*
X180100000Y-97900000D01*
X179300000Y-101400000D02*
X180300000Y-101400000D01*
X184700000Y-98900000D02*
X183700000Y-97900000D01*
X177771750Y-95100000D02*
X177000000Y-95100000D01*
X180300000Y-101400000D02*
X180500000Y-101200000D01*
X183700000Y-97900000D02*
X180100000Y-97900000D01*
X180100000Y-97900000D02*
X179300000Y-97100000D01*
X180500000Y-101200000D02*
X180500000Y-98300000D01*
%TO.N,PA_28*%
X191720000Y-97400000D02*
X194700000Y-100380000D01*
X177843500Y-94600000D02*
X180643500Y-97400000D01*
X177000000Y-94600000D02*
X177843500Y-94600000D01*
X180643500Y-97400000D02*
X191720000Y-97400000D01*
%TO.N,PA_30*%
X178300000Y-93600000D02*
X177000000Y-93600000D01*
X193500000Y-96500000D02*
X181200000Y-96500000D01*
X181200000Y-96500000D02*
X178300000Y-93600000D01*
X194700000Y-95300000D02*
X193500000Y-96500000D01*
%TO.N,PA_29*%
X177000000Y-94100000D02*
X178100000Y-94100000D01*
X181000000Y-97000000D02*
X193860000Y-97000000D01*
X193860000Y-97000000D02*
X194700000Y-97840000D01*
X178100000Y-94100000D02*
X181000000Y-97000000D01*
%TO.N,PA_6*%
X169080000Y-69800000D02*
X169080000Y-71880000D01*
X169080000Y-71880000D02*
X169200000Y-72000000D01*
%TO.N,Net-(IC1-PB22)*%
X171900000Y-114700000D02*
X171900000Y-117100000D01*
X166000000Y-105200000D02*
X164800000Y-106400000D01*
X168000000Y-110800000D02*
X171900000Y-114700000D01*
X169512000Y-97588000D02*
X169512000Y-99188000D01*
X164800000Y-109600000D02*
X166000000Y-110800000D01*
X164800000Y-106400000D02*
X164800000Y-109600000D01*
X169512000Y-99188000D02*
X166000000Y-102700000D01*
X171100000Y-107700000D02*
X168500000Y-107700000D01*
X170700000Y-118300000D02*
X158600000Y-118300000D01*
X171900000Y-117100000D02*
X170700000Y-118300000D01*
X166000000Y-102700000D02*
X166000000Y-105200000D01*
X168500000Y-107700000D02*
X166000000Y-105200000D01*
X171563000Y-108163000D02*
X171100000Y-107700000D01*
X166000000Y-110800000D02*
X168000000Y-110800000D01*
X152100000Y-118300000D02*
X158600000Y-118300000D01*
%TO.N,Net-(IC1-PA2_{slash}_ROSC)*%
X178175000Y-91100000D02*
X177000000Y-91100000D01*
X179475000Y-89800000D02*
X178175000Y-91100000D01*
%TO.N,Net-(IC1-PB21)*%
X161228000Y-104028000D02*
X160400000Y-103200000D01*
X169012000Y-98788000D02*
X163772000Y-104028000D01*
X163772000Y-104028000D02*
X161228000Y-104028000D01*
X169012000Y-97588000D02*
X169012000Y-98788000D01*
X169012000Y-97588000D02*
X169012000Y-98188000D01*
%TO.N,Right_Servo_PWM*%
X190000000Y-85800000D02*
X187700000Y-88100000D01*
X190000000Y-81000000D02*
X190000000Y-85800000D01*
X187700000Y-88100000D02*
X177000000Y-88100000D01*
X189900000Y-80900000D02*
X190000000Y-81000000D01*
%TO.N,Critical_Condition*%
X174900000Y-115900000D02*
X173200000Y-114200000D01*
X166461500Y-89600000D02*
X165524000Y-89600000D01*
X171200000Y-94338500D02*
X166461500Y-89600000D01*
X171200000Y-95000000D02*
X171200000Y-94338500D01*
X176700000Y-115900000D02*
X174900000Y-115900000D01*
%TO.N,PA_5*%
X166900000Y-71955000D02*
X166540000Y-71595000D01*
X166540000Y-71595000D02*
X166540000Y-69800000D01*
%TD*%
%TA.AperFunction,Conductor*%
%TO.N,GND*%
G36*
X173688762Y-66004254D02*
G01*
X173755798Y-66023948D01*
X173801545Y-66076759D01*
X173811478Y-66145919D01*
X173782444Y-66209470D01*
X173736196Y-66242815D01*
X173620824Y-66290604D01*
X173620814Y-66290609D01*
X173489711Y-66378210D01*
X173489707Y-66378213D01*
X172064588Y-67803334D01*
X171589711Y-68278211D01*
X171560046Y-68307876D01*
X171478209Y-68389712D01*
X171390609Y-68520814D01*
X171390602Y-68520827D01*
X171330264Y-68666498D01*
X171330261Y-68666510D01*
X171299500Y-68821153D01*
X171299500Y-70840556D01*
X171279815Y-70907595D01*
X171263181Y-70928237D01*
X170209296Y-71982121D01*
X170147973Y-72015606D01*
X170078281Y-72010622D01*
X170022348Y-71968750D01*
X169999998Y-71918631D01*
X169980540Y-71820814D01*
X169969737Y-71766503D01*
X169956185Y-71733786D01*
X169909397Y-71620827D01*
X169909390Y-71620814D01*
X169821626Y-71489467D01*
X169800748Y-71422790D01*
X169819232Y-71355410D01*
X169871211Y-71308719D01*
X169912127Y-71297218D01*
X169982797Y-71289999D01*
X170149334Y-71234814D01*
X170298656Y-71142712D01*
X170422712Y-71018656D01*
X170514814Y-70869334D01*
X170569999Y-70702797D01*
X170580500Y-70600009D01*
X170580499Y-68999992D01*
X170569999Y-68897203D01*
X170514814Y-68730666D01*
X170422712Y-68581344D01*
X170298656Y-68457288D01*
X170149334Y-68365186D01*
X169982797Y-68310001D01*
X169982795Y-68310000D01*
X169880010Y-68299500D01*
X168279998Y-68299500D01*
X168279981Y-68299501D01*
X168177203Y-68310000D01*
X168177200Y-68310001D01*
X168010668Y-68365185D01*
X168010663Y-68365187D01*
X167861342Y-68457289D01*
X167737287Y-68581344D01*
X167707487Y-68629658D01*
X167655539Y-68676382D01*
X167586576Y-68687603D01*
X167522494Y-68659759D01*
X167521241Y-68658614D01*
X167521214Y-68658647D01*
X167517517Y-68655490D01*
X167517510Y-68655483D01*
X167326433Y-68516657D01*
X167241099Y-68473177D01*
X167115996Y-68409433D01*
X166891368Y-68336446D01*
X166658097Y-68299500D01*
X166658092Y-68299500D01*
X166421908Y-68299500D01*
X166421903Y-68299500D01*
X166188631Y-68336446D01*
X165964003Y-68409433D01*
X165753566Y-68516657D01*
X165664536Y-68581342D01*
X165562490Y-68655483D01*
X165562488Y-68655485D01*
X165562487Y-68655485D01*
X165395484Y-68822488D01*
X165370318Y-68857127D01*
X165314987Y-68899792D01*
X165245374Y-68905771D01*
X165183579Y-68873165D01*
X165169682Y-68857127D01*
X165144517Y-68822490D01*
X164977510Y-68655483D01*
X164786433Y-68516657D01*
X164701099Y-68473177D01*
X164575996Y-68409433D01*
X164351368Y-68336446D01*
X164118097Y-68299500D01*
X164118092Y-68299500D01*
X163881908Y-68299500D01*
X163881903Y-68299500D01*
X163648631Y-68336446D01*
X163424003Y-68409433D01*
X163213566Y-68516657D01*
X163124536Y-68581342D01*
X163022490Y-68655483D01*
X163022488Y-68655485D01*
X163022487Y-68655485D01*
X162855485Y-68822487D01*
X162855485Y-68822488D01*
X162855483Y-68822490D01*
X162801203Y-68897200D01*
X162716657Y-69013566D01*
X162609433Y-69224003D01*
X162536446Y-69448631D01*
X162499500Y-69681902D01*
X162499500Y-69918097D01*
X162536446Y-70151368D01*
X162609433Y-70375996D01*
X162716657Y-70586433D01*
X162855483Y-70777510D01*
X163022490Y-70944517D01*
X163148906Y-71036364D01*
X163213568Y-71083344D01*
X163240755Y-71097196D01*
X163331794Y-71143582D01*
X163382590Y-71191556D01*
X163399500Y-71254067D01*
X163399500Y-71620234D01*
X163379815Y-71687273D01*
X163378602Y-71689125D01*
X163290609Y-71820814D01*
X163290602Y-71820827D01*
X163230264Y-71966498D01*
X163230261Y-71966510D01*
X163199500Y-72121153D01*
X163199500Y-72278846D01*
X163230261Y-72433489D01*
X163230264Y-72433501D01*
X163290602Y-72579172D01*
X163290609Y-72579185D01*
X163378210Y-72710288D01*
X163378213Y-72710292D01*
X163489707Y-72821786D01*
X163489711Y-72821789D01*
X163620814Y-72909390D01*
X163620827Y-72909397D01*
X163766498Y-72969735D01*
X163766503Y-72969737D01*
X163921153Y-73000499D01*
X163921156Y-73000500D01*
X163921158Y-73000500D01*
X164078844Y-73000500D01*
X164078845Y-73000499D01*
X164233497Y-72969737D01*
X164379179Y-72909394D01*
X164510289Y-72821789D01*
X164621789Y-72710289D01*
X164709394Y-72579179D01*
X164769737Y-72433497D01*
X164800500Y-72278842D01*
X164800500Y-72121158D01*
X164800500Y-72121155D01*
X164800499Y-72121153D01*
X164769737Y-71966503D01*
X164749908Y-71918631D01*
X164709397Y-71820827D01*
X164709390Y-71820814D01*
X164621398Y-71689125D01*
X164600520Y-71622447D01*
X164600500Y-71620234D01*
X164600500Y-71254067D01*
X164620185Y-71187028D01*
X164668205Y-71143582D01*
X164786433Y-71083343D01*
X164977510Y-70944517D01*
X165144517Y-70777510D01*
X165169682Y-70742872D01*
X165225011Y-70700207D01*
X165294625Y-70694228D01*
X165356420Y-70726833D01*
X165370315Y-70742870D01*
X165395483Y-70777510D01*
X165562490Y-70944517D01*
X165688906Y-71036364D01*
X165753568Y-71083344D01*
X165780755Y-71097196D01*
X165871794Y-71143582D01*
X165922590Y-71191556D01*
X165939500Y-71254067D01*
X165939500Y-71508330D01*
X165939499Y-71508348D01*
X165939499Y-71674054D01*
X165939498Y-71674054D01*
X165945039Y-71694733D01*
X165980423Y-71826785D01*
X165980424Y-71826787D01*
X165980423Y-71826787D01*
X165989977Y-71843333D01*
X165991105Y-71845286D01*
X166059480Y-71963716D01*
X166075361Y-71979597D01*
X166082821Y-71991502D01*
X166088629Y-72012156D01*
X166098911Y-72030985D01*
X166099362Y-72033151D01*
X166130261Y-72188491D01*
X166130264Y-72188501D01*
X166190602Y-72334172D01*
X166190609Y-72334185D01*
X166278210Y-72465288D01*
X166278213Y-72465292D01*
X166389707Y-72576786D01*
X166389711Y-72576789D01*
X166520814Y-72664390D01*
X166520827Y-72664397D01*
X166631622Y-72710289D01*
X166666503Y-72724737D01*
X166821153Y-72755499D01*
X166821156Y-72755500D01*
X166821158Y-72755500D01*
X166978844Y-72755500D01*
X166978845Y-72755499D01*
X167133497Y-72724737D01*
X167279179Y-72664394D01*
X167410289Y-72576789D01*
X167521789Y-72465289D01*
X167609394Y-72334179D01*
X167669737Y-72188497D01*
X167700500Y-72033842D01*
X167700500Y-71876158D01*
X167700500Y-71876155D01*
X167700499Y-71876153D01*
X167689491Y-71820814D01*
X167669737Y-71721503D01*
X167658649Y-71694733D01*
X167609397Y-71575827D01*
X167609390Y-71575814D01*
X167521789Y-71444711D01*
X167521786Y-71444707D01*
X167410292Y-71333213D01*
X167410288Y-71333210D01*
X167335385Y-71283161D01*
X167315969Y-71259929D01*
X167294798Y-71238288D01*
X167293788Y-71233387D01*
X167290580Y-71229549D01*
X167286807Y-71199513D01*
X167280696Y-71169856D01*
X167282496Y-71165186D01*
X167281873Y-71160224D01*
X167294936Y-71132920D01*
X167305830Y-71104664D01*
X167310750Y-71099866D01*
X167312028Y-71097196D01*
X167331059Y-71079982D01*
X167331058Y-71079982D01*
X167517510Y-70944517D01*
X167521026Y-70941000D01*
X167528732Y-70935363D01*
X167552838Y-70926672D01*
X167575292Y-70914339D01*
X167585157Y-70915020D01*
X167594461Y-70911666D01*
X167619438Y-70917387D01*
X167644996Y-70919152D01*
X167652925Y-70925057D01*
X167662566Y-70927266D01*
X167680485Y-70945582D01*
X167701032Y-70960885D01*
X167707487Y-70970342D01*
X167737095Y-71018343D01*
X167737288Y-71018656D01*
X167861344Y-71142712D01*
X168010666Y-71234814D01*
X168177203Y-71289999D01*
X168279991Y-71300500D01*
X168355500Y-71300499D01*
X168364184Y-71303049D01*
X168373147Y-71301761D01*
X168397186Y-71312739D01*
X168422538Y-71320183D01*
X168428466Y-71327024D01*
X168436703Y-71330786D01*
X168450989Y-71353016D01*
X168468294Y-71372986D01*
X168470581Y-71383502D01*
X168474477Y-71389564D01*
X168479500Y-71424499D01*
X168479500Y-71622969D01*
X168470061Y-71670421D01*
X168430263Y-71766501D01*
X168430260Y-71766511D01*
X168399500Y-71921153D01*
X168399500Y-72078846D01*
X168430261Y-72233489D01*
X168430264Y-72233501D01*
X168490602Y-72379172D01*
X168490609Y-72379185D01*
X168578210Y-72510288D01*
X168578213Y-72510292D01*
X168689707Y-72621786D01*
X168689711Y-72621789D01*
X168820814Y-72709390D01*
X168820827Y-72709397D01*
X168966498Y-72769735D01*
X168966503Y-72769737D01*
X169023503Y-72781075D01*
X169118631Y-72799998D01*
X169180542Y-72832383D01*
X169215117Y-72893099D01*
X169211377Y-72962868D01*
X169182121Y-73009296D01*
X166928238Y-75263181D01*
X166866915Y-75296666D01*
X166840557Y-75299500D01*
X164527350Y-75299500D01*
X164460311Y-75279815D01*
X164414556Y-75227011D01*
X164404612Y-75157853D01*
X164424248Y-75106609D01*
X164509390Y-74979185D01*
X164509390Y-74979184D01*
X164509394Y-74979179D01*
X164569737Y-74833497D01*
X164600500Y-74678842D01*
X164600500Y-74521158D01*
X164600500Y-74521155D01*
X164600499Y-74521153D01*
X164569738Y-74366510D01*
X164569737Y-74366503D01*
X164569735Y-74366498D01*
X164509397Y-74220827D01*
X164509390Y-74220814D01*
X164421789Y-74089711D01*
X164421786Y-74089707D01*
X164310292Y-73978213D01*
X164310288Y-73978210D01*
X164179185Y-73890609D01*
X164179172Y-73890602D01*
X164033501Y-73830264D01*
X164033489Y-73830261D01*
X163878845Y-73799500D01*
X163878842Y-73799500D01*
X163721158Y-73799500D01*
X163721155Y-73799500D01*
X163566510Y-73830261D01*
X163566498Y-73830264D01*
X163420827Y-73890602D01*
X163420814Y-73890609D01*
X163289125Y-73978602D01*
X163222447Y-73999480D01*
X163220234Y-73999500D01*
X159745884Y-73999500D01*
X159678845Y-73979815D01*
X159658203Y-73963181D01*
X158845405Y-73150383D01*
X158811920Y-73089060D01*
X158816904Y-73019368D01*
X158858776Y-72963435D01*
X158885625Y-72948144D01*
X158979179Y-72909394D01*
X159110289Y-72821789D01*
X159221789Y-72710289D01*
X159309394Y-72579179D01*
X159369737Y-72433497D01*
X159400500Y-72278842D01*
X159400500Y-72121158D01*
X159400500Y-72121155D01*
X159400499Y-72121153D01*
X159369737Y-71966503D01*
X159349908Y-71918631D01*
X159309397Y-71820827D01*
X159309390Y-71820814D01*
X159221398Y-71689125D01*
X159215747Y-71671078D01*
X159205523Y-71655169D01*
X159201071Y-71624207D01*
X159200520Y-71622447D01*
X159200500Y-71620234D01*
X159200500Y-71424499D01*
X159220185Y-71357460D01*
X159272989Y-71311705D01*
X159324500Y-71300499D01*
X159400002Y-71300499D01*
X159400008Y-71300499D01*
X159502797Y-71289999D01*
X159669334Y-71234814D01*
X159818656Y-71142712D01*
X159942712Y-71018656D01*
X160034814Y-70869334D01*
X160089999Y-70702797D01*
X160100500Y-70600009D01*
X160100499Y-68999992D01*
X160089999Y-68897203D01*
X160034814Y-68730666D01*
X159942712Y-68581344D01*
X159818656Y-68457288D01*
X159669334Y-68365186D01*
X159502797Y-68310001D01*
X159502795Y-68310000D01*
X159400010Y-68299500D01*
X157799998Y-68299500D01*
X157799981Y-68299501D01*
X157697203Y-68310000D01*
X157697200Y-68310001D01*
X157530668Y-68365185D01*
X157530663Y-68365187D01*
X157381342Y-68457289D01*
X157257287Y-68581344D01*
X157227487Y-68629658D01*
X157175539Y-68676382D01*
X157106576Y-68687603D01*
X157042494Y-68659759D01*
X157041241Y-68658614D01*
X157041214Y-68658647D01*
X157037517Y-68655490D01*
X157037510Y-68655483D01*
X156846433Y-68516657D01*
X156761099Y-68473177D01*
X156635996Y-68409433D01*
X156411368Y-68336446D01*
X156178097Y-68299500D01*
X156178092Y-68299500D01*
X155941908Y-68299500D01*
X155941903Y-68299500D01*
X155708631Y-68336446D01*
X155484003Y-68409433D01*
X155273566Y-68516657D01*
X155184536Y-68581342D01*
X155082490Y-68655483D01*
X155082488Y-68655485D01*
X155082487Y-68655485D01*
X154915485Y-68822487D01*
X154915485Y-68822488D01*
X154915483Y-68822490D01*
X154861203Y-68897200D01*
X154776657Y-69013566D01*
X154669433Y-69224003D01*
X154596446Y-69448631D01*
X154559500Y-69681902D01*
X154559500Y-69918097D01*
X154596446Y-70151368D01*
X154669433Y-70375996D01*
X154776657Y-70586433D01*
X154915483Y-70777510D01*
X155082490Y-70944517D01*
X155208906Y-71036364D01*
X155273568Y-71083344D01*
X155357940Y-71126333D01*
X155390085Y-71142712D01*
X155391793Y-71143582D01*
X155442590Y-71191556D01*
X155459499Y-71254067D01*
X155459499Y-71293267D01*
X155459498Y-71293267D01*
X155470201Y-71333210D01*
X155500423Y-71445998D01*
X155506768Y-71456988D01*
X155506770Y-71456995D01*
X155506772Y-71456995D01*
X155579475Y-71582922D01*
X155579481Y-71582930D01*
X155698349Y-71701798D01*
X155698355Y-71701803D01*
X158965265Y-74968713D01*
X158965267Y-74968716D01*
X159077071Y-75080520D01*
X159078124Y-75081128D01*
X159084674Y-75087653D01*
X159097783Y-75111552D01*
X159113854Y-75133569D01*
X159114339Y-75141736D01*
X159118275Y-75148912D01*
X159116381Y-75176106D01*
X159117999Y-75203316D01*
X159113991Y-75210450D01*
X159113423Y-75218613D01*
X159097128Y-75240465D01*
X159083778Y-75264231D01*
X159076549Y-75268065D01*
X159071658Y-75274626D01*
X159046136Y-75284200D01*
X159022056Y-75296975D01*
X159008388Y-75298361D01*
X159006240Y-75299167D01*
X159004384Y-75298767D01*
X158997159Y-75299500D01*
X151761155Y-75299500D01*
X151606510Y-75330261D01*
X151606498Y-75330264D01*
X151460827Y-75390602D01*
X151460814Y-75390609D01*
X151329711Y-75478210D01*
X151329707Y-75478213D01*
X150094739Y-76713181D01*
X150033416Y-76746666D01*
X150007058Y-76749500D01*
X148942129Y-76749500D01*
X148942123Y-76749501D01*
X148882516Y-76755908D01*
X148747671Y-76806202D01*
X148747664Y-76806206D01*
X148632455Y-76892452D01*
X148632452Y-76892455D01*
X148546206Y-77007664D01*
X148546202Y-77007671D01*
X148495908Y-77142517D01*
X148489501Y-77202116D01*
X148489500Y-77202135D01*
X148489500Y-78997870D01*
X148489501Y-78997876D01*
X148495908Y-79057483D01*
X148546202Y-79192328D01*
X148546206Y-79192335D01*
X148632452Y-79307544D01*
X148632455Y-79307547D01*
X148747664Y-79393793D01*
X148747671Y-79393797D01*
X148882517Y-79444091D01*
X148882516Y-79444091D01*
X148889444Y-79444835D01*
X148942127Y-79450500D01*
X150737872Y-79450499D01*
X150797483Y-79444091D01*
X150932331Y-79393796D01*
X151047546Y-79307546D01*
X151133796Y-79192331D01*
X151184091Y-79057483D01*
X151190500Y-78997873D01*
X151190499Y-78973979D01*
X151193330Y-78960963D01*
X151203940Y-78941525D01*
X151210179Y-78920275D01*
X151226803Y-78899643D01*
X151226808Y-78899636D01*
X151226811Y-78899634D01*
X151226818Y-78899626D01*
X151897037Y-78229408D01*
X151914075Y-78292993D01*
X151979901Y-78407007D01*
X152072993Y-78500099D01*
X152187007Y-78565925D01*
X152250590Y-78582962D01*
X151618282Y-79215269D01*
X151618282Y-79215270D01*
X151672449Y-79254624D01*
X151861782Y-79351095D01*
X152063870Y-79416757D01*
X152273754Y-79450000D01*
X152486246Y-79450000D01*
X152696127Y-79416757D01*
X152696130Y-79416757D01*
X152898217Y-79351095D01*
X153087554Y-79254622D01*
X153141716Y-79215270D01*
X153141717Y-79215270D01*
X152509408Y-78582962D01*
X152572993Y-78565925D01*
X152687007Y-78500099D01*
X152780099Y-78407007D01*
X152845925Y-78292993D01*
X152862962Y-78229408D01*
X153495270Y-78861717D01*
X153495270Y-78861716D01*
X153534622Y-78807555D01*
X153539232Y-78798507D01*
X153587205Y-78747709D01*
X153655025Y-78730912D01*
X153721161Y-78753447D01*
X153760204Y-78798504D01*
X153764949Y-78807817D01*
X153889890Y-78979786D01*
X154040213Y-79130109D01*
X154212179Y-79255048D01*
X154212181Y-79255049D01*
X154212184Y-79255051D01*
X154401588Y-79351557D01*
X154603757Y-79417246D01*
X154813713Y-79450500D01*
X154813714Y-79450500D01*
X155026286Y-79450500D01*
X155026287Y-79450500D01*
X155236243Y-79417246D01*
X155438412Y-79351557D01*
X155627816Y-79255051D01*
X155687071Y-79212000D01*
X155799786Y-79130109D01*
X155799788Y-79130106D01*
X155799792Y-79130104D01*
X155950104Y-78979792D01*
X155950106Y-78979788D01*
X155950109Y-78979786D01*
X156075048Y-78807820D01*
X156075050Y-78807817D01*
X156075051Y-78807816D01*
X156079514Y-78799054D01*
X156127488Y-78748259D01*
X156195308Y-78731463D01*
X156261444Y-78753999D01*
X156300486Y-78799056D01*
X156304951Y-78807820D01*
X156429890Y-78979786D01*
X156580213Y-79130109D01*
X156752179Y-79255048D01*
X156752181Y-79255049D01*
X156752184Y-79255051D01*
X156941588Y-79351557D01*
X157143757Y-79417246D01*
X157353713Y-79450500D01*
X157353714Y-79450500D01*
X157566286Y-79450500D01*
X157566287Y-79450500D01*
X157776243Y-79417246D01*
X157978412Y-79351557D01*
X158167816Y-79255051D01*
X158227071Y-79212000D01*
X158339786Y-79130109D01*
X158339788Y-79130106D01*
X158339792Y-79130104D01*
X158490104Y-78979792D01*
X158490106Y-78979788D01*
X158490109Y-78979786D01*
X158615048Y-78807820D01*
X158615050Y-78807817D01*
X158615051Y-78807816D01*
X158619514Y-78799054D01*
X158667488Y-78748259D01*
X158735308Y-78731463D01*
X158801444Y-78753999D01*
X158840486Y-78799056D01*
X158844951Y-78807820D01*
X158969890Y-78979786D01*
X159120213Y-79130109D01*
X159292179Y-79255048D01*
X159292181Y-79255049D01*
X159292184Y-79255051D01*
X159481588Y-79351557D01*
X159683757Y-79417246D01*
X159893713Y-79450500D01*
X159893714Y-79450500D01*
X160106286Y-79450500D01*
X160106287Y-79450500D01*
X160316243Y-79417246D01*
X160518412Y-79351557D01*
X160707816Y-79255051D01*
X160767071Y-79212000D01*
X160879786Y-79130109D01*
X160879788Y-79130106D01*
X160879792Y-79130104D01*
X161030104Y-78979792D01*
X161030106Y-78979788D01*
X161030109Y-78979786D01*
X161155048Y-78807820D01*
X161155050Y-78807817D01*
X161155051Y-78807816D01*
X161159514Y-78799054D01*
X161207488Y-78748259D01*
X161275308Y-78731463D01*
X161341444Y-78753999D01*
X161380486Y-78799056D01*
X161384951Y-78807820D01*
X161509890Y-78979786D01*
X161660213Y-79130109D01*
X161832179Y-79255048D01*
X161832181Y-79255049D01*
X161832184Y-79255051D01*
X162021588Y-79351557D01*
X162223757Y-79417246D01*
X162433713Y-79450500D01*
X162433714Y-79450500D01*
X162646286Y-79450500D01*
X162646287Y-79450500D01*
X162856243Y-79417246D01*
X163058412Y-79351557D01*
X163247816Y-79255051D01*
X163307071Y-79212000D01*
X163419786Y-79130109D01*
X163419788Y-79130106D01*
X163419792Y-79130104D01*
X163570104Y-78979792D01*
X163570106Y-78979788D01*
X163570109Y-78979786D01*
X163695048Y-78807820D01*
X163695050Y-78807817D01*
X163695051Y-78807816D01*
X163699514Y-78799054D01*
X163747488Y-78748259D01*
X163815308Y-78731463D01*
X163881444Y-78753999D01*
X163920486Y-78799056D01*
X163924951Y-78807820D01*
X164049890Y-78979786D01*
X164200213Y-79130109D01*
X164372179Y-79255048D01*
X164372181Y-79255049D01*
X164372184Y-79255051D01*
X164561588Y-79351557D01*
X164763757Y-79417246D01*
X164874671Y-79434813D01*
X164937805Y-79464742D01*
X164974737Y-79524053D01*
X164973739Y-79593916D01*
X164942954Y-79644967D01*
X163224741Y-81363181D01*
X163163418Y-81396666D01*
X163137060Y-81399500D01*
X150475392Y-81399500D01*
X150448273Y-81404894D01*
X150421154Y-81410289D01*
X150421153Y-81410289D01*
X150320746Y-81430261D01*
X150320734Y-81430264D01*
X150175063Y-81490602D01*
X150175050Y-81490609D01*
X150043948Y-81578209D01*
X150012975Y-81609183D01*
X149932447Y-81689711D01*
X149932445Y-81689713D01*
X148409977Y-83212181D01*
X146872270Y-84749887D01*
X146778213Y-84843943D01*
X146778210Y-84843947D01*
X146690609Y-84975050D01*
X146690602Y-84975063D01*
X146630264Y-85120734D01*
X146630261Y-85120746D01*
X146599500Y-85275389D01*
X146599500Y-88178846D01*
X146630261Y-88333489D01*
X146630264Y-88333501D01*
X146690602Y-88479172D01*
X146690609Y-88479185D01*
X146778210Y-88610288D01*
X146778213Y-88610292D01*
X148289051Y-90121129D01*
X148322536Y-90182452D01*
X148323843Y-90228208D01*
X148299500Y-90381902D01*
X148299500Y-90618097D01*
X148323843Y-90771790D01*
X148314889Y-90841083D01*
X148289051Y-90878869D01*
X147831184Y-91336738D01*
X147689711Y-91478211D01*
X147654592Y-91513330D01*
X147578209Y-91589712D01*
X147490609Y-91720814D01*
X147490602Y-91720827D01*
X147430264Y-91866498D01*
X147430261Y-91866510D01*
X147399500Y-92021153D01*
X147399500Y-103318846D01*
X147430261Y-103473489D01*
X147430264Y-103473501D01*
X147490602Y-103619172D01*
X147490609Y-103619185D01*
X147578210Y-103750288D01*
X147578213Y-103750292D01*
X148289051Y-104461129D01*
X148322536Y-104522452D01*
X148323843Y-104568208D01*
X148299500Y-104721902D01*
X148299500Y-104958097D01*
X148336446Y-105191368D01*
X148409433Y-105415996D01*
X148470070Y-105535001D01*
X148516657Y-105626433D01*
X148655483Y-105817510D01*
X148822490Y-105984517D01*
X149013567Y-106123343D01*
X149101633Y-106168215D01*
X149224003Y-106230566D01*
X149224005Y-106230566D01*
X149224008Y-106230568D01*
X149330548Y-106265185D01*
X149448631Y-106303553D01*
X149681903Y-106340500D01*
X149681908Y-106340500D01*
X149918090Y-106340500D01*
X149918092Y-106340500D01*
X150071793Y-106316155D01*
X150141083Y-106325109D01*
X150178869Y-106350947D01*
X154049707Y-110221786D01*
X154049711Y-110221789D01*
X154180814Y-110309390D01*
X154180818Y-110309392D01*
X154180821Y-110309394D01*
X154326503Y-110369738D01*
X154481153Y-110400499D01*
X154481157Y-110400500D01*
X154481158Y-110400500D01*
X162463796Y-110400500D01*
X162530835Y-110420185D01*
X162551477Y-110436819D01*
X164603608Y-112488950D01*
X164637093Y-112550273D01*
X164632109Y-112619965D01*
X164603610Y-112664311D01*
X164578210Y-112689711D01*
X164490609Y-112820814D01*
X164490602Y-112820827D01*
X164430264Y-112966498D01*
X164430261Y-112966510D01*
X164399500Y-113121153D01*
X164399500Y-113278846D01*
X164430261Y-113433489D01*
X164430264Y-113433501D01*
X164490602Y-113579172D01*
X164490609Y-113579185D01*
X164578210Y-113710288D01*
X164578213Y-113710292D01*
X164618180Y-113750258D01*
X164632884Y-113777186D01*
X164649477Y-113803005D01*
X164650368Y-113809204D01*
X164651666Y-113811581D01*
X164654500Y-113837940D01*
X164654500Y-113993000D01*
X164634815Y-114060039D01*
X164582011Y-114105794D01*
X164530502Y-114117000D01*
X164454999Y-114117000D01*
X164454980Y-114117001D01*
X164352203Y-114127500D01*
X164352200Y-114127501D01*
X164185668Y-114182685D01*
X164185663Y-114182687D01*
X164036342Y-114274789D01*
X163912289Y-114398842D01*
X163820187Y-114548163D01*
X163820186Y-114548166D01*
X163765001Y-114714703D01*
X163765001Y-114714704D01*
X163765000Y-114714704D01*
X163754500Y-114817483D01*
X163754500Y-116417501D01*
X163754501Y-116417518D01*
X163765000Y-116520296D01*
X163765001Y-116520299D01*
X163807121Y-116647406D01*
X163820186Y-116686834D01*
X163912288Y-116836156D01*
X164036344Y-116960212D01*
X164185666Y-117052314D01*
X164352203Y-117107499D01*
X164454991Y-117118000D01*
X166055008Y-117117999D01*
X166157797Y-117107499D01*
X166324334Y-117052314D01*
X166473656Y-116960212D01*
X166597712Y-116836156D01*
X166627512Y-116787841D01*
X166679458Y-116741118D01*
X166748420Y-116729895D01*
X166812503Y-116757738D01*
X166813758Y-116758885D01*
X166813786Y-116758853D01*
X166817481Y-116762008D01*
X166817490Y-116762017D01*
X167008567Y-116900843D01*
X167107991Y-116951502D01*
X167219003Y-117008066D01*
X167219005Y-117008066D01*
X167219008Y-117008068D01*
X167321547Y-117041385D01*
X167443631Y-117081053D01*
X167676903Y-117118000D01*
X167676908Y-117118000D01*
X167913097Y-117118000D01*
X168146368Y-117081053D01*
X168179330Y-117070343D01*
X168370992Y-117008068D01*
X168581433Y-116900843D01*
X168772510Y-116762017D01*
X168939517Y-116595010D01*
X168982547Y-116535783D01*
X169037877Y-116493118D01*
X169092594Y-116485051D01*
X169112340Y-116486605D01*
X169770387Y-115828558D01*
X169775889Y-115849091D01*
X169854881Y-115985908D01*
X169966592Y-116097619D01*
X170103409Y-116176611D01*
X170123939Y-116182112D01*
X169465893Y-116840158D01*
X169548828Y-116900414D01*
X169759197Y-117007602D01*
X169983752Y-117080565D01*
X169983751Y-117080565D01*
X170216948Y-117117500D01*
X170453052Y-117117500D01*
X170686245Y-117080565D01*
X170763779Y-117055373D01*
X170833620Y-117053377D01*
X170893453Y-117089457D01*
X170924282Y-117152158D01*
X170916318Y-117221572D01*
X170889779Y-117260985D01*
X170487584Y-117663181D01*
X170426261Y-117696666D01*
X170399903Y-117699500D01*
X160054068Y-117699500D01*
X159987029Y-117679815D01*
X159943583Y-117631795D01*
X159883343Y-117513567D01*
X159744517Y-117322490D01*
X159577510Y-117155483D01*
X159386433Y-117016657D01*
X159368662Y-117007602D01*
X159175996Y-116909433D01*
X158951368Y-116836446D01*
X158718097Y-116799500D01*
X158718092Y-116799500D01*
X158481908Y-116799500D01*
X158481903Y-116799500D01*
X158248631Y-116836446D01*
X158024003Y-116909433D01*
X157813566Y-117016657D01*
X157725605Y-117080565D01*
X157622490Y-117155483D01*
X157622488Y-117155485D01*
X157622487Y-117155485D01*
X157455485Y-117322487D01*
X157455485Y-117322488D01*
X157455483Y-117322490D01*
X157406435Y-117389999D01*
X157316657Y-117513566D01*
X157298567Y-117549071D01*
X157257426Y-117629815D01*
X157256417Y-117631795D01*
X157208442Y-117682591D01*
X157145932Y-117699500D01*
X153554068Y-117699500D01*
X153487029Y-117679815D01*
X153443583Y-117631795D01*
X153383343Y-117513567D01*
X153244517Y-117322490D01*
X153077510Y-117155483D01*
X152886433Y-117016657D01*
X152868662Y-117007602D01*
X152675996Y-116909433D01*
X152451368Y-116836446D01*
X152218097Y-116799500D01*
X152218092Y-116799500D01*
X151981908Y-116799500D01*
X151981903Y-116799500D01*
X151748631Y-116836446D01*
X151524003Y-116909433D01*
X151313566Y-117016657D01*
X151225605Y-117080565D01*
X151122490Y-117155483D01*
X151122488Y-117155485D01*
X151122487Y-117155485D01*
X150955485Y-117322487D01*
X150955485Y-117322488D01*
X150955483Y-117322490D01*
X150906435Y-117389999D01*
X150816657Y-117513566D01*
X150709433Y-117724003D01*
X150636446Y-117948631D01*
X150599500Y-118181902D01*
X150599500Y-118418097D01*
X150636446Y-118651368D01*
X150709433Y-118875996D01*
X150816657Y-119086433D01*
X150955483Y-119277510D01*
X151122490Y-119444517D01*
X151154173Y-119467536D01*
X151164697Y-119475182D01*
X151207362Y-119530513D01*
X151213341Y-119600126D01*
X151180735Y-119661921D01*
X151119896Y-119696278D01*
X151091811Y-119699500D01*
X150065840Y-119699500D01*
X150065788Y-119699486D01*
X149998426Y-119699500D01*
X149926353Y-119699500D01*
X149926123Y-119699514D01*
X147779241Y-119699960D01*
X147776608Y-119699933D01*
X147764577Y-119699680D01*
X147756571Y-119699252D01*
X147527654Y-119679587D01*
X147511819Y-119677189D01*
X147291271Y-119629040D01*
X147275877Y-119624620D01*
X147063376Y-119548446D01*
X147048691Y-119542084D01*
X146847780Y-119439156D01*
X146834029Y-119430950D01*
X146648057Y-119302983D01*
X146635477Y-119293071D01*
X146467557Y-119142209D01*
X146456359Y-119130758D01*
X146309282Y-118959507D01*
X146299654Y-118946709D01*
X146175877Y-118757932D01*
X146167979Y-118744000D01*
X146135806Y-118677585D01*
X146069565Y-118540845D01*
X146063530Y-118526015D01*
X145992120Y-118311858D01*
X145988046Y-118296370D01*
X145985167Y-118281610D01*
X145944833Y-118074799D01*
X145942792Y-118058936D01*
X145928247Y-117829699D01*
X145927999Y-117821879D01*
X145928078Y-117759741D01*
X145928007Y-117759477D01*
X145928058Y-117497648D01*
X146699500Y-117497648D01*
X146699500Y-117702351D01*
X146731522Y-117904534D01*
X146794781Y-118099223D01*
X146887715Y-118281613D01*
X147008028Y-118447213D01*
X147152786Y-118591971D01*
X147258419Y-118668716D01*
X147318390Y-118712287D01*
X147434607Y-118771503D01*
X147500776Y-118805218D01*
X147500778Y-118805218D01*
X147500781Y-118805220D01*
X147564711Y-118825992D01*
X147695465Y-118868477D01*
X147742913Y-118875992D01*
X147897648Y-118900500D01*
X147897649Y-118900500D01*
X148102351Y-118900500D01*
X148102352Y-118900500D01*
X148304534Y-118868477D01*
X148499219Y-118805220D01*
X148681610Y-118712287D01*
X148820641Y-118611276D01*
X148847213Y-118591971D01*
X148847215Y-118591968D01*
X148847219Y-118591966D01*
X148991966Y-118447219D01*
X148991968Y-118447215D01*
X148991971Y-118447213D01*
X149071665Y-118337522D01*
X149112287Y-118281610D01*
X149205220Y-118099219D01*
X149268477Y-117904534D01*
X149300500Y-117702352D01*
X149300500Y-117497648D01*
X149274230Y-117331787D01*
X149268477Y-117295465D01*
X149211028Y-117118656D01*
X149205220Y-117100781D01*
X149205218Y-117100778D01*
X149205218Y-117100776D01*
X149164540Y-117020943D01*
X149112287Y-116918390D01*
X149104556Y-116907749D01*
X148991971Y-116752786D01*
X148847213Y-116608028D01*
X148681613Y-116487715D01*
X148681612Y-116487714D01*
X148681610Y-116487713D01*
X148624653Y-116458691D01*
X148499223Y-116394781D01*
X148304534Y-116331522D01*
X148129995Y-116303878D01*
X148102352Y-116299500D01*
X147897648Y-116299500D01*
X147873329Y-116303351D01*
X147695465Y-116331522D01*
X147500776Y-116394781D01*
X147318386Y-116487715D01*
X147152786Y-116608028D01*
X147008028Y-116752786D01*
X146887715Y-116918386D01*
X146794781Y-117100776D01*
X146731522Y-117295465D01*
X146699500Y-117497648D01*
X145928058Y-117497648D01*
X145928808Y-113681947D01*
X150600000Y-113681947D01*
X150600000Y-113918052D01*
X150636934Y-114151247D01*
X150709897Y-114375802D01*
X150817087Y-114586174D01*
X150877338Y-114669104D01*
X150877340Y-114669105D01*
X151576212Y-113970233D01*
X151587482Y-114012292D01*
X151659890Y-114137708D01*
X151762292Y-114240110D01*
X151887708Y-114312518D01*
X151929765Y-114323787D01*
X151230893Y-115022658D01*
X151313828Y-115082914D01*
X151524197Y-115190102D01*
X151748752Y-115263065D01*
X151748751Y-115263065D01*
X151981948Y-115300000D01*
X152218052Y-115300000D01*
X152451247Y-115263065D01*
X152675802Y-115190102D01*
X152886163Y-115082918D01*
X152886169Y-115082914D01*
X152969104Y-115022658D01*
X152969105Y-115022658D01*
X152270233Y-114323787D01*
X152312292Y-114312518D01*
X152437708Y-114240110D01*
X152540110Y-114137708D01*
X152612518Y-114012292D01*
X152623787Y-113970234D01*
X153322658Y-114669105D01*
X153322658Y-114669104D01*
X153382914Y-114586169D01*
X153382918Y-114586163D01*
X153490102Y-114375802D01*
X153563065Y-114151247D01*
X153600000Y-113918052D01*
X153600000Y-113681947D01*
X157100000Y-113681947D01*
X157100000Y-113918052D01*
X157136934Y-114151247D01*
X157209897Y-114375802D01*
X157317087Y-114586174D01*
X157377338Y-114669104D01*
X157377340Y-114669105D01*
X158076212Y-113970233D01*
X158087482Y-114012292D01*
X158159890Y-114137708D01*
X158262292Y-114240110D01*
X158387708Y-114312518D01*
X158429765Y-114323787D01*
X157730893Y-115022658D01*
X157813828Y-115082914D01*
X158024197Y-115190102D01*
X158248752Y-115263065D01*
X158248751Y-115263065D01*
X158481948Y-115300000D01*
X158718052Y-115300000D01*
X158951247Y-115263065D01*
X159175802Y-115190102D01*
X159386163Y-115082918D01*
X159386169Y-115082914D01*
X159469104Y-115022658D01*
X159469105Y-115022658D01*
X158770233Y-114323787D01*
X158812292Y-114312518D01*
X158937708Y-114240110D01*
X159040110Y-114137708D01*
X159112518Y-114012292D01*
X159123787Y-113970234D01*
X159822658Y-114669105D01*
X159822658Y-114669104D01*
X159882914Y-114586169D01*
X159882918Y-114586163D01*
X159990102Y-114375802D01*
X160063065Y-114151247D01*
X160100000Y-113918052D01*
X160100000Y-113681947D01*
X160063065Y-113448752D01*
X159990102Y-113224197D01*
X159882914Y-113013828D01*
X159822658Y-112930894D01*
X159822658Y-112930893D01*
X159123787Y-113629765D01*
X159112518Y-113587708D01*
X159040110Y-113462292D01*
X158937708Y-113359890D01*
X158812292Y-113287482D01*
X158770234Y-113276212D01*
X159469105Y-112577340D01*
X159469104Y-112577338D01*
X159386174Y-112517087D01*
X159175802Y-112409897D01*
X158951247Y-112336934D01*
X158951248Y-112336934D01*
X158718052Y-112300000D01*
X158481948Y-112300000D01*
X158248752Y-112336934D01*
X158024197Y-112409897D01*
X157813830Y-112517084D01*
X157730894Y-112577340D01*
X158429766Y-113276212D01*
X158387708Y-113287482D01*
X158262292Y-113359890D01*
X158159890Y-113462292D01*
X158087482Y-113587708D01*
X158076212Y-113629765D01*
X157377340Y-112930894D01*
X157317084Y-113013830D01*
X157209897Y-113224197D01*
X157136934Y-113448752D01*
X157100000Y-113681947D01*
X153600000Y-113681947D01*
X153563065Y-113448752D01*
X153490102Y-113224197D01*
X153382914Y-113013828D01*
X153322658Y-112930894D01*
X153322658Y-112930893D01*
X152623787Y-113629765D01*
X152612518Y-113587708D01*
X152540110Y-113462292D01*
X152437708Y-113359890D01*
X152312292Y-113287482D01*
X152270234Y-113276212D01*
X152969105Y-112577340D01*
X152969104Y-112577339D01*
X152886174Y-112517087D01*
X152675802Y-112409897D01*
X152451247Y-112336934D01*
X152451248Y-112336934D01*
X152218052Y-112300000D01*
X151981948Y-112300000D01*
X151748752Y-112336934D01*
X151524197Y-112409897D01*
X151313830Y-112517084D01*
X151230894Y-112577340D01*
X151929766Y-113276212D01*
X151887708Y-113287482D01*
X151762292Y-113359890D01*
X151659890Y-113462292D01*
X151587482Y-113587708D01*
X151576212Y-113629766D01*
X150877340Y-112930894D01*
X150817084Y-113013830D01*
X150709897Y-113224197D01*
X150636934Y-113448752D01*
X150600000Y-113681947D01*
X145928808Y-113681947D01*
X145935532Y-79479843D01*
X145937769Y-68097648D01*
X146799500Y-68097648D01*
X146799500Y-68302351D01*
X146831522Y-68504534D01*
X146894781Y-68699223D01*
X146956415Y-68820185D01*
X146980986Y-68868408D01*
X146987715Y-68881613D01*
X147108028Y-69047213D01*
X147252786Y-69191971D01*
X147349566Y-69262284D01*
X147418390Y-69312287D01*
X147502647Y-69355218D01*
X147600776Y-69405218D01*
X147600778Y-69405218D01*
X147600781Y-69405220D01*
X147681946Y-69431592D01*
X147795465Y-69468477D01*
X147896557Y-69484488D01*
X147997648Y-69500500D01*
X147997649Y-69500500D01*
X148202351Y-69500500D01*
X148202352Y-69500500D01*
X148404534Y-69468477D01*
X148599219Y-69405220D01*
X148781610Y-69312287D01*
X148879882Y-69240889D01*
X148947213Y-69191971D01*
X148947215Y-69191968D01*
X148947219Y-69191966D01*
X149091966Y-69047219D01*
X149091968Y-69047215D01*
X149091971Y-69047213D01*
X149144732Y-68974590D01*
X149212287Y-68881610D01*
X149305220Y-68699219D01*
X149368477Y-68504534D01*
X149400500Y-68302352D01*
X149400500Y-68097648D01*
X149383076Y-67987637D01*
X149368477Y-67895465D01*
X149305218Y-67700776D01*
X149271503Y-67634607D01*
X149212287Y-67518390D01*
X149183606Y-67478914D01*
X149091971Y-67352786D01*
X148947213Y-67208028D01*
X148781613Y-67087715D01*
X148781612Y-67087714D01*
X148781610Y-67087713D01*
X148683480Y-67037713D01*
X148599223Y-66994781D01*
X148404534Y-66931522D01*
X148229995Y-66903878D01*
X148202352Y-66899500D01*
X147997648Y-66899500D01*
X147973329Y-66903351D01*
X147795465Y-66931522D01*
X147600776Y-66994781D01*
X147418386Y-67087715D01*
X147252786Y-67208028D01*
X147108028Y-67352786D01*
X146987715Y-67518386D01*
X146894781Y-67700776D01*
X146831522Y-67895465D01*
X146799500Y-68097648D01*
X145937769Y-68097648D01*
X145937770Y-68092752D01*
X145937779Y-68047648D01*
X145937788Y-67998906D01*
X145938514Y-67985533D01*
X145939162Y-67979558D01*
X145939166Y-67979545D01*
X145937835Y-67920823D01*
X145937804Y-67918028D01*
X145937804Y-67915576D01*
X145937804Y-67913373D01*
X145937922Y-67908007D01*
X145948197Y-67673603D01*
X145950006Y-67657259D01*
X145990797Y-67428817D01*
X145994756Y-67412858D01*
X146065457Y-67191828D01*
X146071489Y-67176548D01*
X146170855Y-66966832D01*
X146178873Y-66952464D01*
X146228360Y-66876161D01*
X146305137Y-66757780D01*
X146314981Y-66744609D01*
X146465940Y-66568359D01*
X146477439Y-66556611D01*
X146650420Y-66401918D01*
X146663379Y-66391794D01*
X146855325Y-66261389D01*
X146869506Y-66253074D01*
X147077039Y-66149252D01*
X147092209Y-66142884D01*
X147311671Y-66067473D01*
X147327541Y-66063175D01*
X147555055Y-66017510D01*
X147571351Y-66015351D01*
X147794968Y-66000751D01*
X147803027Y-66000489D01*
X173688762Y-66004254D01*
G37*
%TD.AperFunction*%
%TA.AperFunction,Conductor*%
G36*
X182384367Y-101722851D02*
G01*
X182412005Y-101736686D01*
X182520814Y-101809390D01*
X182520827Y-101809397D01*
X182605000Y-101844262D01*
X182666503Y-101869737D01*
X182818710Y-101900013D01*
X182821153Y-101900499D01*
X182821156Y-101900500D01*
X182821158Y-101900500D01*
X182978844Y-101900500D01*
X182978845Y-101900499D01*
X183133497Y-101869737D01*
X183259894Y-101817381D01*
X183279770Y-101815244D01*
X183298500Y-101808259D01*
X183313796Y-101811586D01*
X183329363Y-101809913D01*
X183347240Y-101818861D01*
X183366773Y-101823111D01*
X183389061Y-101839796D01*
X183391842Y-101841188D01*
X183395027Y-101844262D01*
X183475681Y-101924916D01*
X183509166Y-101986239D01*
X183512000Y-102012597D01*
X183512000Y-103300001D01*
X183512001Y-103300018D01*
X183522500Y-103402796D01*
X183522501Y-103402799D01*
X183577685Y-103569331D01*
X183577687Y-103569336D01*
X183580926Y-103574587D01*
X183669788Y-103718656D01*
X183793844Y-103842712D01*
X183863958Y-103885958D01*
X183910682Y-103937906D01*
X183921905Y-104006869D01*
X183920478Y-104015688D01*
X183899500Y-104121153D01*
X183899500Y-104278846D01*
X183930261Y-104433489D01*
X183930264Y-104433501D01*
X183990602Y-104579172D01*
X183990609Y-104579185D01*
X184078210Y-104710288D01*
X184078213Y-104710292D01*
X184189707Y-104821786D01*
X184189711Y-104821789D01*
X184320814Y-104909390D01*
X184320827Y-104909397D01*
X184421907Y-104951265D01*
X184466503Y-104969737D01*
X184621153Y-105000499D01*
X184621156Y-105000500D01*
X184621158Y-105000500D01*
X184778844Y-105000500D01*
X184778845Y-105000499D01*
X184933497Y-104969737D01*
X185054829Y-104919480D01*
X185079172Y-104909397D01*
X185079172Y-104909396D01*
X185079179Y-104909394D01*
X185210289Y-104821789D01*
X185321789Y-104710289D01*
X185409394Y-104579179D01*
X185469737Y-104433497D01*
X185500500Y-104278842D01*
X185500500Y-104202190D01*
X185520185Y-104135151D01*
X185572989Y-104089396D01*
X185642147Y-104079452D01*
X185705703Y-104108477D01*
X185739061Y-104154738D01*
X185790602Y-104279172D01*
X185790609Y-104279185D01*
X185878210Y-104410288D01*
X185878213Y-104410292D01*
X186578211Y-105110289D01*
X186642116Y-105174194D01*
X186689712Y-105221790D01*
X186820814Y-105309390D01*
X186820821Y-105309394D01*
X186919551Y-105350289D01*
X186966502Y-105369737D01*
X187121152Y-105400499D01*
X187121155Y-105400500D01*
X187121157Y-105400500D01*
X195678844Y-105400500D01*
X195678845Y-105400499D01*
X195833497Y-105369737D01*
X195979179Y-105309394D01*
X196110289Y-105221789D01*
X198221789Y-103110289D01*
X198241680Y-103080520D01*
X198309394Y-102979179D01*
X198369737Y-102833497D01*
X198388239Y-102740482D01*
X198420623Y-102678571D01*
X198481339Y-102643997D01*
X198551109Y-102647736D01*
X198607781Y-102688602D01*
X198633362Y-102753620D01*
X198633856Y-102764545D01*
X198649403Y-117856776D01*
X198648940Y-117867610D01*
X198629020Y-118097474D01*
X198626567Y-118113499D01*
X198577110Y-118337522D01*
X198572588Y-118353091D01*
X198494323Y-118568758D01*
X198487808Y-118583604D01*
X198382075Y-118787216D01*
X198373679Y-118801084D01*
X198242292Y-118989154D01*
X198232159Y-119001809D01*
X198077353Y-119171137D01*
X198065655Y-119182362D01*
X197890077Y-119330049D01*
X197877014Y-119339651D01*
X197683686Y-119463158D01*
X197669483Y-119470974D01*
X197461672Y-119568214D01*
X197446570Y-119574111D01*
X197227865Y-119643403D01*
X197212123Y-119647279D01*
X196986241Y-119687447D01*
X196970128Y-119689236D01*
X196745769Y-119699374D01*
X196740172Y-119699500D01*
X196711715Y-119699500D01*
X196709203Y-119699475D01*
X196690866Y-119699103D01*
X196666943Y-119698618D01*
X196666942Y-119698618D01*
X196665832Y-119698742D01*
X196652140Y-119699500D01*
X193189370Y-119699500D01*
X193122331Y-119679815D01*
X193076576Y-119627011D01*
X193066632Y-119557853D01*
X193095657Y-119494297D01*
X193116484Y-119475182D01*
X193227510Y-119394517D01*
X193394517Y-119227510D01*
X193533343Y-119036433D01*
X193640568Y-118825992D01*
X193713553Y-118601368D01*
X193737969Y-118447213D01*
X193750500Y-118368097D01*
X193750500Y-118131902D01*
X193713553Y-117898631D01*
X193656812Y-117724003D01*
X193640568Y-117674008D01*
X193640566Y-117674005D01*
X193640566Y-117674003D01*
X193592934Y-117580521D01*
X193550708Y-117497648D01*
X195199500Y-117497648D01*
X195199500Y-117702351D01*
X195231522Y-117904534D01*
X195294781Y-118099223D01*
X195387715Y-118281613D01*
X195508028Y-118447213D01*
X195652786Y-118591971D01*
X195758419Y-118668716D01*
X195818390Y-118712287D01*
X195934607Y-118771503D01*
X196000776Y-118805218D01*
X196000778Y-118805218D01*
X196000781Y-118805220D01*
X196064711Y-118825992D01*
X196195465Y-118868477D01*
X196242913Y-118875992D01*
X196397648Y-118900500D01*
X196397649Y-118900500D01*
X196602351Y-118900500D01*
X196602352Y-118900500D01*
X196804534Y-118868477D01*
X196999219Y-118805220D01*
X197181610Y-118712287D01*
X197320641Y-118611276D01*
X197347213Y-118591971D01*
X197347215Y-118591968D01*
X197347219Y-118591966D01*
X197491966Y-118447219D01*
X197491968Y-118447215D01*
X197491971Y-118447213D01*
X197571665Y-118337522D01*
X197612287Y-118281610D01*
X197705220Y-118099219D01*
X197768477Y-117904534D01*
X197800500Y-117702352D01*
X197800500Y-117497648D01*
X197774230Y-117331787D01*
X197768477Y-117295465D01*
X197711028Y-117118656D01*
X197705220Y-117100781D01*
X197705218Y-117100778D01*
X197705218Y-117100776D01*
X197664540Y-117020943D01*
X197612287Y-116918390D01*
X197604556Y-116907749D01*
X197491971Y-116752786D01*
X197347213Y-116608028D01*
X197181613Y-116487715D01*
X197181612Y-116487714D01*
X197181610Y-116487713D01*
X197124653Y-116458691D01*
X196999223Y-116394781D01*
X196804534Y-116331522D01*
X196629995Y-116303878D01*
X196602352Y-116299500D01*
X196397648Y-116299500D01*
X196373329Y-116303351D01*
X196195465Y-116331522D01*
X196000776Y-116394781D01*
X195818386Y-116487715D01*
X195652786Y-116608028D01*
X195508028Y-116752786D01*
X195387715Y-116918386D01*
X195294781Y-117100776D01*
X195231522Y-117295465D01*
X195199500Y-117497648D01*
X193550708Y-117497648D01*
X193533343Y-117463567D01*
X193394517Y-117272490D01*
X193227510Y-117105483D01*
X193036433Y-116966657D01*
X193023780Y-116960210D01*
X192825996Y-116859433D01*
X192601368Y-116786446D01*
X192368097Y-116749500D01*
X192368092Y-116749500D01*
X192131908Y-116749500D01*
X192131903Y-116749500D01*
X191898631Y-116786446D01*
X191674003Y-116859433D01*
X191463566Y-116966657D01*
X191400614Y-117012395D01*
X191272490Y-117105483D01*
X191272488Y-117105485D01*
X191272487Y-117105485D01*
X191105485Y-117272487D01*
X191105485Y-117272488D01*
X191105483Y-117272490D01*
X191092350Y-117290566D01*
X190966657Y-117463566D01*
X190951786Y-117492752D01*
X190907067Y-117580520D01*
X190906417Y-117581795D01*
X190858442Y-117632591D01*
X190795932Y-117649500D01*
X187204068Y-117649500D01*
X187137029Y-117629815D01*
X187093583Y-117581795D01*
X187092934Y-117580521D01*
X187033343Y-117463567D01*
X186894517Y-117272490D01*
X186727510Y-117105483D01*
X186536433Y-116966657D01*
X186523780Y-116960210D01*
X186325996Y-116859433D01*
X186101368Y-116786446D01*
X185868097Y-116749500D01*
X185868092Y-116749500D01*
X185631908Y-116749500D01*
X185631903Y-116749500D01*
X185398631Y-116786446D01*
X185174003Y-116859433D01*
X184963566Y-116966657D01*
X184900614Y-117012395D01*
X184772490Y-117105483D01*
X184772488Y-117105485D01*
X184772487Y-117105485D01*
X184605485Y-117272487D01*
X184605485Y-117272488D01*
X184605483Y-117272490D01*
X184592350Y-117290566D01*
X184466657Y-117463566D01*
X184359433Y-117674003D01*
X184286446Y-117898631D01*
X184249500Y-118131902D01*
X184249500Y-118368097D01*
X184286446Y-118601368D01*
X184359433Y-118825996D01*
X184420940Y-118946709D01*
X184466657Y-119036433D01*
X184605483Y-119227510D01*
X184772490Y-119394517D01*
X184872992Y-119467536D01*
X184883516Y-119475182D01*
X184926181Y-119530512D01*
X184932160Y-119600126D01*
X184899554Y-119661921D01*
X184838715Y-119696278D01*
X184810630Y-119699500D01*
X159608189Y-119699500D01*
X159541150Y-119679815D01*
X159495395Y-119627011D01*
X159485451Y-119557853D01*
X159514476Y-119494297D01*
X159535303Y-119475182D01*
X159577510Y-119444517D01*
X159744517Y-119277510D01*
X159883343Y-119086433D01*
X159943583Y-118968204D01*
X159991558Y-118917409D01*
X160054068Y-118900500D01*
X170613331Y-118900500D01*
X170613347Y-118900501D01*
X170620943Y-118900501D01*
X170779054Y-118900501D01*
X170779057Y-118900501D01*
X170931785Y-118859577D01*
X171018387Y-118809577D01*
X171068716Y-118780520D01*
X171180520Y-118668716D01*
X171180520Y-118668714D01*
X171190724Y-118658511D01*
X171190728Y-118658506D01*
X172258506Y-117590728D01*
X172258511Y-117590724D01*
X172268714Y-117580520D01*
X172268716Y-117580520D01*
X172380520Y-117468716D01*
X172436169Y-117372329D01*
X172459577Y-117331785D01*
X172500500Y-117179058D01*
X172500500Y-117020943D01*
X172500500Y-114927350D01*
X172520185Y-114860311D01*
X172572989Y-114814556D01*
X172642147Y-114804612D01*
X172693391Y-114824248D01*
X172820814Y-114909390D01*
X172820827Y-114909397D01*
X172915799Y-114948735D01*
X172966503Y-114969737D01*
X173031147Y-114982595D01*
X173121849Y-115000638D01*
X173183760Y-115033023D01*
X173185339Y-115034574D01*
X174415139Y-116264374D01*
X174415149Y-116264385D01*
X174419479Y-116268715D01*
X174419480Y-116268716D01*
X174531284Y-116380520D01*
X174596202Y-116418000D01*
X174668215Y-116459577D01*
X174820943Y-116500500D01*
X175075501Y-116500500D01*
X175142540Y-116520185D01*
X175188295Y-116572989D01*
X175199501Y-116624500D01*
X175199501Y-116700018D01*
X175210000Y-116802796D01*
X175210001Y-116802799D01*
X175248303Y-116918386D01*
X175265186Y-116969334D01*
X175357288Y-117118656D01*
X175481344Y-117242712D01*
X175630666Y-117334814D01*
X175797203Y-117389999D01*
X175899991Y-117400500D01*
X177500008Y-117400499D01*
X177602797Y-117389999D01*
X177769334Y-117334814D01*
X177918656Y-117242712D01*
X178042712Y-117118656D01*
X178072512Y-117070341D01*
X178124458Y-117023618D01*
X178193420Y-117012395D01*
X178257503Y-117040238D01*
X178258758Y-117041385D01*
X178258786Y-117041353D01*
X178262481Y-117044508D01*
X178262490Y-117044517D01*
X178453567Y-117183343D01*
X178528596Y-117221572D01*
X178664003Y-117290566D01*
X178664005Y-117290566D01*
X178664008Y-117290568D01*
X178784412Y-117329689D01*
X178888631Y-117363553D01*
X179121903Y-117400500D01*
X179121908Y-117400500D01*
X179358097Y-117400500D01*
X179591368Y-117363553D01*
X179815992Y-117290568D01*
X180026433Y-117183343D01*
X180217510Y-117044517D01*
X180384517Y-116877510D01*
X180409682Y-116842872D01*
X180465011Y-116800207D01*
X180534625Y-116794228D01*
X180596420Y-116826833D01*
X180610315Y-116842870D01*
X180635483Y-116877510D01*
X180802490Y-117044517D01*
X180993567Y-117183343D01*
X181068596Y-117221572D01*
X181204003Y-117290566D01*
X181204005Y-117290566D01*
X181204008Y-117290568D01*
X181324412Y-117329689D01*
X181428631Y-117363553D01*
X181661903Y-117400500D01*
X181661908Y-117400500D01*
X181898097Y-117400500D01*
X182131368Y-117363553D01*
X182355992Y-117290568D01*
X182566433Y-117183343D01*
X182757510Y-117044517D01*
X182924517Y-116877510D01*
X183063343Y-116686433D01*
X183170568Y-116475992D01*
X183243553Y-116251368D01*
X183252720Y-116193492D01*
X183280500Y-116018097D01*
X183280500Y-115781902D01*
X183243553Y-115548631D01*
X183190681Y-115385909D01*
X183170568Y-115324008D01*
X183170566Y-115324005D01*
X183170566Y-115324003D01*
X183114002Y-115212991D01*
X183063343Y-115113567D01*
X182924517Y-114922490D01*
X182757510Y-114755483D01*
X182566433Y-114616657D01*
X182506597Y-114586169D01*
X182355996Y-114509433D01*
X182131368Y-114436446D01*
X181898097Y-114399500D01*
X181898092Y-114399500D01*
X181661908Y-114399500D01*
X181661903Y-114399500D01*
X181428628Y-114436447D01*
X181302433Y-114477450D01*
X181232592Y-114479445D01*
X181176435Y-114447200D01*
X180361182Y-113631947D01*
X184250000Y-113631947D01*
X184250000Y-113868052D01*
X184286934Y-114101247D01*
X184359897Y-114325802D01*
X184467087Y-114536174D01*
X184527338Y-114619104D01*
X184527340Y-114619105D01*
X185226212Y-113920233D01*
X185237482Y-113962292D01*
X185309890Y-114087708D01*
X185412292Y-114190110D01*
X185537708Y-114262518D01*
X185579765Y-114273787D01*
X184880893Y-114972658D01*
X184963828Y-115032914D01*
X185174197Y-115140102D01*
X185398752Y-115213065D01*
X185398751Y-115213065D01*
X185631948Y-115250000D01*
X185868052Y-115250000D01*
X186101247Y-115213065D01*
X186325802Y-115140102D01*
X186536163Y-115032918D01*
X186536169Y-115032914D01*
X186619104Y-114972658D01*
X186619105Y-114972658D01*
X185920233Y-114273787D01*
X185962292Y-114262518D01*
X186087708Y-114190110D01*
X186190110Y-114087708D01*
X186262518Y-113962292D01*
X186273787Y-113920234D01*
X186972658Y-114619105D01*
X186972658Y-114619104D01*
X187032914Y-114536169D01*
X187032918Y-114536163D01*
X187140102Y-114325802D01*
X187213065Y-114101247D01*
X187250000Y-113868052D01*
X187250000Y-113631947D01*
X190750000Y-113631947D01*
X190750000Y-113868052D01*
X190786934Y-114101247D01*
X190859897Y-114325802D01*
X190967087Y-114536174D01*
X191027338Y-114619104D01*
X191027340Y-114619105D01*
X191726212Y-113920233D01*
X191737482Y-113962292D01*
X191809890Y-114087708D01*
X191912292Y-114190110D01*
X192037708Y-114262518D01*
X192079765Y-114273787D01*
X191380893Y-114972658D01*
X191463828Y-115032914D01*
X191674197Y-115140102D01*
X191898752Y-115213065D01*
X191898751Y-115213065D01*
X192131948Y-115250000D01*
X192368052Y-115250000D01*
X192601247Y-115213065D01*
X192825802Y-115140102D01*
X193036163Y-115032918D01*
X193036169Y-115032914D01*
X193119104Y-114972658D01*
X193119105Y-114972658D01*
X192420233Y-114273787D01*
X192462292Y-114262518D01*
X192587708Y-114190110D01*
X192690110Y-114087708D01*
X192762518Y-113962292D01*
X192773787Y-113920234D01*
X193472658Y-114619105D01*
X193472658Y-114619104D01*
X193532914Y-114536169D01*
X193532918Y-114536163D01*
X193640102Y-114325802D01*
X193713065Y-114101247D01*
X193750000Y-113868052D01*
X193750000Y-113631947D01*
X193713065Y-113398752D01*
X193640102Y-113174197D01*
X193532914Y-112963828D01*
X193472658Y-112880894D01*
X193472658Y-112880893D01*
X192773787Y-113579765D01*
X192762518Y-113537708D01*
X192690110Y-113412292D01*
X192587708Y-113309890D01*
X192462292Y-113237482D01*
X192420234Y-113226212D01*
X193119105Y-112527340D01*
X193119104Y-112527338D01*
X193036174Y-112467087D01*
X192825802Y-112359897D01*
X192601247Y-112286934D01*
X192601248Y-112286934D01*
X192368052Y-112250000D01*
X192131948Y-112250000D01*
X191898752Y-112286934D01*
X191674197Y-112359897D01*
X191463830Y-112467084D01*
X191380894Y-112527340D01*
X192079766Y-113226212D01*
X192037708Y-113237482D01*
X191912292Y-113309890D01*
X191809890Y-113412292D01*
X191737482Y-113537708D01*
X191726212Y-113579765D01*
X191027340Y-112880894D01*
X190967084Y-112963830D01*
X190859897Y-113174197D01*
X190786934Y-113398752D01*
X190750000Y-113631947D01*
X187250000Y-113631947D01*
X187213065Y-113398752D01*
X187140102Y-113174197D01*
X187032914Y-112963828D01*
X186972658Y-112880894D01*
X186972658Y-112880893D01*
X186273787Y-113579765D01*
X186262518Y-113537708D01*
X186190110Y-113412292D01*
X186087708Y-113309890D01*
X185962292Y-113237482D01*
X185920234Y-113226212D01*
X186619105Y-112527340D01*
X186619104Y-112527339D01*
X186536174Y-112467087D01*
X186325802Y-112359897D01*
X186101247Y-112286934D01*
X186101248Y-112286934D01*
X185868052Y-112250000D01*
X185631948Y-112250000D01*
X185398752Y-112286934D01*
X185174197Y-112359897D01*
X184963830Y-112467084D01*
X184880894Y-112527340D01*
X185579766Y-113226212D01*
X185537708Y-113237482D01*
X185412292Y-113309890D01*
X185309890Y-113412292D01*
X185237482Y-113537708D01*
X185226212Y-113579766D01*
X184527340Y-112880894D01*
X184467084Y-112963830D01*
X184359897Y-113174197D01*
X184286934Y-113398752D01*
X184250000Y-113631947D01*
X180361182Y-113631947D01*
X179967590Y-113238355D01*
X179967588Y-113238352D01*
X179848717Y-113119481D01*
X179848716Y-113119480D01*
X179761904Y-113069360D01*
X179761904Y-113069359D01*
X179761900Y-113069358D01*
X179711785Y-113040423D01*
X179559057Y-112999499D01*
X179400943Y-112999499D01*
X179393347Y-112999499D01*
X179393331Y-112999500D01*
X177579766Y-112999500D01*
X177512727Y-112979815D01*
X177510875Y-112978602D01*
X177379185Y-112890609D01*
X177379172Y-112890602D01*
X177233501Y-112830264D01*
X177233489Y-112830261D01*
X177078845Y-112799500D01*
X177078842Y-112799500D01*
X176921158Y-112799500D01*
X176921155Y-112799500D01*
X176766510Y-112830261D01*
X176766498Y-112830264D01*
X176620827Y-112890602D01*
X176620814Y-112890609D01*
X176489711Y-112978210D01*
X176489707Y-112978213D01*
X176378213Y-113089707D01*
X176378210Y-113089711D01*
X176290609Y-113220814D01*
X176290602Y-113220827D01*
X176230264Y-113366498D01*
X176230261Y-113366510D01*
X176199500Y-113521153D01*
X176199500Y-113678846D01*
X176230261Y-113833489D01*
X176230264Y-113833501D01*
X176290602Y-113979172D01*
X176290609Y-113979185D01*
X176378210Y-114110288D01*
X176378213Y-114110292D01*
X176455740Y-114187819D01*
X176489225Y-114249142D01*
X176484241Y-114318834D01*
X176442369Y-114374767D01*
X176376905Y-114399184D01*
X176368059Y-114399500D01*
X175899998Y-114399500D01*
X175899980Y-114399501D01*
X175797203Y-114410000D01*
X175797200Y-114410001D01*
X175630668Y-114465185D01*
X175630663Y-114465187D01*
X175481342Y-114557289D01*
X175357289Y-114681342D01*
X175265187Y-114830663D01*
X175265185Y-114830668D01*
X175252121Y-114870093D01*
X175218135Y-114972658D01*
X175210001Y-114997204D01*
X175210000Y-114997205D01*
X175202822Y-115067470D01*
X175176425Y-115132162D01*
X175119244Y-115172313D01*
X175049433Y-115175176D01*
X174991783Y-115142548D01*
X174034574Y-114185339D01*
X174001089Y-114124016D01*
X174000638Y-114121849D01*
X173978845Y-114012292D01*
X173969737Y-113966503D01*
X173967993Y-113962292D01*
X173909397Y-113820827D01*
X173909395Y-113820823D01*
X173909394Y-113820821D01*
X173844401Y-113723553D01*
X173823524Y-113656877D01*
X173842008Y-113589497D01*
X173893987Y-113542806D01*
X173962957Y-113531630D01*
X173994956Y-113540102D01*
X174066498Y-113569735D01*
X174066503Y-113569737D01*
X174165843Y-113589497D01*
X174221153Y-113600499D01*
X174221156Y-113600500D01*
X174221158Y-113600500D01*
X174378844Y-113600500D01*
X174378845Y-113600499D01*
X174533497Y-113569737D01*
X174679179Y-113509394D01*
X174810289Y-113421789D01*
X174921789Y-113310289D01*
X175009394Y-113179179D01*
X175069737Y-113033497D01*
X175100500Y-112878842D01*
X175100500Y-112721158D01*
X175100500Y-112721155D01*
X175100499Y-112721153D01*
X175076160Y-112598790D01*
X175069738Y-112566508D01*
X175069737Y-112566507D01*
X175069737Y-112566503D01*
X175053515Y-112527339D01*
X175009397Y-112420827D01*
X175009390Y-112420814D01*
X174921789Y-112289711D01*
X174921786Y-112289707D01*
X174810292Y-112178213D01*
X174810288Y-112178210D01*
X174679185Y-112090609D01*
X174679172Y-112090602D01*
X174533501Y-112030264D01*
X174533491Y-112030261D01*
X174378149Y-111999361D01*
X174316238Y-111966976D01*
X174314660Y-111965425D01*
X172908819Y-110559584D01*
X172875334Y-110498261D01*
X172872500Y-110471903D01*
X172872500Y-109024499D01*
X172892185Y-108957460D01*
X172944989Y-108911705D01*
X172996500Y-108900499D01*
X173500002Y-108900499D01*
X173500008Y-108900499D01*
X173602797Y-108889999D01*
X173769334Y-108834814D01*
X173918656Y-108742712D01*
X174042712Y-108618656D01*
X174134814Y-108469334D01*
X174189999Y-108302797D01*
X174200500Y-108200009D01*
X174200499Y-107782938D01*
X174220183Y-107715900D01*
X174236813Y-107695263D01*
X174628609Y-107303467D01*
X174689930Y-107269984D01*
X174759622Y-107274968D01*
X174815555Y-107316840D01*
X174819390Y-107322259D01*
X174878210Y-107410288D01*
X174878213Y-107410292D01*
X174989707Y-107521786D01*
X174989711Y-107521789D01*
X175120814Y-107609390D01*
X175120827Y-107609397D01*
X175218853Y-107650000D01*
X175266503Y-107669737D01*
X175389079Y-107694119D01*
X175421153Y-107700499D01*
X175421156Y-107700500D01*
X175421158Y-107700500D01*
X175578844Y-107700500D01*
X175578845Y-107700499D01*
X175733497Y-107669737D01*
X175879179Y-107609394D01*
X175879185Y-107609390D01*
X176010875Y-107521398D01*
X176077553Y-107500520D01*
X176079766Y-107500500D01*
X176529911Y-107500500D01*
X176596950Y-107520185D01*
X176642705Y-107572989D01*
X176653269Y-107611898D01*
X176660001Y-107677797D01*
X176660001Y-107677799D01*
X176696403Y-107787652D01*
X176715186Y-107844334D01*
X176807288Y-107993656D01*
X176931344Y-108117712D01*
X177080666Y-108209814D01*
X177247203Y-108264999D01*
X177349991Y-108275500D01*
X178250008Y-108275499D01*
X178250016Y-108275498D01*
X178250019Y-108275498D01*
X178306302Y-108269748D01*
X178352797Y-108264999D01*
X178519334Y-108209814D01*
X178668656Y-108117712D01*
X178792712Y-107993656D01*
X178884814Y-107844334D01*
X178939999Y-107677797D01*
X178950500Y-107575009D01*
X178950500Y-107574986D01*
X179750001Y-107574986D01*
X179760494Y-107677697D01*
X179815641Y-107844119D01*
X179815643Y-107844124D01*
X179907684Y-107993345D01*
X180031654Y-108117315D01*
X180180875Y-108209356D01*
X180180880Y-108209358D01*
X180347302Y-108264505D01*
X180347309Y-108264506D01*
X180450019Y-108274999D01*
X180649999Y-108274999D01*
X181150000Y-108274999D01*
X181349972Y-108274999D01*
X181349986Y-108274998D01*
X181452697Y-108264505D01*
X181619119Y-108209358D01*
X181619124Y-108209356D01*
X181768345Y-108117315D01*
X181892315Y-107993345D01*
X181984356Y-107844124D01*
X181984358Y-107844119D01*
X182039505Y-107677697D01*
X182039506Y-107677690D01*
X182049999Y-107574986D01*
X182050000Y-107574973D01*
X182050000Y-107150000D01*
X181150000Y-107150000D01*
X181150000Y-108274999D01*
X180649999Y-108274999D01*
X180650000Y-108274998D01*
X180650000Y-107150000D01*
X179750001Y-107150000D01*
X179750001Y-107574986D01*
X178950500Y-107574986D01*
X178950499Y-106650096D01*
X178970184Y-106583058D01*
X178986818Y-106562416D01*
X179512416Y-106036819D01*
X179539343Y-106022115D01*
X179565162Y-106005523D01*
X179571362Y-106004631D01*
X179573739Y-106003334D01*
X179600097Y-106000500D01*
X179635624Y-106000500D01*
X179702663Y-106020185D01*
X179748418Y-106072989D01*
X179758982Y-106137103D01*
X179750000Y-106225013D01*
X179750000Y-106650000D01*
X182049999Y-106650000D01*
X182049999Y-106398596D01*
X182069684Y-106331557D01*
X182122488Y-106285802D01*
X182191646Y-106275858D01*
X182255202Y-106304883D01*
X182261680Y-106310915D01*
X182575681Y-106624916D01*
X182609166Y-106686239D01*
X182612000Y-106712597D01*
X182612000Y-107425001D01*
X182612001Y-107425019D01*
X182622500Y-107527796D01*
X182622501Y-107527799D01*
X182677685Y-107694331D01*
X182677687Y-107694336D01*
X182681489Y-107700500D01*
X182769788Y-107843656D01*
X182893844Y-107967712D01*
X183043166Y-108059814D01*
X183209703Y-108114999D01*
X183312491Y-108125500D01*
X184087508Y-108125499D01*
X184087516Y-108125498D01*
X184087519Y-108125498D01*
X184163738Y-108117712D01*
X184190297Y-108114999D01*
X184356834Y-108059814D01*
X184506156Y-107967712D01*
X184630212Y-107843656D01*
X184632252Y-107840347D01*
X184634245Y-107838555D01*
X184634693Y-107837989D01*
X184634789Y-107838065D01*
X184684194Y-107793623D01*
X184753156Y-107782395D01*
X184817240Y-107810234D01*
X184843329Y-107840339D01*
X184845181Y-107843341D01*
X184845183Y-107843344D01*
X184969154Y-107967315D01*
X185118375Y-108059356D01*
X185118380Y-108059358D01*
X185284802Y-108114505D01*
X185284809Y-108114506D01*
X185387519Y-108124999D01*
X185524999Y-108124999D01*
X186025000Y-108124999D01*
X186162472Y-108124999D01*
X186162486Y-108124998D01*
X186265197Y-108114505D01*
X186431619Y-108059358D01*
X186431624Y-108059356D01*
X186580845Y-107967315D01*
X186704815Y-107843345D01*
X186796856Y-107694124D01*
X186796858Y-107694119D01*
X186852005Y-107527697D01*
X186852006Y-107527690D01*
X186862499Y-107424986D01*
X186862500Y-107424973D01*
X186862500Y-107150000D01*
X186025000Y-107150000D01*
X186025000Y-108124999D01*
X185524999Y-108124999D01*
X185525000Y-108124998D01*
X185525000Y-106650000D01*
X186025000Y-106650000D01*
X186862499Y-106650000D01*
X186862499Y-106375028D01*
X186862498Y-106375013D01*
X186852005Y-106272302D01*
X186796858Y-106105880D01*
X186796856Y-106105875D01*
X186704815Y-105956654D01*
X186580845Y-105832684D01*
X186431624Y-105740643D01*
X186431619Y-105740641D01*
X186265197Y-105685494D01*
X186265190Y-105685493D01*
X186162486Y-105675000D01*
X186025000Y-105675000D01*
X186025000Y-106650000D01*
X185525000Y-106650000D01*
X185525000Y-105675000D01*
X185387527Y-105675000D01*
X185387512Y-105675001D01*
X185284802Y-105685494D01*
X185118380Y-105740641D01*
X185118375Y-105740643D01*
X184969154Y-105832684D01*
X184845183Y-105956655D01*
X184845179Y-105956660D01*
X184843326Y-105959665D01*
X184841518Y-105961290D01*
X184840702Y-105962323D01*
X184840525Y-105962183D01*
X184791374Y-106006385D01*
X184722411Y-106017601D01*
X184658331Y-105989752D01*
X184632253Y-105959653D01*
X184632237Y-105959628D01*
X184630212Y-105956344D01*
X184506156Y-105832288D01*
X184356834Y-105740186D01*
X184190297Y-105685001D01*
X184190295Y-105685000D01*
X184087516Y-105674500D01*
X184087509Y-105674500D01*
X183375097Y-105674500D01*
X183308058Y-105654815D01*
X183287416Y-105638181D01*
X182687590Y-105038355D01*
X182687588Y-105038352D01*
X182568717Y-104919481D01*
X182568716Y-104919480D01*
X182481904Y-104869360D01*
X182481904Y-104869359D01*
X182481900Y-104869358D01*
X182431785Y-104840423D01*
X182279057Y-104799499D01*
X182120943Y-104799499D01*
X182113347Y-104799499D01*
X182113331Y-104799500D01*
X179220940Y-104799500D01*
X179180019Y-104810464D01*
X179180019Y-104810465D01*
X179142751Y-104820451D01*
X179068214Y-104840423D01*
X179068209Y-104840426D01*
X178931290Y-104919475D01*
X178931282Y-104919481D01*
X178819478Y-105031286D01*
X178360861Y-105489902D01*
X178299538Y-105523387D01*
X178260582Y-105525579D01*
X178250028Y-105524501D01*
X178250012Y-105524500D01*
X178250009Y-105524500D01*
X178250003Y-105524500D01*
X177349998Y-105524500D01*
X177349980Y-105524501D01*
X177247203Y-105535000D01*
X177247200Y-105535001D01*
X177080668Y-105590185D01*
X177080663Y-105590187D01*
X176931342Y-105682289D01*
X176807289Y-105806342D01*
X176715187Y-105955663D01*
X176715185Y-105955668D01*
X176687349Y-106039670D01*
X176661363Y-106118095D01*
X176660001Y-106122204D01*
X176660000Y-106122205D01*
X176653268Y-106188103D01*
X176626871Y-106252795D01*
X176569690Y-106292946D01*
X176529910Y-106299500D01*
X176079766Y-106299500D01*
X176061620Y-106294171D01*
X176042712Y-106293834D01*
X176014496Y-106280334D01*
X176012727Y-106279815D01*
X176010875Y-106278602D01*
X175922259Y-106219390D01*
X175877454Y-106165777D01*
X175868747Y-106096452D01*
X175898902Y-106033425D01*
X175903449Y-106028627D01*
X177895259Y-104036819D01*
X177956582Y-104003334D01*
X177982940Y-104000500D01*
X180008392Y-104000500D01*
X180008393Y-104000499D01*
X180163045Y-103969737D01*
X180308727Y-103909394D01*
X180439837Y-103821789D01*
X182049789Y-102211837D01*
X182053912Y-102205666D01*
X182137394Y-102080727D01*
X182197737Y-101935045D01*
X182203458Y-101906284D01*
X182204703Y-101900028D01*
X182221497Y-101815597D01*
X182253882Y-101753686D01*
X182314597Y-101719112D01*
X182384367Y-101722851D01*
G37*
%TD.AperFunction*%
%TA.AperFunction,Conductor*%
G36*
X167766942Y-111420185D02*
G01*
X167787584Y-111436819D01*
X170261819Y-113911054D01*
X170295304Y-113972377D01*
X170290320Y-114042069D01*
X170248448Y-114098002D01*
X170193536Y-114121208D01*
X169983752Y-114154434D01*
X169759197Y-114227397D01*
X169548830Y-114334584D01*
X169465894Y-114394840D01*
X170123941Y-115052887D01*
X170103409Y-115058389D01*
X169966592Y-115137381D01*
X169854881Y-115249092D01*
X169775889Y-115385909D01*
X169770387Y-115406440D01*
X169112340Y-114748393D01*
X169092593Y-114749948D01*
X169024215Y-114735584D01*
X168982547Y-114699216D01*
X168939517Y-114639990D01*
X168772510Y-114472983D01*
X168597329Y-114345706D01*
X168555655Y-114292841D01*
X168504397Y-114169091D01*
X168504390Y-114169078D01*
X168416790Y-114037976D01*
X168371814Y-113993000D01*
X168305289Y-113926475D01*
X165990995Y-111612181D01*
X165957510Y-111550858D01*
X165962494Y-111481166D01*
X166004366Y-111425233D01*
X166069830Y-111400816D01*
X166078676Y-111400500D01*
X167699903Y-111400500D01*
X167766942Y-111420185D01*
G37*
%TD.AperFunction*%
%TA.AperFunction,Conductor*%
G36*
X160866942Y-88620185D02*
G01*
X160887584Y-88636819D01*
X161613681Y-89362916D01*
X161647166Y-89424239D01*
X161650000Y-89450597D01*
X161650000Y-90450000D01*
X162552981Y-90450000D01*
X162575831Y-90441477D01*
X162599024Y-90428813D01*
X162608053Y-90429458D01*
X162616536Y-90426295D01*
X162642356Y-90431911D01*
X162668716Y-90433797D01*
X162677769Y-90439615D01*
X162684809Y-90441147D01*
X162713063Y-90462298D01*
X162863181Y-90612416D01*
X162896666Y-90673739D01*
X162899500Y-90700097D01*
X162899500Y-91513330D01*
X162899499Y-91513348D01*
X162899499Y-91647500D01*
X162879814Y-91714539D01*
X162827010Y-91760294D01*
X162775499Y-91771500D01*
X162613869Y-91771500D01*
X162546830Y-91751815D01*
X162501075Y-91699011D01*
X162491131Y-91629853D01*
X162496163Y-91608496D01*
X162539505Y-91477697D01*
X162539506Y-91477690D01*
X162549999Y-91374986D01*
X162550000Y-91374973D01*
X162550000Y-90950000D01*
X160250001Y-90950000D01*
X160250001Y-91374986D01*
X160260494Y-91477699D01*
X160261233Y-91479929D01*
X160261283Y-91481385D01*
X160261911Y-91484319D01*
X160261387Y-91484431D01*
X160263633Y-91549757D01*
X160227899Y-91609798D01*
X160165378Y-91640988D01*
X160095918Y-91633426D01*
X160055845Y-91606610D01*
X159486818Y-91037583D01*
X159453333Y-90976260D01*
X159450499Y-90949902D01*
X159450499Y-90025013D01*
X160250000Y-90025013D01*
X160250000Y-90450000D01*
X161150000Y-90450000D01*
X161150000Y-89325000D01*
X160950029Y-89325000D01*
X160950012Y-89325001D01*
X160847302Y-89335494D01*
X160680880Y-89390641D01*
X160680875Y-89390643D01*
X160531654Y-89482684D01*
X160407684Y-89606654D01*
X160315643Y-89755875D01*
X160315641Y-89755880D01*
X160260494Y-89922302D01*
X160260493Y-89922309D01*
X160250000Y-90025013D01*
X159450499Y-90025013D01*
X159450499Y-90024998D01*
X159450498Y-90024981D01*
X159439999Y-89922203D01*
X159439998Y-89922200D01*
X159425632Y-89878846D01*
X159384814Y-89755666D01*
X159292712Y-89606344D01*
X159168656Y-89482288D01*
X159055263Y-89412347D01*
X159019336Y-89390187D01*
X159019331Y-89390185D01*
X159017862Y-89389698D01*
X158852797Y-89335001D01*
X158852795Y-89335000D01*
X158750010Y-89324500D01*
X157849998Y-89324500D01*
X157849980Y-89324501D01*
X157747203Y-89335000D01*
X157747200Y-89335001D01*
X157580668Y-89390185D01*
X157580663Y-89390187D01*
X157431342Y-89482289D01*
X157307289Y-89606342D01*
X157215187Y-89755663D01*
X157215185Y-89755668D01*
X157201200Y-89797873D01*
X157160001Y-89922203D01*
X157160001Y-89922204D01*
X157160000Y-89922204D01*
X157149500Y-90024983D01*
X157149500Y-91375001D01*
X157149501Y-91375018D01*
X157160000Y-91477796D01*
X157160001Y-91477799D01*
X157215185Y-91644331D01*
X157215187Y-91644336D01*
X157230855Y-91669738D01*
X157307288Y-91793656D01*
X157431344Y-91917712D01*
X157580666Y-92009814D01*
X157747203Y-92064999D01*
X157849991Y-92075500D01*
X158750008Y-92075499D01*
X158760576Y-92074419D01*
X158829268Y-92087187D01*
X158860861Y-92110096D01*
X160444517Y-93693752D01*
X160478002Y-93755075D01*
X160473018Y-93824767D01*
X160444518Y-93869113D01*
X160407289Y-93906342D01*
X160315187Y-94055663D01*
X160315185Y-94055668D01*
X160310657Y-94069334D01*
X160260001Y-94222203D01*
X160260001Y-94222204D01*
X160260000Y-94222204D01*
X160249500Y-94324983D01*
X160249500Y-95675001D01*
X160249501Y-95675018D01*
X160260000Y-95777796D01*
X160260001Y-95777799D01*
X160292541Y-95875996D01*
X160315186Y-95944334D01*
X160407288Y-96093656D01*
X160531344Y-96217712D01*
X160680666Y-96309814D01*
X160714500Y-96321025D01*
X160771947Y-96360796D01*
X160798772Y-96425311D01*
X160799500Y-96438732D01*
X160799500Y-97499902D01*
X160779815Y-97566941D01*
X160763181Y-97587583D01*
X160512582Y-97838181D01*
X160451259Y-97871666D01*
X160424901Y-97874500D01*
X159712498Y-97874500D01*
X159712480Y-97874501D01*
X159609703Y-97885000D01*
X159609700Y-97885001D01*
X159443168Y-97940185D01*
X159443163Y-97940187D01*
X159293842Y-98032289D01*
X159169788Y-98156343D01*
X159169783Y-98156349D01*
X159167741Y-98159661D01*
X159165747Y-98161453D01*
X159165307Y-98162011D01*
X159165211Y-98161935D01*
X159115791Y-98206383D01*
X159046828Y-98217602D01*
X158982747Y-98189755D01*
X158956668Y-98159656D01*
X158954819Y-98156659D01*
X158954816Y-98156655D01*
X158830845Y-98032684D01*
X158681624Y-97940643D01*
X158681619Y-97940641D01*
X158515197Y-97885494D01*
X158515190Y-97885493D01*
X158412486Y-97875000D01*
X158275000Y-97875000D01*
X158275000Y-100324999D01*
X158412472Y-100324999D01*
X158412486Y-100324998D01*
X158515197Y-100314505D01*
X158681619Y-100259358D01*
X158681624Y-100259356D01*
X158830845Y-100167315D01*
X158954818Y-100043342D01*
X158956665Y-100040348D01*
X158958469Y-100038724D01*
X158959298Y-100037677D01*
X158959476Y-100037818D01*
X159008610Y-99993621D01*
X159077573Y-99982396D01*
X159141656Y-100010236D01*
X159167743Y-100040341D01*
X159169788Y-100043656D01*
X159293844Y-100167712D01*
X159443166Y-100259814D01*
X159609703Y-100314999D01*
X159712491Y-100325500D01*
X160487508Y-100325499D01*
X160487516Y-100325498D01*
X160487519Y-100325498D01*
X160543802Y-100319748D01*
X160590297Y-100314999D01*
X160756834Y-100259814D01*
X160906156Y-100167712D01*
X161030212Y-100043656D01*
X161122314Y-99894334D01*
X161177499Y-99727797D01*
X161188000Y-99625009D01*
X161187999Y-98912596D01*
X161207683Y-98845558D01*
X161224313Y-98824921D01*
X161880520Y-98168716D01*
X161880520Y-98168714D01*
X161890724Y-98158511D01*
X161890727Y-98158506D01*
X163812416Y-96236819D01*
X163873739Y-96203334D01*
X163900097Y-96200500D01*
X164539771Y-96200500D01*
X164583104Y-96208318D01*
X164679017Y-96244091D01*
X164679016Y-96244091D01*
X164685944Y-96244835D01*
X164738627Y-96250500D01*
X166309372Y-96250499D01*
X166368983Y-96244091D01*
X166503831Y-96193796D01*
X166619046Y-96107546D01*
X166705296Y-95992331D01*
X166755591Y-95857483D01*
X166762000Y-95797873D01*
X166761999Y-95402128D01*
X166761999Y-95402127D01*
X166761998Y-95402111D01*
X166757820Y-95363253D01*
X166757820Y-95336745D01*
X166762000Y-95297873D01*
X166761999Y-94902128D01*
X166761999Y-94902127D01*
X166761998Y-94902111D01*
X166757820Y-94863253D01*
X166757820Y-94836745D01*
X166762000Y-94797873D01*
X166761999Y-94402128D01*
X166761999Y-94402127D01*
X166761998Y-94402111D01*
X166757820Y-94363253D01*
X166757820Y-94336745D01*
X166762000Y-94297873D01*
X166761999Y-93902128D01*
X166761999Y-93902127D01*
X166761998Y-93902111D01*
X166757820Y-93863253D01*
X166757820Y-93836747D01*
X166762000Y-93797873D01*
X166761999Y-93402128D01*
X166761998Y-93402111D01*
X166757820Y-93363253D01*
X166757820Y-93336747D01*
X166762000Y-93297873D01*
X166761999Y-92902128D01*
X166761998Y-92902111D01*
X166757820Y-92863253D01*
X166757820Y-92836747D01*
X166762000Y-92797873D01*
X166761999Y-92402128D01*
X166761999Y-92402127D01*
X166761998Y-92402111D01*
X166757820Y-92363253D01*
X166757820Y-92336747D01*
X166762000Y-92297873D01*
X166761999Y-91902128D01*
X166761999Y-91902127D01*
X166761998Y-91902111D01*
X166757820Y-91863253D01*
X166757820Y-91836747D01*
X166762000Y-91797873D01*
X166761999Y-91402128D01*
X166761998Y-91402111D01*
X166757820Y-91363253D01*
X166757820Y-91336747D01*
X166762000Y-91297873D01*
X166761999Y-91049094D01*
X166781683Y-90982057D01*
X166834487Y-90936302D01*
X166903646Y-90926358D01*
X166967201Y-90955383D01*
X166973680Y-90961415D01*
X170475717Y-94463452D01*
X170509202Y-94524775D01*
X170504218Y-94594467D01*
X170491143Y-94620017D01*
X170490610Y-94620814D01*
X170490602Y-94620828D01*
X170430264Y-94766498D01*
X170430261Y-94766510D01*
X170399500Y-94921153D01*
X170399500Y-95078846D01*
X170430261Y-95233489D01*
X170430264Y-95233501D01*
X170490602Y-95379172D01*
X170490609Y-95379185D01*
X170578210Y-95510288D01*
X170578213Y-95510292D01*
X170689707Y-95621786D01*
X170689711Y-95621789D01*
X170820814Y-95709390D01*
X170820827Y-95709397D01*
X170937812Y-95757853D01*
X170966503Y-95769737D01*
X171121153Y-95800499D01*
X171121156Y-95800500D01*
X171284934Y-95800500D01*
X171284934Y-95802664D01*
X171343980Y-95813857D01*
X171394696Y-95861917D01*
X171411500Y-95924247D01*
X171411500Y-96228148D01*
X171410853Y-96230350D01*
X171411421Y-96232575D01*
X171401058Y-96263708D01*
X171391815Y-96295187D01*
X171390080Y-96296690D01*
X171389355Y-96298869D01*
X171363804Y-96319459D01*
X171339011Y-96340942D01*
X171336181Y-96341718D01*
X171334951Y-96342710D01*
X171300757Y-96351437D01*
X171300753Y-96351438D01*
X171275255Y-96354179D01*
X171248748Y-96354179D01*
X171209874Y-96350000D01*
X170814130Y-96350000D01*
X170814119Y-96350001D01*
X170775253Y-96354179D01*
X170748748Y-96354179D01*
X170709874Y-96350000D01*
X170314130Y-96350000D01*
X170314119Y-96350001D01*
X170275253Y-96354179D01*
X170248748Y-96354179D01*
X170209874Y-96350000D01*
X169814130Y-96350000D01*
X169814119Y-96350001D01*
X169775253Y-96354179D01*
X169748748Y-96354179D01*
X169709874Y-96350000D01*
X169314130Y-96350000D01*
X169314119Y-96350001D01*
X169275253Y-96354179D01*
X169248748Y-96354179D01*
X169209874Y-96350000D01*
X168814130Y-96350000D01*
X168814119Y-96350001D01*
X168775253Y-96354179D01*
X168748748Y-96354179D01*
X168709874Y-96350000D01*
X168314130Y-96350000D01*
X168314119Y-96350001D01*
X168275253Y-96354179D01*
X168248748Y-96354179D01*
X168209874Y-96350000D01*
X167814130Y-96350000D01*
X167814119Y-96350001D01*
X167775253Y-96354179D01*
X167748748Y-96354179D01*
X167709874Y-96350000D01*
X167314129Y-96350000D01*
X167314123Y-96350001D01*
X167254516Y-96356408D01*
X167119671Y-96406702D01*
X167119664Y-96406706D01*
X167004455Y-96492952D01*
X167004452Y-96492955D01*
X166918206Y-96608164D01*
X166918202Y-96608171D01*
X166867908Y-96743017D01*
X166861501Y-96802616D01*
X166861501Y-96802623D01*
X166861500Y-96802635D01*
X166861500Y-98373370D01*
X166861501Y-98373377D01*
X166865438Y-98410000D01*
X166853031Y-98478760D01*
X166829829Y-98510934D01*
X163634842Y-101705921D01*
X163573519Y-101739406D01*
X163508848Y-101736173D01*
X163494534Y-101731522D01*
X163319995Y-101703878D01*
X163292352Y-101699500D01*
X163087648Y-101699500D01*
X163049599Y-101705526D01*
X162885468Y-101731522D01*
X162876717Y-101734365D01*
X162871154Y-101736173D01*
X162855941Y-101736607D01*
X162841684Y-101741925D01*
X162821729Y-101737584D01*
X162801313Y-101738167D01*
X162787226Y-101730078D01*
X162773411Y-101727073D01*
X162745157Y-101705922D01*
X162577590Y-101538355D01*
X162577588Y-101538352D01*
X162458717Y-101419481D01*
X162458716Y-101419480D01*
X162371904Y-101369360D01*
X162371904Y-101369359D01*
X162371900Y-101369358D01*
X162321785Y-101340423D01*
X162169057Y-101299499D01*
X162010943Y-101299499D01*
X162003347Y-101299499D01*
X162003331Y-101299500D01*
X159958519Y-101299500D01*
X159958503Y-101299499D01*
X159950907Y-101299499D01*
X159792792Y-101299499D01*
X159716428Y-101319961D01*
X159640063Y-101340423D01*
X159640058Y-101340426D01*
X159503139Y-101419475D01*
X159503131Y-101419481D01*
X158924217Y-101998395D01*
X158924214Y-101998397D01*
X158924215Y-101998398D01*
X158819479Y-102103134D01*
X158811127Y-102117601D01*
X158797951Y-102140423D01*
X158760795Y-102204779D01*
X158747671Y-102227511D01*
X158740423Y-102240064D01*
X158699499Y-102392792D01*
X158699499Y-102392794D01*
X158699499Y-102560895D01*
X158699500Y-102560908D01*
X158699500Y-103450903D01*
X158693261Y-103472148D01*
X158691682Y-103494237D01*
X158683609Y-103505020D01*
X158679815Y-103517942D01*
X158663081Y-103532441D01*
X158649810Y-103550170D01*
X158637189Y-103554877D01*
X158627011Y-103563697D01*
X158605093Y-103566848D01*
X158584346Y-103574587D01*
X158571185Y-103571724D01*
X158557853Y-103573641D01*
X158537709Y-103564441D01*
X158516073Y-103559735D01*
X158498347Y-103546466D01*
X158494297Y-103544616D01*
X158487819Y-103538584D01*
X158486818Y-103537583D01*
X158453333Y-103476260D01*
X158450499Y-103449902D01*
X158450499Y-102524998D01*
X158450498Y-102524981D01*
X158439999Y-102422203D01*
X158439998Y-102422200D01*
X158423431Y-102372204D01*
X158384814Y-102255666D01*
X158292712Y-102106344D01*
X158168656Y-101982288D01*
X158051931Y-101910292D01*
X158019336Y-101890187D01*
X158019331Y-101890185D01*
X158013157Y-101888139D01*
X157852797Y-101835001D01*
X157852795Y-101835000D01*
X157750010Y-101824500D01*
X156849998Y-101824500D01*
X156849980Y-101824501D01*
X156747203Y-101835000D01*
X156747200Y-101835001D01*
X156580668Y-101890185D01*
X156580663Y-101890187D01*
X156431342Y-101982289D01*
X156307289Y-102106342D01*
X156215187Y-102255663D01*
X156215185Y-102255668D01*
X156209085Y-102274077D01*
X156160001Y-102422203D01*
X156160001Y-102422204D01*
X156160000Y-102422204D01*
X156149500Y-102524983D01*
X156149500Y-103875001D01*
X156149501Y-103875018D01*
X156160000Y-103977796D01*
X156160001Y-103977799D01*
X156215185Y-104144331D01*
X156215187Y-104144336D01*
X156224453Y-104159358D01*
X156307288Y-104293656D01*
X156431344Y-104417712D01*
X156580666Y-104509814D01*
X156747203Y-104564999D01*
X156849991Y-104575500D01*
X157750008Y-104575499D01*
X157760576Y-104574419D01*
X157829268Y-104587187D01*
X157860861Y-104610096D01*
X159338181Y-106087416D01*
X159352884Y-106114343D01*
X159369477Y-106140162D01*
X159370368Y-106146362D01*
X159371666Y-106148739D01*
X159374500Y-106175097D01*
X159374500Y-106419258D01*
X159354815Y-106486297D01*
X159315597Y-106524796D01*
X159226653Y-106579657D01*
X159226649Y-106579660D01*
X159187326Y-106618983D01*
X159126003Y-106652468D01*
X159056311Y-106647482D01*
X159011965Y-106618982D01*
X158973038Y-106580055D01*
X158973034Y-106580052D01*
X158826311Y-106489551D01*
X158826300Y-106489546D01*
X158662652Y-106435319D01*
X158561654Y-106425000D01*
X158475000Y-106425000D01*
X158475000Y-108374999D01*
X158561640Y-108374999D01*
X158561654Y-108374998D01*
X158662652Y-108364680D01*
X158826300Y-108310453D01*
X158826311Y-108310448D01*
X158973034Y-108219947D01*
X158973037Y-108219945D01*
X159011964Y-108181018D01*
X159073287Y-108147532D01*
X159142978Y-108152516D01*
X159187327Y-108181017D01*
X159226650Y-108220340D01*
X159373484Y-108310908D01*
X159537247Y-108365174D01*
X159638323Y-108375500D01*
X160311676Y-108375499D01*
X160311684Y-108375498D01*
X160311687Y-108375498D01*
X160367030Y-108369844D01*
X160412753Y-108365174D01*
X160576516Y-108310908D01*
X160723350Y-108220340D01*
X160845340Y-108098350D01*
X160935908Y-107951516D01*
X160990174Y-107787753D01*
X161000500Y-107686677D01*
X161000499Y-107113324D01*
X160990174Y-107012247D01*
X160935908Y-106848484D01*
X160935906Y-106848481D01*
X160933636Y-106841630D01*
X160935821Y-106840905D01*
X160926995Y-106782791D01*
X160955516Y-106719008D01*
X161013993Y-106680769D01*
X161083861Y-106680216D01*
X161137550Y-106711785D01*
X161675681Y-107249916D01*
X161709166Y-107311239D01*
X161712000Y-107337597D01*
X161712000Y-108300001D01*
X161712001Y-108300019D01*
X161722500Y-108402796D01*
X161722501Y-108402799D01*
X161759748Y-108515201D01*
X161777686Y-108569334D01*
X161803018Y-108610404D01*
X161821458Y-108677796D01*
X161800535Y-108744459D01*
X161746893Y-108789229D01*
X161697479Y-108799500D01*
X154942940Y-108799500D01*
X154875901Y-108779815D01*
X154855259Y-108763181D01*
X153778732Y-107686654D01*
X157200001Y-107686654D01*
X157210319Y-107787652D01*
X157264546Y-107951300D01*
X157264551Y-107951311D01*
X157355052Y-108098034D01*
X157355055Y-108098038D01*
X157476961Y-108219944D01*
X157476965Y-108219947D01*
X157623688Y-108310448D01*
X157623699Y-108310453D01*
X157787347Y-108364680D01*
X157888351Y-108374999D01*
X157975000Y-108374998D01*
X157975000Y-107650000D01*
X157200001Y-107650000D01*
X157200001Y-107686654D01*
X153778732Y-107686654D01*
X153205423Y-107113345D01*
X157200000Y-107113345D01*
X157200000Y-107150000D01*
X157975000Y-107150000D01*
X157975000Y-106425000D01*
X157974999Y-106424999D01*
X157888360Y-106425000D01*
X157888343Y-106425001D01*
X157787347Y-106435319D01*
X157623699Y-106489546D01*
X157623688Y-106489551D01*
X157476965Y-106580052D01*
X157476961Y-106580055D01*
X157355055Y-106701961D01*
X157355052Y-106701965D01*
X157264551Y-106848688D01*
X157264546Y-106848699D01*
X157210319Y-107012347D01*
X157200000Y-107113345D01*
X153205423Y-107113345D01*
X151310947Y-105218869D01*
X151277462Y-105157546D01*
X151276155Y-105111795D01*
X151300500Y-104958092D01*
X151300500Y-104721908D01*
X151300500Y-104721902D01*
X151263553Y-104488631D01*
X151203371Y-104303412D01*
X151190568Y-104264008D01*
X151190566Y-104264005D01*
X151190566Y-104264003D01*
X151111321Y-104108477D01*
X151083343Y-104053567D01*
X150944517Y-103862490D01*
X150944508Y-103862481D01*
X150941353Y-103858786D01*
X150943022Y-103857360D01*
X150913910Y-103804045D01*
X150918894Y-103734353D01*
X150960766Y-103678420D01*
X150969980Y-103672148D01*
X151018343Y-103642317D01*
X151142315Y-103518345D01*
X151234356Y-103369124D01*
X151234358Y-103369119D01*
X151289505Y-103202697D01*
X151289506Y-103202690D01*
X151299999Y-103099986D01*
X151300000Y-103099973D01*
X151300000Y-102550000D01*
X150348482Y-102550000D01*
X150359111Y-102531591D01*
X150400000Y-102378991D01*
X150400000Y-102221009D01*
X150359111Y-102068409D01*
X150348482Y-102050000D01*
X151299999Y-102050000D01*
X151299999Y-101500028D01*
X151299998Y-101500013D01*
X151289505Y-101397302D01*
X151234358Y-101230880D01*
X151234356Y-101230875D01*
X151142315Y-101081654D01*
X151018345Y-100957684D01*
X150869124Y-100865643D01*
X150869119Y-100865641D01*
X150702697Y-100810494D01*
X150702690Y-100810493D01*
X150599986Y-100800000D01*
X150050000Y-100800000D01*
X150050000Y-101751517D01*
X150031591Y-101740889D01*
X149878991Y-101700000D01*
X149721009Y-101700000D01*
X149568409Y-101740889D01*
X149550000Y-101751517D01*
X149550000Y-100800000D01*
X149124500Y-100800000D01*
X149057461Y-100780315D01*
X149011706Y-100727511D01*
X149000500Y-100676000D01*
X149000500Y-99624986D01*
X156937501Y-99624986D01*
X156947994Y-99727697D01*
X157003141Y-99894119D01*
X157003143Y-99894124D01*
X157095184Y-100043345D01*
X157219154Y-100167315D01*
X157368375Y-100259356D01*
X157368380Y-100259358D01*
X157534802Y-100314505D01*
X157534809Y-100314506D01*
X157637519Y-100324999D01*
X157774999Y-100324999D01*
X157775000Y-100324998D01*
X157775000Y-99350000D01*
X156937501Y-99350000D01*
X156937501Y-99624986D01*
X149000500Y-99624986D01*
X149000500Y-99119034D01*
X149020185Y-99051995D01*
X149072989Y-99006240D01*
X149142147Y-98996296D01*
X149180792Y-99008548D01*
X149224008Y-99030568D01*
X149377441Y-99080421D01*
X149448631Y-99103553D01*
X149681903Y-99140500D01*
X149681908Y-99140500D01*
X149918097Y-99140500D01*
X150151368Y-99103553D01*
X150375992Y-99030568D01*
X150586433Y-98923343D01*
X150777510Y-98784517D01*
X150944517Y-98617510D01*
X150975393Y-98575013D01*
X156937500Y-98575013D01*
X156937500Y-98850000D01*
X157775000Y-98850000D01*
X157775000Y-97875000D01*
X157637527Y-97875000D01*
X157637512Y-97875001D01*
X157534802Y-97885494D01*
X157368380Y-97940641D01*
X157368375Y-97940643D01*
X157219154Y-98032684D01*
X157095184Y-98156654D01*
X157003143Y-98305875D01*
X157003141Y-98305880D01*
X156947994Y-98472302D01*
X156947993Y-98472309D01*
X156937500Y-98575013D01*
X150975393Y-98575013D01*
X151083343Y-98426433D01*
X151190568Y-98215992D01*
X151263553Y-97991368D01*
X151271659Y-97940187D01*
X151300500Y-97758097D01*
X151300500Y-97521902D01*
X151275868Y-97366390D01*
X151263553Y-97288632D01*
X151222547Y-97162433D01*
X151220553Y-97092593D01*
X151252796Y-97036437D01*
X152652417Y-95636819D01*
X152713740Y-95603334D01*
X152740098Y-95600500D01*
X157029911Y-95600500D01*
X157096950Y-95620185D01*
X157142705Y-95672989D01*
X157153269Y-95711898D01*
X157160001Y-95777797D01*
X157160001Y-95777799D01*
X157192541Y-95875996D01*
X157215186Y-95944334D01*
X157307288Y-96093656D01*
X157431344Y-96217712D01*
X157580666Y-96309814D01*
X157747203Y-96364999D01*
X157849991Y-96375500D01*
X158750008Y-96375499D01*
X158750016Y-96375498D01*
X158750019Y-96375498D01*
X158806302Y-96369748D01*
X158852797Y-96364999D01*
X159019334Y-96309814D01*
X159168656Y-96217712D01*
X159292712Y-96093656D01*
X159384814Y-95944334D01*
X159439999Y-95777797D01*
X159450500Y-95675009D01*
X159450499Y-94324992D01*
X159450243Y-94322490D01*
X159439999Y-94222203D01*
X159439998Y-94222200D01*
X159388407Y-94066510D01*
X159384814Y-94055666D01*
X159292712Y-93906344D01*
X159168656Y-93782288D01*
X159070566Y-93721786D01*
X159019336Y-93690187D01*
X159019331Y-93690185D01*
X158983202Y-93678213D01*
X158852797Y-93635001D01*
X158852795Y-93635000D01*
X158750010Y-93624500D01*
X157849998Y-93624500D01*
X157849980Y-93624501D01*
X157747203Y-93635000D01*
X157747200Y-93635001D01*
X157580668Y-93690185D01*
X157580663Y-93690187D01*
X157431342Y-93782289D01*
X157307289Y-93906342D01*
X157215187Y-94055663D01*
X157215185Y-94055668D01*
X157210657Y-94069334D01*
X157160348Y-94221158D01*
X157160001Y-94222204D01*
X157160000Y-94222205D01*
X157153268Y-94288103D01*
X157126871Y-94352795D01*
X157069690Y-94392946D01*
X157029910Y-94399500D01*
X152360942Y-94399500D01*
X152208214Y-94440423D01*
X152172535Y-94461023D01*
X152163044Y-94466503D01*
X152071284Y-94519480D01*
X152051284Y-94539480D01*
X152042838Y-94547925D01*
X152042835Y-94547928D01*
X151512180Y-95078583D01*
X151450857Y-95112068D01*
X151381165Y-95107084D01*
X151325232Y-95065212D01*
X151300815Y-94999748D01*
X151300499Y-94990902D01*
X151300499Y-94500097D01*
X151320184Y-94433058D01*
X151336813Y-94412421D01*
X157080428Y-88668805D01*
X157141749Y-88635322D01*
X157211441Y-88640306D01*
X157236998Y-88653386D01*
X157320814Y-88709390D01*
X157320827Y-88709397D01*
X157466498Y-88769735D01*
X157466503Y-88769737D01*
X157621153Y-88800499D01*
X157621156Y-88800500D01*
X157621158Y-88800500D01*
X157778844Y-88800500D01*
X157778845Y-88800499D01*
X157933497Y-88769737D01*
X158079179Y-88709394D01*
X158083974Y-88706190D01*
X158210875Y-88621398D01*
X158277553Y-88600520D01*
X158279766Y-88600500D01*
X160799903Y-88600500D01*
X160866942Y-88620185D01*
G37*
%TD.AperFunction*%
%TA.AperFunction,Conductor*%
G36*
X172814127Y-98826000D02*
G01*
X173209872Y-98825999D01*
X173209873Y-98825998D01*
X173209885Y-98825998D01*
X173248744Y-98821820D01*
X173275252Y-98821820D01*
X173314127Y-98826000D01*
X173550402Y-98825999D01*
X173617441Y-98845683D01*
X173663196Y-98898487D01*
X173673140Y-98967646D01*
X173644115Y-99031201D01*
X173638083Y-99037680D01*
X173156286Y-99519478D01*
X173044481Y-99631282D01*
X173044480Y-99631284D01*
X173004518Y-99700501D01*
X172965423Y-99768215D01*
X172924499Y-99920943D01*
X172924499Y-99920945D01*
X172924499Y-100089046D01*
X172924500Y-100089059D01*
X172924500Y-101736232D01*
X172904815Y-101803271D01*
X172865598Y-101841769D01*
X172787104Y-101890185D01*
X172718842Y-101932289D01*
X172594789Y-102056342D01*
X172574182Y-102089752D01*
X172505873Y-102200500D01*
X172502690Y-102205660D01*
X172502685Y-102205668D01*
X172486117Y-102255668D01*
X172447501Y-102372203D01*
X172447501Y-102372204D01*
X172447500Y-102372204D01*
X172437000Y-102474983D01*
X172437000Y-103525001D01*
X172437001Y-103525019D01*
X172447500Y-103627796D01*
X172447501Y-103627799D01*
X172488091Y-103750289D01*
X172502686Y-103794334D01*
X172594788Y-103943656D01*
X172718844Y-104067712D01*
X172868166Y-104159814D01*
X173034703Y-104214999D01*
X173137491Y-104225500D01*
X173912508Y-104225499D01*
X173912516Y-104225498D01*
X173912519Y-104225498D01*
X173968802Y-104219748D01*
X174015297Y-104214999D01*
X174181834Y-104159814D01*
X174331156Y-104067712D01*
X174455212Y-103943656D01*
X174457252Y-103940347D01*
X174459245Y-103938555D01*
X174459693Y-103937989D01*
X174459789Y-103938065D01*
X174509194Y-103893623D01*
X174578156Y-103882395D01*
X174642240Y-103910234D01*
X174668329Y-103940339D01*
X174670181Y-103943341D01*
X174670183Y-103943344D01*
X174794154Y-104067315D01*
X174943375Y-104159356D01*
X174943380Y-104159358D01*
X175109802Y-104214505D01*
X175109810Y-104214506D01*
X175161966Y-104219835D01*
X175226658Y-104246231D01*
X175266809Y-104303412D01*
X175269673Y-104373223D01*
X175237045Y-104430874D01*
X173204740Y-106463181D01*
X173177812Y-106477884D01*
X173151994Y-106494477D01*
X173145793Y-106495368D01*
X173143417Y-106496666D01*
X173117059Y-106499500D01*
X173016699Y-106499500D01*
X172949660Y-106479815D01*
X172903905Y-106427011D01*
X172896924Y-106407595D01*
X172894513Y-106398596D01*
X172859577Y-106268216D01*
X172825967Y-106210001D01*
X172780524Y-106131290D01*
X172780518Y-106131282D01*
X171108667Y-104459431D01*
X171075182Y-104398108D01*
X171080166Y-104328416D01*
X171122038Y-104272483D01*
X171158030Y-104253819D01*
X171309029Y-104204755D01*
X171491349Y-104111859D01*
X171535921Y-104079474D01*
X170856447Y-103400000D01*
X170862661Y-103400000D01*
X170964394Y-103372741D01*
X171055606Y-103320080D01*
X171130080Y-103245606D01*
X171182741Y-103154394D01*
X171210000Y-103052661D01*
X171210000Y-103046447D01*
X171889474Y-103725921D01*
X171921859Y-103681349D01*
X172014755Y-103499031D01*
X172077990Y-103304417D01*
X172110000Y-103102317D01*
X172110000Y-102897682D01*
X172077990Y-102695582D01*
X172014755Y-102500968D01*
X171921859Y-102318650D01*
X171889474Y-102274077D01*
X171889474Y-102274076D01*
X171210000Y-102953551D01*
X171210000Y-102947339D01*
X171182741Y-102845606D01*
X171130080Y-102754394D01*
X171055606Y-102679920D01*
X170964394Y-102627259D01*
X170862661Y-102600000D01*
X170856446Y-102600000D01*
X171535922Y-101920524D01*
X171535921Y-101920523D01*
X171491359Y-101888147D01*
X171491350Y-101888141D01*
X171309031Y-101795244D01*
X171114417Y-101732009D01*
X170912317Y-101700000D01*
X170707683Y-101700000D01*
X170505582Y-101732009D01*
X170310968Y-101795244D01*
X170128651Y-101888139D01*
X170097385Y-101910856D01*
X170031578Y-101934335D01*
X169963524Y-101918509D01*
X169914830Y-101868403D01*
X169900500Y-101810537D01*
X169900500Y-101443596D01*
X169920185Y-101376557D01*
X169936814Y-101355920D01*
X172380713Y-98912021D01*
X172380716Y-98912020D01*
X172430419Y-98862316D01*
X172430420Y-98862316D01*
X172445006Y-98854352D01*
X172491740Y-98828833D01*
X172491742Y-98828832D01*
X172491747Y-98828832D01*
X172518099Y-98825999D01*
X172709872Y-98825999D01*
X172709885Y-98825998D01*
X172748744Y-98821820D01*
X172775252Y-98821820D01*
X172814127Y-98826000D01*
G37*
%TD.AperFunction*%
%TA.AperFunction,Conductor*%
G36*
X190784099Y-67820185D02*
G01*
X190804741Y-67836819D01*
X196763181Y-73795259D01*
X196796666Y-73856582D01*
X196799500Y-73882940D01*
X196799500Y-102217060D01*
X196779815Y-102284099D01*
X196763181Y-102304741D01*
X195304741Y-103763181D01*
X195243418Y-103796666D01*
X195217060Y-103799500D01*
X188976934Y-103799500D01*
X188909895Y-103779815D01*
X188864140Y-103727011D01*
X188854196Y-103657853D01*
X188871396Y-103610403D01*
X188896853Y-103569130D01*
X188896858Y-103569119D01*
X188952005Y-103402697D01*
X188952006Y-103402690D01*
X188962499Y-103299986D01*
X188962500Y-103299973D01*
X188962500Y-102850000D01*
X187924000Y-102850000D01*
X187856961Y-102830315D01*
X187811206Y-102777511D01*
X187800000Y-102726000D01*
X187800000Y-102600000D01*
X187674000Y-102600000D01*
X187606961Y-102580315D01*
X187561206Y-102527511D01*
X187550000Y-102476000D01*
X187550000Y-102350000D01*
X188050000Y-102350000D01*
X188962499Y-102350000D01*
X188962499Y-101900028D01*
X188962498Y-101900013D01*
X188952005Y-101797302D01*
X188896858Y-101630880D01*
X188896856Y-101630875D01*
X188804815Y-101481654D01*
X188680845Y-101357684D01*
X188531624Y-101265643D01*
X188531619Y-101265641D01*
X188365197Y-101210494D01*
X188365190Y-101210493D01*
X188262486Y-101200000D01*
X188050000Y-101200000D01*
X188050000Y-102350000D01*
X187550000Y-102350000D01*
X187550000Y-101200000D01*
X187424500Y-101200000D01*
X187357461Y-101180315D01*
X187311706Y-101127511D01*
X187300500Y-101076000D01*
X187300500Y-100145908D01*
X187320185Y-100078869D01*
X187364271Y-100040363D01*
X187363187Y-100038605D01*
X187369332Y-100034814D01*
X187369334Y-100034814D01*
X187518656Y-99942712D01*
X187642712Y-99818656D01*
X187679259Y-99759402D01*
X187731207Y-99712679D01*
X187784798Y-99700500D01*
X188578844Y-99700500D01*
X188578845Y-99700499D01*
X188733497Y-99669737D01*
X188879179Y-99609394D01*
X189010289Y-99521789D01*
X189121789Y-99410289D01*
X189209394Y-99279179D01*
X189269737Y-99133497D01*
X189300500Y-98978842D01*
X189300500Y-98821158D01*
X189300500Y-98821155D01*
X189300499Y-98821153D01*
X189287796Y-98757290D01*
X189269737Y-98666503D01*
X189247334Y-98612416D01*
X189209397Y-98520827D01*
X189209390Y-98520814D01*
X189121789Y-98389711D01*
X189121786Y-98389707D01*
X189010292Y-98278213D01*
X189010288Y-98278210D01*
X188934548Y-98227602D01*
X188889743Y-98173990D01*
X188881036Y-98104665D01*
X188911190Y-98041637D01*
X188970634Y-98004918D01*
X189003439Y-98000500D01*
X191419903Y-98000500D01*
X191486942Y-98020185D01*
X191507584Y-98036819D01*
X193163181Y-99692416D01*
X193196666Y-99753739D01*
X193199500Y-99780097D01*
X193199500Y-101180001D01*
X193199501Y-101180018D01*
X193210000Y-101282796D01*
X193210001Y-101282799D01*
X193265185Y-101449331D01*
X193265187Y-101449336D01*
X193283389Y-101478846D01*
X193357288Y-101598656D01*
X193481344Y-101722712D01*
X193630666Y-101814814D01*
X193797203Y-101869999D01*
X193899991Y-101880500D01*
X195500008Y-101880499D01*
X195602797Y-101869999D01*
X195769334Y-101814814D01*
X195918656Y-101722712D01*
X196042712Y-101598656D01*
X196134814Y-101449334D01*
X196189999Y-101282797D01*
X196200500Y-101180009D01*
X196200499Y-99579992D01*
X196189999Y-99477203D01*
X196134814Y-99310666D01*
X196042712Y-99161344D01*
X195918656Y-99037288D01*
X195918655Y-99037287D01*
X195870342Y-99007487D01*
X195823618Y-98955539D01*
X195812397Y-98886576D01*
X195840241Y-98822494D01*
X195841381Y-98821249D01*
X195841348Y-98821221D01*
X195844511Y-98817516D01*
X195844511Y-98817515D01*
X195844517Y-98817510D01*
X195983343Y-98626433D01*
X196090568Y-98415992D01*
X196163553Y-98191368D01*
X196169051Y-98156654D01*
X196200500Y-97958097D01*
X196200500Y-97721902D01*
X196163553Y-97488631D01*
X196090566Y-97264003D01*
X196016144Y-97117943D01*
X195983343Y-97053567D01*
X195844517Y-96862490D01*
X195677510Y-96695483D01*
X195642872Y-96670317D01*
X195600207Y-96614989D01*
X195594228Y-96545375D01*
X195626833Y-96483580D01*
X195642873Y-96469682D01*
X195677510Y-96444517D01*
X195844517Y-96277510D01*
X195983343Y-96086433D01*
X196090568Y-95875992D01*
X196163553Y-95651368D01*
X196171610Y-95600500D01*
X196200500Y-95418097D01*
X196200500Y-95181902D01*
X196163553Y-94948631D01*
X196104378Y-94766510D01*
X196090568Y-94724008D01*
X196090566Y-94724005D01*
X196090566Y-94724003D01*
X196024564Y-94594467D01*
X195983343Y-94513567D01*
X195844517Y-94322490D01*
X195677510Y-94155483D01*
X195486433Y-94016657D01*
X195275996Y-93909433D01*
X195051368Y-93836446D01*
X194818097Y-93799500D01*
X194818092Y-93799500D01*
X194581908Y-93799500D01*
X194581903Y-93799500D01*
X194348631Y-93836446D01*
X194124003Y-93909433D01*
X193913566Y-94016657D01*
X193804550Y-94095862D01*
X193722490Y-94155483D01*
X193722488Y-94155485D01*
X193722487Y-94155485D01*
X193555485Y-94322487D01*
X193555485Y-94322488D01*
X193555483Y-94322490D01*
X193525869Y-94363250D01*
X193416657Y-94513566D01*
X193309433Y-94724003D01*
X193236446Y-94948631D01*
X193199500Y-95181902D01*
X193199500Y-95418097D01*
X193236447Y-95651369D01*
X193236447Y-95651372D01*
X193264329Y-95737182D01*
X193266324Y-95807023D01*
X193230244Y-95866856D01*
X193167543Y-95897684D01*
X193146398Y-95899500D01*
X187501489Y-95899500D01*
X187434450Y-95879815D01*
X187388695Y-95827011D01*
X187378751Y-95757853D01*
X187407776Y-95694297D01*
X187462482Y-95657794D01*
X187531834Y-95634814D01*
X187681156Y-95542712D01*
X187805212Y-95418656D01*
X187897314Y-95269334D01*
X187925095Y-95185495D01*
X187964868Y-95128051D01*
X188029384Y-95101228D01*
X188042801Y-95100500D01*
X188578844Y-95100500D01*
X188578845Y-95100499D01*
X188733497Y-95069737D01*
X188879179Y-95009394D01*
X189010289Y-94921789D01*
X189121789Y-94810289D01*
X189209394Y-94679179D01*
X189269737Y-94533497D01*
X189300500Y-94378842D01*
X189300500Y-94221158D01*
X189300500Y-94221155D01*
X189300499Y-94221153D01*
X189269738Y-94066510D01*
X189269737Y-94066503D01*
X189225899Y-93960667D01*
X189209397Y-93920827D01*
X189209390Y-93920814D01*
X189121789Y-93789711D01*
X189121786Y-93789707D01*
X189010292Y-93678213D01*
X189010288Y-93678210D01*
X188879185Y-93590609D01*
X188879172Y-93590602D01*
X188733501Y-93530264D01*
X188733489Y-93530261D01*
X188578845Y-93499500D01*
X188578842Y-93499500D01*
X188042801Y-93499500D01*
X187975762Y-93479815D01*
X187930007Y-93427011D01*
X187925095Y-93414504D01*
X187920994Y-93402128D01*
X187897314Y-93330666D01*
X187805212Y-93181344D01*
X187681156Y-93057288D01*
X187659400Y-93043868D01*
X187612677Y-92991918D01*
X187600500Y-92938331D01*
X187600500Y-90724500D01*
X187620185Y-90657461D01*
X187672989Y-90611706D01*
X187724500Y-90600500D01*
X188478844Y-90600500D01*
X188478845Y-90600499D01*
X188633497Y-90569737D01*
X188751592Y-90520821D01*
X188779172Y-90509397D01*
X188779172Y-90509396D01*
X188779179Y-90509394D01*
X188910289Y-90421789D01*
X191721789Y-87610289D01*
X191809394Y-87479179D01*
X191869738Y-87333497D01*
X191900500Y-87178842D01*
X191900500Y-87021157D01*
X191900500Y-80321158D01*
X191892150Y-80279179D01*
X191892150Y-80279175D01*
X191869739Y-80166510D01*
X191869738Y-80166503D01*
X191809394Y-80020821D01*
X191809392Y-80020818D01*
X191809390Y-80020814D01*
X191721789Y-79889711D01*
X191721786Y-79889707D01*
X191110292Y-79278213D01*
X191110288Y-79278210D01*
X190979185Y-79190609D01*
X190979172Y-79190602D01*
X190833501Y-79130264D01*
X190833489Y-79130261D01*
X190678845Y-79099500D01*
X190678842Y-79099500D01*
X189478843Y-79099500D01*
X189321158Y-79099500D01*
X189321155Y-79099500D01*
X189166510Y-79130261D01*
X189166498Y-79130264D01*
X189020827Y-79190602D01*
X189020814Y-79190609D01*
X188889711Y-79278210D01*
X188889707Y-79278213D01*
X188278215Y-79889707D01*
X188089711Y-80078211D01*
X188033960Y-80133962D01*
X187978209Y-80189712D01*
X187890609Y-80320814D01*
X187890602Y-80320827D01*
X187830264Y-80466498D01*
X187830261Y-80466510D01*
X187799500Y-80621153D01*
X187799500Y-85317060D01*
X187779815Y-85384099D01*
X187763181Y-85404741D01*
X187454241Y-85713681D01*
X187392918Y-85747166D01*
X187366560Y-85750000D01*
X185137501Y-85750000D01*
X185137501Y-86075500D01*
X185117816Y-86142539D01*
X185065012Y-86188294D01*
X185013501Y-86199500D01*
X184462000Y-86199500D01*
X184394961Y-86179815D01*
X184349206Y-86127011D01*
X184338000Y-86075500D01*
X184337999Y-84800013D01*
X185137500Y-84800013D01*
X185137500Y-85250000D01*
X186050000Y-85250000D01*
X186550000Y-85250000D01*
X187462499Y-85250000D01*
X187462499Y-84800028D01*
X187462498Y-84800013D01*
X187452005Y-84697302D01*
X187396858Y-84530880D01*
X187396856Y-84530875D01*
X187304815Y-84381654D01*
X187180845Y-84257684D01*
X187031624Y-84165643D01*
X187031619Y-84165641D01*
X186865197Y-84110494D01*
X186865190Y-84110493D01*
X186762486Y-84100000D01*
X186550000Y-84100000D01*
X186550000Y-85250000D01*
X186050000Y-85250000D01*
X186050000Y-84100000D01*
X185837529Y-84100000D01*
X185837512Y-84100001D01*
X185734802Y-84110494D01*
X185568380Y-84165641D01*
X185568375Y-84165643D01*
X185419154Y-84257684D01*
X185295184Y-84381654D01*
X185203143Y-84530875D01*
X185203141Y-84530880D01*
X185147994Y-84697302D01*
X185147993Y-84697309D01*
X185137500Y-84800013D01*
X184337999Y-84800013D01*
X184337999Y-84799998D01*
X184337998Y-84799981D01*
X184327499Y-84697203D01*
X184327498Y-84697200D01*
X184303246Y-84624012D01*
X184272314Y-84530666D01*
X184180212Y-84381344D01*
X184056156Y-84257288D01*
X183906834Y-84165186D01*
X183740297Y-84110001D01*
X183740295Y-84110000D01*
X183637510Y-84099500D01*
X182712498Y-84099500D01*
X182712480Y-84099501D01*
X182609703Y-84110000D01*
X182609700Y-84110001D01*
X182443168Y-84165185D01*
X182443163Y-84165187D01*
X182293842Y-84257289D01*
X182169789Y-84381342D01*
X182077687Y-84530663D01*
X182077685Y-84530668D01*
X182022501Y-84697204D01*
X182022500Y-84697205D01*
X182013214Y-84788103D01*
X181986817Y-84852795D01*
X181929636Y-84892946D01*
X181889856Y-84899500D01*
X181300098Y-84899500D01*
X181233059Y-84879815D01*
X181212417Y-84863181D01*
X179836319Y-83487083D01*
X179802834Y-83425760D01*
X179800000Y-83399402D01*
X179800000Y-82284167D01*
X179800427Y-82276188D01*
X179800322Y-82276183D01*
X179800497Y-82272898D01*
X179800500Y-82272873D01*
X179800499Y-81827128D01*
X179800498Y-81827126D01*
X179800321Y-81823806D01*
X179800426Y-81823800D01*
X179800000Y-81815837D01*
X179800000Y-81634167D01*
X179800427Y-81626188D01*
X179800322Y-81626183D01*
X179800500Y-81622866D01*
X179800500Y-81313964D01*
X179800499Y-81313667D01*
X179800499Y-81177128D01*
X179800022Y-81172697D01*
X179800001Y-81166255D01*
X179800019Y-81166192D01*
X179800000Y-81165836D01*
X179800000Y-80700000D01*
X179452169Y-80700000D01*
X179443683Y-80700912D01*
X179382985Y-80692182D01*
X179233501Y-80630264D01*
X179233489Y-80630261D01*
X179078845Y-80599500D01*
X179078842Y-80599500D01*
X177878843Y-80599500D01*
X177721158Y-80599500D01*
X177721153Y-80599500D01*
X177566510Y-80630260D01*
X177566502Y-80630262D01*
X177420824Y-80690604D01*
X177420814Y-80690609D01*
X177289711Y-80778210D01*
X177289707Y-80778213D01*
X176504741Y-81563181D01*
X176443418Y-81596666D01*
X176417060Y-81599500D01*
X176042801Y-81599500D01*
X175975762Y-81579815D01*
X175930007Y-81527011D01*
X175925095Y-81514504D01*
X175902124Y-81445183D01*
X175897314Y-81430666D01*
X175805212Y-81281344D01*
X175681156Y-81157288D01*
X175531834Y-81065186D01*
X175365297Y-81010001D01*
X175365295Y-81010000D01*
X175262516Y-80999500D01*
X175262509Y-80999500D01*
X174582940Y-80999500D01*
X174515901Y-80979815D01*
X174495259Y-80963181D01*
X173619258Y-80087180D01*
X173585773Y-80025857D01*
X173590757Y-79956165D01*
X173632629Y-79900232D01*
X173698093Y-79875815D01*
X173706912Y-79875499D01*
X174550008Y-79875499D01*
X174550016Y-79875498D01*
X174550019Y-79875498D01*
X174606302Y-79869748D01*
X174652797Y-79864999D01*
X174819334Y-79809814D01*
X174968656Y-79717712D01*
X175092712Y-79593656D01*
X175184814Y-79444334D01*
X175228170Y-79313495D01*
X175267943Y-79256051D01*
X175332459Y-79229228D01*
X175345876Y-79228500D01*
X178135331Y-79228500D01*
X178135347Y-79228501D01*
X178142943Y-79228501D01*
X178301054Y-79228501D01*
X178301057Y-79228501D01*
X178453785Y-79187577D01*
X178503904Y-79158639D01*
X178590716Y-79108520D01*
X178702520Y-78996716D01*
X178702520Y-78996714D01*
X178712728Y-78986507D01*
X178712730Y-78986503D01*
X178762417Y-78936817D01*
X178823740Y-78903333D01*
X178850097Y-78900499D01*
X179525002Y-78900499D01*
X179525008Y-78900499D01*
X179627797Y-78889999D01*
X179794334Y-78834814D01*
X179943656Y-78742712D01*
X180067712Y-78618656D01*
X180159814Y-78469334D01*
X180214999Y-78302797D01*
X180225500Y-78200009D01*
X180225499Y-77199992D01*
X180224497Y-77190187D01*
X180214999Y-77097203D01*
X180214998Y-77097200D01*
X180185330Y-77007669D01*
X180159814Y-76930666D01*
X180067712Y-76781344D01*
X179943656Y-76657288D01*
X179815451Y-76578211D01*
X179794336Y-76565187D01*
X179794331Y-76565185D01*
X179792862Y-76564698D01*
X179627797Y-76510001D01*
X179627795Y-76510000D01*
X179525010Y-76499500D01*
X178774998Y-76499500D01*
X178774980Y-76499501D01*
X178672203Y-76510000D01*
X178672200Y-76510001D01*
X178505668Y-76565185D01*
X178505663Y-76565187D01*
X178356342Y-76657289D01*
X178232288Y-76781343D01*
X178232283Y-76781349D01*
X178230241Y-76784661D01*
X178228247Y-76786453D01*
X178227807Y-76787011D01*
X178227711Y-76786935D01*
X178178291Y-76831383D01*
X178109328Y-76842602D01*
X178045247Y-76814755D01*
X178019168Y-76784656D01*
X178017319Y-76781659D01*
X178017316Y-76781655D01*
X177893345Y-76657684D01*
X177744124Y-76565643D01*
X177744119Y-76565641D01*
X177577697Y-76510494D01*
X177577690Y-76510493D01*
X177474986Y-76500000D01*
X177350000Y-76500000D01*
X177350000Y-77576000D01*
X177330315Y-77643039D01*
X177277511Y-77688794D01*
X177226000Y-77700000D01*
X177100000Y-77700000D01*
X177100000Y-77826000D01*
X177080315Y-77893039D01*
X177027511Y-77938794D01*
X176976000Y-77950000D01*
X176025001Y-77950000D01*
X176005671Y-77969329D01*
X176005316Y-77970539D01*
X175998918Y-77976082D01*
X175988682Y-77986319D01*
X175987949Y-77985586D01*
X175952512Y-78016294D01*
X175901001Y-78027500D01*
X175374499Y-78027500D01*
X175307460Y-78007815D01*
X175261705Y-77955011D01*
X175250499Y-77903500D01*
X175250499Y-77824998D01*
X175250498Y-77824981D01*
X175239999Y-77722203D01*
X175239998Y-77722200D01*
X175228928Y-77688794D01*
X175184814Y-77555666D01*
X175092712Y-77406344D01*
X174968656Y-77282288D01*
X174835266Y-77200013D01*
X176025000Y-77200013D01*
X176025000Y-77450000D01*
X176850000Y-77450000D01*
X176850000Y-76500000D01*
X176725027Y-76500000D01*
X176725012Y-76500001D01*
X176622302Y-76510494D01*
X176455880Y-76565641D01*
X176455875Y-76565643D01*
X176306654Y-76657684D01*
X176182684Y-76781654D01*
X176090643Y-76930875D01*
X176090641Y-76930880D01*
X176035494Y-77097302D01*
X176035493Y-77097309D01*
X176025000Y-77200013D01*
X174835266Y-77200013D01*
X174819334Y-77190186D01*
X174652797Y-77135001D01*
X174652795Y-77135000D01*
X174550010Y-77124500D01*
X173649998Y-77124500D01*
X173649980Y-77124501D01*
X173547203Y-77135000D01*
X173547200Y-77135001D01*
X173380668Y-77190185D01*
X173380663Y-77190187D01*
X173231342Y-77282289D01*
X173107289Y-77406342D01*
X173015187Y-77555663D01*
X173015186Y-77555666D01*
X172960001Y-77722203D01*
X172960001Y-77722204D01*
X172960000Y-77722204D01*
X172949500Y-77824983D01*
X172949500Y-79118060D01*
X172929815Y-79185099D01*
X172877011Y-79230854D01*
X172807853Y-79240798D01*
X172744297Y-79211773D01*
X172737819Y-79205741D01*
X172186818Y-78654740D01*
X172153333Y-78593417D01*
X172150499Y-78567059D01*
X172150499Y-77824998D01*
X172150498Y-77824981D01*
X172139999Y-77722203D01*
X172139998Y-77722200D01*
X172128928Y-77688794D01*
X172084814Y-77555666D01*
X171992712Y-77406344D01*
X171868656Y-77282288D01*
X171719334Y-77190186D01*
X171552797Y-77135001D01*
X171552795Y-77135000D01*
X171450010Y-77124500D01*
X170549998Y-77124500D01*
X170549980Y-77124501D01*
X170447203Y-77135000D01*
X170447200Y-77135001D01*
X170280668Y-77190185D01*
X170280663Y-77190187D01*
X170131342Y-77282289D01*
X170007289Y-77406342D01*
X169915187Y-77555663D01*
X169915186Y-77555666D01*
X169860001Y-77722203D01*
X169860001Y-77722204D01*
X169860000Y-77722204D01*
X169849500Y-77824983D01*
X169849500Y-79175001D01*
X169849501Y-79175018D01*
X169860000Y-79277796D01*
X169860001Y-79277799D01*
X169915185Y-79444331D01*
X169915187Y-79444336D01*
X169918989Y-79450500D01*
X170007288Y-79593656D01*
X170131344Y-79717712D01*
X170280666Y-79809814D01*
X170447203Y-79864999D01*
X170549991Y-79875500D01*
X171092059Y-79875499D01*
X171159098Y-79895183D01*
X171179740Y-79911818D01*
X172056241Y-80788319D01*
X172089726Y-80849642D01*
X172084742Y-80919334D01*
X172042870Y-80975267D01*
X171977406Y-80999684D01*
X171968560Y-81000000D01*
X171925000Y-81000000D01*
X171925000Y-82150000D01*
X172837499Y-82150000D01*
X172837499Y-81868939D01*
X172857184Y-81801900D01*
X172909988Y-81756145D01*
X172979146Y-81746201D01*
X173042702Y-81775226D01*
X173049180Y-81781258D01*
X173600681Y-82332759D01*
X173634166Y-82394082D01*
X173637000Y-82420440D01*
X173637000Y-83100001D01*
X173637001Y-83100019D01*
X173647500Y-83202796D01*
X173647501Y-83202799D01*
X173702685Y-83369331D01*
X173702687Y-83369336D01*
X173719663Y-83396858D01*
X173794788Y-83518656D01*
X173918844Y-83642712D01*
X174068166Y-83734814D01*
X174234703Y-83789999D01*
X174337491Y-83800500D01*
X175262508Y-83800499D01*
X175262516Y-83800498D01*
X175262519Y-83800498D01*
X175318802Y-83794748D01*
X175365297Y-83789999D01*
X175531834Y-83734814D01*
X175681156Y-83642712D01*
X175805212Y-83518656D01*
X175897314Y-83369334D01*
X175925095Y-83285495D01*
X175964868Y-83228051D01*
X176029384Y-83201228D01*
X176042801Y-83200500D01*
X176417060Y-83200500D01*
X176484099Y-83220185D01*
X176504741Y-83236819D01*
X180555741Y-87287819D01*
X180589226Y-87349142D01*
X180584242Y-87418834D01*
X180542370Y-87474767D01*
X180476906Y-87499184D01*
X180468060Y-87499500D01*
X177984229Y-87499500D01*
X177940896Y-87491682D01*
X177844982Y-87455908D01*
X177844983Y-87455908D01*
X177785383Y-87449501D01*
X177785381Y-87449500D01*
X177785373Y-87449500D01*
X177785364Y-87449500D01*
X176214629Y-87449500D01*
X176214623Y-87449501D01*
X176155016Y-87455908D01*
X176020171Y-87506202D01*
X176020164Y-87506206D01*
X175904955Y-87592452D01*
X175904952Y-87592455D01*
X175818706Y-87707664D01*
X175818702Y-87707671D01*
X175775314Y-87824003D01*
X175768409Y-87842517D01*
X175762000Y-87902127D01*
X175762000Y-87902134D01*
X175762000Y-87902135D01*
X175762000Y-87902136D01*
X175762001Y-88275500D01*
X175742317Y-88342539D01*
X175689513Y-88388294D01*
X175638001Y-88399500D01*
X175186669Y-88399500D01*
X175186653Y-88399499D01*
X175179057Y-88399499D01*
X175020943Y-88399499D01*
X174906397Y-88430192D01*
X174868214Y-88440423D01*
X174852494Y-88449500D01*
X174852491Y-88449501D01*
X174731290Y-88519475D01*
X174731282Y-88519481D01*
X174285339Y-88965425D01*
X174224016Y-88998910D01*
X174221850Y-88999361D01*
X174066508Y-89030261D01*
X174066498Y-89030264D01*
X173920827Y-89090602D01*
X173920814Y-89090609D01*
X173789711Y-89178210D01*
X173789707Y-89178213D01*
X173678213Y-89289707D01*
X173678210Y-89289711D01*
X173590609Y-89420814D01*
X173590602Y-89420827D01*
X173530264Y-89566498D01*
X173530261Y-89566510D01*
X173499500Y-89721153D01*
X173499500Y-89878846D01*
X173530261Y-90033489D01*
X173530264Y-90033501D01*
X173587642Y-90172025D01*
X173595111Y-90241494D01*
X173563835Y-90303973D01*
X173560763Y-90307158D01*
X173478210Y-90389711D01*
X173390609Y-90520814D01*
X173390602Y-90520827D01*
X173330264Y-90666498D01*
X173330261Y-90666510D01*
X173299500Y-90821153D01*
X173299500Y-90978846D01*
X173330261Y-91133489D01*
X173330264Y-91133501D01*
X173390602Y-91279172D01*
X173390609Y-91279185D01*
X173478210Y-91410288D01*
X173478213Y-91410292D01*
X173589707Y-91521786D01*
X173589711Y-91521789D01*
X173720814Y-91609390D01*
X173720827Y-91609397D01*
X173866498Y-91669735D01*
X173866503Y-91669737D01*
X174013672Y-91699011D01*
X174021153Y-91700499D01*
X174021156Y-91700500D01*
X174021158Y-91700500D01*
X174178844Y-91700500D01*
X174178845Y-91700499D01*
X174333497Y-91669737D01*
X174454829Y-91619480D01*
X174479172Y-91609397D01*
X174479172Y-91609396D01*
X174479179Y-91609394D01*
X174610289Y-91521789D01*
X174721789Y-91410289D01*
X174809394Y-91279179D01*
X174869737Y-91133497D01*
X174896040Y-91001264D01*
X174900638Y-90978150D01*
X174933023Y-90916239D01*
X174934516Y-90914718D01*
X175551389Y-90297845D01*
X175612711Y-90264362D01*
X175682403Y-90269346D01*
X175738336Y-90311218D01*
X175762753Y-90376682D01*
X175762360Y-90398772D01*
X175762000Y-90402118D01*
X175762000Y-90797869D01*
X175762001Y-90797878D01*
X175766179Y-90836745D01*
X175766179Y-90863250D01*
X175762000Y-90902122D01*
X175762000Y-91297869D01*
X175762001Y-91297880D01*
X175764789Y-91323822D01*
X175764791Y-91323827D01*
X175768409Y-91357483D01*
X175818704Y-91492331D01*
X175835026Y-91514134D01*
X175843676Y-91525690D01*
X175868092Y-91591155D01*
X175853240Y-91659428D01*
X175843676Y-91674310D01*
X175824213Y-91700310D01*
X175776390Y-91736109D01*
X175762500Y-91750000D01*
X175762500Y-91797832D01*
X175766431Y-91834399D01*
X175766431Y-91860905D01*
X175762000Y-91902122D01*
X175762000Y-92239333D01*
X175742315Y-92306372D01*
X175689511Y-92352127D01*
X175620353Y-92362071D01*
X175590549Y-92353894D01*
X175533497Y-92330263D01*
X175533489Y-92330261D01*
X175378845Y-92299500D01*
X175378842Y-92299500D01*
X175221158Y-92299500D01*
X175221155Y-92299500D01*
X175066510Y-92330261D01*
X175066498Y-92330264D01*
X174920827Y-92390602D01*
X174920814Y-92390609D01*
X174789711Y-92478210D01*
X174789707Y-92478213D01*
X174678213Y-92589707D01*
X174678210Y-92589711D01*
X174590609Y-92720814D01*
X174590602Y-92720827D01*
X174530264Y-92866498D01*
X174530261Y-92866510D01*
X174499500Y-93021153D01*
X174499500Y-93178846D01*
X174530261Y-93333489D01*
X174530264Y-93333501D01*
X174590602Y-93479172D01*
X174590609Y-93479185D01*
X174678210Y-93610288D01*
X174678213Y-93610292D01*
X174789707Y-93721786D01*
X174789711Y-93721789D01*
X174920814Y-93809390D01*
X174920827Y-93809397D01*
X175066498Y-93869735D01*
X175066503Y-93869737D01*
X175221153Y-93900499D01*
X175221156Y-93900500D01*
X175221158Y-93900500D01*
X175378844Y-93900500D01*
X175378845Y-93900499D01*
X175533497Y-93869737D01*
X175590547Y-93846105D01*
X175660017Y-93838637D01*
X175722496Y-93869912D01*
X175758148Y-93930001D01*
X175762000Y-93960667D01*
X175762000Y-94297868D01*
X175762001Y-94297878D01*
X175766179Y-94336745D01*
X175766179Y-94363250D01*
X175762000Y-94402122D01*
X175762000Y-94797869D01*
X175762001Y-94797878D01*
X175766179Y-94836745D01*
X175766179Y-94863250D01*
X175762000Y-94902122D01*
X175762000Y-95297869D01*
X175762001Y-95297878D01*
X175766179Y-95336745D01*
X175766179Y-95363250D01*
X175762000Y-95402122D01*
X175762000Y-95797870D01*
X175762001Y-95797876D01*
X175768408Y-95857483D01*
X175818702Y-95992328D01*
X175818706Y-95992335D01*
X175904952Y-96107544D01*
X175904955Y-96107547D01*
X176020164Y-96193793D01*
X176020171Y-96193797D01*
X176065118Y-96210561D01*
X176155017Y-96244091D01*
X176214627Y-96250500D01*
X176275500Y-96250499D01*
X176284184Y-96253049D01*
X176293147Y-96251761D01*
X176317186Y-96262739D01*
X176342538Y-96270183D01*
X176348466Y-96277024D01*
X176356703Y-96280786D01*
X176370989Y-96303016D01*
X176388294Y-96322986D01*
X176390581Y-96333502D01*
X176394477Y-96339564D01*
X176399500Y-96374499D01*
X176399500Y-96413330D01*
X176399499Y-96413348D01*
X176399499Y-96579054D01*
X176399498Y-96579054D01*
X176399499Y-96579057D01*
X176440423Y-96731785D01*
X176446907Y-96743016D01*
X176460521Y-96766594D01*
X176460522Y-96766598D01*
X176460523Y-96766598D01*
X176515885Y-96862490D01*
X176519479Y-96868714D01*
X176519481Y-96868717D01*
X176638349Y-96987585D01*
X176638355Y-96987590D01*
X177753443Y-98102679D01*
X177786928Y-98164002D01*
X177781944Y-98233694D01*
X177740072Y-98289627D01*
X177674608Y-98314044D01*
X177641571Y-98311977D01*
X177578845Y-98299500D01*
X177578842Y-98299500D01*
X177421158Y-98299500D01*
X177421155Y-98299500D01*
X177266510Y-98330261D01*
X177266498Y-98330264D01*
X177120827Y-98390602D01*
X177120814Y-98390609D01*
X176989711Y-98478210D01*
X176989707Y-98478213D01*
X176878213Y-98589707D01*
X176878210Y-98589711D01*
X176790609Y-98720814D01*
X176790602Y-98720827D01*
X176730264Y-98866498D01*
X176730261Y-98866510D01*
X176699500Y-99021153D01*
X176699500Y-99178846D01*
X176730261Y-99333489D01*
X176730264Y-99333501D01*
X176790602Y-99479172D01*
X176790609Y-99479185D01*
X176878210Y-99610288D01*
X176878213Y-99610292D01*
X176989707Y-99721786D01*
X176989711Y-99721789D01*
X177120814Y-99809390D01*
X177120827Y-99809397D01*
X177266498Y-99869735D01*
X177266503Y-99869737D01*
X177389079Y-99894119D01*
X177421153Y-99900499D01*
X177421156Y-99900500D01*
X177421158Y-99900500D01*
X177578844Y-99900500D01*
X177578845Y-99900499D01*
X177733497Y-99869737D01*
X177879179Y-99809394D01*
X177953996Y-99759403D01*
X178010875Y-99721398D01*
X178028921Y-99715747D01*
X178044831Y-99705523D01*
X178075792Y-99701071D01*
X178077553Y-99700520D01*
X178079766Y-99700500D01*
X178315202Y-99700500D01*
X178382241Y-99720185D01*
X178420739Y-99759401D01*
X178457288Y-99818656D01*
X178581344Y-99942712D01*
X178730666Y-100034814D01*
X178897203Y-100089999D01*
X178999991Y-100100500D01*
X179775500Y-100100499D01*
X179842539Y-100120183D01*
X179888294Y-100172987D01*
X179899500Y-100224499D01*
X179899500Y-100605831D01*
X179879815Y-100672870D01*
X179827011Y-100718625D01*
X179757853Y-100728569D01*
X179706610Y-100708934D01*
X179679183Y-100690608D01*
X179679172Y-100690602D01*
X179533501Y-100630264D01*
X179533489Y-100630261D01*
X179378845Y-100599500D01*
X179378842Y-100599500D01*
X179221158Y-100599500D01*
X179221155Y-100599500D01*
X179066510Y-100630261D01*
X179066498Y-100630264D01*
X178920827Y-100690602D01*
X178920814Y-100690609D01*
X178789711Y-100778210D01*
X178789707Y-100778213D01*
X178678213Y-100889707D01*
X178678210Y-100889711D01*
X178590609Y-101020814D01*
X178590602Y-101020827D01*
X178530264Y-101166498D01*
X178530261Y-101166510D01*
X178499500Y-101321153D01*
X178499500Y-101478846D01*
X178530261Y-101633489D01*
X178530264Y-101633501D01*
X178590602Y-101779172D01*
X178590609Y-101779185D01*
X178678210Y-101910288D01*
X178678213Y-101910292D01*
X178789707Y-102021786D01*
X178789711Y-102021789D01*
X178920814Y-102109390D01*
X178920827Y-102109397D01*
X179045262Y-102160939D01*
X179099666Y-102204779D01*
X179121731Y-102271074D01*
X179104452Y-102338773D01*
X179053315Y-102386384D01*
X178997810Y-102399500D01*
X177521155Y-102399500D01*
X177366510Y-102430261D01*
X177366498Y-102430264D01*
X177220827Y-102490602D01*
X177220814Y-102490609D01*
X177089711Y-102578210D01*
X177089707Y-102578213D01*
X176899180Y-102768741D01*
X176837857Y-102802226D01*
X176768165Y-102797242D01*
X176712232Y-102755370D01*
X176687815Y-102689906D01*
X176687499Y-102681060D01*
X176687499Y-102475028D01*
X176687498Y-102475013D01*
X176677005Y-102372302D01*
X176621858Y-102205880D01*
X176621856Y-102205875D01*
X176529815Y-102056654D01*
X176405845Y-101932684D01*
X176256624Y-101840643D01*
X176256619Y-101840641D01*
X176090197Y-101785494D01*
X176090190Y-101785493D01*
X175987486Y-101775000D01*
X175850000Y-101775000D01*
X175850000Y-102876000D01*
X175830315Y-102943039D01*
X175777511Y-102988794D01*
X175726000Y-103000000D01*
X175474000Y-103000000D01*
X175406961Y-102980315D01*
X175361206Y-102927511D01*
X175350000Y-102876000D01*
X175350000Y-101775000D01*
X175212527Y-101775000D01*
X175212512Y-101775001D01*
X175109802Y-101785494D01*
X174943380Y-101840641D01*
X174943375Y-101840643D01*
X174794154Y-101932684D01*
X174670183Y-102056655D01*
X174670179Y-102056660D01*
X174668326Y-102059665D01*
X174666518Y-102061290D01*
X174665702Y-102062323D01*
X174665525Y-102062183D01*
X174616374Y-102106385D01*
X174547411Y-102117601D01*
X174483331Y-102089752D01*
X174457253Y-102059653D01*
X174457237Y-102059628D01*
X174455212Y-102056344D01*
X174331156Y-101932288D01*
X174184402Y-101841770D01*
X174137679Y-101789823D01*
X174125500Y-101736232D01*
X174125500Y-100300096D01*
X174145185Y-100233057D01*
X174161814Y-100212419D01*
X175339595Y-99034638D01*
X175365277Y-99014933D01*
X175380716Y-99006020D01*
X175492520Y-98894216D01*
X175571577Y-98757284D01*
X175612500Y-98604557D01*
X175612500Y-98572228D01*
X175620318Y-98528894D01*
X175623332Y-98520814D01*
X175656091Y-98432983D01*
X175662500Y-98373373D01*
X175662499Y-96802628D01*
X175656091Y-96743017D01*
X175605796Y-96608169D01*
X175605795Y-96608168D01*
X175605793Y-96608164D01*
X175519547Y-96492955D01*
X175519544Y-96492952D01*
X175404335Y-96406706D01*
X175404328Y-96406702D01*
X175269483Y-96356408D01*
X175223243Y-96351437D01*
X175158693Y-96324699D01*
X175118845Y-96267306D01*
X175112500Y-96228148D01*
X175112500Y-95201059D01*
X175112501Y-95201046D01*
X175112501Y-95032945D01*
X175112501Y-95032943D01*
X175071577Y-94880215D01*
X175031186Y-94810256D01*
X174992520Y-94743284D01*
X174880716Y-94631480D01*
X174880715Y-94631479D01*
X174876385Y-94627149D01*
X174876374Y-94627139D01*
X171331489Y-91082254D01*
X171298004Y-91020931D01*
X171302988Y-90951239D01*
X171334634Y-90903855D01*
X171344952Y-90894239D01*
X171368716Y-90880520D01*
X171480520Y-90768716D01*
X171480521Y-90768713D01*
X174862916Y-87386318D01*
X174924239Y-87352833D01*
X174950597Y-87349999D01*
X175209871Y-87349999D01*
X175209872Y-87349999D01*
X175269483Y-87343591D01*
X175404331Y-87293296D01*
X175519546Y-87207046D01*
X175605796Y-87091831D01*
X175656091Y-86956983D01*
X175662500Y-86897373D01*
X175662499Y-85326628D01*
X175656091Y-85267017D01*
X175633461Y-85206344D01*
X175605797Y-85132171D01*
X175605793Y-85132164D01*
X175519547Y-85016955D01*
X175519544Y-85016952D01*
X175404335Y-84930706D01*
X175404328Y-84930702D01*
X175269486Y-84880410D01*
X175269485Y-84880409D01*
X175269483Y-84880409D01*
X175209873Y-84874000D01*
X175209863Y-84874000D01*
X174814130Y-84874000D01*
X174814119Y-84874001D01*
X174775253Y-84878179D01*
X174748748Y-84878179D01*
X174709874Y-84874000D01*
X174314130Y-84874000D01*
X174314119Y-84874001D01*
X174275253Y-84878179D01*
X174248748Y-84878179D01*
X174209875Y-84874000D01*
X174209873Y-84874000D01*
X173974599Y-84874000D01*
X173945165Y-84865357D01*
X173915182Y-84858838D01*
X173910159Y-84855078D01*
X173907560Y-84854315D01*
X173886926Y-84837690D01*
X173880716Y-84831480D01*
X173880713Y-84831478D01*
X173876381Y-84827146D01*
X173876380Y-84827144D01*
X173876374Y-84827139D01*
X172706327Y-83657092D01*
X172672842Y-83595769D01*
X172677826Y-83526077D01*
X172688470Y-83504313D01*
X172771855Y-83369126D01*
X172771858Y-83369119D01*
X172827005Y-83202697D01*
X172827006Y-83202690D01*
X172837499Y-83099986D01*
X172837500Y-83099973D01*
X172837500Y-82650000D01*
X170512501Y-82650000D01*
X170512501Y-83087500D01*
X170492816Y-83154539D01*
X170440012Y-83200294D01*
X170388501Y-83211500D01*
X169912098Y-83211500D01*
X169845059Y-83191815D01*
X169824417Y-83175181D01*
X169487590Y-82838355D01*
X169487588Y-82838352D01*
X169368717Y-82719481D01*
X169368716Y-82719480D01*
X169280928Y-82668796D01*
X169280927Y-82668795D01*
X169231790Y-82640425D01*
X169231789Y-82640424D01*
X169219263Y-82637067D01*
X169079057Y-82599499D01*
X168920943Y-82599499D01*
X168913347Y-82599499D01*
X168913331Y-82599500D01*
X164551940Y-82599500D01*
X164484901Y-82579815D01*
X164439146Y-82527011D01*
X164429202Y-82457853D01*
X164458227Y-82394297D01*
X164464259Y-82387819D01*
X164802341Y-82049737D01*
X165152065Y-81700013D01*
X170512500Y-81700013D01*
X170512500Y-82150000D01*
X171425000Y-82150000D01*
X171425000Y-81000000D01*
X171212529Y-81000000D01*
X171212512Y-81000001D01*
X171109802Y-81010494D01*
X170943380Y-81065641D01*
X170943375Y-81065643D01*
X170794154Y-81157684D01*
X170670184Y-81281654D01*
X170578143Y-81430875D01*
X170578141Y-81430880D01*
X170522994Y-81597302D01*
X170522993Y-81597309D01*
X170512500Y-81700013D01*
X165152065Y-81700013D01*
X167372235Y-79479841D01*
X167433556Y-79446358D01*
X167479311Y-79445051D01*
X167513713Y-79450500D01*
X167513714Y-79450500D01*
X167726286Y-79450500D01*
X167726287Y-79450500D01*
X167936243Y-79417246D01*
X168138412Y-79351557D01*
X168327816Y-79255051D01*
X168387071Y-79212000D01*
X168499786Y-79130109D01*
X168499788Y-79130106D01*
X168499792Y-79130104D01*
X168650104Y-78979792D01*
X168650106Y-78979788D01*
X168650109Y-78979786D01*
X168775048Y-78807820D01*
X168775050Y-78807817D01*
X168775051Y-78807816D01*
X168871557Y-78618412D01*
X168937246Y-78416243D01*
X168970500Y-78206287D01*
X168970500Y-77993713D01*
X168965051Y-77959312D01*
X168974005Y-77890020D01*
X168999840Y-77852236D01*
X174981788Y-71870290D01*
X175014842Y-71820821D01*
X175069394Y-71739179D01*
X175129737Y-71593497D01*
X175131362Y-71585331D01*
X175160500Y-71438843D01*
X175160500Y-71281158D01*
X175160500Y-71136302D01*
X175161948Y-71131368D01*
X175160901Y-71126333D01*
X175171693Y-71098180D01*
X175180185Y-71069263D01*
X175184568Y-71064597D01*
X175185912Y-71061093D01*
X175209630Y-71037921D01*
X175211094Y-71036364D01*
X175211170Y-71036307D01*
X175337510Y-70944517D01*
X175341305Y-70940721D01*
X175348907Y-70935138D01*
X175373188Y-70926332D01*
X175395848Y-70913933D01*
X175405497Y-70914614D01*
X175414590Y-70911317D01*
X175439776Y-70917035D01*
X175465544Y-70918856D01*
X175473292Y-70924646D01*
X175482726Y-70926788D01*
X175500823Y-70945217D01*
X175521514Y-70960678D01*
X175527852Y-70969980D01*
X175557682Y-71018343D01*
X175681654Y-71142315D01*
X175830875Y-71234356D01*
X175830880Y-71234358D01*
X175997302Y-71289505D01*
X175997309Y-71289506D01*
X176100019Y-71299999D01*
X176649999Y-71299999D01*
X176650000Y-71299998D01*
X176650000Y-70348482D01*
X176668409Y-70359111D01*
X176821009Y-70400000D01*
X176978991Y-70400000D01*
X177131591Y-70359111D01*
X177150000Y-70348482D01*
X177150000Y-71299999D01*
X177699972Y-71299999D01*
X177699986Y-71299998D01*
X177802697Y-71289505D01*
X177969119Y-71234358D01*
X177969124Y-71234356D01*
X178118345Y-71142315D01*
X178242315Y-71018345D01*
X178334356Y-70869124D01*
X178334358Y-70869119D01*
X178389505Y-70702697D01*
X178389506Y-70702690D01*
X178399999Y-70599986D01*
X178400000Y-70599973D01*
X178400000Y-70050000D01*
X177448482Y-70050000D01*
X177459111Y-70031591D01*
X177500000Y-69878991D01*
X177500000Y-69721009D01*
X177459111Y-69568409D01*
X177448482Y-69550000D01*
X178399999Y-69550000D01*
X178399999Y-69000028D01*
X178399998Y-69000010D01*
X178393572Y-68937101D01*
X178406342Y-68868408D01*
X178454223Y-68817524D01*
X178516930Y-68800500D01*
X179117060Y-68800500D01*
X179184099Y-68820185D01*
X179204741Y-68836819D01*
X187480240Y-77112318D01*
X187513725Y-77173641D01*
X187508741Y-77243333D01*
X187480240Y-77287680D01*
X185592239Y-79175681D01*
X185530916Y-79209166D01*
X185504558Y-79212000D01*
X185074998Y-79212000D01*
X185074980Y-79212001D01*
X184972203Y-79222500D01*
X184972200Y-79222501D01*
X184805668Y-79277685D01*
X184805663Y-79277687D01*
X184656342Y-79369789D01*
X184532289Y-79493842D01*
X184440187Y-79643163D01*
X184440185Y-79643168D01*
X184415484Y-79717712D01*
X184385001Y-79809703D01*
X184385001Y-79809704D01*
X184385000Y-79809704D01*
X184374500Y-79912483D01*
X184374500Y-80342058D01*
X184365856Y-80371494D01*
X184359333Y-80401484D01*
X184355577Y-80406501D01*
X184354815Y-80409097D01*
X184338182Y-80429739D01*
X184239711Y-80528211D01*
X184204739Y-80563182D01*
X184166397Y-80584119D01*
X184143420Y-80596666D01*
X184117060Y-80599500D01*
X181021155Y-80599500D01*
X180866510Y-80630261D01*
X180866498Y-80630264D01*
X180717015Y-80692182D01*
X180656316Y-80700911D01*
X180647847Y-80700001D01*
X180647827Y-80700000D01*
X180300000Y-80700000D01*
X180300000Y-81165826D01*
X180299572Y-81173798D01*
X180299678Y-81173804D01*
X180299500Y-81177128D01*
X180299500Y-81622862D01*
X180299679Y-81626179D01*
X180299572Y-81626184D01*
X180300000Y-81634156D01*
X180300000Y-81815826D01*
X180299572Y-81823797D01*
X180299678Y-81823803D01*
X180299500Y-81827126D01*
X180299500Y-81827127D01*
X180299501Y-82272872D01*
X180299986Y-82277384D01*
X180300000Y-82283892D01*
X180299988Y-82283933D01*
X180300000Y-82284156D01*
X180300000Y-82465826D01*
X180299572Y-82473798D01*
X180299678Y-82473804D01*
X180299500Y-82477128D01*
X180299500Y-82922862D01*
X180299679Y-82926179D01*
X180299572Y-82926184D01*
X180300000Y-82934156D01*
X180300000Y-83400000D01*
X180647818Y-83400000D01*
X180647822Y-83399999D01*
X180656299Y-83399088D01*
X180717013Y-83407816D01*
X180720818Y-83409392D01*
X180720821Y-83409394D01*
X180866503Y-83469737D01*
X181021153Y-83500499D01*
X181021156Y-83500500D01*
X181021158Y-83500500D01*
X183278844Y-83500500D01*
X183278845Y-83500499D01*
X183433497Y-83469737D01*
X183579179Y-83409394D01*
X183710289Y-83321789D01*
X184188932Y-82843145D01*
X184250253Y-82809662D01*
X184319944Y-82814646D01*
X184375878Y-82856517D01*
X184394317Y-82891823D01*
X184440642Y-83031621D01*
X184440643Y-83031624D01*
X184532684Y-83180845D01*
X184656654Y-83304815D01*
X184805875Y-83396856D01*
X184805880Y-83396858D01*
X184972302Y-83452005D01*
X184972309Y-83452006D01*
X185075019Y-83462499D01*
X185349999Y-83462499D01*
X185850000Y-83462499D01*
X186124972Y-83462499D01*
X186124986Y-83462498D01*
X186227697Y-83452005D01*
X186394119Y-83396858D01*
X186394124Y-83396856D01*
X186543345Y-83304815D01*
X186667315Y-83180845D01*
X186759356Y-83031624D01*
X186759358Y-83031619D01*
X186814505Y-82865197D01*
X186814506Y-82865190D01*
X186824999Y-82762486D01*
X186825000Y-82762473D01*
X186825000Y-82625000D01*
X185850000Y-82625000D01*
X185850000Y-83462499D01*
X185349999Y-83462499D01*
X185350000Y-83462498D01*
X185350000Y-82499000D01*
X185369685Y-82431961D01*
X185422489Y-82386206D01*
X185474000Y-82375000D01*
X185600000Y-82375000D01*
X185600000Y-82249000D01*
X185619685Y-82181961D01*
X185672489Y-82136206D01*
X185724000Y-82125000D01*
X186824999Y-82125000D01*
X186824999Y-81987528D01*
X186824998Y-81987513D01*
X186814505Y-81884802D01*
X186759358Y-81718380D01*
X186759356Y-81718375D01*
X186667315Y-81569154D01*
X186543344Y-81445183D01*
X186543341Y-81445181D01*
X186540339Y-81443329D01*
X186538713Y-81441521D01*
X186537677Y-81440702D01*
X186537817Y-81440524D01*
X186493617Y-81391380D01*
X186482397Y-81322417D01*
X186510243Y-81258336D01*
X186540344Y-81232254D01*
X186543656Y-81230212D01*
X186667712Y-81106156D01*
X186759814Y-80956834D01*
X186814999Y-80790297D01*
X186825500Y-80687509D01*
X186825499Y-80257938D01*
X186845183Y-80190900D01*
X186861813Y-80170263D01*
X188995259Y-78036819D01*
X189056582Y-78003334D01*
X189082940Y-78000500D01*
X193017060Y-78000500D01*
X193084099Y-78020185D01*
X193104741Y-78036819D01*
X193763181Y-78695258D01*
X193796666Y-78756581D01*
X193799500Y-78782939D01*
X193799500Y-84523695D01*
X193779815Y-84590734D01*
X193748386Y-84624012D01*
X193622496Y-84715478D01*
X193622487Y-84715485D01*
X193455485Y-84882487D01*
X193455485Y-84882488D01*
X193455483Y-84882490D01*
X193413786Y-84939881D01*
X193316657Y-85073566D01*
X193209433Y-85284003D01*
X193136446Y-85508631D01*
X193099500Y-85741902D01*
X193099500Y-85978097D01*
X193136446Y-86211368D01*
X193209433Y-86435996D01*
X193289699Y-86593525D01*
X193316657Y-86646433D01*
X193455483Y-86837510D01*
X193622490Y-87004517D01*
X193657127Y-87029683D01*
X193699792Y-87085013D01*
X193705771Y-87154626D01*
X193673165Y-87216421D01*
X193657130Y-87230315D01*
X193648623Y-87236496D01*
X193622488Y-87255484D01*
X193622487Y-87255485D01*
X193538158Y-87339815D01*
X193455483Y-87422490D01*
X193386300Y-87517712D01*
X193316657Y-87613566D01*
X193209433Y-87824003D01*
X193136446Y-88048631D01*
X193099500Y-88281902D01*
X193099500Y-88518097D01*
X193136446Y-88751368D01*
X193209433Y-88975996D01*
X193284073Y-89122483D01*
X193316657Y-89186433D01*
X193455483Y-89377510D01*
X193455489Y-89377516D01*
X193458647Y-89381214D01*
X193456977Y-89382640D01*
X193486089Y-89435954D01*
X193481105Y-89505646D01*
X193439233Y-89561579D01*
X193430022Y-89567850D01*
X193381654Y-89597684D01*
X193257684Y-89721654D01*
X193165643Y-89870875D01*
X193165641Y-89870880D01*
X193110494Y-90037302D01*
X193110493Y-90037309D01*
X193100000Y-90140013D01*
X193100000Y-90690000D01*
X194051518Y-90690000D01*
X194040889Y-90708409D01*
X194000000Y-90861009D01*
X194000000Y-91018991D01*
X194040889Y-91171591D01*
X194051518Y-91190000D01*
X193100001Y-91190000D01*
X193100001Y-91739986D01*
X193110494Y-91842697D01*
X193165641Y-92009119D01*
X193165643Y-92009124D01*
X193257684Y-92158345D01*
X193381654Y-92282315D01*
X193530875Y-92374356D01*
X193530880Y-92374358D01*
X193697302Y-92429505D01*
X193697309Y-92429506D01*
X193800019Y-92439999D01*
X194349999Y-92439999D01*
X194350000Y-92439998D01*
X194350000Y-91488482D01*
X194368409Y-91499111D01*
X194521009Y-91540000D01*
X194678991Y-91540000D01*
X194831591Y-91499111D01*
X194850000Y-91488482D01*
X194850000Y-92439999D01*
X195399972Y-92439999D01*
X195399986Y-92439998D01*
X195502697Y-92429505D01*
X195669119Y-92374358D01*
X195669124Y-92374356D01*
X195818345Y-92282315D01*
X195942315Y-92158345D01*
X196034356Y-92009124D01*
X196034358Y-92009119D01*
X196089505Y-91842697D01*
X196089506Y-91842690D01*
X196099999Y-91739986D01*
X196100000Y-91739973D01*
X196100000Y-91190000D01*
X195148482Y-91190000D01*
X195159111Y-91171591D01*
X195200000Y-91018991D01*
X195200000Y-90861009D01*
X195159111Y-90708409D01*
X195148482Y-90690000D01*
X196099999Y-90690000D01*
X196099999Y-90140028D01*
X196099998Y-90140013D01*
X196089505Y-90037302D01*
X196034358Y-89870880D01*
X196034356Y-89870875D01*
X195942315Y-89721654D01*
X195818343Y-89597682D01*
X195769980Y-89567852D01*
X195723255Y-89515904D01*
X195712032Y-89446942D01*
X195739876Y-89382859D01*
X195741362Y-89381233D01*
X195741348Y-89381221D01*
X195744511Y-89377516D01*
X195744517Y-89377510D01*
X195883343Y-89186433D01*
X195990568Y-88975992D01*
X196063553Y-88751368D01*
X196070605Y-88706844D01*
X196100500Y-88518097D01*
X196100500Y-88281902D01*
X196063553Y-88048631D01*
X195996582Y-87842517D01*
X195990568Y-87824008D01*
X195990566Y-87824005D01*
X195990566Y-87824003D01*
X195892619Y-87631772D01*
X195883343Y-87613567D01*
X195744517Y-87422490D01*
X195577510Y-87255483D01*
X195542872Y-87230317D01*
X195500207Y-87174989D01*
X195494228Y-87105375D01*
X195526833Y-87043580D01*
X195542873Y-87029682D01*
X195577510Y-87004517D01*
X195744517Y-86837510D01*
X195883343Y-86646433D01*
X195990568Y-86435992D01*
X196063553Y-86211368D01*
X196067208Y-86188294D01*
X196100500Y-85978097D01*
X196100500Y-85741902D01*
X196063553Y-85508631D01*
X196017996Y-85368422D01*
X195990568Y-85284008D01*
X195990566Y-85284005D01*
X195990566Y-85284003D01*
X195913202Y-85132169D01*
X195883343Y-85073567D01*
X195744517Y-84882490D01*
X195577510Y-84715483D01*
X195552496Y-84697309D01*
X195451614Y-84624012D01*
X195408948Y-84568682D01*
X195400500Y-84523695D01*
X195400500Y-78321156D01*
X195388192Y-78259285D01*
X195388192Y-78259284D01*
X195369737Y-78166503D01*
X195350815Y-78120821D01*
X195342191Y-78100000D01*
X195309397Y-78020827D01*
X195309390Y-78020814D01*
X195221789Y-77889711D01*
X195221786Y-77889707D01*
X195105970Y-77773891D01*
X195105947Y-77773870D01*
X193910292Y-76578213D01*
X193910288Y-76578210D01*
X193779185Y-76490609D01*
X193779172Y-76490602D01*
X193633501Y-76430264D01*
X193633489Y-76430261D01*
X193478845Y-76399500D01*
X193478842Y-76399500D01*
X189082940Y-76399500D01*
X189015901Y-76379815D01*
X188995259Y-76363181D01*
X180644259Y-68012181D01*
X180610774Y-67950858D01*
X180615758Y-67881166D01*
X180657630Y-67825233D01*
X180723094Y-67800816D01*
X180731940Y-67800500D01*
X190717060Y-67800500D01*
X190784099Y-67820185D01*
G37*
%TD.AperFunction*%
%TA.AperFunction,Conductor*%
G36*
X183136365Y-88720185D02*
G01*
X183182120Y-88772989D01*
X183192064Y-88842147D01*
X183174865Y-88889597D01*
X183103143Y-89005875D01*
X183103141Y-89005880D01*
X183047994Y-89172302D01*
X183047993Y-89172309D01*
X183037500Y-89275013D01*
X183037500Y-89550000D01*
X184001000Y-89550000D01*
X184068039Y-89569685D01*
X184113794Y-89622489D01*
X184125000Y-89674000D01*
X184125000Y-89800000D01*
X184251000Y-89800000D01*
X184318039Y-89819685D01*
X184363794Y-89872489D01*
X184375000Y-89924000D01*
X184375000Y-91024999D01*
X184512472Y-91024999D01*
X184512486Y-91024998D01*
X184615197Y-91014505D01*
X184781619Y-90959358D01*
X184781624Y-90959356D01*
X184930845Y-90867315D01*
X185054818Y-90743342D01*
X185056665Y-90740348D01*
X185058469Y-90738724D01*
X185059298Y-90737677D01*
X185059476Y-90737818D01*
X185108610Y-90693621D01*
X185177573Y-90682396D01*
X185241656Y-90710236D01*
X185267743Y-90740341D01*
X185269788Y-90743656D01*
X185393844Y-90867712D01*
X185543166Y-90959814D01*
X185709703Y-91014999D01*
X185812491Y-91025500D01*
X185875500Y-91025499D01*
X185942538Y-91045183D01*
X185988294Y-91097986D01*
X185999500Y-91149499D01*
X185999500Y-92938331D01*
X185979815Y-93005370D01*
X185940600Y-93043868D01*
X185918843Y-93057288D01*
X185794789Y-93181342D01*
X185702687Y-93330663D01*
X185702685Y-93330668D01*
X185700674Y-93336738D01*
X185647501Y-93497203D01*
X185647501Y-93497204D01*
X185647500Y-93497204D01*
X185637000Y-93599983D01*
X185637000Y-94679559D01*
X185617315Y-94746598D01*
X185600681Y-94767240D01*
X185404741Y-94963181D01*
X185343418Y-94996666D01*
X185317060Y-94999500D01*
X184961500Y-94999500D01*
X184894461Y-94979815D01*
X184848706Y-94927011D01*
X184837500Y-94875500D01*
X184837500Y-94550000D01*
X183799000Y-94550000D01*
X183731961Y-94530315D01*
X183686206Y-94477511D01*
X183675000Y-94426000D01*
X183675000Y-94300000D01*
X183549000Y-94300000D01*
X183481961Y-94280315D01*
X183436206Y-94227511D01*
X183425000Y-94176000D01*
X183425000Y-94050000D01*
X183925000Y-94050000D01*
X184837499Y-94050000D01*
X184837499Y-93600028D01*
X184837498Y-93600013D01*
X184827005Y-93497302D01*
X184771858Y-93330880D01*
X184771856Y-93330875D01*
X184679815Y-93181654D01*
X184555845Y-93057684D01*
X184406624Y-92965643D01*
X184406619Y-92965641D01*
X184240197Y-92910494D01*
X184240190Y-92910493D01*
X184137486Y-92900000D01*
X183925000Y-92900000D01*
X183925000Y-94050000D01*
X183425000Y-94050000D01*
X183425000Y-92900000D01*
X183212529Y-92900000D01*
X183212512Y-92900001D01*
X183109802Y-92910494D01*
X182943380Y-92965641D01*
X182943371Y-92965645D01*
X182889595Y-92998815D01*
X182822203Y-93017255D01*
X182755539Y-92996332D01*
X182710770Y-92942690D01*
X182700499Y-92893276D01*
X182700499Y-92799998D01*
X182700498Y-92799981D01*
X182689999Y-92697203D01*
X182689998Y-92697200D01*
X182634814Y-92530666D01*
X182542712Y-92381344D01*
X182418656Y-92257288D01*
X182269334Y-92165186D01*
X182102797Y-92110001D01*
X182102795Y-92110000D01*
X182000016Y-92099500D01*
X182000009Y-92099500D01*
X181300097Y-92099500D01*
X181233058Y-92079815D01*
X181212416Y-92063181D01*
X180887590Y-91738355D01*
X180887588Y-91738352D01*
X180768717Y-91619481D01*
X180768716Y-91619480D01*
X180681904Y-91569360D01*
X180681904Y-91569359D01*
X180681900Y-91569358D01*
X180631785Y-91540423D01*
X180479057Y-91499499D01*
X180320943Y-91499499D01*
X180313347Y-91499499D01*
X180313331Y-91499500D01*
X178924096Y-91499500D01*
X178857057Y-91479815D01*
X178811302Y-91427011D01*
X178801358Y-91357853D01*
X178830383Y-91294297D01*
X178836415Y-91287819D01*
X179312416Y-90811818D01*
X179373739Y-90778333D01*
X179400097Y-90775499D01*
X179774170Y-90775499D01*
X179774176Y-90775499D01*
X179875253Y-90765174D01*
X180039016Y-90710908D01*
X180185850Y-90620340D01*
X180300175Y-90506014D01*
X180361494Y-90472532D01*
X180431186Y-90477516D01*
X180475534Y-90506017D01*
X180589461Y-90619944D01*
X180589465Y-90619947D01*
X180736188Y-90710448D01*
X180736199Y-90710453D01*
X180899847Y-90764680D01*
X181000851Y-90774999D01*
X181550000Y-90774999D01*
X181599140Y-90774999D01*
X181599154Y-90774998D01*
X181700152Y-90764680D01*
X181863800Y-90710453D01*
X181863811Y-90710448D01*
X182010534Y-90619947D01*
X182010538Y-90619944D01*
X182132444Y-90498038D01*
X182132447Y-90498034D01*
X182222948Y-90351311D01*
X182222953Y-90351300D01*
X182231673Y-90324986D01*
X183037501Y-90324986D01*
X183047994Y-90427697D01*
X183103141Y-90594119D01*
X183103143Y-90594124D01*
X183195184Y-90743345D01*
X183319154Y-90867315D01*
X183468375Y-90959356D01*
X183468380Y-90959358D01*
X183634802Y-91014505D01*
X183634809Y-91014506D01*
X183737519Y-91024999D01*
X183874999Y-91024999D01*
X183875000Y-91024998D01*
X183875000Y-90050000D01*
X183037501Y-90050000D01*
X183037501Y-90324986D01*
X182231673Y-90324986D01*
X182277180Y-90187652D01*
X182287499Y-90086654D01*
X182287500Y-90086641D01*
X182287500Y-90050000D01*
X181550000Y-90050000D01*
X181550000Y-90774999D01*
X181000851Y-90774999D01*
X181049999Y-90774998D01*
X181050000Y-90774998D01*
X181050000Y-89924000D01*
X181069685Y-89856961D01*
X181122489Y-89811206D01*
X181174000Y-89800000D01*
X181300000Y-89800000D01*
X181300000Y-89674000D01*
X181319685Y-89606961D01*
X181372489Y-89561206D01*
X181424000Y-89550000D01*
X182287499Y-89550000D01*
X182287499Y-89513360D01*
X182287498Y-89513345D01*
X182277180Y-89412347D01*
X182222953Y-89248699D01*
X182222948Y-89248688D01*
X182132447Y-89101965D01*
X182132444Y-89101961D01*
X182010538Y-88980055D01*
X182010534Y-88980052D01*
X181929449Y-88930038D01*
X181882724Y-88878090D01*
X181871503Y-88809128D01*
X181899346Y-88745046D01*
X181957415Y-88706190D01*
X181994546Y-88700500D01*
X183069326Y-88700500D01*
X183136365Y-88720185D01*
G37*
%TD.AperFunction*%
%TA.AperFunction,Conductor*%
G36*
X155517941Y-83020185D02*
G01*
X155563696Y-83072989D01*
X155573640Y-83142147D01*
X155544615Y-83205703D01*
X155538583Y-83212181D01*
X151427584Y-87323181D01*
X151400656Y-87337884D01*
X151374838Y-87354477D01*
X151368637Y-87355368D01*
X151366261Y-87356666D01*
X151339903Y-87359500D01*
X151254068Y-87359500D01*
X151187029Y-87339815D01*
X151143583Y-87291795D01*
X151142580Y-87289826D01*
X151083343Y-87173567D01*
X150944517Y-86982490D01*
X150944508Y-86982481D01*
X150941353Y-86978786D01*
X150943022Y-86977360D01*
X150913910Y-86924045D01*
X150918894Y-86854353D01*
X150960766Y-86798420D01*
X150969980Y-86792148D01*
X151018343Y-86762317D01*
X151142315Y-86638345D01*
X151234356Y-86489124D01*
X151234358Y-86489119D01*
X151289505Y-86322697D01*
X151289506Y-86322690D01*
X151299999Y-86219986D01*
X151300000Y-86219973D01*
X151300000Y-85670000D01*
X150348482Y-85670000D01*
X150359111Y-85651591D01*
X150400000Y-85498991D01*
X150400000Y-85341009D01*
X150359111Y-85188409D01*
X150348482Y-85170000D01*
X151299999Y-85170000D01*
X151299999Y-84620028D01*
X151299998Y-84620013D01*
X151289505Y-84517302D01*
X151234358Y-84350880D01*
X151234356Y-84350875D01*
X151142315Y-84201654D01*
X151018345Y-84077684D01*
X150869124Y-83985643D01*
X150869119Y-83985641D01*
X150702697Y-83930494D01*
X150702690Y-83930493D01*
X150599986Y-83920000D01*
X150265674Y-83920000D01*
X150198635Y-83900315D01*
X150152880Y-83847511D01*
X150142936Y-83778353D01*
X150171961Y-83714797D01*
X150177979Y-83708333D01*
X150849494Y-83036819D01*
X150910817Y-83003334D01*
X150937175Y-83000500D01*
X155450902Y-83000500D01*
X155517941Y-83020185D01*
G37*
%TD.AperFunction*%
%TA.AperFunction,Conductor*%
G36*
X153977281Y-76920185D02*
G01*
X154023036Y-76972989D01*
X154032980Y-77042147D01*
X154003955Y-77105703D01*
X153997923Y-77112181D01*
X153889894Y-77220209D01*
X153889890Y-77220213D01*
X153764949Y-77392182D01*
X153760202Y-77401499D01*
X153712227Y-77452293D01*
X153644405Y-77469087D01*
X153578271Y-77446548D01*
X153539234Y-77401495D01*
X153534626Y-77392452D01*
X153495270Y-77338282D01*
X153495269Y-77338282D01*
X152862962Y-77970590D01*
X152845925Y-77907007D01*
X152780099Y-77792993D01*
X152687007Y-77699901D01*
X152572993Y-77634075D01*
X152509408Y-77617037D01*
X153159814Y-76966630D01*
X153159979Y-76965848D01*
X153209032Y-76916093D01*
X153269231Y-76900500D01*
X153910242Y-76900500D01*
X153977281Y-76920185D01*
G37*
%TD.AperFunction*%
%TD*%
M02*
