%TF.GenerationSoftware,KiCad,Pcbnew,9.0.2*%
%TF.CreationDate,2026-04-21T03:23:11-04:00*%
%TF.ProjectId,TurbineMCU,54757262-696e-4654-9d43-552e6b696361,rev?*%
%TF.SameCoordinates,Original*%
%TF.FileFunction,Copper,L4,Bot*%
%TF.FilePolarity,Positive*%
%FSLAX46Y46*%
G04 Gerber Fmt 4.6, Leading zero omitted, Abs format (unit mm)*
G04 Created by KiCad (PCBNEW 9.0.2) date 2026-04-21 03:23:11*
%MOMM*%
%LPD*%
G01*
G04 APERTURE LIST*
G04 Aperture macros list*
%AMRoundRect*
0 Rectangle with rounded corners*
0 $1 Rounding radius*
0 $2 $3 $4 $5 $6 $7 $8 $9 X,Y pos of 4 corners*
0 Add a 4 corners polygon primitive as box body*
4,1,4,$2,$3,$4,$5,$6,$7,$8,$9,$2,$3,0*
0 Add four circle primitives for the rounded corners*
1,1,$1+$1,$2,$3*
1,1,$1+$1,$4,$5*
1,1,$1+$1,$6,$7*
1,1,$1+$1,$8,$9*
0 Add four rect primitives between the rounded corners*
20,1,$1+$1,$2,$3,$4,$5,0*
20,1,$1+$1,$4,$5,$6,$7,0*
20,1,$1+$1,$6,$7,$8,$9,0*
20,1,$1+$1,$8,$9,$2,$3,0*%
G04 Aperture macros list end*
%TA.AperFunction,ComponentPad*%
%ADD10R,1.700000X1.700000*%
%TD*%
%TA.AperFunction,ComponentPad*%
%ADD11C,1.700000*%
%TD*%
%TA.AperFunction,ComponentPad*%
%ADD12RoundRect,0.250000X-0.750000X-0.750000X0.750000X-0.750000X0.750000X0.750000X-0.750000X0.750000X0*%
%TD*%
%TA.AperFunction,ComponentPad*%
%ADD13C,2.000000*%
%TD*%
%TA.AperFunction,ComponentPad*%
%ADD14RoundRect,0.250000X-0.750000X0.750000X-0.750000X-0.750000X0.750000X-0.750000X0.750000X0.750000X0*%
%TD*%
%TA.AperFunction,ComponentPad*%
%ADD15RoundRect,0.250000X0.750000X-0.750000X0.750000X0.750000X-0.750000X0.750000X-0.750000X-0.750000X0*%
%TD*%
%TA.AperFunction,ComponentPad*%
%ADD16C,1.600000*%
%TD*%
%TA.AperFunction,ComponentPad*%
%ADD17RoundRect,0.250000X0.750000X0.750000X-0.750000X0.750000X-0.750000X-0.750000X0.750000X-0.750000X0*%
%TD*%
%TA.AperFunction,ViaPad*%
%ADD18C,0.600000*%
%TD*%
%TA.AperFunction,Conductor*%
%ADD19C,0.200000*%
%TD*%
%TA.AperFunction,Conductor*%
%ADD20C,0.600000*%
%TD*%
G04 APERTURE END LIST*
D10*
%TO.P,J15,1,Pin_1*%
%TO.N,+3.3V*%
X149840000Y-78100000D03*
D11*
%TO.P,J15,2,Pin_2*%
%TO.N,GND*%
X152380000Y-78100000D03*
%TO.P,J15,3,Pin_3*%
%TO.N,SWDIO*%
X154920000Y-78100000D03*
%TO.P,J15,4,Pin_4*%
%TO.N,SWDCLK*%
X157460000Y-78100000D03*
%TO.P,J15,5,Pin_5*%
%TO.N,UART0_RX_XDS*%
X160000000Y-78100000D03*
%TO.P,J15,6,Pin_6*%
%TO.N,UART0_TX_XDS*%
X162540000Y-78100000D03*
%TO.P,J15,7,Pin_7*%
%TO.N,NRST*%
X165080000Y-78100000D03*
%TO.P,J15,8,Pin_8*%
%TO.N,+5V*%
X167620000Y-78100000D03*
%TD*%
D12*
%TO.P,J10,1,Pin_1*%
%TO.N,Critical_Condition*%
X176700000Y-115900000D03*
D13*
%TO.P,J10,2,Pin_2*%
%TO.N,PA_1*%
X179240000Y-115900000D03*
%TO.P,J10,3,Pin_3*%
%TO.N,PA_0*%
X181780000Y-115900000D03*
%TD*%
D14*
%TO.P,J6,1,Pin_1*%
%TO.N,GND*%
X149800000Y-85420000D03*
D13*
%TO.P,J6,2,Pin_2*%
%TO.N,Left_Servo_PWM*%
X149800000Y-87960000D03*
%TO.P,J6,3,Pin_3*%
%TO.N,+5V*%
X149800000Y-90500000D03*
%TD*%
D12*
%TO.P,J8,1,Pin_1*%
%TO.N,Hall_Effect_Out*%
X165255000Y-115617500D03*
D13*
%TO.P,J8,2,Pin_2*%
%TO.N,+5V*%
X167795000Y-115617500D03*
%TO.P,J8,3,Pin_3*%
%TO.N,GND*%
X170335000Y-115617500D03*
%TD*%
D15*
%TO.P,J13,1,Pin_1*%
%TO.N,PA_28*%
X194700000Y-100380000D03*
D13*
%TO.P,J13,2,Pin_2*%
%TO.N,PA_29*%
X194700000Y-97840000D03*
%TO.P,J13,3,Pin_3*%
%TO.N,PA_30*%
X194700000Y-95300000D03*
%TD*%
%TO.P,SW1,1,1*%
%TO.N,NRST*%
X192250000Y-118250000D03*
X185750000Y-118250000D03*
%TO.P,SW1,2,2*%
%TO.N,GND*%
X192250000Y-113750000D03*
X185750000Y-113750000D03*
%TD*%
D16*
%TO.P,R7,1*%
%TO.N,Net-(IC1-PA21_{slash}_A1_7_{slash}_VREF-)*%
X163190000Y-103000000D03*
%TO.P,R7,2*%
%TO.N,GND*%
X170810000Y-103000000D03*
%TD*%
D15*
%TO.P,J5,1,Pin_1*%
%TO.N,GND*%
X194600000Y-90940000D03*
D13*
%TO.P,J5,2,Pin_2*%
%TO.N,Right_Servo_PWM*%
X194600000Y-88400000D03*
%TO.P,J5,3,Pin_3*%
%TO.N,+5V*%
X194600000Y-85860000D03*
%TD*%
D17*
%TO.P,J2,1,Pin_1*%
%TO.N,UART1_TX*%
X158600000Y-69800000D03*
D13*
%TO.P,J2,2,Pin_2*%
%TO.N,UART1_RX*%
X156060000Y-69800000D03*
%TD*%
D17*
%TO.P,J14,1,Pin_1*%
%TO.N,PA_6*%
X169080000Y-69800000D03*
D13*
%TO.P,J14,2,Pin_2*%
%TO.N,PA_5*%
X166540000Y-69800000D03*
%TO.P,J14,3,Pin_3*%
%TO.N,PB_17*%
X164000000Y-69800000D03*
%TD*%
D14*
%TO.P,J4,1,Pin_1*%
%TO.N,Net-(J4-Pin_1)*%
X149800000Y-95100000D03*
D13*
%TO.P,J4,2,Pin_2*%
%TO.N,Net-(J4-Pin_2)*%
X149800000Y-97640000D03*
%TD*%
D14*
%TO.P,J3,1,Pin_1*%
%TO.N,GND*%
X149800000Y-102300000D03*
D13*
%TO.P,J3,2,Pin_2*%
%TO.N,+5V*%
X149800000Y-104840000D03*
%TD*%
%TO.P,SW2,1,1*%
%TO.N,GND*%
X152100000Y-113800000D03*
X158600000Y-113800000D03*
%TO.P,SW2,2,2*%
%TO.N,Net-(IC1-PB22)*%
X152100000Y-118300000D03*
X158600000Y-118300000D03*
%TD*%
D17*
%TO.P,J1,1,Pin_1*%
%TO.N,GND*%
X176900000Y-69800000D03*
D13*
%TO.P,J1,2,Pin_2*%
%TO.N,+5V*%
X174360000Y-69800000D03*
%TD*%
D18*
%TO.N,PA_5*%
X166900000Y-71955000D03*
%TO.N,+3.3V*%
X188500000Y-94300000D03*
X188500000Y-98900000D03*
%TO.N,GND*%
X188900000Y-92400000D03*
X183675000Y-94300000D03*
X187200000Y-107000000D03*
%TO.N,NRST*%
X182900000Y-101100000D03*
X179600000Y-93300000D03*
X175300000Y-93100000D03*
X184700000Y-104200000D03*
%TO.N,Anemometer_RV*%
X174300000Y-112800000D03*
X175500000Y-106900000D03*
%TO.N,PB_17*%
X163000000Y-94400000D03*
X164000000Y-72200000D03*
%TO.N,UART1_TX*%
X158600000Y-72200000D03*
X157700000Y-88000000D03*
%TO.N,SWDIO*%
X161000000Y-92500000D03*
%TO.N,SWDCLK*%
X162000000Y-92900000D03*
%TO.N,UART1_RX*%
X163800000Y-74600000D03*
X168500000Y-83727000D03*
%TO.N,Hall_Effect_Out*%
X165200000Y-113200000D03*
X170600000Y-90400000D03*
%TO.N,UART0_TX_XDS*%
X167600000Y-84200000D03*
%TO.N,UART0_RX_XDS*%
X166400000Y-84300000D03*
%TO.N,PA_0*%
X177000000Y-113600000D03*
X177500000Y-99100000D03*
%TO.N,PA_1*%
X179300000Y-101400000D03*
%TO.N,PA_5*%
X174100000Y-90900000D03*
%TO.N,PA_6*%
X174300000Y-89800000D03*
X169200000Y-72000000D03*
%TO.N,Right_Servo_PWM*%
X189900000Y-80900000D03*
%TO.N,Critical_Condition*%
X173200000Y-114200000D03*
X171200000Y-95000000D03*
%TD*%
D19*
%TO.N,PA_6*%
X174300000Y-89800000D02*
X174250000Y-89850000D01*
X171400000Y-88100000D02*
X171400000Y-74200000D01*
X171400000Y-74200000D02*
X169200000Y-72000000D01*
X174250000Y-89850000D02*
X173150000Y-89850000D01*
X173150000Y-89850000D02*
X171400000Y-88100000D01*
D20*
%TO.N,+3.3V*%
X188500000Y-98900000D02*
X188500000Y-94300000D01*
%TO.N,GND*%
X188900000Y-92400000D02*
X185575000Y-92400000D01*
X175472000Y-71228000D02*
X176900000Y-69800000D01*
X152380000Y-78100000D02*
X149800000Y-80680000D01*
X149800000Y-85420000D02*
X151228000Y-86848000D01*
X149800000Y-80680000D02*
X149800000Y-85420000D01*
X151228000Y-100872000D02*
X149800000Y-102300000D01*
X155468503Y-71228000D02*
X175472000Y-71228000D01*
X185750000Y-115164213D02*
X185750000Y-113750000D01*
X152380000Y-74316503D02*
X155468503Y-71228000D01*
X152380000Y-78100000D02*
X152380000Y-74316503D01*
X182514213Y-118400000D02*
X185750000Y-115164213D01*
X173117500Y-118400000D02*
X182514213Y-118400000D01*
X187200000Y-112300000D02*
X185750000Y-113750000D01*
X187200000Y-107000000D02*
X187200000Y-112300000D01*
X170335000Y-115617500D02*
X173117500Y-118400000D01*
X185575000Y-92400000D02*
X183675000Y-94300000D01*
X151228000Y-86848000D02*
X151228000Y-100872000D01*
D19*
%TO.N,NRST*%
X179000000Y-93900000D02*
X179600000Y-93300000D01*
X184700000Y-104200000D02*
X185600000Y-105100000D01*
X174200000Y-93100000D02*
X169400000Y-88300000D01*
X179000000Y-100000000D02*
X179000000Y-93900000D01*
X182900000Y-101100000D02*
X180100000Y-101100000D01*
X185600000Y-105100000D02*
X188000000Y-105100000D01*
X169400000Y-88300000D02*
X169400000Y-82420000D01*
X188000000Y-105100000D02*
X188200000Y-105300000D01*
X169400000Y-82420000D02*
X165080000Y-78100000D01*
X180100000Y-101100000D02*
X179000000Y-100000000D01*
X188200000Y-105300000D02*
X188200000Y-115800000D01*
X188200000Y-115800000D02*
X185750000Y-118250000D01*
X175300000Y-93100000D02*
X174200000Y-93100000D01*
%TO.N,Anemometer_RV*%
X175500000Y-106900000D02*
X175500000Y-111600000D01*
X175500000Y-111600000D02*
X174300000Y-112800000D01*
%TO.N,PB_17*%
X164000000Y-72200000D02*
X158922000Y-77278000D01*
X158922000Y-78546523D02*
X163000000Y-82624523D01*
X158922000Y-77278000D02*
X158922000Y-78546523D01*
X163000000Y-82624523D02*
X163000000Y-94400000D01*
%TO.N,UART1_TX*%
X153842000Y-76958000D02*
X158600000Y-72200000D01*
X157700000Y-88000000D02*
X156900000Y-88000000D01*
X153842000Y-84942000D02*
X153842000Y-76958000D01*
X156900000Y-88000000D02*
X153842000Y-84942000D01*
%TO.N,SWDIO*%
X160000000Y-83180000D02*
X160000000Y-91500000D01*
X160000000Y-83180000D02*
X154920000Y-78100000D01*
X160000000Y-91500000D02*
X161000000Y-92500000D01*
%TO.N,SWDCLK*%
X160600000Y-81600000D02*
X162000000Y-83000000D01*
X157460000Y-78460000D02*
X157460000Y-78100000D01*
X162000000Y-83000000D02*
X162000000Y-92900000D01*
X160600000Y-81600000D02*
X157460000Y-78460000D01*
%TO.N,UART1_RX*%
X163800000Y-78344523D02*
X163800000Y-74600000D01*
X168400000Y-82944523D02*
X163800000Y-78344523D01*
X168461755Y-83688755D02*
X168500000Y-83727000D01*
X168400000Y-83688755D02*
X168461755Y-83688755D01*
X168400000Y-83688755D02*
X168400000Y-82944523D01*
%TO.N,Hall_Effect_Out*%
X170600000Y-90300000D02*
X170600000Y-90400000D01*
X167300000Y-111100000D02*
X167300000Y-105056188D01*
X165200000Y-113200000D02*
X167300000Y-111100000D01*
X170600000Y-101756188D02*
X170600000Y-90300000D01*
X167300000Y-105056188D02*
X170600000Y-101756188D01*
%TO.N,UART0_TX_XDS*%
X167600000Y-83600000D02*
X162540000Y-78540000D01*
X167600000Y-83600000D02*
X167600000Y-84200000D01*
X162540000Y-78540000D02*
X162540000Y-78100000D01*
%TO.N,UART0_RX_XDS*%
X165753993Y-83853993D02*
X160000000Y-78100000D01*
X165753993Y-83853993D02*
X166200000Y-84300000D01*
X166200000Y-84300000D02*
X166400000Y-84300000D01*
%TO.N,PA_0*%
X177000000Y-101400000D02*
X177000000Y-113600000D01*
X177000000Y-99600000D02*
X177500000Y-99100000D01*
X177000000Y-101400000D02*
X177000000Y-99600000D01*
%TO.N,PA_1*%
X178200000Y-101600000D02*
X178200000Y-114860000D01*
X179300000Y-101400000D02*
X178400000Y-101400000D01*
X178400000Y-101400000D02*
X178200000Y-101600000D01*
X178200000Y-114860000D02*
X179240000Y-115900000D01*
%TO.N,PA_29*%
X194700000Y-97126648D02*
X194700000Y-97840000D01*
%TO.N,Right_Servo_PWM*%
X192900000Y-81100000D02*
X192700000Y-80900000D01*
X194600000Y-88400000D02*
X192900000Y-86700000D01*
X192900000Y-86700000D02*
X192900000Y-81100000D01*
X192700000Y-80900000D02*
X189900000Y-80900000D01*
%TO.N,Critical_Condition*%
X173200000Y-97000000D02*
X171200000Y-95000000D01*
X173200000Y-114200000D02*
X173200000Y-97000000D01*
%TO.N,PA_5*%
X169373000Y-74428000D02*
X169373000Y-75173000D01*
X166900000Y-71955000D02*
X169373000Y-74428000D01*
X174000000Y-90800000D02*
X174100000Y-90900000D01*
X169373000Y-75173000D02*
X170000000Y-75800000D01*
X170000000Y-87600000D02*
X173200000Y-90800000D01*
X170000000Y-75800000D02*
X170000000Y-87600000D01*
X173200000Y-90800000D02*
X174000000Y-90800000D01*
%TD*%
M02*
