%TF.GenerationSoftware,KiCad,Pcbnew,9.0.2*%
%TF.CreationDate,2026-05-01T14:56:34-04:00*%
%TF.ProjectId,TurbineMCU,54757262-696e-4654-9d43-552e6b696361,rev?*%
%TF.SameCoordinates,Original*%
%TF.FileFunction,Copper,L4,Bot*%
%TF.FilePolarity,Positive*%
%FSLAX46Y46*%
G04 Gerber Fmt 4.6, Leading zero omitted, Abs format (unit mm)*
G04 Created by KiCad (PCBNEW 9.0.2) date 2026-05-01 14:56:34*
%MOMM*%
%LPD*%
G01*
G04 APERTURE LIST*
G04 Aperture macros list*
%AMRoundRect*
0 Rectangle with rounded corners*
0 $1 Rounding radius*
0 $2 $3 $4 $5 $6 $7 $8 $9 X,Y pos of 4 corners*
0 Add a 4 corners polygon primitive as box body*
4,1,4,$2,$3,$4,$5,$6,$7,$8,$9,$2,$3,0*
0 Add four circle primitives for the rounded corners*
1,1,$1+$1,$2,$3*
1,1,$1+$1,$4,$5*
1,1,$1+$1,$6,$7*
1,1,$1+$1,$8,$9*
0 Add four rect primitives between the rounded corners*
20,1,$1+$1,$2,$3,$4,$5,0*
20,1,$1+$1,$4,$5,$6,$7,0*
20,1,$1+$1,$6,$7,$8,$9,0*
20,1,$1+$1,$8,$9,$2,$3,0*%
G04 Aperture macros list end*
%TA.AperFunction,ComponentPad*%
%ADD10RoundRect,0.250000X-0.725000X0.600000X-0.725000X-0.600000X0.725000X-0.600000X0.725000X0.600000X0*%
%TD*%
%TA.AperFunction,ComponentPad*%
%ADD11O,1.950000X1.700000*%
%TD*%
%TA.AperFunction,ComponentPad*%
%ADD12R,1.700000X1.700000*%
%TD*%
%TA.AperFunction,ComponentPad*%
%ADD13C,1.700000*%
%TD*%
%TA.AperFunction,ComponentPad*%
%ADD14RoundRect,0.250000X-0.750000X-0.750000X0.750000X-0.750000X0.750000X0.750000X-0.750000X0.750000X0*%
%TD*%
%TA.AperFunction,ComponentPad*%
%ADD15C,2.000000*%
%TD*%
%TA.AperFunction,ComponentPad*%
%ADD16RoundRect,0.250000X0.725000X-0.600000X0.725000X0.600000X-0.725000X0.600000X-0.725000X-0.600000X0*%
%TD*%
%TA.AperFunction,ComponentPad*%
%ADD17RoundRect,0.250000X0.750000X-0.750000X0.750000X0.750000X-0.750000X0.750000X-0.750000X-0.750000X0*%
%TD*%
%TA.AperFunction,ComponentPad*%
%ADD18RoundRect,0.250000X0.750000X0.750000X-0.750000X0.750000X-0.750000X-0.750000X0.750000X-0.750000X0*%
%TD*%
%TA.AperFunction,ComponentPad*%
%ADD19RoundRect,0.250000X0.600000X0.725000X-0.600000X0.725000X-0.600000X-0.725000X0.600000X-0.725000X0*%
%TD*%
%TA.AperFunction,ComponentPad*%
%ADD20O,1.700000X1.950000*%
%TD*%
%TA.AperFunction,ViaPad*%
%ADD21C,0.600000*%
%TD*%
%TA.AperFunction,Conductor*%
%ADD22C,0.600000*%
%TD*%
%TA.AperFunction,Conductor*%
%ADD23C,0.200000*%
%TD*%
G04 APERTURE END LIST*
D10*
%TO.P,J5,1,Pin_1*%
%TO.N,+5V*%
X195600000Y-84800000D03*
D11*
%TO.P,J5,2,Pin_2*%
%TO.N,Right_Servo_PWM*%
X195600000Y-87300000D03*
%TO.P,J5,3,Pin_3*%
%TO.N,GND*%
X195600000Y-89800000D03*
%TD*%
D12*
%TO.P,J15,1,Pin_1*%
%TO.N,+3.3V*%
X149840000Y-78100000D03*
D13*
%TO.P,J15,2,Pin_2*%
%TO.N,GND*%
X152380000Y-78100000D03*
%TO.P,J15,3,Pin_3*%
%TO.N,SWDIO*%
X154920000Y-78100000D03*
%TO.P,J15,4,Pin_4*%
%TO.N,SWDCLK*%
X157460000Y-78100000D03*
%TO.P,J15,5,Pin_5*%
%TO.N,UART0_RX_XDS*%
X160000000Y-78100000D03*
%TO.P,J15,6,Pin_6*%
%TO.N,UART0_TX_XDS*%
X162540000Y-78100000D03*
%TO.P,J15,7,Pin_7*%
%TO.N,NRST*%
X165080000Y-78100000D03*
%TO.P,J15,8,Pin_8*%
%TO.N,+5V*%
X167620000Y-78100000D03*
%TD*%
D14*
%TO.P,J10,1,Pin_1*%
%TO.N,Critical_Condition*%
X176920000Y-115900000D03*
D15*
%TO.P,J10,2,Pin_2*%
%TO.N,PA_1*%
X179460000Y-115900000D03*
%TO.P,J10,3,Pin_3*%
%TO.N,PA_0*%
X182000000Y-115900000D03*
%TD*%
D16*
%TO.P,J6,1,Pin_1*%
%TO.N,GND*%
X148600000Y-92400000D03*
D11*
%TO.P,J6,2,Pin_2*%
%TO.N,Left_Servo_PWM*%
X148600000Y-89900000D03*
%TO.P,J6,3,Pin_3*%
%TO.N,+5V*%
X148600000Y-87400000D03*
%TD*%
D17*
%TO.P,J13,1,Pin_1*%
%TO.N,PA_28*%
X194700000Y-100380000D03*
D15*
%TO.P,J13,2,Pin_2*%
%TO.N,PA_29*%
X194700000Y-97840000D03*
%TO.P,J13,3,Pin_3*%
%TO.N,PA_30*%
X194700000Y-95300000D03*
%TD*%
%TO.P,SW1,1,1*%
%TO.N,NRST*%
X192250000Y-118250000D03*
X185750000Y-118250000D03*
%TO.P,SW1,2,2*%
%TO.N,GND*%
X192250000Y-113750000D03*
X185750000Y-113750000D03*
%TD*%
D18*
%TO.P,J2,1,Pin_1*%
%TO.N,UART1_TX*%
X158600000Y-69800000D03*
D15*
%TO.P,J2,2,Pin_2*%
%TO.N,UART1_RX*%
X156060000Y-69800000D03*
%TD*%
D18*
%TO.P,J14,1,Pin_1*%
%TO.N,PA_6*%
X169080000Y-69800000D03*
D15*
%TO.P,J14,2,Pin_2*%
%TO.N,PA_5*%
X166540000Y-69800000D03*
%TO.P,J14,3,Pin_3*%
%TO.N,PB_17*%
X164000000Y-69800000D03*
%TD*%
D19*
%TO.P,J8,1,Pin_1*%
%TO.N,Hall_Effect_Out*%
X171800000Y-116900000D03*
D20*
%TO.P,J8,2,Pin_2*%
%TO.N,+5V*%
X169300000Y-116900000D03*
%TO.P,J8,3,Pin_3*%
%TO.N,GND*%
X166800000Y-116900000D03*
%TD*%
D16*
%TO.P,J3,1,Pin_1*%
%TO.N,GND*%
X148675000Y-107350000D03*
D11*
%TO.P,J3,2,Pin_2*%
%TO.N,+5V*%
X148675000Y-104850000D03*
%TO.P,J3,3,Pin_3*%
%TO.N,Net-(J3-Pin_3)*%
X148675000Y-102350000D03*
%TO.P,J3,4,Pin_4*%
%TO.N,Net-(J3-Pin_4)*%
X148675000Y-99850000D03*
%TD*%
D15*
%TO.P,SW2,1,1*%
%TO.N,GND*%
X155650000Y-113550000D03*
X162150000Y-113550000D03*
%TO.P,SW2,2,2*%
%TO.N,Net-(IC1-PB22)*%
X155650000Y-118050000D03*
X162150000Y-118050000D03*
%TD*%
D18*
%TO.P,J1,1,Pin_1*%
%TO.N,GND*%
X176900000Y-69800000D03*
D15*
%TO.P,J1,2,Pin_2*%
%TO.N,+5V*%
X174360000Y-69800000D03*
%TD*%
D21*
%TO.N,+3.3V*%
X188500000Y-94300000D03*
X188500000Y-98900000D03*
%TO.N,GND*%
X195800000Y-76500000D03*
X181000000Y-110100000D03*
X159300000Y-67700000D03*
X176600000Y-80600000D03*
X161000000Y-112050000D03*
X189000000Y-117000000D03*
X155250000Y-96650000D03*
X158150000Y-89050000D03*
X175800000Y-100400000D03*
X148100000Y-113800000D03*
X188900000Y-92400000D03*
X176700000Y-81750000D03*
X169250000Y-94850000D03*
X182400000Y-113500000D03*
X184700000Y-69100000D03*
X157850000Y-106000000D03*
X187850000Y-101200000D03*
X181300000Y-90850000D03*
X182500000Y-91400000D03*
X174650000Y-80400000D03*
X180100000Y-79500000D03*
X152300000Y-109200000D03*
X175700000Y-74600000D03*
X179700000Y-70700000D03*
X154400000Y-88900000D03*
X182600000Y-77400000D03*
X151200000Y-113100000D03*
X169000000Y-80500000D03*
X167500000Y-92700000D03*
X185300000Y-83800000D03*
X155850000Y-105900000D03*
X156500000Y-99200000D03*
X185100000Y-110300000D03*
X157000000Y-107500000D03*
X157950000Y-97850000D03*
X189250000Y-102856000D03*
X192300000Y-94600000D03*
X158150000Y-108550000D03*
X190400000Y-69000000D03*
X184750000Y-94350000D03*
X175200000Y-91500000D03*
X176500000Y-85100000D03*
X193800000Y-88700000D03*
X174400000Y-109900000D03*
X152200000Y-67100000D03*
X177950000Y-81900000D03*
X196200000Y-113800000D03*
X183675000Y-94300000D03*
X177000000Y-86500000D03*
X155800000Y-93200000D03*
X187200000Y-107000000D03*
X187200000Y-83600000D03*
X180850000Y-108450000D03*
X181700000Y-81200000D03*
X185950000Y-77800000D03*
X170000000Y-67700000D03*
X167500000Y-95400000D03*
X190200000Y-93300000D03*
X147100000Y-74200000D03*
X182200000Y-106900000D03*
X158050000Y-100400000D03*
X154200000Y-74100000D03*
X152700000Y-116600000D03*
X196200000Y-81000000D03*
X180100000Y-78250000D03*
X163600000Y-112200000D03*
X147100000Y-81200000D03*
X176500000Y-77400000D03*
X162900000Y-100100000D03*
X175000000Y-87800000D03*
%TO.N,NRST*%
X182900000Y-101100000D03*
X179600000Y-93300000D03*
X175300000Y-93100000D03*
X184700000Y-104200000D03*
%TO.N,Anemometer_RV*%
X174300000Y-112800000D03*
X175350000Y-108350000D03*
%TO.N,PB_17*%
X163000000Y-94400000D03*
X164000000Y-72200000D03*
%TO.N,UART1_TX*%
X158600000Y-72200000D03*
X157700000Y-88000000D03*
%TO.N,SWDIO*%
X161000000Y-92500000D03*
%TO.N,SWDCLK*%
X162000000Y-92900000D03*
%TO.N,UART1_RX*%
X163800000Y-74600000D03*
X168500000Y-83727000D03*
%TO.N,Hall_Effect_Out*%
X165200000Y-113200000D03*
X170600000Y-90400000D03*
%TO.N,UART0_TX_XDS*%
X167600000Y-84200000D03*
%TO.N,UART0_RX_XDS*%
X166400000Y-84300000D03*
%TO.N,PA_0*%
X177000000Y-113600000D03*
X177500000Y-99100000D03*
%TO.N,PA_1*%
X179300000Y-101400000D03*
%TO.N,PA_5*%
X166900000Y-71955000D03*
X173800000Y-91400000D03*
%TO.N,PA_6*%
X174500000Y-89600000D03*
X169200000Y-72000000D03*
%TO.N,Net-(IC1-PB22)*%
X166550000Y-102150000D03*
X164100000Y-106400000D03*
%TO.N,Right_Servo_PWM*%
X189900000Y-80900000D03*
%TO.N,Critical_Condition*%
X173200000Y-113200000D03*
X171200000Y-95000000D03*
%TD*%
D22*
%TO.N,+3.3V*%
X188500000Y-98900000D02*
X188500000Y-94300000D01*
%TO.N,GND*%
X151228000Y-92100000D02*
X151128000Y-92200000D01*
X149800000Y-80680000D02*
X149800000Y-85420000D01*
X188900000Y-92400000D02*
X185575000Y-92400000D01*
X155650000Y-113550000D02*
X162150000Y-113550000D01*
X152380000Y-78100000D02*
X149800000Y-80680000D01*
X151228000Y-92100000D02*
X152200000Y-93072000D01*
X148800000Y-92200000D02*
X148600000Y-92400000D01*
X175472000Y-71228000D02*
X176900000Y-69800000D01*
X153647240Y-113550000D02*
X155650000Y-113550000D01*
X148675000Y-107350000D02*
X148675000Y-108577760D01*
X154400000Y-88900000D02*
X154400000Y-91800000D01*
X155468503Y-71228000D02*
X175472000Y-71228000D01*
X185750000Y-115164213D02*
X185750000Y-113750000D01*
X152380000Y-74316503D02*
X155468503Y-71228000D01*
X152200000Y-93072000D02*
X152200000Y-103825000D01*
X149800000Y-85420000D02*
X151228000Y-86848000D01*
X154400000Y-91800000D02*
X155800000Y-93200000D01*
X152380000Y-78100000D02*
X152380000Y-74316503D01*
X152200000Y-103825000D02*
X148675000Y-107350000D01*
X182514213Y-118400000D02*
X185750000Y-115164213D01*
X162150000Y-113550000D02*
X165500000Y-116900000D01*
X151128000Y-92200000D02*
X148800000Y-92200000D01*
X148675000Y-108577760D02*
X153647240Y-113550000D01*
X173117500Y-118400000D02*
X182514213Y-118400000D01*
X187200000Y-112300000D02*
X185750000Y-113750000D01*
X187200000Y-107000000D02*
X187200000Y-112300000D01*
X151228000Y-86848000D02*
X151228000Y-92100000D01*
X165500000Y-116900000D02*
X166800000Y-116900000D01*
X185575000Y-92400000D02*
X183675000Y-94300000D01*
D23*
%TO.N,NRST*%
X179000000Y-93900000D02*
X179600000Y-93300000D01*
X184700000Y-104200000D02*
X185600000Y-105100000D01*
X174200000Y-93100000D02*
X169400000Y-88300000D01*
X179000000Y-100000000D02*
X179000000Y-93900000D01*
X182900000Y-101100000D02*
X180100000Y-101100000D01*
X185600000Y-105100000D02*
X188000000Y-105100000D01*
X169400000Y-88300000D02*
X169400000Y-82420000D01*
X188000000Y-105100000D02*
X188200000Y-105300000D01*
X169400000Y-82420000D02*
X165080000Y-78100000D01*
X180100000Y-101100000D02*
X179000000Y-100000000D01*
X188200000Y-105300000D02*
X188200000Y-115800000D01*
X188200000Y-115800000D02*
X185750000Y-118250000D01*
X175300000Y-93100000D02*
X174200000Y-93100000D01*
%TO.N,Anemometer_RV*%
X175500000Y-111600000D02*
X174300000Y-112800000D01*
X175350000Y-108350000D02*
X175500000Y-108500000D01*
X175500000Y-108500000D02*
X175500000Y-111600000D01*
%TO.N,PB_17*%
X164000000Y-72200000D02*
X158922000Y-77278000D01*
X158922000Y-78546523D02*
X163000000Y-82624523D01*
X158922000Y-77278000D02*
X158922000Y-78546523D01*
X163000000Y-82624523D02*
X163000000Y-94400000D01*
%TO.N,UART1_TX*%
X153842000Y-76958000D02*
X158600000Y-72200000D01*
X157700000Y-88000000D02*
X156900000Y-88000000D01*
X153842000Y-84942000D02*
X153842000Y-76958000D01*
X156900000Y-88000000D02*
X153842000Y-84942000D01*
%TO.N,SWDIO*%
X160000000Y-83180000D02*
X160000000Y-91500000D01*
X160000000Y-83180000D02*
X154920000Y-78100000D01*
X160000000Y-91500000D02*
X161000000Y-92500000D01*
%TO.N,SWDCLK*%
X160600000Y-81600000D02*
X162000000Y-83000000D01*
X157460000Y-78460000D02*
X157460000Y-78100000D01*
X162000000Y-83000000D02*
X162000000Y-92900000D01*
X160600000Y-81600000D02*
X157460000Y-78460000D01*
%TO.N,UART1_RX*%
X163800000Y-78344523D02*
X163800000Y-74600000D01*
X168400000Y-82944523D02*
X163800000Y-78344523D01*
X168461755Y-83688755D02*
X168500000Y-83727000D01*
X168400000Y-83688755D02*
X168461755Y-83688755D01*
X168400000Y-83688755D02*
X168400000Y-82944523D01*
%TO.N,Hall_Effect_Out*%
X170600000Y-90300000D02*
X170600000Y-90400000D01*
X167300000Y-111100000D02*
X167300000Y-105056188D01*
X165200000Y-113200000D02*
X167300000Y-111100000D01*
X170600000Y-101756188D02*
X170600000Y-90300000D01*
X167300000Y-105056188D02*
X170600000Y-101756188D01*
%TO.N,UART0_TX_XDS*%
X167600000Y-83600000D02*
X162540000Y-78540000D01*
X167600000Y-83600000D02*
X167600000Y-84200000D01*
X162540000Y-78540000D02*
X162540000Y-78100000D01*
%TO.N,UART0_RX_XDS*%
X165753993Y-83853993D02*
X160000000Y-78100000D01*
X165753993Y-83853993D02*
X166200000Y-84300000D01*
X166200000Y-84300000D02*
X166400000Y-84300000D01*
%TO.N,PA_0*%
X177000000Y-101400000D02*
X177000000Y-113600000D01*
X177000000Y-99600000D02*
X177500000Y-99100000D01*
X177000000Y-101400000D02*
X177000000Y-99600000D01*
%TO.N,PA_1*%
X178200000Y-101600000D02*
X178200000Y-114860000D01*
X179300000Y-101400000D02*
X178400000Y-101400000D01*
X178400000Y-101400000D02*
X178200000Y-101600000D01*
X178200000Y-114860000D02*
X179240000Y-115900000D01*
%TO.N,PA_29*%
X194700000Y-97126648D02*
X194700000Y-97840000D01*
%TO.N,PA_5*%
X169373000Y-75173000D02*
X169373000Y-74428000D01*
X170000000Y-75800000D02*
X169373000Y-75173000D01*
X170000000Y-87600000D02*
X170000000Y-75800000D01*
X173800000Y-91400000D02*
X170000000Y-87600000D01*
X169373000Y-74428000D02*
X166900000Y-71955000D01*
%TO.N,PA_6*%
X174250000Y-89850000D02*
X173150000Y-89850000D01*
X174500000Y-89600000D02*
X174250000Y-89850000D01*
X171400000Y-74200000D02*
X169200000Y-72000000D01*
X171400000Y-88100000D02*
X171400000Y-74200000D01*
X173150000Y-89850000D02*
X171400000Y-88100000D01*
%TO.N,Net-(IC1-PB22)*%
X166550000Y-103950000D02*
X164100000Y-106400000D01*
X166550000Y-102150000D02*
X166550000Y-103950000D01*
%TO.N,Right_Servo_PWM*%
X189900000Y-80900000D02*
X192100000Y-80900000D01*
X194600000Y-87300000D02*
X195600000Y-87300000D01*
X192600000Y-85300000D02*
X194600000Y-87300000D01*
X192100000Y-80900000D02*
X192600000Y-81400000D01*
X192600000Y-81400000D02*
X192600000Y-85300000D01*
%TO.N,Critical_Condition*%
X173200000Y-97000000D02*
X171200000Y-95000000D01*
X173200000Y-113200000D02*
X173200000Y-97000000D01*
%TD*%
%TA.AperFunction,Conductor*%
%TO.N,GND*%
G36*
X165356420Y-70726833D02*
G01*
X165370315Y-70742870D01*
X165395483Y-70777510D01*
X165562490Y-70944517D01*
X165753567Y-71083343D01*
X165795412Y-71104664D01*
X165964003Y-71190566D01*
X165964005Y-71190566D01*
X165964008Y-71190568D01*
X166083979Y-71229549D01*
X166188631Y-71263553D01*
X166193360Y-71264688D01*
X166193062Y-71265927D01*
X166250895Y-71293331D01*
X166287837Y-71352636D01*
X166286852Y-71422499D01*
X166271481Y-71454780D01*
X166190612Y-71575809D01*
X166190602Y-71575827D01*
X166130264Y-71721498D01*
X166130261Y-71721510D01*
X166099500Y-71876153D01*
X166099500Y-72033846D01*
X166130261Y-72188489D01*
X166130264Y-72188501D01*
X166190602Y-72334172D01*
X166190609Y-72334185D01*
X166278210Y-72465288D01*
X166278213Y-72465292D01*
X166389707Y-72576786D01*
X166389711Y-72576789D01*
X166520814Y-72664390D01*
X166520827Y-72664397D01*
X166646897Y-72716616D01*
X166666503Y-72724737D01*
X166718209Y-72735022D01*
X166821849Y-72755638D01*
X166883760Y-72788023D01*
X166885339Y-72789574D01*
X168736181Y-74640416D01*
X168769666Y-74701739D01*
X168772500Y-74728097D01*
X168772500Y-75086330D01*
X168772499Y-75086348D01*
X168772499Y-75252054D01*
X168772498Y-75252054D01*
X168813423Y-75404785D01*
X168842358Y-75454900D01*
X168842359Y-75454904D01*
X168842360Y-75454904D01*
X168892479Y-75541714D01*
X168892481Y-75541717D01*
X169011349Y-75660585D01*
X169011355Y-75660590D01*
X169363181Y-76012416D01*
X169396666Y-76073739D01*
X169399500Y-76100097D01*
X169399500Y-81270902D01*
X169379815Y-81337941D01*
X169327011Y-81383696D01*
X169257853Y-81393640D01*
X169194297Y-81364615D01*
X169187819Y-81358583D01*
X167491417Y-79662181D01*
X167457932Y-79600858D01*
X167462916Y-79531166D01*
X167504788Y-79475233D01*
X167570252Y-79450816D01*
X167579098Y-79450500D01*
X167726286Y-79450500D01*
X167726287Y-79450500D01*
X167936243Y-79417246D01*
X168138412Y-79351557D01*
X168327816Y-79255051D01*
X168414138Y-79192335D01*
X168499786Y-79130109D01*
X168499788Y-79130106D01*
X168499792Y-79130104D01*
X168650104Y-78979792D01*
X168650106Y-78979788D01*
X168650109Y-78979786D01*
X168775048Y-78807820D01*
X168775047Y-78807820D01*
X168775051Y-78807816D01*
X168871557Y-78618412D01*
X168937246Y-78416243D01*
X168970500Y-78206287D01*
X168970500Y-77993713D01*
X168937246Y-77783757D01*
X168871557Y-77581588D01*
X168775051Y-77392184D01*
X168775049Y-77392181D01*
X168775048Y-77392179D01*
X168650109Y-77220213D01*
X168499786Y-77069890D01*
X168327820Y-76944951D01*
X168138414Y-76848444D01*
X168138413Y-76848443D01*
X168138412Y-76848443D01*
X167936243Y-76782754D01*
X167936241Y-76782753D01*
X167936240Y-76782753D01*
X167774957Y-76757208D01*
X167726287Y-76749500D01*
X167513713Y-76749500D01*
X167465042Y-76757208D01*
X167303760Y-76782753D01*
X167101585Y-76848444D01*
X166912179Y-76944951D01*
X166740213Y-77069890D01*
X166589890Y-77220213D01*
X166464949Y-77392182D01*
X166460484Y-77400946D01*
X166412509Y-77451742D01*
X166344688Y-77468536D01*
X166278553Y-77445998D01*
X166239516Y-77400946D01*
X166235050Y-77392182D01*
X166110109Y-77220213D01*
X165959786Y-77069890D01*
X165787820Y-76944951D01*
X165598414Y-76848444D01*
X165598413Y-76848443D01*
X165598412Y-76848443D01*
X165396243Y-76782754D01*
X165396241Y-76782753D01*
X165396240Y-76782753D01*
X165234957Y-76757208D01*
X165186287Y-76749500D01*
X164973713Y-76749500D01*
X164934202Y-76755757D01*
X164763759Y-76782753D01*
X164562818Y-76848043D01*
X164492977Y-76850038D01*
X164433144Y-76813958D01*
X164402316Y-76751257D01*
X164400500Y-76730112D01*
X164400500Y-75179765D01*
X164420185Y-75112726D01*
X164421398Y-75110874D01*
X164509390Y-74979185D01*
X164509390Y-74979184D01*
X164509394Y-74979179D01*
X164569737Y-74833497D01*
X164600500Y-74678842D01*
X164600500Y-74521158D01*
X164600500Y-74521155D01*
X164600499Y-74521153D01*
X164586094Y-74448735D01*
X164569737Y-74366503D01*
X164562464Y-74348945D01*
X164509397Y-74220827D01*
X164509390Y-74220814D01*
X164421789Y-74089711D01*
X164421786Y-74089707D01*
X164310292Y-73978213D01*
X164310288Y-73978210D01*
X164179181Y-73890607D01*
X164179172Y-73890602D01*
X164033501Y-73830264D01*
X164033489Y-73830261D01*
X163878845Y-73799500D01*
X163878842Y-73799500D01*
X163721158Y-73799500D01*
X163721155Y-73799500D01*
X163566510Y-73830261D01*
X163566503Y-73830262D01*
X163549160Y-73837446D01*
X163479690Y-73844911D01*
X163417212Y-73813632D01*
X163381563Y-73753542D01*
X163384061Y-73683717D01*
X163414029Y-73635205D01*
X164014662Y-73034572D01*
X164075983Y-73001089D01*
X164078150Y-73000638D01*
X164136085Y-72989113D01*
X164233497Y-72969737D01*
X164379179Y-72909394D01*
X164510289Y-72821789D01*
X164621789Y-72710289D01*
X164709394Y-72579179D01*
X164769737Y-72433497D01*
X164800500Y-72278842D01*
X164800500Y-72121158D01*
X164800500Y-72121155D01*
X164800499Y-72121153D01*
X164769737Y-71966503D01*
X164758900Y-71940339D01*
X164709397Y-71820827D01*
X164709390Y-71820814D01*
X164621789Y-71689711D01*
X164621786Y-71689707D01*
X164510292Y-71578213D01*
X164510288Y-71578210D01*
X164379185Y-71490609D01*
X164379174Y-71490603D01*
X164370292Y-71486924D01*
X164315891Y-71443080D01*
X164293829Y-71376785D01*
X164311111Y-71309087D01*
X164362250Y-71261479D01*
X164379427Y-71254436D01*
X164575992Y-71190568D01*
X164786433Y-71083343D01*
X164977510Y-70944517D01*
X165144517Y-70777510D01*
X165169682Y-70742872D01*
X165225011Y-70700207D01*
X165294625Y-70694228D01*
X165356420Y-70726833D01*
G37*
%TD.AperFunction*%
%TA.AperFunction,Conductor*%
G36*
X167619438Y-70917387D02*
G01*
X167644996Y-70919152D01*
X167652925Y-70925057D01*
X167662566Y-70927266D01*
X167680485Y-70945582D01*
X167701032Y-70960885D01*
X167707487Y-70970342D01*
X167737095Y-71018343D01*
X167737288Y-71018656D01*
X167861344Y-71142712D01*
X168010666Y-71234814D01*
X168177203Y-71289999D01*
X168279991Y-71300500D01*
X168472650Y-71300499D01*
X168539688Y-71320183D01*
X168585443Y-71372987D01*
X168595387Y-71442145D01*
X168575752Y-71493389D01*
X168490608Y-71620816D01*
X168490602Y-71620827D01*
X168430264Y-71766498D01*
X168430261Y-71766510D01*
X168399500Y-71921153D01*
X168399500Y-72078846D01*
X168430261Y-72233489D01*
X168430264Y-72233501D01*
X168476333Y-72344723D01*
X168483802Y-72414193D01*
X168452526Y-72476672D01*
X168392437Y-72512323D01*
X168322612Y-72509829D01*
X168274091Y-72479856D01*
X167734574Y-71940339D01*
X167701089Y-71879016D01*
X167700638Y-71876849D01*
X167682595Y-71786147D01*
X167669737Y-71721503D01*
X167669735Y-71721498D01*
X167609397Y-71575827D01*
X167609390Y-71575814D01*
X167521789Y-71444711D01*
X167521786Y-71444707D01*
X167410292Y-71333213D01*
X167410288Y-71333210D01*
X167335385Y-71283161D01*
X167315969Y-71259929D01*
X167294798Y-71238288D01*
X167293788Y-71233387D01*
X167290580Y-71229549D01*
X167286807Y-71199513D01*
X167280696Y-71169856D01*
X167282496Y-71165186D01*
X167281873Y-71160224D01*
X167294936Y-71132920D01*
X167305830Y-71104664D01*
X167310750Y-71099866D01*
X167312028Y-71097196D01*
X167331059Y-71079982D01*
X167331058Y-71079982D01*
X167517510Y-70944517D01*
X167521026Y-70941000D01*
X167528732Y-70935363D01*
X167552838Y-70926672D01*
X167575292Y-70914339D01*
X167585157Y-70915020D01*
X167594461Y-70911666D01*
X167619438Y-70917387D01*
G37*
%TD.AperFunction*%
%TA.AperFunction,Conductor*%
G36*
X196600974Y-66007586D02*
G01*
X196614131Y-66008290D01*
X196621533Y-66009081D01*
X196621534Y-66009082D01*
X196621534Y-66009081D01*
X196621535Y-66009082D01*
X196627683Y-66008931D01*
X196680687Y-66007635D01*
X196683687Y-66007599D01*
X196687763Y-66007599D01*
X196693031Y-66007713D01*
X196930235Y-66017918D01*
X196946821Y-66019756D01*
X197177812Y-66061280D01*
X197194022Y-66065339D01*
X197417305Y-66137537D01*
X197432817Y-66143735D01*
X197644389Y-66245311D01*
X197658911Y-66253530D01*
X197787423Y-66338182D01*
X197854893Y-66382625D01*
X197868198Y-66392737D01*
X198045036Y-66547007D01*
X198056860Y-66558816D01*
X198211353Y-66735467D01*
X198221481Y-66748759D01*
X198342195Y-66931523D01*
X198350813Y-66944570D01*
X198359063Y-66959104D01*
X198460892Y-67170532D01*
X198467112Y-67186042D01*
X198539589Y-67409243D01*
X198543667Y-67425448D01*
X198552775Y-67475758D01*
X198584461Y-67650776D01*
X198585472Y-67656357D01*
X198587335Y-67672965D01*
X198597836Y-67910223D01*
X198597957Y-67915576D01*
X198597962Y-67920351D01*
X198597929Y-67923355D01*
X198596577Y-67981656D01*
X198597328Y-67988602D01*
X198598046Y-68001799D01*
X198649403Y-117856776D01*
X198648940Y-117867610D01*
X198629020Y-118097474D01*
X198626567Y-118113499D01*
X198577110Y-118337522D01*
X198572588Y-118353091D01*
X198494323Y-118568758D01*
X198487808Y-118583604D01*
X198382075Y-118787216D01*
X198373679Y-118801084D01*
X198242292Y-118989154D01*
X198232159Y-119001809D01*
X198077353Y-119171137D01*
X198065655Y-119182362D01*
X197890077Y-119330049D01*
X197877014Y-119339651D01*
X197683686Y-119463158D01*
X197669483Y-119470974D01*
X197461672Y-119568214D01*
X197446570Y-119574111D01*
X197227865Y-119643403D01*
X197212123Y-119647279D01*
X196986241Y-119687447D01*
X196970128Y-119689236D01*
X196745769Y-119699374D01*
X196740172Y-119699500D01*
X196711715Y-119699500D01*
X196709203Y-119699475D01*
X196690866Y-119699103D01*
X196666943Y-119698618D01*
X196666942Y-119698618D01*
X196665832Y-119698742D01*
X196652140Y-119699500D01*
X193189370Y-119699500D01*
X193122331Y-119679815D01*
X193076576Y-119627011D01*
X193066632Y-119557853D01*
X193095657Y-119494297D01*
X193116484Y-119475182D01*
X193227510Y-119394517D01*
X193394517Y-119227510D01*
X193533343Y-119036433D01*
X193640568Y-118825992D01*
X193713553Y-118601368D01*
X193749327Y-118375500D01*
X193750500Y-118368097D01*
X193750500Y-118131902D01*
X193713553Y-117898631D01*
X193674291Y-117777797D01*
X193640568Y-117674008D01*
X193640566Y-117674005D01*
X193640566Y-117674003D01*
X193576909Y-117549071D01*
X193574026Y-117543412D01*
X193550708Y-117497648D01*
X195199500Y-117497648D01*
X195199500Y-117702351D01*
X195231522Y-117904534D01*
X195294781Y-118099223D01*
X195329875Y-118168097D01*
X195385138Y-118276557D01*
X195387715Y-118281613D01*
X195508028Y-118447213D01*
X195652786Y-118591971D01*
X195770626Y-118677585D01*
X195818390Y-118712287D01*
X195934607Y-118771503D01*
X196000776Y-118805218D01*
X196000778Y-118805218D01*
X196000781Y-118805220D01*
X196064711Y-118825992D01*
X196195465Y-118868477D01*
X196296557Y-118884488D01*
X196397648Y-118900500D01*
X196397649Y-118900500D01*
X196602351Y-118900500D01*
X196602352Y-118900500D01*
X196804534Y-118868477D01*
X196999219Y-118805220D01*
X197181610Y-118712287D01*
X197274590Y-118644732D01*
X197347213Y-118591971D01*
X197347215Y-118591968D01*
X197347219Y-118591966D01*
X197491966Y-118447219D01*
X197491968Y-118447215D01*
X197491971Y-118447213D01*
X197551702Y-118364999D01*
X197612287Y-118281610D01*
X197705220Y-118099219D01*
X197768477Y-117904534D01*
X197800500Y-117702352D01*
X197800500Y-117497648D01*
X197775947Y-117342630D01*
X197768477Y-117295465D01*
X197711028Y-117118656D01*
X197705220Y-117100781D01*
X197705218Y-117100778D01*
X197705218Y-117100776D01*
X197638244Y-116969334D01*
X197612287Y-116918390D01*
X197582586Y-116877510D01*
X197491971Y-116752786D01*
X197347213Y-116608028D01*
X197181613Y-116487715D01*
X197181612Y-116487714D01*
X197181610Y-116487713D01*
X197122059Y-116457370D01*
X196999223Y-116394781D01*
X196804534Y-116331522D01*
X196629995Y-116303878D01*
X196602352Y-116299500D01*
X196397648Y-116299500D01*
X196373329Y-116303351D01*
X196195465Y-116331522D01*
X196000776Y-116394781D01*
X195818386Y-116487715D01*
X195652786Y-116608028D01*
X195508028Y-116752786D01*
X195387715Y-116918386D01*
X195294781Y-117100776D01*
X195231522Y-117295465D01*
X195199500Y-117497648D01*
X193550708Y-117497648D01*
X193533343Y-117463567D01*
X193394517Y-117272490D01*
X193227510Y-117105483D01*
X193036433Y-116966657D01*
X193028343Y-116962535D01*
X192825996Y-116859433D01*
X192601368Y-116786446D01*
X192368097Y-116749500D01*
X192368092Y-116749500D01*
X192131908Y-116749500D01*
X192131903Y-116749500D01*
X191898631Y-116786446D01*
X191674003Y-116859433D01*
X191463566Y-116966657D01*
X191400614Y-117012395D01*
X191272490Y-117105483D01*
X191272488Y-117105485D01*
X191272487Y-117105485D01*
X191105485Y-117272487D01*
X191105485Y-117272488D01*
X191105483Y-117272490D01*
X191099958Y-117280095D01*
X190966657Y-117463566D01*
X190859433Y-117674003D01*
X190786446Y-117898631D01*
X190749500Y-118131902D01*
X190749500Y-118368097D01*
X190786446Y-118601368D01*
X190859433Y-118825996D01*
X190966657Y-119036433D01*
X191105483Y-119227510D01*
X191272490Y-119394517D01*
X191372992Y-119467536D01*
X191383516Y-119475182D01*
X191426181Y-119530512D01*
X191432160Y-119600126D01*
X191399554Y-119661921D01*
X191338715Y-119696278D01*
X191310630Y-119699500D01*
X186689370Y-119699500D01*
X186622331Y-119679815D01*
X186576576Y-119627011D01*
X186566632Y-119557853D01*
X186595657Y-119494297D01*
X186616484Y-119475182D01*
X186727510Y-119394517D01*
X186894517Y-119227510D01*
X187033343Y-119036433D01*
X187140568Y-118825992D01*
X187213553Y-118601368D01*
X187249327Y-118375500D01*
X187250500Y-118368097D01*
X187250500Y-118131902D01*
X187219927Y-117938878D01*
X187213553Y-117898632D01*
X187172547Y-117772433D01*
X187170553Y-117702593D01*
X187202796Y-117646437D01*
X188558506Y-116290728D01*
X188558511Y-116290724D01*
X188568714Y-116280520D01*
X188568716Y-116280520D01*
X188680520Y-116168716D01*
X188739139Y-116067184D01*
X188759577Y-116031785D01*
X188800500Y-115879058D01*
X188800500Y-115720943D01*
X188800500Y-113631947D01*
X190750000Y-113631947D01*
X190750000Y-113868052D01*
X190786934Y-114101247D01*
X190859897Y-114325802D01*
X190967087Y-114536174D01*
X191027338Y-114619104D01*
X191027340Y-114619105D01*
X191726212Y-113920233D01*
X191737482Y-113962292D01*
X191809890Y-114087708D01*
X191912292Y-114190110D01*
X192037708Y-114262518D01*
X192079765Y-114273787D01*
X191380893Y-114972658D01*
X191463828Y-115032914D01*
X191674197Y-115140102D01*
X191898752Y-115213065D01*
X191898751Y-115213065D01*
X192131948Y-115250000D01*
X192368052Y-115250000D01*
X192601247Y-115213065D01*
X192825802Y-115140102D01*
X193036163Y-115032918D01*
X193036169Y-115032914D01*
X193119104Y-114972658D01*
X193119105Y-114972658D01*
X192420233Y-114273787D01*
X192462292Y-114262518D01*
X192587708Y-114190110D01*
X192690110Y-114087708D01*
X192762518Y-113962292D01*
X192773787Y-113920234D01*
X193472658Y-114619105D01*
X193472658Y-114619104D01*
X193532914Y-114536169D01*
X193532918Y-114536163D01*
X193640102Y-114325802D01*
X193713065Y-114101247D01*
X193750000Y-113868052D01*
X193750000Y-113631947D01*
X193713065Y-113398752D01*
X193640102Y-113174197D01*
X193532914Y-112963828D01*
X193472658Y-112880894D01*
X193472658Y-112880893D01*
X192773787Y-113579765D01*
X192762518Y-113537708D01*
X192690110Y-113412292D01*
X192587708Y-113309890D01*
X192462292Y-113237482D01*
X192420234Y-113226212D01*
X193119105Y-112527340D01*
X193119104Y-112527338D01*
X193036174Y-112467087D01*
X192825802Y-112359897D01*
X192601247Y-112286934D01*
X192601248Y-112286934D01*
X192368052Y-112250000D01*
X192131948Y-112250000D01*
X191898752Y-112286934D01*
X191674197Y-112359897D01*
X191463830Y-112467084D01*
X191380894Y-112527340D01*
X192079766Y-113226212D01*
X192037708Y-113237482D01*
X191912292Y-113309890D01*
X191809890Y-113412292D01*
X191737482Y-113537708D01*
X191726212Y-113579765D01*
X191027340Y-112880894D01*
X190967084Y-112963830D01*
X190859897Y-113174197D01*
X190786934Y-113398752D01*
X190750000Y-113631947D01*
X188800500Y-113631947D01*
X188800500Y-105389060D01*
X188800501Y-105389047D01*
X188800501Y-105220944D01*
X188785844Y-105166243D01*
X188759577Y-105068216D01*
X188740154Y-105034574D01*
X188680524Y-104931290D01*
X188680518Y-104931282D01*
X188497961Y-104748726D01*
X188497959Y-104748723D01*
X188368717Y-104619481D01*
X188368709Y-104619475D01*
X188275146Y-104565457D01*
X188275145Y-104565457D01*
X188231785Y-104540423D01*
X188079057Y-104499499D01*
X187920943Y-104499499D01*
X187913347Y-104499499D01*
X187913331Y-104499500D01*
X185900097Y-104499500D01*
X185833058Y-104479815D01*
X185812416Y-104463181D01*
X185534574Y-104185339D01*
X185501089Y-104124016D01*
X185500638Y-104121849D01*
X185469738Y-103966510D01*
X185469737Y-103966503D01*
X185430155Y-103870943D01*
X185409397Y-103820827D01*
X185409390Y-103820814D01*
X185321789Y-103689711D01*
X185321786Y-103689707D01*
X185210292Y-103578213D01*
X185210288Y-103578210D01*
X185079185Y-103490609D01*
X185079172Y-103490602D01*
X184933501Y-103430264D01*
X184933489Y-103430261D01*
X184778845Y-103399500D01*
X184778842Y-103399500D01*
X184621158Y-103399500D01*
X184621155Y-103399500D01*
X184466510Y-103430261D01*
X184466498Y-103430264D01*
X184320827Y-103490602D01*
X184320814Y-103490609D01*
X184189711Y-103578210D01*
X184189707Y-103578213D01*
X184078213Y-103689707D01*
X184078210Y-103689711D01*
X183990609Y-103820814D01*
X183990602Y-103820827D01*
X183930264Y-103966498D01*
X183930261Y-103966510D01*
X183899500Y-104121153D01*
X183899500Y-104278846D01*
X183930261Y-104433489D01*
X183930264Y-104433501D01*
X183990602Y-104579172D01*
X183990609Y-104579185D01*
X184078210Y-104710288D01*
X184078213Y-104710292D01*
X184189707Y-104821786D01*
X184189711Y-104821789D01*
X184320814Y-104909390D01*
X184320827Y-104909397D01*
X184466498Y-104969735D01*
X184466503Y-104969737D01*
X184531147Y-104982595D01*
X184621849Y-105000638D01*
X184683760Y-105033023D01*
X184685339Y-105034574D01*
X185115139Y-105464374D01*
X185115149Y-105464385D01*
X185119479Y-105468715D01*
X185119480Y-105468716D01*
X185231284Y-105580520D01*
X185231286Y-105580521D01*
X185231290Y-105580524D01*
X185292328Y-105615764D01*
X185292333Y-105615766D01*
X185368209Y-105659574D01*
X185368210Y-105659574D01*
X185368215Y-105659577D01*
X185520942Y-105700500D01*
X185520943Y-105700500D01*
X187475500Y-105700500D01*
X187542539Y-105720185D01*
X187588294Y-105772989D01*
X187599500Y-105824500D01*
X187599500Y-115499902D01*
X187579815Y-115566941D01*
X187563181Y-115587583D01*
X186353563Y-116797200D01*
X186292240Y-116830685D01*
X186227564Y-116827450D01*
X186101370Y-116786447D01*
X185868097Y-116749500D01*
X185868092Y-116749500D01*
X185631908Y-116749500D01*
X185631903Y-116749500D01*
X185398631Y-116786446D01*
X185174003Y-116859433D01*
X184963566Y-116966657D01*
X184900614Y-117012395D01*
X184772490Y-117105483D01*
X184772488Y-117105485D01*
X184772487Y-117105485D01*
X184605485Y-117272487D01*
X184605485Y-117272488D01*
X184605483Y-117272490D01*
X184599958Y-117280095D01*
X184466657Y-117463566D01*
X184359433Y-117674003D01*
X184286446Y-117898631D01*
X184249500Y-118131902D01*
X184249500Y-118368097D01*
X184286446Y-118601368D01*
X184359433Y-118825996D01*
X184466657Y-119036433D01*
X184605483Y-119227510D01*
X184772490Y-119394517D01*
X184872992Y-119467536D01*
X184883516Y-119475182D01*
X184926181Y-119530512D01*
X184932160Y-119600126D01*
X184899554Y-119661921D01*
X184838715Y-119696278D01*
X184810630Y-119699500D01*
X162711986Y-119699500D01*
X162644947Y-119679815D01*
X162599192Y-119627011D01*
X162589248Y-119557853D01*
X162618273Y-119494297D01*
X162673665Y-119457569D01*
X162725992Y-119440568D01*
X162936433Y-119333343D01*
X163127510Y-119194517D01*
X163294517Y-119027510D01*
X163433343Y-118836433D01*
X163540568Y-118625992D01*
X163613553Y-118401368D01*
X163619313Y-118364999D01*
X163650500Y-118168097D01*
X163650500Y-117931902D01*
X163613553Y-117698631D01*
X163579689Y-117594412D01*
X163540568Y-117474008D01*
X163540566Y-117474005D01*
X163540566Y-117474003D01*
X163484002Y-117362991D01*
X163433343Y-117263567D01*
X163294517Y-117072490D01*
X163127510Y-116905483D01*
X162936433Y-116766657D01*
X162909200Y-116752781D01*
X162725996Y-116659433D01*
X162696965Y-116650000D01*
X165452970Y-116650000D01*
X166395854Y-116650000D01*
X166357370Y-116716657D01*
X166325000Y-116837465D01*
X166325000Y-116962535D01*
X166357370Y-117083343D01*
X166395854Y-117150000D01*
X165452970Y-117150000D01*
X165483242Y-117341127D01*
X165483242Y-117341130D01*
X165548904Y-117543217D01*
X165645379Y-117732557D01*
X165770272Y-117904459D01*
X165770276Y-117904464D01*
X165920535Y-118054723D01*
X165920540Y-118054727D01*
X166092442Y-118179620D01*
X166281782Y-118276095D01*
X166483871Y-118341757D01*
X166550000Y-118352231D01*
X166550000Y-117304145D01*
X166616657Y-117342630D01*
X166737465Y-117375000D01*
X166862535Y-117375000D01*
X166983343Y-117342630D01*
X167050000Y-117304145D01*
X167050000Y-118352230D01*
X167116126Y-118341757D01*
X167116129Y-118341757D01*
X167318217Y-118276095D01*
X167507557Y-118179620D01*
X167679459Y-118054727D01*
X167679464Y-118054723D01*
X167829721Y-117904466D01*
X167949371Y-117739781D01*
X168004701Y-117697115D01*
X168074314Y-117691136D01*
X168136110Y-117723741D01*
X168150008Y-117739781D01*
X168269890Y-117904785D01*
X168269894Y-117904790D01*
X168420213Y-118055109D01*
X168592179Y-118180048D01*
X168592181Y-118180049D01*
X168592184Y-118180051D01*
X168781588Y-118276557D01*
X168983757Y-118342246D01*
X169193713Y-118375500D01*
X169193714Y-118375500D01*
X169406286Y-118375500D01*
X169406287Y-118375500D01*
X169616243Y-118342246D01*
X169818412Y-118276557D01*
X170007816Y-118180051D01*
X170119067Y-118099223D01*
X170179784Y-118055110D01*
X170179784Y-118055109D01*
X170179792Y-118055104D01*
X170318604Y-117916291D01*
X170379923Y-117882809D01*
X170449615Y-117887793D01*
X170505549Y-117929664D01*
X170511821Y-117938878D01*
X170515185Y-117944333D01*
X170515186Y-117944334D01*
X170607288Y-118093656D01*
X170731344Y-118217712D01*
X170880666Y-118309814D01*
X171047203Y-118364999D01*
X171149991Y-118375500D01*
X172450008Y-118375499D01*
X172552797Y-118364999D01*
X172719334Y-118309814D01*
X172868656Y-118217712D01*
X172992712Y-118093656D01*
X173084814Y-117944334D01*
X173139999Y-117777797D01*
X173150500Y-117675009D01*
X173150499Y-116124992D01*
X173148851Y-116108863D01*
X173139999Y-116022203D01*
X173139998Y-116022200D01*
X173102104Y-115907845D01*
X173084814Y-115855666D01*
X172992712Y-115706344D01*
X172868656Y-115582288D01*
X172773253Y-115523443D01*
X172719336Y-115490187D01*
X172719331Y-115490185D01*
X172717862Y-115489698D01*
X172552797Y-115435001D01*
X172552795Y-115435000D01*
X172450010Y-115424500D01*
X171149998Y-115424500D01*
X171149981Y-115424501D01*
X171047203Y-115435000D01*
X171047200Y-115435001D01*
X170880668Y-115490185D01*
X170880663Y-115490187D01*
X170731342Y-115582289D01*
X170607289Y-115706342D01*
X170511821Y-115861121D01*
X170459873Y-115907845D01*
X170390910Y-115919068D01*
X170326828Y-115891224D01*
X170318601Y-115883705D01*
X170179786Y-115744890D01*
X170007820Y-115619951D01*
X169818414Y-115523444D01*
X169818413Y-115523443D01*
X169818412Y-115523443D01*
X169616243Y-115457754D01*
X169616241Y-115457753D01*
X169616240Y-115457753D01*
X169454957Y-115432208D01*
X169406287Y-115424500D01*
X169193713Y-115424500D01*
X169145042Y-115432208D01*
X168983760Y-115457753D01*
X168781585Y-115523444D01*
X168592179Y-115619951D01*
X168420213Y-115744890D01*
X168269894Y-115895209D01*
X168269890Y-115895214D01*
X168150008Y-116060218D01*
X168094678Y-116102884D01*
X168025065Y-116108863D01*
X167963270Y-116076257D01*
X167949372Y-116060218D01*
X167829727Y-115895540D01*
X167829723Y-115895535D01*
X167679464Y-115745276D01*
X167679459Y-115745272D01*
X167507557Y-115620379D01*
X167318215Y-115523903D01*
X167116124Y-115458241D01*
X167050000Y-115447768D01*
X167050000Y-116495854D01*
X166983343Y-116457370D01*
X166862535Y-116425000D01*
X166737465Y-116425000D01*
X166616657Y-116457370D01*
X166550000Y-116495854D01*
X166550000Y-115447768D01*
X166549999Y-115447768D01*
X166483875Y-115458241D01*
X166281784Y-115523903D01*
X166092442Y-115620379D01*
X165920540Y-115745272D01*
X165920535Y-115745276D01*
X165770276Y-115895535D01*
X165770272Y-115895540D01*
X165645379Y-116067442D01*
X165548904Y-116256782D01*
X165483242Y-116458869D01*
X165483242Y-116458872D01*
X165452970Y-116650000D01*
X162696965Y-116650000D01*
X162501368Y-116586446D01*
X162268097Y-116549500D01*
X162268092Y-116549500D01*
X162031908Y-116549500D01*
X162031903Y-116549500D01*
X161798631Y-116586446D01*
X161574003Y-116659433D01*
X161363566Y-116766657D01*
X161280742Y-116826833D01*
X161172490Y-116905483D01*
X161172488Y-116905485D01*
X161172487Y-116905485D01*
X161005485Y-117072487D01*
X161005485Y-117072488D01*
X161005483Y-117072490D01*
X160949169Y-117150000D01*
X160866657Y-117263566D01*
X160759433Y-117474003D01*
X160686446Y-117698631D01*
X160649500Y-117931902D01*
X160649500Y-118168097D01*
X160686446Y-118401368D01*
X160759433Y-118625996D01*
X160845252Y-118794423D01*
X160866657Y-118836433D01*
X161005483Y-119027510D01*
X161172490Y-119194517D01*
X161363567Y-119333343D01*
X161462991Y-119384002D01*
X161574003Y-119440566D01*
X161574005Y-119440566D01*
X161574008Y-119440568D01*
X161626334Y-119457569D01*
X161684008Y-119497007D01*
X161711206Y-119561366D01*
X161699291Y-119630212D01*
X161652047Y-119681688D01*
X161588014Y-119699500D01*
X156211986Y-119699500D01*
X156144947Y-119679815D01*
X156099192Y-119627011D01*
X156089248Y-119557853D01*
X156118273Y-119494297D01*
X156173665Y-119457569D01*
X156225992Y-119440568D01*
X156436433Y-119333343D01*
X156627510Y-119194517D01*
X156794517Y-119027510D01*
X156933343Y-118836433D01*
X157040568Y-118625992D01*
X157113553Y-118401368D01*
X157119313Y-118364999D01*
X157150500Y-118168097D01*
X157150500Y-117931902D01*
X157113553Y-117698631D01*
X157079689Y-117594412D01*
X157040568Y-117474008D01*
X157040566Y-117474005D01*
X157040566Y-117474003D01*
X156984002Y-117362991D01*
X156933343Y-117263567D01*
X156794517Y-117072490D01*
X156627510Y-116905483D01*
X156436433Y-116766657D01*
X156409200Y-116752781D01*
X156225996Y-116659433D01*
X156001368Y-116586446D01*
X155768097Y-116549500D01*
X155768092Y-116549500D01*
X155531908Y-116549500D01*
X155531903Y-116549500D01*
X155298631Y-116586446D01*
X155074003Y-116659433D01*
X154863566Y-116766657D01*
X154780742Y-116826833D01*
X154672490Y-116905483D01*
X154672488Y-116905485D01*
X154672487Y-116905485D01*
X154505485Y-117072487D01*
X154505485Y-117072488D01*
X154505483Y-117072490D01*
X154449169Y-117150000D01*
X154366657Y-117263566D01*
X154259433Y-117474003D01*
X154186446Y-117698631D01*
X154149500Y-117931902D01*
X154149500Y-118168097D01*
X154186446Y-118401368D01*
X154259433Y-118625996D01*
X154345252Y-118794423D01*
X154366657Y-118836433D01*
X154505483Y-119027510D01*
X154672490Y-119194517D01*
X154863567Y-119333343D01*
X154962991Y-119384002D01*
X155074003Y-119440566D01*
X155074005Y-119440566D01*
X155074008Y-119440568D01*
X155126334Y-119457569D01*
X155184008Y-119497007D01*
X155211206Y-119561366D01*
X155199291Y-119630212D01*
X155152047Y-119681688D01*
X155088014Y-119699500D01*
X150065840Y-119699500D01*
X150065788Y-119699486D01*
X149998426Y-119699500D01*
X149926353Y-119699500D01*
X149926123Y-119699514D01*
X147779241Y-119699960D01*
X147776608Y-119699933D01*
X147764577Y-119699680D01*
X147756571Y-119699252D01*
X147527654Y-119679587D01*
X147511819Y-119677189D01*
X147291271Y-119629040D01*
X147275877Y-119624620D01*
X147063376Y-119548446D01*
X147048691Y-119542084D01*
X146847780Y-119439156D01*
X146834029Y-119430950D01*
X146648057Y-119302983D01*
X146635477Y-119293071D01*
X146531528Y-119199681D01*
X146467554Y-119142206D01*
X146456359Y-119130758D01*
X146367686Y-119027511D01*
X146309282Y-118959507D01*
X146299654Y-118946709D01*
X146175877Y-118757932D01*
X146167979Y-118744000D01*
X146090279Y-118583604D01*
X146069565Y-118540845D01*
X146063530Y-118526015D01*
X145992120Y-118311858D01*
X145988046Y-118296370D01*
X145984182Y-118276557D01*
X145944833Y-118074799D01*
X145942792Y-118058936D01*
X145928247Y-117829699D01*
X145927999Y-117821879D01*
X145928078Y-117759741D01*
X145928007Y-117759477D01*
X145928058Y-117497648D01*
X146699500Y-117497648D01*
X146699500Y-117702351D01*
X146731522Y-117904534D01*
X146794781Y-118099223D01*
X146829875Y-118168097D01*
X146885138Y-118276557D01*
X146887715Y-118281613D01*
X147008028Y-118447213D01*
X147152786Y-118591971D01*
X147270626Y-118677585D01*
X147318390Y-118712287D01*
X147434607Y-118771503D01*
X147500776Y-118805218D01*
X147500778Y-118805218D01*
X147500781Y-118805220D01*
X147564711Y-118825992D01*
X147695465Y-118868477D01*
X147796557Y-118884488D01*
X147897648Y-118900500D01*
X147897649Y-118900500D01*
X148102351Y-118900500D01*
X148102352Y-118900500D01*
X148304534Y-118868477D01*
X148499219Y-118805220D01*
X148681610Y-118712287D01*
X148774590Y-118644732D01*
X148847213Y-118591971D01*
X148847215Y-118591968D01*
X148847219Y-118591966D01*
X148991966Y-118447219D01*
X148991968Y-118447215D01*
X148991971Y-118447213D01*
X149051702Y-118364999D01*
X149112287Y-118281610D01*
X149205220Y-118099219D01*
X149268477Y-117904534D01*
X149300500Y-117702352D01*
X149300500Y-117497648D01*
X149275947Y-117342630D01*
X149268477Y-117295465D01*
X149211028Y-117118656D01*
X149205220Y-117100781D01*
X149205218Y-117100778D01*
X149205218Y-117100776D01*
X149138244Y-116969334D01*
X149112287Y-116918390D01*
X149082586Y-116877510D01*
X148991971Y-116752786D01*
X148847213Y-116608028D01*
X148681613Y-116487715D01*
X148681612Y-116487714D01*
X148681610Y-116487713D01*
X148622059Y-116457370D01*
X148499223Y-116394781D01*
X148304534Y-116331522D01*
X148129995Y-116303878D01*
X148102352Y-116299500D01*
X147897648Y-116299500D01*
X147873329Y-116303351D01*
X147695465Y-116331522D01*
X147500776Y-116394781D01*
X147318386Y-116487715D01*
X147152786Y-116608028D01*
X147008028Y-116752786D01*
X146887715Y-116918386D01*
X146794781Y-117100776D01*
X146731522Y-117295465D01*
X146699500Y-117497648D01*
X145928058Y-117497648D01*
X145928529Y-115099983D01*
X175419500Y-115099983D01*
X175419500Y-116700001D01*
X175419501Y-116700018D01*
X175430000Y-116802796D01*
X175430001Y-116802799D01*
X175454759Y-116877512D01*
X175485186Y-116969334D01*
X175577288Y-117118656D01*
X175701344Y-117242712D01*
X175850666Y-117334814D01*
X176017203Y-117389999D01*
X176119991Y-117400500D01*
X177720008Y-117400499D01*
X177822797Y-117389999D01*
X177989334Y-117334814D01*
X178138656Y-117242712D01*
X178262712Y-117118656D01*
X178292512Y-117070341D01*
X178344458Y-117023618D01*
X178413420Y-117012395D01*
X178477503Y-117040238D01*
X178478758Y-117041385D01*
X178478786Y-117041353D01*
X178482481Y-117044508D01*
X178482490Y-117044517D01*
X178673567Y-117183343D01*
X178772991Y-117234002D01*
X178884003Y-117290566D01*
X178884005Y-117290566D01*
X178884008Y-117290568D01*
X179004412Y-117329689D01*
X179108631Y-117363553D01*
X179341903Y-117400500D01*
X179341908Y-117400500D01*
X179578097Y-117400500D01*
X179811368Y-117363553D01*
X179875762Y-117342630D01*
X180035992Y-117290568D01*
X180246433Y-117183343D01*
X180437510Y-117044517D01*
X180604517Y-116877510D01*
X180629682Y-116842872D01*
X180685011Y-116800207D01*
X180754625Y-116794228D01*
X180816420Y-116826833D01*
X180830315Y-116842870D01*
X180855483Y-116877510D01*
X181022490Y-117044517D01*
X181213567Y-117183343D01*
X181312991Y-117234002D01*
X181424003Y-117290566D01*
X181424005Y-117290566D01*
X181424008Y-117290568D01*
X181544412Y-117329689D01*
X181648631Y-117363553D01*
X181881903Y-117400500D01*
X181881908Y-117400500D01*
X182118097Y-117400500D01*
X182351368Y-117363553D01*
X182415762Y-117342630D01*
X182575992Y-117290568D01*
X182786433Y-117183343D01*
X182977510Y-117044517D01*
X183144517Y-116877510D01*
X183283343Y-116686433D01*
X183390568Y-116475992D01*
X183463553Y-116251368D01*
X183483571Y-116124981D01*
X183500500Y-116018097D01*
X183500500Y-115781902D01*
X183463553Y-115548631D01*
X183390566Y-115324003D01*
X183283342Y-115113566D01*
X183273479Y-115099991D01*
X183144517Y-114922490D01*
X182977510Y-114755483D01*
X182786433Y-114616657D01*
X182575996Y-114509433D01*
X182351368Y-114436446D01*
X182118097Y-114399500D01*
X182118092Y-114399500D01*
X181881908Y-114399500D01*
X181881903Y-114399500D01*
X181648631Y-114436446D01*
X181424003Y-114509433D01*
X181213566Y-114616657D01*
X181124536Y-114681342D01*
X181022490Y-114755483D01*
X181022488Y-114755485D01*
X181022487Y-114755485D01*
X180855484Y-114922488D01*
X180830318Y-114957127D01*
X180774987Y-114999792D01*
X180705374Y-115005771D01*
X180643579Y-114973165D01*
X180629682Y-114957127D01*
X180604517Y-114922490D01*
X180437510Y-114755483D01*
X180246433Y-114616657D01*
X180035996Y-114509433D01*
X179811368Y-114436446D01*
X179578097Y-114399500D01*
X179578092Y-114399500D01*
X179341908Y-114399500D01*
X179341903Y-114399500D01*
X179108630Y-114436447D01*
X179108627Y-114436447D01*
X178962818Y-114483824D01*
X178892977Y-114485819D01*
X178833144Y-114449739D01*
X178802316Y-114387038D01*
X178800500Y-114365893D01*
X178800500Y-113631947D01*
X184250000Y-113631947D01*
X184250000Y-113868052D01*
X184286934Y-114101247D01*
X184359897Y-114325802D01*
X184467087Y-114536174D01*
X184527338Y-114619104D01*
X184527340Y-114619105D01*
X185226212Y-113920233D01*
X185237482Y-113962292D01*
X185309890Y-114087708D01*
X185412292Y-114190110D01*
X185537708Y-114262518D01*
X185579765Y-114273787D01*
X184880893Y-114972658D01*
X184963828Y-115032914D01*
X185174197Y-115140102D01*
X185398752Y-115213065D01*
X185398751Y-115213065D01*
X185631948Y-115250000D01*
X185868052Y-115250000D01*
X186101247Y-115213065D01*
X186325802Y-115140102D01*
X186536163Y-115032918D01*
X186536169Y-115032914D01*
X186619104Y-114972658D01*
X186619105Y-114972658D01*
X185920233Y-114273787D01*
X185962292Y-114262518D01*
X186087708Y-114190110D01*
X186190110Y-114087708D01*
X186262518Y-113962292D01*
X186273787Y-113920234D01*
X186972658Y-114619105D01*
X186972658Y-114619104D01*
X187032914Y-114536169D01*
X187032918Y-114536163D01*
X187140102Y-114325802D01*
X187213065Y-114101247D01*
X187250000Y-113868052D01*
X187250000Y-113631947D01*
X187213065Y-113398752D01*
X187140102Y-113174197D01*
X187032914Y-112963828D01*
X186972658Y-112880894D01*
X186972658Y-112880893D01*
X186273787Y-113579765D01*
X186262518Y-113537708D01*
X186190110Y-113412292D01*
X186087708Y-113309890D01*
X185962292Y-113237482D01*
X185920234Y-113226212D01*
X186619105Y-112527340D01*
X186619104Y-112527338D01*
X186536174Y-112467087D01*
X186325802Y-112359897D01*
X186101247Y-112286934D01*
X186101248Y-112286934D01*
X185868052Y-112250000D01*
X185631948Y-112250000D01*
X185398752Y-112286934D01*
X185174197Y-112359897D01*
X184963830Y-112467084D01*
X184880894Y-112527340D01*
X185579766Y-113226212D01*
X185537708Y-113237482D01*
X185412292Y-113309890D01*
X185309890Y-113412292D01*
X185237482Y-113537708D01*
X185226212Y-113579766D01*
X184527340Y-112880894D01*
X184467084Y-112963830D01*
X184359897Y-113174197D01*
X184286934Y-113398752D01*
X184250000Y-113631947D01*
X178800500Y-113631947D01*
X178800500Y-102245134D01*
X178820185Y-102178095D01*
X178872989Y-102132340D01*
X178942147Y-102122396D01*
X178971950Y-102130572D01*
X179066503Y-102169737D01*
X179221153Y-102200499D01*
X179221156Y-102200500D01*
X179221158Y-102200500D01*
X179378844Y-102200500D01*
X179378845Y-102200499D01*
X179533497Y-102169737D01*
X179679179Y-102109394D01*
X179810289Y-102021789D01*
X179921789Y-101910289D01*
X180009394Y-101779179D01*
X180010275Y-101777050D01*
X180011035Y-101776107D01*
X180012262Y-101773813D01*
X180012697Y-101774045D01*
X180022818Y-101761483D01*
X180031123Y-101743300D01*
X180044289Y-101734837D01*
X180054112Y-101722648D01*
X180073081Y-101716333D01*
X180089900Y-101705524D01*
X180117453Y-101701562D01*
X180120405Y-101700580D01*
X180124835Y-101700501D01*
X180179057Y-101700501D01*
X180179060Y-101700500D01*
X180186667Y-101700500D01*
X182320234Y-101700500D01*
X182387273Y-101720185D01*
X182389125Y-101721398D01*
X182520814Y-101809390D01*
X182520827Y-101809397D01*
X182574402Y-101831588D01*
X182666503Y-101869737D01*
X182821153Y-101900499D01*
X182821156Y-101900500D01*
X182821158Y-101900500D01*
X182978844Y-101900500D01*
X182978845Y-101900499D01*
X183133497Y-101869737D01*
X183279179Y-101809394D01*
X183410289Y-101721789D01*
X183521789Y-101610289D01*
X183609394Y-101479179D01*
X183669737Y-101333497D01*
X183700500Y-101178842D01*
X183700500Y-101021158D01*
X183700500Y-101021155D01*
X183700499Y-101021153D01*
X183672443Y-100880109D01*
X183669737Y-100866503D01*
X183658936Y-100840426D01*
X183609397Y-100720827D01*
X183609390Y-100720814D01*
X183521789Y-100589711D01*
X183521786Y-100589707D01*
X183410292Y-100478213D01*
X183410288Y-100478210D01*
X183279185Y-100390609D01*
X183279172Y-100390602D01*
X183133501Y-100330264D01*
X183133489Y-100330261D01*
X182978845Y-100299500D01*
X182978842Y-100299500D01*
X182821158Y-100299500D01*
X182821155Y-100299500D01*
X182666510Y-100330261D01*
X182666498Y-100330264D01*
X182520827Y-100390602D01*
X182520814Y-100390609D01*
X182389125Y-100478602D01*
X182322447Y-100499480D01*
X182320234Y-100499500D01*
X180400097Y-100499500D01*
X180333058Y-100479815D01*
X180312416Y-100463181D01*
X179636819Y-99787584D01*
X179603334Y-99726261D01*
X179600500Y-99699903D01*
X179600500Y-94221153D01*
X187699500Y-94221153D01*
X187699500Y-98978846D01*
X187730261Y-99133489D01*
X187730264Y-99133501D01*
X187790602Y-99279172D01*
X187790609Y-99279185D01*
X187878210Y-99410288D01*
X187878213Y-99410292D01*
X187989707Y-99521786D01*
X187989711Y-99521789D01*
X188120814Y-99609390D01*
X188120827Y-99609397D01*
X188266498Y-99669735D01*
X188266503Y-99669737D01*
X188363641Y-99689059D01*
X188421153Y-99700499D01*
X188421156Y-99700500D01*
X188421158Y-99700500D01*
X188578844Y-99700500D01*
X188578845Y-99700499D01*
X188733497Y-99669737D01*
X188879179Y-99609394D01*
X189010289Y-99521789D01*
X189121789Y-99410289D01*
X189209394Y-99279179D01*
X189269737Y-99133497D01*
X189300500Y-98978842D01*
X189300500Y-95181902D01*
X193199500Y-95181902D01*
X193199500Y-95418097D01*
X193236446Y-95651368D01*
X193309433Y-95875996D01*
X193391114Y-96036303D01*
X193416657Y-96086433D01*
X193555483Y-96277510D01*
X193722490Y-96444517D01*
X193757127Y-96469683D01*
X193799792Y-96525013D01*
X193805771Y-96594626D01*
X193773165Y-96656421D01*
X193757130Y-96670315D01*
X193739365Y-96683222D01*
X193722488Y-96695484D01*
X193555485Y-96862487D01*
X193555485Y-96862488D01*
X193555483Y-96862490D01*
X193513016Y-96920941D01*
X193416657Y-97053566D01*
X193309433Y-97264003D01*
X193236446Y-97488631D01*
X193199500Y-97721902D01*
X193199500Y-97958097D01*
X193236446Y-98191368D01*
X193309433Y-98415996D01*
X193368925Y-98532754D01*
X193416657Y-98626433D01*
X193555483Y-98817510D01*
X193555489Y-98817516D01*
X193558647Y-98821214D01*
X193556864Y-98822736D01*
X193585726Y-98875591D01*
X193580742Y-98945283D01*
X193538870Y-99001216D01*
X193529658Y-99007487D01*
X193481344Y-99037287D01*
X193357289Y-99161342D01*
X193265187Y-99310663D01*
X193265185Y-99310668D01*
X193246117Y-99368213D01*
X193210001Y-99477203D01*
X193210001Y-99477204D01*
X193210000Y-99477204D01*
X193199500Y-99579983D01*
X193199500Y-101180001D01*
X193199501Y-101180018D01*
X193210000Y-101282796D01*
X193210001Y-101282799D01*
X193242297Y-101380261D01*
X193265186Y-101449334D01*
X193357288Y-101598656D01*
X193481344Y-101722712D01*
X193630666Y-101814814D01*
X193797203Y-101869999D01*
X193899991Y-101880500D01*
X195500008Y-101880499D01*
X195602797Y-101869999D01*
X195769334Y-101814814D01*
X195918656Y-101722712D01*
X196042712Y-101598656D01*
X196134814Y-101449334D01*
X196189999Y-101282797D01*
X196200500Y-101180009D01*
X196200499Y-99579992D01*
X196189999Y-99477203D01*
X196134814Y-99310666D01*
X196042712Y-99161344D01*
X195918656Y-99037288D01*
X195918655Y-99037287D01*
X195870342Y-99007487D01*
X195823618Y-98955539D01*
X195812397Y-98886576D01*
X195840241Y-98822494D01*
X195841381Y-98821249D01*
X195841348Y-98821221D01*
X195844511Y-98817516D01*
X195844511Y-98817515D01*
X195844517Y-98817510D01*
X195983343Y-98626433D01*
X196090568Y-98415992D01*
X196163553Y-98191368D01*
X196200500Y-97958097D01*
X196200500Y-97721902D01*
X196163553Y-97488631D01*
X196102294Y-97300097D01*
X196090568Y-97264008D01*
X196090566Y-97264005D01*
X196090566Y-97264003D01*
X195983342Y-97053566D01*
X195844517Y-96862490D01*
X195677510Y-96695483D01*
X195642872Y-96670317D01*
X195600207Y-96614989D01*
X195594228Y-96545375D01*
X195626833Y-96483580D01*
X195642873Y-96469682D01*
X195677510Y-96444517D01*
X195844517Y-96277510D01*
X195983343Y-96086433D01*
X196090568Y-95875992D01*
X196163553Y-95651368D01*
X196200500Y-95418097D01*
X196200500Y-95181902D01*
X196163553Y-94948631D01*
X196104378Y-94766510D01*
X196090568Y-94724008D01*
X196090566Y-94724005D01*
X196090566Y-94724003D01*
X195983342Y-94513566D01*
X195844517Y-94322490D01*
X195677510Y-94155483D01*
X195486433Y-94016657D01*
X195275996Y-93909433D01*
X195051368Y-93836446D01*
X194818097Y-93799500D01*
X194818092Y-93799500D01*
X194581908Y-93799500D01*
X194581903Y-93799500D01*
X194348631Y-93836446D01*
X194124003Y-93909433D01*
X193913566Y-94016657D01*
X193840509Y-94069737D01*
X193722490Y-94155483D01*
X193722488Y-94155485D01*
X193722487Y-94155485D01*
X193555485Y-94322487D01*
X193555485Y-94322488D01*
X193555483Y-94322490D01*
X193515000Y-94378210D01*
X193416657Y-94513566D01*
X193309433Y-94724003D01*
X193236446Y-94948631D01*
X193199500Y-95181902D01*
X189300500Y-95181902D01*
X189300500Y-94221158D01*
X189300500Y-94221155D01*
X189300499Y-94221153D01*
X189286094Y-94148735D01*
X189269737Y-94066503D01*
X189237654Y-93989046D01*
X189209397Y-93920827D01*
X189209390Y-93920814D01*
X189121789Y-93789711D01*
X189121786Y-93789707D01*
X189010292Y-93678213D01*
X189010288Y-93678210D01*
X188879185Y-93590609D01*
X188879172Y-93590602D01*
X188733501Y-93530264D01*
X188733489Y-93530261D01*
X188578845Y-93499500D01*
X188578842Y-93499500D01*
X188421158Y-93499500D01*
X188421155Y-93499500D01*
X188266510Y-93530261D01*
X188266498Y-93530264D01*
X188120827Y-93590602D01*
X188120814Y-93590609D01*
X187989711Y-93678210D01*
X187989707Y-93678213D01*
X187878213Y-93789707D01*
X187878210Y-93789711D01*
X187790609Y-93920814D01*
X187790602Y-93920827D01*
X187730264Y-94066498D01*
X187730261Y-94066510D01*
X187699500Y-94221153D01*
X179600500Y-94221153D01*
X179600500Y-94217847D01*
X179609444Y-94187385D01*
X179616746Y-94156487D01*
X179619217Y-94154101D01*
X179620185Y-94150808D01*
X179644167Y-94130026D01*
X179667025Y-94107971D01*
X179671404Y-94106426D01*
X179672989Y-94105053D01*
X179700309Y-94096230D01*
X179714290Y-94093449D01*
X179730524Y-94090219D01*
X179833497Y-94069737D01*
X179951592Y-94020821D01*
X179979172Y-94009397D01*
X179979172Y-94009396D01*
X179979179Y-94009394D01*
X180110289Y-93921789D01*
X180221789Y-93810289D01*
X180309394Y-93679179D01*
X180369737Y-93533497D01*
X180400500Y-93378842D01*
X180400500Y-93221158D01*
X180400500Y-93221155D01*
X180400499Y-93221153D01*
X180398159Y-93209390D01*
X180369737Y-93066503D01*
X180369735Y-93066498D01*
X180309397Y-92920827D01*
X180309390Y-92920814D01*
X180221789Y-92789711D01*
X180221786Y-92789707D01*
X180110292Y-92678213D01*
X180110288Y-92678210D01*
X179979185Y-92590609D01*
X179979172Y-92590602D01*
X179833501Y-92530264D01*
X179833489Y-92530261D01*
X179678845Y-92499500D01*
X179678842Y-92499500D01*
X179521158Y-92499500D01*
X179521155Y-92499500D01*
X179366510Y-92530261D01*
X179366498Y-92530264D01*
X179220827Y-92590602D01*
X179220814Y-92590609D01*
X179089711Y-92678210D01*
X179089707Y-92678213D01*
X178978213Y-92789707D01*
X178978210Y-92789711D01*
X178890609Y-92920814D01*
X178890602Y-92920827D01*
X178830264Y-93066498D01*
X178830261Y-93066508D01*
X178799362Y-93221848D01*
X178790596Y-93238605D01*
X178786577Y-93257082D01*
X178767832Y-93282123D01*
X178766977Y-93283759D01*
X178765427Y-93285337D01*
X178705915Y-93344849D01*
X178631286Y-93419478D01*
X178631285Y-93419478D01*
X178631284Y-93419479D01*
X178519479Y-93531284D01*
X178499499Y-93565891D01*
X178491054Y-93580520D01*
X178473867Y-93610289D01*
X178442432Y-93664736D01*
X178440423Y-93668215D01*
X178399499Y-93820943D01*
X178399499Y-93820945D01*
X178399499Y-93989046D01*
X178399500Y-93989059D01*
X178399500Y-98596560D01*
X178379815Y-98663599D01*
X178327011Y-98709354D01*
X178257853Y-98719298D01*
X178194297Y-98690273D01*
X178172398Y-98665451D01*
X178121789Y-98589711D01*
X178121786Y-98589707D01*
X178010292Y-98478213D01*
X178010288Y-98478210D01*
X177879185Y-98390609D01*
X177879172Y-98390602D01*
X177733501Y-98330264D01*
X177733489Y-98330261D01*
X177578845Y-98299500D01*
X177578842Y-98299500D01*
X177421158Y-98299500D01*
X177421155Y-98299500D01*
X177266510Y-98330261D01*
X177266498Y-98330264D01*
X177120827Y-98390602D01*
X177120814Y-98390609D01*
X176989711Y-98478210D01*
X176989707Y-98478213D01*
X176878213Y-98589707D01*
X176878210Y-98589711D01*
X176790609Y-98720814D01*
X176790602Y-98720827D01*
X176730264Y-98866498D01*
X176730261Y-98866508D01*
X176699362Y-99021847D01*
X176690597Y-99038602D01*
X176686578Y-99057081D01*
X176667834Y-99082118D01*
X176666977Y-99083758D01*
X176665427Y-99085335D01*
X176624224Y-99126538D01*
X176624212Y-99126552D01*
X176519478Y-99231285D01*
X176487312Y-99286999D01*
X176477756Y-99303553D01*
X176440423Y-99368215D01*
X176399499Y-99520943D01*
X176399499Y-99520945D01*
X176399499Y-99689046D01*
X176399500Y-99689059D01*
X176399500Y-113020234D01*
X176379815Y-113087273D01*
X176378602Y-113089125D01*
X176290609Y-113220814D01*
X176290602Y-113220827D01*
X176230264Y-113366498D01*
X176230261Y-113366510D01*
X176199500Y-113521153D01*
X176199500Y-113678846D01*
X176230261Y-113833489D01*
X176230264Y-113833501D01*
X176290602Y-113979172D01*
X176290609Y-113979185D01*
X176378210Y-114110288D01*
X176378213Y-114110292D01*
X176455740Y-114187819D01*
X176489225Y-114249142D01*
X176484241Y-114318834D01*
X176442369Y-114374767D01*
X176376905Y-114399184D01*
X176368059Y-114399500D01*
X176119999Y-114399500D01*
X176119980Y-114399501D01*
X176017203Y-114410000D01*
X176017200Y-114410001D01*
X175850668Y-114465185D01*
X175850663Y-114465187D01*
X175701342Y-114557289D01*
X175577289Y-114681342D01*
X175485187Y-114830663D01*
X175485185Y-114830668D01*
X175457349Y-114914670D01*
X175430001Y-114997203D01*
X175430001Y-114997204D01*
X175430000Y-114997204D01*
X175419500Y-115099983D01*
X145928529Y-115099983D01*
X145928857Y-113431947D01*
X154150000Y-113431947D01*
X154150000Y-113668052D01*
X154186934Y-113901247D01*
X154259897Y-114125802D01*
X154367087Y-114336174D01*
X154427338Y-114419104D01*
X154427340Y-114419105D01*
X155126212Y-113720233D01*
X155137482Y-113762292D01*
X155209890Y-113887708D01*
X155312292Y-113990110D01*
X155437708Y-114062518D01*
X155479765Y-114073787D01*
X154780893Y-114772658D01*
X154863828Y-114832914D01*
X155074197Y-114940102D01*
X155298752Y-115013065D01*
X155298751Y-115013065D01*
X155531948Y-115050000D01*
X155768052Y-115050000D01*
X156001247Y-115013065D01*
X156225802Y-114940102D01*
X156436163Y-114832918D01*
X156436169Y-114832914D01*
X156519104Y-114772658D01*
X156519105Y-114772658D01*
X155820233Y-114073787D01*
X155862292Y-114062518D01*
X155987708Y-113990110D01*
X156090110Y-113887708D01*
X156162518Y-113762292D01*
X156173787Y-113720233D01*
X156872658Y-114419105D01*
X156872658Y-114419104D01*
X156932914Y-114336169D01*
X156932918Y-114336163D01*
X157040102Y-114125802D01*
X157113065Y-113901247D01*
X157150000Y-113668052D01*
X157150000Y-113431947D01*
X160650000Y-113431947D01*
X160650000Y-113668052D01*
X160686934Y-113901247D01*
X160759897Y-114125802D01*
X160867087Y-114336174D01*
X160927338Y-114419104D01*
X160927340Y-114419105D01*
X161626212Y-113720233D01*
X161637482Y-113762292D01*
X161709890Y-113887708D01*
X161812292Y-113990110D01*
X161937708Y-114062518D01*
X161979765Y-114073787D01*
X161280893Y-114772658D01*
X161363828Y-114832914D01*
X161574197Y-114940102D01*
X161798752Y-115013065D01*
X161798751Y-115013065D01*
X162031948Y-115050000D01*
X162268052Y-115050000D01*
X162501247Y-115013065D01*
X162606389Y-114978903D01*
X162725802Y-114940102D01*
X162936163Y-114832918D01*
X162936169Y-114832914D01*
X163019104Y-114772658D01*
X163019105Y-114772658D01*
X162320233Y-114073787D01*
X162362292Y-114062518D01*
X162487708Y-113990110D01*
X162590110Y-113887708D01*
X162662518Y-113762292D01*
X162673787Y-113720233D01*
X163372658Y-114419105D01*
X163372658Y-114419104D01*
X163432914Y-114336169D01*
X163432918Y-114336163D01*
X163540102Y-114125802D01*
X163613065Y-113901247D01*
X163650000Y-113668052D01*
X163650000Y-113431947D01*
X163613065Y-113198752D01*
X163540102Y-112974197D01*
X163432914Y-112763828D01*
X163372658Y-112680894D01*
X163372658Y-112680893D01*
X162673787Y-113379765D01*
X162662518Y-113337708D01*
X162590110Y-113212292D01*
X162487708Y-113109890D01*
X162362292Y-113037482D01*
X162320234Y-113026212D01*
X163019105Y-112327340D01*
X163019104Y-112327338D01*
X162936174Y-112267087D01*
X162725802Y-112159897D01*
X162501247Y-112086934D01*
X162501248Y-112086934D01*
X162268052Y-112050000D01*
X162031948Y-112050000D01*
X161798752Y-112086934D01*
X161574197Y-112159897D01*
X161363830Y-112267084D01*
X161280894Y-112327340D01*
X161979766Y-113026212D01*
X161937708Y-113037482D01*
X161812292Y-113109890D01*
X161709890Y-113212292D01*
X161637482Y-113337708D01*
X161626212Y-113379766D01*
X160927340Y-112680894D01*
X160867084Y-112763830D01*
X160759897Y-112974197D01*
X160686934Y-113198752D01*
X160650000Y-113431947D01*
X157150000Y-113431947D01*
X157113065Y-113198752D01*
X157040102Y-112974197D01*
X156932914Y-112763828D01*
X156872658Y-112680894D01*
X156872658Y-112680893D01*
X156173787Y-113379765D01*
X156162518Y-113337708D01*
X156090110Y-113212292D01*
X155987708Y-113109890D01*
X155862292Y-113037482D01*
X155820234Y-113026212D01*
X156519105Y-112327340D01*
X156519104Y-112327339D01*
X156436174Y-112267087D01*
X156225802Y-112159897D01*
X156001247Y-112086934D01*
X156001248Y-112086934D01*
X155768052Y-112050000D01*
X155531948Y-112050000D01*
X155298752Y-112086934D01*
X155074197Y-112159897D01*
X154863830Y-112267084D01*
X154780894Y-112327340D01*
X155479766Y-113026212D01*
X155437708Y-113037482D01*
X155312292Y-113109890D01*
X155209890Y-113212292D01*
X155137482Y-113337708D01*
X155126212Y-113379766D01*
X154427340Y-112680894D01*
X154367084Y-112763830D01*
X154259897Y-112974197D01*
X154186934Y-113198752D01*
X154150000Y-113431947D01*
X145928857Y-113431947D01*
X145931548Y-99743713D01*
X147199500Y-99743713D01*
X147199500Y-99956286D01*
X147218944Y-100079054D01*
X147232754Y-100166243D01*
X147270333Y-100281900D01*
X147298444Y-100368414D01*
X147394951Y-100557820D01*
X147519890Y-100729786D01*
X147670209Y-100880105D01*
X147670214Y-100880109D01*
X147834793Y-100999682D01*
X147877459Y-101055011D01*
X147883438Y-101124625D01*
X147850833Y-101186420D01*
X147834793Y-101200318D01*
X147670214Y-101319890D01*
X147670209Y-101319894D01*
X147519890Y-101470213D01*
X147394951Y-101642179D01*
X147298444Y-101831585D01*
X147232753Y-102033760D01*
X147199500Y-102243713D01*
X147199500Y-102456286D01*
X147231903Y-102660874D01*
X147232754Y-102666243D01*
X147252674Y-102727551D01*
X147298444Y-102868414D01*
X147394951Y-103057820D01*
X147519890Y-103229786D01*
X147670209Y-103380105D01*
X147670214Y-103380109D01*
X147834793Y-103499682D01*
X147877459Y-103555011D01*
X147883438Y-103624625D01*
X147850833Y-103686420D01*
X147834793Y-103700318D01*
X147670214Y-103819890D01*
X147670209Y-103819894D01*
X147519890Y-103970213D01*
X147394951Y-104142179D01*
X147298444Y-104331585D01*
X147232753Y-104533760D01*
X147208408Y-104687472D01*
X147199500Y-104743713D01*
X147199500Y-104956287D01*
X147202801Y-104977131D01*
X147229640Y-105146587D01*
X147232754Y-105166243D01*
X147272720Y-105289246D01*
X147298444Y-105368414D01*
X147394951Y-105557820D01*
X147519890Y-105729786D01*
X147659068Y-105868964D01*
X147692553Y-105930287D01*
X147687569Y-105999979D01*
X147645697Y-106055912D01*
X147636484Y-106062183D01*
X147481659Y-106157680D01*
X147481655Y-106157683D01*
X147357684Y-106281654D01*
X147265643Y-106430875D01*
X147265641Y-106430880D01*
X147210494Y-106597302D01*
X147210493Y-106597309D01*
X147200000Y-106700013D01*
X147200000Y-107100000D01*
X148270854Y-107100000D01*
X148232370Y-107166657D01*
X148200000Y-107287465D01*
X148200000Y-107412535D01*
X148232370Y-107533343D01*
X148270854Y-107600000D01*
X147200001Y-107600000D01*
X147200001Y-107999986D01*
X147210494Y-108102697D01*
X147265641Y-108269119D01*
X147265643Y-108269124D01*
X147357684Y-108418345D01*
X147481654Y-108542315D01*
X147630875Y-108634356D01*
X147630880Y-108634358D01*
X147797302Y-108689505D01*
X147797309Y-108689506D01*
X147900019Y-108699999D01*
X148424999Y-108699999D01*
X148425000Y-108699998D01*
X148425000Y-107754145D01*
X148491657Y-107792630D01*
X148612465Y-107825000D01*
X148737535Y-107825000D01*
X148858343Y-107792630D01*
X148925000Y-107754145D01*
X148925000Y-108699999D01*
X149449972Y-108699999D01*
X149449986Y-108699998D01*
X149552697Y-108689505D01*
X149719119Y-108634358D01*
X149719124Y-108634356D01*
X149868345Y-108542315D01*
X149992315Y-108418345D01*
X150084356Y-108269124D01*
X150084358Y-108269119D01*
X150139505Y-108102697D01*
X150139506Y-108102690D01*
X150149999Y-107999986D01*
X150150000Y-107999973D01*
X150150000Y-107600000D01*
X149079146Y-107600000D01*
X149117630Y-107533343D01*
X149150000Y-107412535D01*
X149150000Y-107287465D01*
X149117630Y-107166657D01*
X149079146Y-107100000D01*
X150149999Y-107100000D01*
X150149999Y-106700028D01*
X150149998Y-106700013D01*
X150139505Y-106597302D01*
X150084358Y-106430880D01*
X150084356Y-106430875D01*
X149992315Y-106281654D01*
X149868345Y-106157684D01*
X149713515Y-106062184D01*
X149666791Y-106010236D01*
X149655568Y-105941273D01*
X149683412Y-105877191D01*
X149690909Y-105868986D01*
X149830104Y-105729792D01*
X149851387Y-105700499D01*
X149955048Y-105557820D01*
X149955047Y-105557820D01*
X149955051Y-105557816D01*
X150051557Y-105368412D01*
X150117246Y-105166243D01*
X150150500Y-104956287D01*
X150150500Y-104743713D01*
X150117246Y-104533757D01*
X150051557Y-104331588D01*
X149955051Y-104142184D01*
X149955049Y-104142181D01*
X149955048Y-104142179D01*
X149830109Y-103970213D01*
X149679792Y-103819896D01*
X149566498Y-103737584D01*
X149515204Y-103700316D01*
X149472540Y-103644989D01*
X149466561Y-103575376D01*
X149499166Y-103513580D01*
X149515199Y-103499686D01*
X149679792Y-103380104D01*
X149830104Y-103229792D01*
X149830106Y-103229788D01*
X149830109Y-103229786D01*
X149955048Y-103057820D01*
X149955047Y-103057820D01*
X149955051Y-103057816D01*
X150051557Y-102868412D01*
X150117246Y-102666243D01*
X150150500Y-102456287D01*
X150150500Y-102243713D01*
X150117246Y-102033757D01*
X150051557Y-101831588D01*
X149955051Y-101642184D01*
X149955049Y-101642181D01*
X149955048Y-101642179D01*
X149830109Y-101470213D01*
X149679792Y-101319896D01*
X149628729Y-101282797D01*
X149515204Y-101200316D01*
X149472540Y-101144989D01*
X149466561Y-101075376D01*
X149499166Y-101013580D01*
X149515199Y-100999686D01*
X149679792Y-100880104D01*
X149830104Y-100729792D01*
X149830106Y-100729788D01*
X149830109Y-100729786D01*
X149955048Y-100557820D01*
X149955047Y-100557820D01*
X149955051Y-100557816D01*
X150051557Y-100368412D01*
X150117246Y-100166243D01*
X150150500Y-99956287D01*
X150150500Y-99743713D01*
X150117246Y-99533757D01*
X150051557Y-99331588D01*
X149955051Y-99142184D01*
X149955049Y-99142181D01*
X149955048Y-99142179D01*
X149830109Y-98970213D01*
X149679786Y-98819890D01*
X149507820Y-98694951D01*
X149318414Y-98598444D01*
X149318413Y-98598443D01*
X149318412Y-98598443D01*
X149116243Y-98532754D01*
X149116241Y-98532753D01*
X149116240Y-98532753D01*
X148954957Y-98507208D01*
X148906287Y-98499500D01*
X148443713Y-98499500D01*
X148395042Y-98507208D01*
X148233760Y-98532753D01*
X148031585Y-98598444D01*
X147842179Y-98694951D01*
X147670213Y-98819890D01*
X147519890Y-98970213D01*
X147394951Y-99142179D01*
X147298444Y-99331585D01*
X147232753Y-99533760D01*
X147199500Y-99743713D01*
X145931548Y-99743713D01*
X145933996Y-87293713D01*
X147124500Y-87293713D01*
X147124500Y-87506286D01*
X147156562Y-87708721D01*
X147157754Y-87716243D01*
X147201625Y-87851264D01*
X147223444Y-87918414D01*
X147319951Y-88107820D01*
X147444890Y-88279786D01*
X147595209Y-88430105D01*
X147595214Y-88430109D01*
X147759793Y-88549682D01*
X147802459Y-88605011D01*
X147808438Y-88674625D01*
X147775833Y-88736420D01*
X147759793Y-88750318D01*
X147595214Y-88869890D01*
X147595209Y-88869894D01*
X147444890Y-89020213D01*
X147319951Y-89192179D01*
X147223444Y-89381585D01*
X147157753Y-89583760D01*
X147124500Y-89793713D01*
X147124500Y-90006286D01*
X147152028Y-90180095D01*
X147157754Y-90216243D01*
X147220572Y-90409577D01*
X147223444Y-90418414D01*
X147319951Y-90607820D01*
X147444890Y-90779786D01*
X147584068Y-90918964D01*
X147617553Y-90980287D01*
X147612569Y-91049979D01*
X147570697Y-91105912D01*
X147561484Y-91112183D01*
X147406659Y-91207680D01*
X147406655Y-91207683D01*
X147282684Y-91331654D01*
X147190643Y-91480875D01*
X147190641Y-91480880D01*
X147135494Y-91647302D01*
X147135493Y-91647309D01*
X147125000Y-91750013D01*
X147125000Y-92150000D01*
X148195854Y-92150000D01*
X148157370Y-92216657D01*
X148125000Y-92337465D01*
X148125000Y-92462535D01*
X148157370Y-92583343D01*
X148195854Y-92650000D01*
X147125001Y-92650000D01*
X147125001Y-93049986D01*
X147135494Y-93152697D01*
X147190641Y-93319119D01*
X147190643Y-93319124D01*
X147282684Y-93468345D01*
X147406654Y-93592315D01*
X147555875Y-93684356D01*
X147555880Y-93684358D01*
X147722302Y-93739505D01*
X147722309Y-93739506D01*
X147825019Y-93749999D01*
X148349999Y-93749999D01*
X148350000Y-93749998D01*
X148350000Y-92804145D01*
X148416657Y-92842630D01*
X148537465Y-92875000D01*
X148662535Y-92875000D01*
X148783343Y-92842630D01*
X148850000Y-92804145D01*
X148850000Y-93749999D01*
X149374972Y-93749999D01*
X149374986Y-93749998D01*
X149477697Y-93739505D01*
X149644119Y-93684358D01*
X149644124Y-93684356D01*
X149793345Y-93592315D01*
X149917315Y-93468345D01*
X150009356Y-93319124D01*
X150009358Y-93319119D01*
X150064505Y-93152697D01*
X150064506Y-93152690D01*
X150074999Y-93049986D01*
X150075000Y-93049973D01*
X150075000Y-92650000D01*
X149004146Y-92650000D01*
X149042630Y-92583343D01*
X149075000Y-92462535D01*
X149075000Y-92337465D01*
X149042630Y-92216657D01*
X149004146Y-92150000D01*
X150074999Y-92150000D01*
X150074999Y-91750028D01*
X150074998Y-91750013D01*
X150064505Y-91647302D01*
X150009358Y-91480880D01*
X150009356Y-91480875D01*
X149917315Y-91331654D01*
X149793345Y-91207684D01*
X149638515Y-91112184D01*
X149591791Y-91060236D01*
X149580568Y-90991273D01*
X149608412Y-90927191D01*
X149615909Y-90918986D01*
X149755104Y-90779792D01*
X149755550Y-90779179D01*
X149880048Y-90607820D01*
X149880047Y-90607820D01*
X149880051Y-90607816D01*
X149976557Y-90418412D01*
X150042246Y-90216243D01*
X150075500Y-90006287D01*
X150075500Y-89793713D01*
X150042246Y-89583757D01*
X149976557Y-89381588D01*
X149880051Y-89192184D01*
X149880049Y-89192181D01*
X149880048Y-89192179D01*
X149755109Y-89020213D01*
X149604792Y-88869896D01*
X149604784Y-88869890D01*
X149440204Y-88750316D01*
X149397540Y-88694989D01*
X149391561Y-88625376D01*
X149424166Y-88563580D01*
X149440199Y-88549686D01*
X149604792Y-88430104D01*
X149755104Y-88279792D01*
X149755106Y-88279788D01*
X149755109Y-88279786D01*
X149880048Y-88107820D01*
X149880047Y-88107820D01*
X149880051Y-88107816D01*
X149976557Y-87918412D01*
X150042246Y-87716243D01*
X150075500Y-87506287D01*
X150075500Y-87293713D01*
X150042246Y-87083757D01*
X149976557Y-86881588D01*
X149880051Y-86692184D01*
X149880049Y-86692181D01*
X149880048Y-86692179D01*
X149755109Y-86520213D01*
X149604786Y-86369890D01*
X149432820Y-86244951D01*
X149243414Y-86148444D01*
X149243413Y-86148443D01*
X149243412Y-86148443D01*
X149041243Y-86082754D01*
X149041241Y-86082753D01*
X149041240Y-86082753D01*
X148879957Y-86057208D01*
X148831287Y-86049500D01*
X148368713Y-86049500D01*
X148320042Y-86057208D01*
X148158760Y-86082753D01*
X147956585Y-86148444D01*
X147767179Y-86244951D01*
X147595213Y-86369890D01*
X147444890Y-86520213D01*
X147319951Y-86692179D01*
X147223444Y-86881585D01*
X147157753Y-87083760D01*
X147124500Y-87293713D01*
X145933996Y-87293713D01*
X145935751Y-78364457D01*
X145935979Y-77202135D01*
X148489500Y-77202135D01*
X148489500Y-78997870D01*
X148489501Y-78997876D01*
X148495908Y-79057483D01*
X148546202Y-79192328D01*
X148546206Y-79192335D01*
X148632452Y-79307544D01*
X148632455Y-79307547D01*
X148747664Y-79393793D01*
X148747671Y-79393797D01*
X148882517Y-79444091D01*
X148882516Y-79444091D01*
X148889444Y-79444835D01*
X148942127Y-79450500D01*
X150737872Y-79450499D01*
X150797483Y-79444091D01*
X150932331Y-79393796D01*
X151047546Y-79307546D01*
X151133796Y-79192331D01*
X151184091Y-79057483D01*
X151190500Y-78997873D01*
X151190499Y-78987312D01*
X151210179Y-78920275D01*
X151226818Y-78899626D01*
X151897037Y-78229408D01*
X151914075Y-78292993D01*
X151979901Y-78407007D01*
X152072993Y-78500099D01*
X152187007Y-78565925D01*
X152250589Y-78582962D01*
X151618282Y-79215269D01*
X151618282Y-79215270D01*
X151672449Y-79254624D01*
X151861782Y-79351095D01*
X152063870Y-79416757D01*
X152273754Y-79450000D01*
X152486246Y-79450000D01*
X152696127Y-79416757D01*
X152696130Y-79416757D01*
X152898217Y-79351095D01*
X153061205Y-79268048D01*
X153129874Y-79255152D01*
X153194614Y-79281428D01*
X153234872Y-79338534D01*
X153241500Y-79378533D01*
X153241500Y-84855330D01*
X153241499Y-84855348D01*
X153241499Y-85021054D01*
X153241498Y-85021054D01*
X153282423Y-85173785D01*
X153309649Y-85220942D01*
X153309651Y-85220944D01*
X153361479Y-85310714D01*
X153361481Y-85310717D01*
X153480349Y-85429585D01*
X153480355Y-85429590D01*
X156415139Y-88364374D01*
X156415149Y-88364385D01*
X156419479Y-88368715D01*
X156419480Y-88368716D01*
X156531284Y-88480520D01*
X156618095Y-88530639D01*
X156618097Y-88530641D01*
X156656151Y-88552611D01*
X156668215Y-88559577D01*
X156820943Y-88600500D01*
X156979057Y-88600500D01*
X157120234Y-88600500D01*
X157187273Y-88620185D01*
X157189125Y-88621398D01*
X157320814Y-88709390D01*
X157320827Y-88709397D01*
X157419621Y-88750318D01*
X157466503Y-88769737D01*
X157616131Y-88799500D01*
X157621153Y-88800499D01*
X157621156Y-88800500D01*
X157621158Y-88800500D01*
X157778844Y-88800500D01*
X157778845Y-88800499D01*
X157933497Y-88769737D01*
X158079179Y-88709394D01*
X158210289Y-88621789D01*
X158321789Y-88510289D01*
X158409394Y-88379179D01*
X158469737Y-88233497D01*
X158500500Y-88078842D01*
X158500500Y-87921158D01*
X158500500Y-87921155D01*
X158500499Y-87921153D01*
X158480062Y-87818412D01*
X158469737Y-87766503D01*
X158429233Y-87668716D01*
X158409397Y-87620827D01*
X158409390Y-87620814D01*
X158321789Y-87489711D01*
X158321786Y-87489707D01*
X158210292Y-87378213D01*
X158210288Y-87378210D01*
X158079185Y-87290609D01*
X158079172Y-87290602D01*
X157933501Y-87230264D01*
X157933489Y-87230261D01*
X157778845Y-87199500D01*
X157778842Y-87199500D01*
X157621158Y-87199500D01*
X157621155Y-87199500D01*
X157466510Y-87230261D01*
X157466498Y-87230264D01*
X157320827Y-87290602D01*
X157320809Y-87290612D01*
X157236998Y-87346613D01*
X157170321Y-87367491D01*
X157102941Y-87349006D01*
X157080427Y-87331192D01*
X154478819Y-84729584D01*
X154445334Y-84668261D01*
X154442500Y-84641903D01*
X154442500Y-79535521D01*
X154462185Y-79468482D01*
X154514989Y-79422727D01*
X154584147Y-79412783D01*
X154598991Y-79416235D01*
X154599022Y-79416109D01*
X154603751Y-79417244D01*
X154603757Y-79417246D01*
X154813713Y-79450500D01*
X154813714Y-79450500D01*
X155026286Y-79450500D01*
X155026287Y-79450500D01*
X155236243Y-79417246D01*
X155278523Y-79403507D01*
X155348362Y-79401511D01*
X155404522Y-79433757D01*
X159363181Y-83392416D01*
X159396666Y-83453739D01*
X159399500Y-83480097D01*
X159399500Y-91413330D01*
X159399499Y-91413348D01*
X159399499Y-91579054D01*
X159399498Y-91579054D01*
X159399499Y-91579057D01*
X159440423Y-91731785D01*
X159467786Y-91779179D01*
X159467786Y-91779180D01*
X159519475Y-91868709D01*
X159519481Y-91868717D01*
X159638349Y-91987585D01*
X159638355Y-91987590D01*
X160165425Y-92514660D01*
X160198910Y-92575983D01*
X160199361Y-92578149D01*
X160230261Y-92733491D01*
X160230264Y-92733501D01*
X160290602Y-92879172D01*
X160290609Y-92879185D01*
X160378210Y-93010288D01*
X160378213Y-93010292D01*
X160489707Y-93121786D01*
X160489711Y-93121789D01*
X160620814Y-93209390D01*
X160620827Y-93209397D01*
X160766498Y-93269735D01*
X160766503Y-93269737D01*
X160921153Y-93300499D01*
X160921156Y-93300500D01*
X160921158Y-93300500D01*
X161078844Y-93300500D01*
X161197074Y-93276982D01*
X161266666Y-93283209D01*
X161321843Y-93326072D01*
X161324368Y-93329708D01*
X161378210Y-93410288D01*
X161378213Y-93410292D01*
X161489707Y-93521786D01*
X161489711Y-93521789D01*
X161620814Y-93609390D01*
X161620827Y-93609397D01*
X161763507Y-93668496D01*
X161766503Y-93669737D01*
X161882659Y-93692842D01*
X161921153Y-93700499D01*
X161921156Y-93700500D01*
X161921158Y-93700500D01*
X162078844Y-93700500D01*
X162078845Y-93700499D01*
X162233497Y-93669737D01*
X162233509Y-93669731D01*
X162239324Y-93667969D01*
X162240158Y-93670720D01*
X162260601Y-93668496D01*
X162293147Y-93663817D01*
X162295159Y-93664736D01*
X162297359Y-93664497D01*
X162326779Y-93679176D01*
X162356703Y-93692842D01*
X162357899Y-93694703D01*
X162359878Y-93695691D01*
X162376687Y-93723938D01*
X162394477Y-93751620D01*
X162394896Y-93754538D01*
X162395608Y-93755734D01*
X162399500Y-93786555D01*
X162399500Y-93820234D01*
X162379815Y-93887273D01*
X162378602Y-93889125D01*
X162290609Y-94020814D01*
X162290602Y-94020827D01*
X162230264Y-94166498D01*
X162230261Y-94166510D01*
X162199500Y-94321153D01*
X162199500Y-94478846D01*
X162230261Y-94633489D01*
X162230264Y-94633501D01*
X162290602Y-94779172D01*
X162290609Y-94779185D01*
X162378210Y-94910288D01*
X162378213Y-94910292D01*
X162489707Y-95021786D01*
X162489711Y-95021789D01*
X162620814Y-95109390D01*
X162620827Y-95109397D01*
X162766498Y-95169735D01*
X162766503Y-95169737D01*
X162921153Y-95200499D01*
X162921156Y-95200500D01*
X162921158Y-95200500D01*
X163078844Y-95200500D01*
X163078845Y-95200499D01*
X163233497Y-95169737D01*
X163379179Y-95109394D01*
X163510289Y-95021789D01*
X163621789Y-94910289D01*
X163709394Y-94779179D01*
X163769737Y-94633497D01*
X163800500Y-94478842D01*
X163800500Y-94321158D01*
X163800500Y-94321155D01*
X163800499Y-94321153D01*
X163782419Y-94230261D01*
X163769737Y-94166503D01*
X163765173Y-94155485D01*
X163709397Y-94020827D01*
X163709390Y-94020814D01*
X163621398Y-93889125D01*
X163600520Y-93822447D01*
X163600500Y-93820234D01*
X163600500Y-82849097D01*
X163620185Y-82782058D01*
X163672989Y-82736303D01*
X163742147Y-82726359D01*
X163805703Y-82755384D01*
X163812181Y-82761416D01*
X165645348Y-84594583D01*
X165672228Y-84634811D01*
X165690604Y-84679176D01*
X165690609Y-84679185D01*
X165778210Y-84810288D01*
X165778213Y-84810292D01*
X165889707Y-84921786D01*
X165889711Y-84921789D01*
X166020814Y-85009390D01*
X166020827Y-85009397D01*
X166121907Y-85051265D01*
X166166503Y-85069737D01*
X166321153Y-85100499D01*
X166321156Y-85100500D01*
X166321158Y-85100500D01*
X166478844Y-85100500D01*
X166478845Y-85100499D01*
X166633497Y-85069737D01*
X166779179Y-85009394D01*
X166910289Y-84921789D01*
X166970144Y-84861933D01*
X167031463Y-84828450D01*
X167101155Y-84833434D01*
X167126714Y-84846514D01*
X167220814Y-84909390D01*
X167220827Y-84909397D01*
X167366498Y-84969735D01*
X167366503Y-84969737D01*
X167518157Y-84999903D01*
X167521153Y-85000499D01*
X167521156Y-85000500D01*
X167521158Y-85000500D01*
X167678844Y-85000500D01*
X167678845Y-85000499D01*
X167833497Y-84969737D01*
X167979179Y-84909394D01*
X168110289Y-84821789D01*
X168221789Y-84710289D01*
X168307403Y-84582157D01*
X168361013Y-84537354D01*
X168415066Y-84528846D01*
X168415066Y-84527500D01*
X168578843Y-84527500D01*
X168594564Y-84524372D01*
X168651309Y-84513085D01*
X168720899Y-84519312D01*
X168776077Y-84562174D01*
X168799322Y-84628063D01*
X168799500Y-84634702D01*
X168799500Y-88213330D01*
X168799499Y-88213348D01*
X168799499Y-88379054D01*
X168799498Y-88379054D01*
X168840423Y-88531786D01*
X168853854Y-88555047D01*
X168853855Y-88555052D01*
X168853857Y-88555052D01*
X168919479Y-88668714D01*
X168919481Y-88668717D01*
X169038349Y-88787585D01*
X169038355Y-88787590D01*
X169971883Y-89721118D01*
X170005368Y-89782441D01*
X170000384Y-89852133D01*
X169980053Y-89887467D01*
X169978207Y-89889715D01*
X169890609Y-90020814D01*
X169890602Y-90020827D01*
X169830264Y-90166498D01*
X169830261Y-90166510D01*
X169799500Y-90321153D01*
X169799500Y-90478846D01*
X169830261Y-90633489D01*
X169830264Y-90633501D01*
X169890602Y-90779172D01*
X169890609Y-90779185D01*
X169978602Y-90910874D01*
X169999480Y-90977551D01*
X169999500Y-90979765D01*
X169999500Y-101456090D01*
X169979815Y-101523129D01*
X169963181Y-101543771D01*
X167357895Y-104149056D01*
X167296572Y-104182541D01*
X167226880Y-104177557D01*
X167170947Y-104135685D01*
X167146530Y-104070221D01*
X167149688Y-104037146D01*
X167149439Y-104037114D01*
X167150360Y-104030114D01*
X167150440Y-104029281D01*
X167150500Y-104029058D01*
X167150500Y-103870943D01*
X167150500Y-102729765D01*
X167170185Y-102662726D01*
X167171398Y-102660874D01*
X167259390Y-102529185D01*
X167259390Y-102529184D01*
X167259394Y-102529179D01*
X167319737Y-102383497D01*
X167350500Y-102228842D01*
X167350500Y-102071158D01*
X167350500Y-102071155D01*
X167350499Y-102071153D01*
X167343060Y-102033757D01*
X167319737Y-101916503D01*
X167317163Y-101910288D01*
X167259397Y-101770827D01*
X167259390Y-101770814D01*
X167171789Y-101639711D01*
X167171786Y-101639707D01*
X167060292Y-101528213D01*
X167060288Y-101528210D01*
X166929185Y-101440609D01*
X166929172Y-101440602D01*
X166783501Y-101380264D01*
X166783489Y-101380261D01*
X166628845Y-101349500D01*
X166628842Y-101349500D01*
X166471158Y-101349500D01*
X166471155Y-101349500D01*
X166316510Y-101380261D01*
X166316498Y-101380264D01*
X166170827Y-101440602D01*
X166170814Y-101440609D01*
X166039711Y-101528210D01*
X166039707Y-101528213D01*
X165928213Y-101639707D01*
X165928210Y-101639711D01*
X165840609Y-101770814D01*
X165840602Y-101770827D01*
X165780264Y-101916498D01*
X165780261Y-101916510D01*
X165749500Y-102071153D01*
X165749500Y-102228846D01*
X165780261Y-102383489D01*
X165780264Y-102383501D01*
X165840602Y-102529172D01*
X165840609Y-102529185D01*
X165928602Y-102660874D01*
X165949480Y-102727551D01*
X165949500Y-102729765D01*
X165949500Y-103649903D01*
X165929815Y-103716942D01*
X165913181Y-103737584D01*
X164085339Y-105565425D01*
X164024016Y-105598910D01*
X164021850Y-105599361D01*
X163866508Y-105630261D01*
X163866498Y-105630264D01*
X163720827Y-105690602D01*
X163720814Y-105690609D01*
X163589711Y-105778210D01*
X163589707Y-105778213D01*
X163478213Y-105889707D01*
X163478210Y-105889711D01*
X163390609Y-106020814D01*
X163390602Y-106020827D01*
X163330264Y-106166498D01*
X163330261Y-106166510D01*
X163299500Y-106321153D01*
X163299500Y-106478846D01*
X163330261Y-106633489D01*
X163330264Y-106633501D01*
X163390602Y-106779172D01*
X163390609Y-106779185D01*
X163478210Y-106910288D01*
X163478213Y-106910292D01*
X163589707Y-107021786D01*
X163589711Y-107021789D01*
X163720814Y-107109390D01*
X163720827Y-107109397D01*
X163859067Y-107166657D01*
X163866503Y-107169737D01*
X164021153Y-107200499D01*
X164021156Y-107200500D01*
X164021158Y-107200500D01*
X164178844Y-107200500D01*
X164178845Y-107200499D01*
X164333497Y-107169737D01*
X164479179Y-107109394D01*
X164610289Y-107021789D01*
X164721789Y-106910289D01*
X164809394Y-106779179D01*
X164869737Y-106633497D01*
X164889113Y-106536085D01*
X164900638Y-106478150D01*
X164933023Y-106416239D01*
X164934519Y-106414715D01*
X166492106Y-104857127D01*
X166553427Y-104823644D01*
X166623119Y-104828628D01*
X166679052Y-104870500D01*
X166703469Y-104935964D01*
X166703757Y-104947460D01*
X166703436Y-104962434D01*
X166699499Y-104977131D01*
X166699499Y-105135245D01*
X166699500Y-105135248D01*
X166699500Y-105146587D01*
X166699500Y-110799903D01*
X166679815Y-110866942D01*
X166663181Y-110887584D01*
X165185339Y-112365425D01*
X165124016Y-112398910D01*
X165121850Y-112399361D01*
X164966508Y-112430261D01*
X164966498Y-112430264D01*
X164820827Y-112490602D01*
X164820814Y-112490609D01*
X164689711Y-112578210D01*
X164689707Y-112578213D01*
X164578213Y-112689707D01*
X164578210Y-112689711D01*
X164490609Y-112820814D01*
X164490602Y-112820827D01*
X164430264Y-112966498D01*
X164430261Y-112966510D01*
X164399500Y-113121153D01*
X164399500Y-113278846D01*
X164430261Y-113433489D01*
X164430264Y-113433501D01*
X164490602Y-113579172D01*
X164490609Y-113579185D01*
X164578210Y-113710288D01*
X164578213Y-113710292D01*
X164689707Y-113821786D01*
X164689711Y-113821789D01*
X164820814Y-113909390D01*
X164820827Y-113909397D01*
X164948529Y-113962292D01*
X164966503Y-113969737D01*
X165121153Y-114000499D01*
X165121156Y-114000500D01*
X165121158Y-114000500D01*
X165278844Y-114000500D01*
X165278845Y-114000499D01*
X165433497Y-113969737D01*
X165579179Y-113909394D01*
X165710289Y-113821789D01*
X165821789Y-113710289D01*
X165909394Y-113579179D01*
X165969737Y-113433497D01*
X165994324Y-113309890D01*
X166000638Y-113278150D01*
X166033023Y-113216239D01*
X166034519Y-113214715D01*
X167658506Y-111590727D01*
X167658511Y-111590724D01*
X167668714Y-111580520D01*
X167668716Y-111580520D01*
X167780520Y-111468716D01*
X167859577Y-111331784D01*
X167900500Y-111179057D01*
X167900500Y-105356285D01*
X167920185Y-105289246D01*
X167936819Y-105268604D01*
X169488481Y-103716942D01*
X171080520Y-102124904D01*
X171159577Y-101987972D01*
X171200501Y-101835245D01*
X171200501Y-101677130D01*
X171200501Y-101669535D01*
X171200500Y-101669517D01*
X171200500Y-96149097D01*
X171220185Y-96082058D01*
X171272989Y-96036303D01*
X171342147Y-96026359D01*
X171405703Y-96055384D01*
X171412181Y-96061416D01*
X172563181Y-97212416D01*
X172596666Y-97273739D01*
X172599500Y-97300097D01*
X172599500Y-112620234D01*
X172579815Y-112687273D01*
X172578602Y-112689125D01*
X172490609Y-112820814D01*
X172490602Y-112820827D01*
X172430264Y-112966498D01*
X172430261Y-112966510D01*
X172399500Y-113121153D01*
X172399500Y-113278846D01*
X172430261Y-113433489D01*
X172430264Y-113433501D01*
X172490602Y-113579172D01*
X172490609Y-113579185D01*
X172578210Y-113710288D01*
X172578213Y-113710292D01*
X172689707Y-113821786D01*
X172689711Y-113821789D01*
X172820814Y-113909390D01*
X172820827Y-113909397D01*
X172948529Y-113962292D01*
X172966503Y-113969737D01*
X173121153Y-114000499D01*
X173121156Y-114000500D01*
X173121158Y-114000500D01*
X173278844Y-114000500D01*
X173278845Y-114000499D01*
X173433497Y-113969737D01*
X173579179Y-113909394D01*
X173710289Y-113821789D01*
X173821789Y-113710289D01*
X173891856Y-113605426D01*
X173945466Y-113560622D01*
X174014791Y-113551915D01*
X174042407Y-113559756D01*
X174066503Y-113569737D01*
X174221153Y-113600499D01*
X174221156Y-113600500D01*
X174221158Y-113600500D01*
X174378844Y-113600500D01*
X174378845Y-113600499D01*
X174533497Y-113569737D01*
X174650790Y-113521153D01*
X174679172Y-113509397D01*
X174679172Y-113509396D01*
X174679179Y-113509394D01*
X174810289Y-113421789D01*
X174921789Y-113310289D01*
X175009394Y-113179179D01*
X175069737Y-113033497D01*
X175100500Y-112878842D01*
X175100638Y-112878150D01*
X175133023Y-112816239D01*
X175134521Y-112814713D01*
X175868713Y-112080521D01*
X175868716Y-112080520D01*
X175980520Y-111968716D01*
X176030639Y-111881904D01*
X176059577Y-111831785D01*
X176100500Y-111679058D01*
X176100500Y-111520943D01*
X176100500Y-108654604D01*
X176109939Y-108607151D01*
X176119737Y-108583497D01*
X176150500Y-108428842D01*
X176150500Y-108271158D01*
X176150500Y-108271155D01*
X176150499Y-108271153D01*
X176119738Y-108116510D01*
X176119737Y-108116503D01*
X176119735Y-108116498D01*
X176059397Y-107970827D01*
X176059390Y-107970814D01*
X175971789Y-107839711D01*
X175971786Y-107839707D01*
X175860292Y-107728213D01*
X175860288Y-107728210D01*
X175729185Y-107640609D01*
X175729172Y-107640602D01*
X175583501Y-107580264D01*
X175583489Y-107580261D01*
X175428845Y-107549500D01*
X175428842Y-107549500D01*
X175271158Y-107549500D01*
X175271155Y-107549500D01*
X175116510Y-107580261D01*
X175116498Y-107580264D01*
X174970827Y-107640602D01*
X174970814Y-107640609D01*
X174839711Y-107728210D01*
X174839707Y-107728213D01*
X174728213Y-107839707D01*
X174728210Y-107839711D01*
X174640609Y-107970814D01*
X174640602Y-107970827D01*
X174580264Y-108116498D01*
X174580261Y-108116510D01*
X174549500Y-108271153D01*
X174549500Y-108428846D01*
X174580261Y-108583489D01*
X174580264Y-108583501D01*
X174640602Y-108729172D01*
X174640609Y-108729185D01*
X174728210Y-108860288D01*
X174728213Y-108860292D01*
X174839706Y-108971785D01*
X174839709Y-108971787D01*
X174839711Y-108971789D01*
X174844386Y-108974913D01*
X174889193Y-109028521D01*
X174899500Y-109078017D01*
X174899500Y-111299903D01*
X174879815Y-111366942D01*
X174863181Y-111387584D01*
X174285339Y-111965425D01*
X174224016Y-111998910D01*
X174221850Y-111999361D01*
X174066508Y-112030261D01*
X174066507Y-112030261D01*
X173971952Y-112069427D01*
X173902482Y-112076895D01*
X173840003Y-112045619D01*
X173804351Y-111985530D01*
X173800500Y-111954865D01*
X173800500Y-96920946D01*
X173800500Y-96920943D01*
X173784838Y-96862490D01*
X173759577Y-96768215D01*
X173717586Y-96695485D01*
X173714747Y-96690567D01*
X173714747Y-96690566D01*
X173680524Y-96631290D01*
X173680521Y-96631286D01*
X173680520Y-96631284D01*
X173568716Y-96519480D01*
X173568715Y-96519479D01*
X173564385Y-96515149D01*
X173564374Y-96515139D01*
X172034574Y-94985339D01*
X172001089Y-94924016D01*
X172000638Y-94921849D01*
X171982595Y-94831147D01*
X171969737Y-94766503D01*
X171952133Y-94724003D01*
X171909397Y-94620827D01*
X171909390Y-94620814D01*
X171821789Y-94489711D01*
X171821786Y-94489707D01*
X171710292Y-94378213D01*
X171710288Y-94378210D01*
X171579185Y-94290609D01*
X171579172Y-94290602D01*
X171433501Y-94230264D01*
X171433491Y-94230261D01*
X171300308Y-94203769D01*
X171238397Y-94171384D01*
X171203823Y-94110668D01*
X171200500Y-94082152D01*
X171200500Y-91249097D01*
X171220185Y-91182058D01*
X171272989Y-91136303D01*
X171342147Y-91126359D01*
X171405703Y-91155384D01*
X171412181Y-91161416D01*
X173715139Y-93464374D01*
X173715149Y-93464385D01*
X173719479Y-93468715D01*
X173719480Y-93468716D01*
X173831284Y-93580520D01*
X173917442Y-93630263D01*
X173968215Y-93659577D01*
X174120943Y-93700500D01*
X174720234Y-93700500D01*
X174787273Y-93720185D01*
X174789125Y-93721398D01*
X174920814Y-93809390D01*
X174920827Y-93809397D01*
X175063328Y-93868422D01*
X175066503Y-93869737D01*
X175221153Y-93900499D01*
X175221156Y-93900500D01*
X175221158Y-93900500D01*
X175378844Y-93900500D01*
X175378845Y-93900499D01*
X175533497Y-93869737D01*
X175679179Y-93809394D01*
X175810289Y-93721789D01*
X175921789Y-93610289D01*
X176009394Y-93479179D01*
X176069737Y-93333497D01*
X176100500Y-93178842D01*
X176100500Y-93021158D01*
X176100500Y-93021155D01*
X176100499Y-93021153D01*
X176080543Y-92920827D01*
X176069737Y-92866503D01*
X176037929Y-92789711D01*
X176009397Y-92720827D01*
X176009390Y-92720814D01*
X175921789Y-92589711D01*
X175921786Y-92589707D01*
X175810292Y-92478213D01*
X175810288Y-92478210D01*
X175679185Y-92390609D01*
X175679172Y-92390602D01*
X175533501Y-92330264D01*
X175533489Y-92330261D01*
X175378845Y-92299500D01*
X175378842Y-92299500D01*
X175221158Y-92299500D01*
X175221155Y-92299500D01*
X175066510Y-92330261D01*
X175066498Y-92330264D01*
X174920827Y-92390602D01*
X174920814Y-92390609D01*
X174789125Y-92478602D01*
X174771078Y-92484252D01*
X174755169Y-92494477D01*
X174724207Y-92498928D01*
X174722447Y-92499480D01*
X174720234Y-92499500D01*
X174500097Y-92499500D01*
X174433058Y-92479815D01*
X174412416Y-92463181D01*
X174213754Y-92264519D01*
X174180269Y-92203196D01*
X174185253Y-92133504D01*
X174227125Y-92077571D01*
X174232521Y-92073751D01*
X174310289Y-92021789D01*
X174421789Y-91910289D01*
X174509394Y-91779179D01*
X174569737Y-91633497D01*
X174600500Y-91478842D01*
X174600500Y-91321158D01*
X174600500Y-91321155D01*
X174600499Y-91321153D01*
X174577928Y-91207683D01*
X174569737Y-91166503D01*
X174525720Y-91060236D01*
X174509397Y-91020827D01*
X174509390Y-91020814D01*
X174421789Y-90889711D01*
X174421786Y-90889707D01*
X174310292Y-90778213D01*
X174310288Y-90778210D01*
X174179185Y-90690609D01*
X174179175Y-90690604D01*
X174175452Y-90689062D01*
X174121049Y-90645221D01*
X174098984Y-90578926D01*
X174116263Y-90511227D01*
X174167401Y-90463617D01*
X174222905Y-90450501D01*
X174329054Y-90450501D01*
X174329057Y-90450501D01*
X174481785Y-90409577D01*
X174481786Y-90409575D01*
X174489635Y-90407473D01*
X174489820Y-90408165D01*
X174528364Y-90400500D01*
X174578844Y-90400500D01*
X174578845Y-90400499D01*
X174733497Y-90369737D01*
X174879179Y-90309394D01*
X175010289Y-90221789D01*
X175121789Y-90110289D01*
X175209394Y-89979179D01*
X175269737Y-89833497D01*
X175300500Y-89678842D01*
X175300500Y-89521158D01*
X175300500Y-89521155D01*
X175300499Y-89521153D01*
X175297951Y-89508343D01*
X175269737Y-89366503D01*
X175234645Y-89281782D01*
X175209397Y-89220827D01*
X175209390Y-89220814D01*
X175121789Y-89089711D01*
X175121786Y-89089707D01*
X175010292Y-88978213D01*
X175010288Y-88978210D01*
X174879185Y-88890609D01*
X174879172Y-88890602D01*
X174733501Y-88830264D01*
X174733489Y-88830261D01*
X174578845Y-88799500D01*
X174578842Y-88799500D01*
X174421158Y-88799500D01*
X174421155Y-88799500D01*
X174266510Y-88830261D01*
X174266498Y-88830264D01*
X174120827Y-88890602D01*
X174120814Y-88890609D01*
X173989711Y-88978210D01*
X173989707Y-88978213D01*
X173878210Y-89089710D01*
X173808266Y-89194391D01*
X173754654Y-89239196D01*
X173705164Y-89249500D01*
X173450098Y-89249500D01*
X173383059Y-89229815D01*
X173362417Y-89213181D01*
X172036819Y-87887583D01*
X172003334Y-87826260D01*
X172000500Y-87799902D01*
X172000500Y-80821153D01*
X189099500Y-80821153D01*
X189099500Y-80978846D01*
X189130261Y-81133489D01*
X189130264Y-81133501D01*
X189190602Y-81279172D01*
X189190609Y-81279185D01*
X189278210Y-81410288D01*
X189278213Y-81410292D01*
X189389707Y-81521786D01*
X189389711Y-81521789D01*
X189520814Y-81609390D01*
X189520827Y-81609397D01*
X189615799Y-81648735D01*
X189666503Y-81669737D01*
X189819132Y-81700097D01*
X189821153Y-81700499D01*
X189821156Y-81700500D01*
X189821158Y-81700500D01*
X189978844Y-81700500D01*
X189978845Y-81700499D01*
X190133497Y-81669737D01*
X190279179Y-81609394D01*
X190337741Y-81570264D01*
X190410875Y-81521398D01*
X190477553Y-81500520D01*
X190479766Y-81500500D01*
X191799903Y-81500500D01*
X191829343Y-81509144D01*
X191859330Y-81515668D01*
X191864345Y-81519422D01*
X191866942Y-81520185D01*
X191887584Y-81536819D01*
X191963181Y-81612416D01*
X191996666Y-81673739D01*
X191999500Y-81700097D01*
X191999500Y-85213330D01*
X191999499Y-85213348D01*
X191999499Y-85379054D01*
X191999498Y-85379054D01*
X192040423Y-85531786D01*
X192050170Y-85548667D01*
X192052553Y-85552795D01*
X192055395Y-85557716D01*
X192055396Y-85557721D01*
X192055398Y-85557721D01*
X192119479Y-85668714D01*
X192119481Y-85668717D01*
X192238349Y-85787585D01*
X192238355Y-85787590D01*
X194119478Y-87668713D01*
X194119480Y-87668716D01*
X194180381Y-87729617D01*
X194210629Y-87778977D01*
X194223442Y-87818412D01*
X194319951Y-88007820D01*
X194444890Y-88179786D01*
X194595209Y-88330105D01*
X194595214Y-88330109D01*
X194760218Y-88449991D01*
X194802884Y-88505320D01*
X194808863Y-88574934D01*
X194776258Y-88636729D01*
X194760218Y-88650627D01*
X194595540Y-88770272D01*
X194595535Y-88770276D01*
X194445276Y-88920535D01*
X194445272Y-88920540D01*
X194320379Y-89092442D01*
X194223904Y-89281782D01*
X194158242Y-89483870D01*
X194158242Y-89483873D01*
X194147769Y-89550000D01*
X195195854Y-89550000D01*
X195157370Y-89616657D01*
X195125000Y-89737465D01*
X195125000Y-89862535D01*
X195157370Y-89983343D01*
X195195854Y-90050000D01*
X194147769Y-90050000D01*
X194158242Y-90116126D01*
X194158242Y-90116129D01*
X194223904Y-90318217D01*
X194320379Y-90507557D01*
X194445272Y-90679459D01*
X194445276Y-90679464D01*
X194595535Y-90829723D01*
X194595540Y-90829727D01*
X194767442Y-90954620D01*
X194956782Y-91051095D01*
X195158872Y-91116757D01*
X195350000Y-91147029D01*
X195350000Y-90204145D01*
X195416657Y-90242630D01*
X195537465Y-90275000D01*
X195662535Y-90275000D01*
X195783343Y-90242630D01*
X195850000Y-90204145D01*
X195850000Y-91147028D01*
X196041127Y-91116757D01*
X196243217Y-91051095D01*
X196432557Y-90954620D01*
X196604459Y-90829727D01*
X196604464Y-90829723D01*
X196754723Y-90679464D01*
X196754727Y-90679459D01*
X196879620Y-90507557D01*
X196976095Y-90318217D01*
X197041757Y-90116129D01*
X197041757Y-90116126D01*
X197052231Y-90050000D01*
X196004146Y-90050000D01*
X196042630Y-89983343D01*
X196075000Y-89862535D01*
X196075000Y-89737465D01*
X196042630Y-89616657D01*
X196004146Y-89550000D01*
X197052231Y-89550000D01*
X197041757Y-89483873D01*
X197041757Y-89483870D01*
X196976095Y-89281782D01*
X196879620Y-89092442D01*
X196754727Y-88920540D01*
X196754723Y-88920535D01*
X196604464Y-88770276D01*
X196604459Y-88770272D01*
X196439781Y-88650627D01*
X196397115Y-88595297D01*
X196391136Y-88525684D01*
X196423741Y-88463889D01*
X196439776Y-88449994D01*
X196604792Y-88330104D01*
X196755104Y-88179792D01*
X196755106Y-88179788D01*
X196755109Y-88179786D01*
X196880048Y-88007820D01*
X196880047Y-88007820D01*
X196880051Y-88007816D01*
X196976557Y-87818412D01*
X197042246Y-87616243D01*
X197075500Y-87406287D01*
X197075500Y-87193713D01*
X197042246Y-86983757D01*
X196976557Y-86781588D01*
X196880051Y-86592184D01*
X196880049Y-86592181D01*
X196880048Y-86592179D01*
X196755109Y-86420213D01*
X196616294Y-86281398D01*
X196582809Y-86220075D01*
X196587793Y-86150383D01*
X196629665Y-86094450D01*
X196638879Y-86088178D01*
X196644331Y-86084814D01*
X196644334Y-86084814D01*
X196793656Y-85992712D01*
X196917712Y-85868656D01*
X197009814Y-85719334D01*
X197064999Y-85552797D01*
X197075500Y-85450009D01*
X197075499Y-84149992D01*
X197064999Y-84047203D01*
X197009814Y-83880666D01*
X196917712Y-83731344D01*
X196793656Y-83607288D01*
X196644334Y-83515186D01*
X196477797Y-83460001D01*
X196477795Y-83460000D01*
X196375010Y-83449500D01*
X194824998Y-83449500D01*
X194824981Y-83449501D01*
X194722203Y-83460000D01*
X194722200Y-83460001D01*
X194555668Y-83515185D01*
X194555663Y-83515187D01*
X194406342Y-83607289D01*
X194282289Y-83731342D01*
X194190187Y-83880663D01*
X194190186Y-83880666D01*
X194135001Y-84047203D01*
X194135001Y-84047204D01*
X194135000Y-84047204D01*
X194124500Y-84149983D01*
X194124500Y-85450001D01*
X194124501Y-85450018D01*
X194135000Y-85552796D01*
X194135001Y-85552799D01*
X194185005Y-85703698D01*
X194187407Y-85773526D01*
X194151675Y-85833568D01*
X194089155Y-85864761D01*
X194019696Y-85857201D01*
X193979618Y-85830383D01*
X193236819Y-85087584D01*
X193203334Y-85026261D01*
X193200500Y-84999903D01*
X193200500Y-81489060D01*
X193200501Y-81489047D01*
X193200501Y-81320944D01*
X193200501Y-81320943D01*
X193159577Y-81168216D01*
X193159573Y-81168209D01*
X193080524Y-81031290D01*
X193080518Y-81031282D01*
X192468717Y-80419481D01*
X192468716Y-80419480D01*
X192381904Y-80369360D01*
X192381904Y-80369359D01*
X192381900Y-80369358D01*
X192331785Y-80340423D01*
X192179057Y-80299499D01*
X192020943Y-80299499D01*
X192013347Y-80299499D01*
X192013331Y-80299500D01*
X190479766Y-80299500D01*
X190412727Y-80279815D01*
X190410875Y-80278602D01*
X190279185Y-80190609D01*
X190279172Y-80190602D01*
X190133501Y-80130264D01*
X190133489Y-80130261D01*
X189978845Y-80099500D01*
X189978842Y-80099500D01*
X189821158Y-80099500D01*
X189821155Y-80099500D01*
X189666510Y-80130261D01*
X189666498Y-80130264D01*
X189520827Y-80190602D01*
X189520814Y-80190609D01*
X189389711Y-80278210D01*
X189389707Y-80278213D01*
X189278213Y-80389707D01*
X189278210Y-80389711D01*
X189190609Y-80520814D01*
X189190602Y-80520827D01*
X189130264Y-80666498D01*
X189130261Y-80666510D01*
X189099500Y-80821153D01*
X172000500Y-80821153D01*
X172000500Y-74289059D01*
X172000501Y-74289046D01*
X172000501Y-74120945D01*
X172000501Y-74120943D01*
X171959577Y-73968215D01*
X171914769Y-73890606D01*
X171880520Y-73831284D01*
X171768716Y-73719480D01*
X171768715Y-73719479D01*
X171764385Y-73715149D01*
X171764374Y-73715139D01*
X170034574Y-71985339D01*
X170001089Y-71924016D01*
X170000638Y-71921849D01*
X169969738Y-71766510D01*
X169969737Y-71766503D01*
X169969735Y-71766498D01*
X169909397Y-71620827D01*
X169909390Y-71620814D01*
X169821626Y-71489467D01*
X169800748Y-71422790D01*
X169819232Y-71355410D01*
X169871211Y-71308719D01*
X169912127Y-71297218D01*
X169982797Y-71289999D01*
X170149334Y-71234814D01*
X170298656Y-71142712D01*
X170422712Y-71018656D01*
X170514814Y-70869334D01*
X170569999Y-70702797D01*
X170580500Y-70600009D01*
X170580499Y-69681902D01*
X172859500Y-69681902D01*
X172859500Y-69918097D01*
X172896446Y-70151368D01*
X172969433Y-70375996D01*
X173076657Y-70586433D01*
X173215483Y-70777510D01*
X173382490Y-70944517D01*
X173573567Y-71083343D01*
X173615412Y-71104664D01*
X173784003Y-71190566D01*
X173784005Y-71190566D01*
X173784008Y-71190568D01*
X173903979Y-71229549D01*
X174008631Y-71263553D01*
X174241903Y-71300500D01*
X174241908Y-71300500D01*
X174478097Y-71300500D01*
X174711368Y-71263553D01*
X174739433Y-71254434D01*
X174935992Y-71190568D01*
X175146433Y-71083343D01*
X175337510Y-70944517D01*
X175337516Y-70944511D01*
X175341221Y-70941348D01*
X175342662Y-70943035D01*
X175395848Y-70913933D01*
X175465544Y-70918856D01*
X175521514Y-70960678D01*
X175527852Y-70969980D01*
X175557682Y-71018343D01*
X175681654Y-71142315D01*
X175830875Y-71234356D01*
X175830880Y-71234358D01*
X175997302Y-71289505D01*
X175997309Y-71289506D01*
X176100019Y-71299999D01*
X176649999Y-71299999D01*
X176650000Y-71299998D01*
X176650000Y-70348482D01*
X176668409Y-70359111D01*
X176821009Y-70400000D01*
X176978991Y-70400000D01*
X177131591Y-70359111D01*
X177150000Y-70348482D01*
X177150000Y-71299999D01*
X177699972Y-71299999D01*
X177699986Y-71299998D01*
X177802697Y-71289505D01*
X177969119Y-71234358D01*
X177969124Y-71234356D01*
X178118345Y-71142315D01*
X178242315Y-71018345D01*
X178334356Y-70869124D01*
X178334358Y-70869119D01*
X178389505Y-70702697D01*
X178389506Y-70702690D01*
X178399999Y-70599986D01*
X178400000Y-70599973D01*
X178400000Y-70050000D01*
X177448482Y-70050000D01*
X177459111Y-70031591D01*
X177500000Y-69878991D01*
X177500000Y-69721009D01*
X177459111Y-69568409D01*
X177448482Y-69550000D01*
X178399999Y-69550000D01*
X178399999Y-69000028D01*
X178399998Y-69000013D01*
X178389505Y-68897302D01*
X178334358Y-68730880D01*
X178334356Y-68730875D01*
X178242315Y-68581654D01*
X178118345Y-68457684D01*
X177969124Y-68365643D01*
X177969119Y-68365641D01*
X177802697Y-68310494D01*
X177802690Y-68310493D01*
X177699986Y-68300000D01*
X177150000Y-68300000D01*
X177150000Y-69251517D01*
X177131591Y-69240889D01*
X176978991Y-69200000D01*
X176821009Y-69200000D01*
X176668409Y-69240889D01*
X176650000Y-69251517D01*
X176650000Y-68300000D01*
X176100028Y-68300000D01*
X176100012Y-68300001D01*
X175997302Y-68310494D01*
X175830880Y-68365641D01*
X175830875Y-68365643D01*
X175681654Y-68457684D01*
X175557684Y-68581654D01*
X175527850Y-68630022D01*
X175475901Y-68676745D01*
X175406938Y-68687966D01*
X175342856Y-68660122D01*
X175341226Y-68658632D01*
X175341214Y-68658647D01*
X175337517Y-68655490D01*
X175337510Y-68655483D01*
X175146433Y-68516657D01*
X175122640Y-68504534D01*
X174935996Y-68409433D01*
X174711368Y-68336446D01*
X174478097Y-68299500D01*
X174478092Y-68299500D01*
X174241908Y-68299500D01*
X174241903Y-68299500D01*
X174008631Y-68336446D01*
X173784003Y-68409433D01*
X173573566Y-68516657D01*
X173464550Y-68595862D01*
X173382490Y-68655483D01*
X173382488Y-68655485D01*
X173382487Y-68655485D01*
X173215485Y-68822487D01*
X173215485Y-68822488D01*
X173215483Y-68822490D01*
X173161203Y-68897200D01*
X173076657Y-69013566D01*
X172969433Y-69224003D01*
X172896446Y-69448631D01*
X172859500Y-69681902D01*
X170580499Y-69681902D01*
X170580499Y-68999992D01*
X170569999Y-68897203D01*
X170514814Y-68730666D01*
X170422712Y-68581344D01*
X170298656Y-68457288D01*
X170149334Y-68365186D01*
X169982797Y-68310001D01*
X169982795Y-68310000D01*
X169880010Y-68299500D01*
X168279998Y-68299500D01*
X168279981Y-68299501D01*
X168177203Y-68310000D01*
X168177200Y-68310001D01*
X168010668Y-68365185D01*
X168010663Y-68365187D01*
X167861342Y-68457289D01*
X167737287Y-68581344D01*
X167707487Y-68629658D01*
X167655539Y-68676382D01*
X167586576Y-68687603D01*
X167522494Y-68659759D01*
X167521241Y-68658614D01*
X167521214Y-68658647D01*
X167517517Y-68655490D01*
X167517510Y-68655483D01*
X167326433Y-68516657D01*
X167302640Y-68504534D01*
X167115996Y-68409433D01*
X166891368Y-68336446D01*
X166658097Y-68299500D01*
X166658092Y-68299500D01*
X166421908Y-68299500D01*
X166421903Y-68299500D01*
X166188631Y-68336446D01*
X165964003Y-68409433D01*
X165753566Y-68516657D01*
X165644550Y-68595862D01*
X165562490Y-68655483D01*
X165562488Y-68655485D01*
X165562487Y-68655485D01*
X165395484Y-68822488D01*
X165370318Y-68857127D01*
X165314987Y-68899792D01*
X165245374Y-68905771D01*
X165183579Y-68873165D01*
X165169682Y-68857127D01*
X165151143Y-68831610D01*
X165144517Y-68822490D01*
X164977510Y-68655483D01*
X164786433Y-68516657D01*
X164762640Y-68504534D01*
X164575996Y-68409433D01*
X164351368Y-68336446D01*
X164118097Y-68299500D01*
X164118092Y-68299500D01*
X163881908Y-68299500D01*
X163881903Y-68299500D01*
X163648631Y-68336446D01*
X163424003Y-68409433D01*
X163213566Y-68516657D01*
X163104550Y-68595862D01*
X163022490Y-68655483D01*
X163022488Y-68655485D01*
X163022487Y-68655485D01*
X162855485Y-68822487D01*
X162855485Y-68822488D01*
X162855483Y-68822490D01*
X162801203Y-68897200D01*
X162716657Y-69013566D01*
X162609433Y-69224003D01*
X162536446Y-69448631D01*
X162499500Y-69681902D01*
X162499500Y-69918097D01*
X162536446Y-70151368D01*
X162609433Y-70375996D01*
X162716657Y-70586433D01*
X162855483Y-70777510D01*
X163022490Y-70944517D01*
X163213567Y-71083343D01*
X163424008Y-71190568D01*
X163620567Y-71254434D01*
X163678243Y-71293872D01*
X163705441Y-71358230D01*
X163693526Y-71427077D01*
X163646282Y-71478552D01*
X163629710Y-71486923D01*
X163620825Y-71490603D01*
X163620814Y-71490609D01*
X163489711Y-71578210D01*
X163489707Y-71578213D01*
X163378213Y-71689707D01*
X163378210Y-71689711D01*
X163290609Y-71820814D01*
X163290602Y-71820827D01*
X163230264Y-71966498D01*
X163230261Y-71966508D01*
X163199361Y-72121850D01*
X163166976Y-72183761D01*
X163165425Y-72185339D01*
X158441481Y-76909282D01*
X158441477Y-76909287D01*
X158414961Y-76955216D01*
X158364394Y-77003431D01*
X158295787Y-77016655D01*
X158234689Y-76993534D01*
X158167819Y-76944951D01*
X158167818Y-76944950D01*
X158167816Y-76944949D01*
X157978412Y-76848443D01*
X157776243Y-76782754D01*
X157776241Y-76782753D01*
X157776240Y-76782753D01*
X157614957Y-76757208D01*
X157566287Y-76749500D01*
X157353713Y-76749500D01*
X157305042Y-76757208D01*
X157143760Y-76782753D01*
X156941585Y-76848444D01*
X156752179Y-76944951D01*
X156580213Y-77069890D01*
X156429890Y-77220213D01*
X156304949Y-77392182D01*
X156300484Y-77400946D01*
X156252509Y-77451742D01*
X156184688Y-77468536D01*
X156118553Y-77445998D01*
X156079516Y-77400946D01*
X156075050Y-77392182D01*
X155950109Y-77220213D01*
X155799786Y-77069890D01*
X155627820Y-76944951D01*
X155438414Y-76848444D01*
X155438413Y-76848443D01*
X155438412Y-76848443D01*
X155236243Y-76782754D01*
X155236241Y-76782753D01*
X155236239Y-76782753D01*
X155157404Y-76770267D01*
X155094269Y-76740338D01*
X155057338Y-76681026D01*
X155058336Y-76611164D01*
X155089119Y-76560115D01*
X158614662Y-73034572D01*
X158675983Y-73001089D01*
X158678150Y-73000638D01*
X158736085Y-72989113D01*
X158833497Y-72969737D01*
X158979179Y-72909394D01*
X159110289Y-72821789D01*
X159221789Y-72710289D01*
X159309394Y-72579179D01*
X159369737Y-72433497D01*
X159400500Y-72278842D01*
X159400500Y-72121158D01*
X159400500Y-72121155D01*
X159400499Y-72121153D01*
X159369737Y-71966503D01*
X159358900Y-71940339D01*
X159309397Y-71820827D01*
X159309390Y-71820814D01*
X159221789Y-71689711D01*
X159221786Y-71689707D01*
X159110289Y-71578210D01*
X159034546Y-71527601D01*
X158989741Y-71473989D01*
X158981034Y-71404664D01*
X159011188Y-71341637D01*
X159070631Y-71304917D01*
X159103435Y-71300499D01*
X159400008Y-71300499D01*
X159502797Y-71289999D01*
X159669334Y-71234814D01*
X159818656Y-71142712D01*
X159942712Y-71018656D01*
X160034814Y-70869334D01*
X160089999Y-70702797D01*
X160100500Y-70600009D01*
X160100499Y-68999992D01*
X160089999Y-68897203D01*
X160034814Y-68730666D01*
X159942712Y-68581344D01*
X159818656Y-68457288D01*
X159669334Y-68365186D01*
X159502797Y-68310001D01*
X159502795Y-68310000D01*
X159400010Y-68299500D01*
X157799998Y-68299500D01*
X157799981Y-68299501D01*
X157697203Y-68310000D01*
X157697200Y-68310001D01*
X157530668Y-68365185D01*
X157530663Y-68365187D01*
X157381342Y-68457289D01*
X157257287Y-68581344D01*
X157227487Y-68629658D01*
X157175539Y-68676382D01*
X157106576Y-68687603D01*
X157042494Y-68659759D01*
X157041241Y-68658614D01*
X157041214Y-68658647D01*
X157037517Y-68655490D01*
X157037510Y-68655483D01*
X156846433Y-68516657D01*
X156822640Y-68504534D01*
X156635996Y-68409433D01*
X156411368Y-68336446D01*
X156178097Y-68299500D01*
X156178092Y-68299500D01*
X155941908Y-68299500D01*
X155941903Y-68299500D01*
X155708631Y-68336446D01*
X155484003Y-68409433D01*
X155273566Y-68516657D01*
X155164550Y-68595862D01*
X155082490Y-68655483D01*
X155082488Y-68655485D01*
X155082487Y-68655485D01*
X154915485Y-68822487D01*
X154915485Y-68822488D01*
X154915483Y-68822490D01*
X154861203Y-68897200D01*
X154776657Y-69013566D01*
X154669433Y-69224003D01*
X154596446Y-69448631D01*
X154559500Y-69681902D01*
X154559500Y-69918097D01*
X154596446Y-70151368D01*
X154669433Y-70375996D01*
X154776657Y-70586433D01*
X154915483Y-70777510D01*
X155082490Y-70944517D01*
X155273567Y-71083343D01*
X155315412Y-71104664D01*
X155484003Y-71190566D01*
X155484005Y-71190566D01*
X155484008Y-71190568D01*
X155603979Y-71229549D01*
X155708631Y-71263553D01*
X155941903Y-71300500D01*
X155941908Y-71300500D01*
X156178097Y-71300500D01*
X156411368Y-71263553D01*
X156439433Y-71254434D01*
X156635992Y-71190568D01*
X156846433Y-71083343D01*
X157037510Y-70944517D01*
X157037516Y-70944511D01*
X157041221Y-70941348D01*
X157042784Y-70943179D01*
X157095292Y-70914339D01*
X157164996Y-70919152D01*
X157221032Y-70960885D01*
X157227487Y-70970342D01*
X157257095Y-71018343D01*
X157257288Y-71018656D01*
X157381344Y-71142712D01*
X157530666Y-71234814D01*
X157697203Y-71289999D01*
X157799991Y-71300500D01*
X158096563Y-71300499D01*
X158163600Y-71320183D01*
X158209355Y-71372987D01*
X158219299Y-71442146D01*
X158190274Y-71505701D01*
X158165453Y-71527601D01*
X158089707Y-71578213D01*
X157978213Y-71689707D01*
X157978210Y-71689711D01*
X157890609Y-71820814D01*
X157890602Y-71820827D01*
X157830264Y-71966498D01*
X157830261Y-71966508D01*
X157799361Y-72121850D01*
X157766976Y-72183761D01*
X157765425Y-72185339D01*
X153361481Y-76589282D01*
X153361479Y-76589285D01*
X153316850Y-76666585D01*
X153316849Y-76666587D01*
X153311360Y-76676095D01*
X153282423Y-76726215D01*
X153245608Y-76863607D01*
X153243812Y-76868575D01*
X153226154Y-76892662D01*
X153210610Y-76918164D01*
X153205718Y-76920540D01*
X153202503Y-76924926D01*
X153174626Y-76935642D01*
X153147763Y-76948692D01*
X153142363Y-76948046D01*
X153137287Y-76949998D01*
X153108040Y-76943942D01*
X153078388Y-76940397D01*
X153070906Y-76936894D01*
X152898217Y-76848904D01*
X152696129Y-76783242D01*
X152486246Y-76750000D01*
X152273754Y-76750000D01*
X152063872Y-76783242D01*
X152063869Y-76783242D01*
X151861782Y-76848904D01*
X151672439Y-76945380D01*
X151618282Y-76984727D01*
X151618282Y-76984728D01*
X152250591Y-77617037D01*
X152187007Y-77634075D01*
X152072993Y-77699901D01*
X151979901Y-77792993D01*
X151914075Y-77907007D01*
X151897037Y-77970591D01*
X151226818Y-77300372D01*
X151193333Y-77239049D01*
X151193330Y-77239036D01*
X151190499Y-77226015D01*
X151190499Y-77202128D01*
X151184091Y-77142517D01*
X151148173Y-77046215D01*
X151133798Y-77007673D01*
X151133793Y-77007664D01*
X151047547Y-76892455D01*
X151047544Y-76892452D01*
X150932335Y-76806206D01*
X150932328Y-76806202D01*
X150797482Y-76755908D01*
X150797483Y-76755908D01*
X150737883Y-76749501D01*
X150737881Y-76749500D01*
X150737873Y-76749500D01*
X150737864Y-76749500D01*
X148942129Y-76749500D01*
X148942123Y-76749501D01*
X148882516Y-76755908D01*
X148747671Y-76806202D01*
X148747664Y-76806206D01*
X148632455Y-76892452D01*
X148632452Y-76892455D01*
X148546206Y-77007664D01*
X148546202Y-77007671D01*
X148495908Y-77142517D01*
X148489501Y-77202116D01*
X148489500Y-77202135D01*
X145935979Y-77202135D01*
X145935980Y-77198782D01*
X145937769Y-68097648D01*
X146799500Y-68097648D01*
X146799500Y-68302352D01*
X146800790Y-68310494D01*
X146831522Y-68504534D01*
X146894781Y-68699223D01*
X146930892Y-68770093D01*
X146975238Y-68857127D01*
X146987715Y-68881613D01*
X147108028Y-69047213D01*
X147252786Y-69191971D01*
X147349566Y-69262284D01*
X147418390Y-69312287D01*
X147502647Y-69355218D01*
X147600776Y-69405218D01*
X147600778Y-69405218D01*
X147600781Y-69405220D01*
X147681946Y-69431592D01*
X147795465Y-69468477D01*
X147896557Y-69484488D01*
X147997648Y-69500500D01*
X147997649Y-69500500D01*
X148202351Y-69500500D01*
X148202352Y-69500500D01*
X148404534Y-69468477D01*
X148599219Y-69405220D01*
X148781610Y-69312287D01*
X148903117Y-69224008D01*
X148947213Y-69191971D01*
X148947215Y-69191968D01*
X148947219Y-69191966D01*
X149091966Y-69047219D01*
X149091968Y-69047215D01*
X149091971Y-69047213D01*
X149194733Y-68905771D01*
X149212287Y-68881610D01*
X149305220Y-68699219D01*
X149368477Y-68504534D01*
X149400500Y-68302352D01*
X149400500Y-68097648D01*
X149392581Y-68047648D01*
X195149500Y-68047648D01*
X195149500Y-68252351D01*
X195181522Y-68454534D01*
X195244781Y-68649223D01*
X195286279Y-68730666D01*
X195333066Y-68822490D01*
X195337715Y-68831613D01*
X195458028Y-68997213D01*
X195602786Y-69141971D01*
X195715696Y-69224003D01*
X195768390Y-69262287D01*
X195881424Y-69319881D01*
X195950776Y-69355218D01*
X195950778Y-69355218D01*
X195950781Y-69355220D01*
X196055137Y-69389127D01*
X196145465Y-69418477D01*
X196246557Y-69434488D01*
X196347648Y-69450500D01*
X196347649Y-69450500D01*
X196552351Y-69450500D01*
X196552352Y-69450500D01*
X196754534Y-69418477D01*
X196949219Y-69355220D01*
X197131610Y-69262287D01*
X197224590Y-69194732D01*
X197297213Y-69141971D01*
X197297215Y-69141968D01*
X197297219Y-69141966D01*
X197441966Y-68997219D01*
X197441968Y-68997215D01*
X197441971Y-68997213D01*
X197525960Y-68881610D01*
X197562287Y-68831610D01*
X197655220Y-68649219D01*
X197718477Y-68454534D01*
X197750500Y-68252352D01*
X197750500Y-68047648D01*
X197718477Y-67845466D01*
X197698585Y-67784246D01*
X197659961Y-67665372D01*
X197655220Y-67650781D01*
X197655218Y-67650778D01*
X197655218Y-67650776D01*
X197587761Y-67518386D01*
X197562287Y-67468390D01*
X197519315Y-67409243D01*
X197441971Y-67302786D01*
X197297213Y-67158028D01*
X197131613Y-67037715D01*
X197131612Y-67037714D01*
X197131610Y-67037713D01*
X197074653Y-67008691D01*
X196949223Y-66944781D01*
X196754534Y-66881522D01*
X196579995Y-66853878D01*
X196552352Y-66849500D01*
X196347648Y-66849500D01*
X196323329Y-66853351D01*
X196145465Y-66881522D01*
X195950776Y-66944781D01*
X195768386Y-67037715D01*
X195602786Y-67158028D01*
X195458028Y-67302786D01*
X195337715Y-67468386D01*
X195244781Y-67650776D01*
X195181522Y-67845465D01*
X195149500Y-68047648D01*
X149392581Y-68047648D01*
X149368477Y-67895466D01*
X149305220Y-67700781D01*
X149305218Y-67700778D01*
X149305218Y-67700776D01*
X149271503Y-67634607D01*
X149212287Y-67518390D01*
X149183606Y-67478914D01*
X149091971Y-67352786D01*
X148947213Y-67208028D01*
X148781613Y-67087715D01*
X148781612Y-67087714D01*
X148781610Y-67087713D01*
X148683480Y-67037713D01*
X148599223Y-66994781D01*
X148404534Y-66931522D01*
X148229995Y-66903878D01*
X148202352Y-66899500D01*
X147997648Y-66899500D01*
X147973329Y-66903351D01*
X147795465Y-66931522D01*
X147600776Y-66994781D01*
X147418386Y-67087715D01*
X147252786Y-67208028D01*
X147108028Y-67352786D01*
X146987715Y-67518386D01*
X146894781Y-67700776D01*
X146831522Y-67895465D01*
X146805118Y-68062175D01*
X146799500Y-68097648D01*
X145937769Y-68097648D01*
X145937770Y-68092752D01*
X145937779Y-68047648D01*
X145937788Y-67998906D01*
X145938514Y-67985533D01*
X145939162Y-67979558D01*
X145939166Y-67979545D01*
X145937835Y-67920823D01*
X145937804Y-67918028D01*
X145937804Y-67915576D01*
X145937804Y-67913373D01*
X145937922Y-67908007D01*
X145948197Y-67673603D01*
X145950006Y-67657259D01*
X145990797Y-67428817D01*
X145994756Y-67412858D01*
X146065457Y-67191828D01*
X146071489Y-67176548D01*
X146170855Y-66966832D01*
X146178873Y-66952464D01*
X146228360Y-66876161D01*
X146305137Y-66757780D01*
X146314981Y-66744609D01*
X146465940Y-66568359D01*
X146477439Y-66556611D01*
X146650420Y-66401918D01*
X146663379Y-66391794D01*
X146855325Y-66261389D01*
X146869506Y-66253074D01*
X147077039Y-66149252D01*
X147092209Y-66142884D01*
X147311671Y-66067473D01*
X147327541Y-66063175D01*
X147555055Y-66017510D01*
X147571351Y-66015351D01*
X147794968Y-66000751D01*
X147803027Y-66000489D01*
X196600974Y-66007586D01*
G37*
%TD.AperFunction*%
%TD*%
M02*
