%TF.GenerationSoftware,KiCad,Pcbnew,9.0.2*%
%TF.CreationDate,2026-04-21T03:23:11-04:00*%
%TF.ProjectId,TurbineMCU,54757262-696e-4654-9d43-552e6b696361,rev?*%
%TF.SameCoordinates,Original*%
%TF.FileFunction,Legend,Bot*%
%TF.FilePolarity,Positive*%
%FSLAX46Y46*%
G04 Gerber Fmt 4.6, Leading zero omitted, Abs format (unit mm)*
G04 Created by KiCad (PCBNEW 9.0.2) date 2026-04-21 03:23:11*
%MOMM*%
%LPD*%
G01*
G04 APERTURE LIST*
%ADD10C,0.150000*%
G04 APERTURE END LIST*
D10*
X196163220Y-72434931D02*
X196163220Y-71434931D01*
X196163220Y-71434931D02*
X195925125Y-71434931D01*
X195925125Y-71434931D02*
X195782268Y-71482550D01*
X195782268Y-71482550D02*
X195687030Y-71577788D01*
X195687030Y-71577788D02*
X195639411Y-71673026D01*
X195639411Y-71673026D02*
X195591792Y-71863502D01*
X195591792Y-71863502D02*
X195591792Y-72006359D01*
X195591792Y-72006359D02*
X195639411Y-72196835D01*
X195639411Y-72196835D02*
X195687030Y-72292073D01*
X195687030Y-72292073D02*
X195782268Y-72387312D01*
X195782268Y-72387312D02*
X195925125Y-72434931D01*
X195925125Y-72434931D02*
X196163220Y-72434931D01*
X194782268Y-72387312D02*
X194877506Y-72434931D01*
X194877506Y-72434931D02*
X195067982Y-72434931D01*
X195067982Y-72434931D02*
X195163220Y-72387312D01*
X195163220Y-72387312D02*
X195210839Y-72292073D01*
X195210839Y-72292073D02*
X195210839Y-71911121D01*
X195210839Y-71911121D02*
X195163220Y-71815883D01*
X195163220Y-71815883D02*
X195067982Y-71768264D01*
X195067982Y-71768264D02*
X194877506Y-71768264D01*
X194877506Y-71768264D02*
X194782268Y-71815883D01*
X194782268Y-71815883D02*
X194734649Y-71911121D01*
X194734649Y-71911121D02*
X194734649Y-72006359D01*
X194734649Y-72006359D02*
X195210839Y-72101597D01*
X194353696Y-72387312D02*
X194258458Y-72434931D01*
X194258458Y-72434931D02*
X194067982Y-72434931D01*
X194067982Y-72434931D02*
X193972744Y-72387312D01*
X193972744Y-72387312D02*
X193925125Y-72292073D01*
X193925125Y-72292073D02*
X193925125Y-72244454D01*
X193925125Y-72244454D02*
X193972744Y-72149216D01*
X193972744Y-72149216D02*
X194067982Y-72101597D01*
X194067982Y-72101597D02*
X194210839Y-72101597D01*
X194210839Y-72101597D02*
X194306077Y-72053978D01*
X194306077Y-72053978D02*
X194353696Y-71958740D01*
X194353696Y-71958740D02*
X194353696Y-71911121D01*
X194353696Y-71911121D02*
X194306077Y-71815883D01*
X194306077Y-71815883D02*
X194210839Y-71768264D01*
X194210839Y-71768264D02*
X194067982Y-71768264D01*
X194067982Y-71768264D02*
X193972744Y-71815883D01*
X193496553Y-72434931D02*
X193496553Y-71768264D01*
X193496553Y-71434931D02*
X193544172Y-71482550D01*
X193544172Y-71482550D02*
X193496553Y-71530169D01*
X193496553Y-71530169D02*
X193448934Y-71482550D01*
X193448934Y-71482550D02*
X193496553Y-71434931D01*
X193496553Y-71434931D02*
X193496553Y-71530169D01*
X192591792Y-71768264D02*
X192591792Y-72577788D01*
X192591792Y-72577788D02*
X192639411Y-72673026D01*
X192639411Y-72673026D02*
X192687030Y-72720645D01*
X192687030Y-72720645D02*
X192782268Y-72768264D01*
X192782268Y-72768264D02*
X192925125Y-72768264D01*
X192925125Y-72768264D02*
X193020363Y-72720645D01*
X192591792Y-72387312D02*
X192687030Y-72434931D01*
X192687030Y-72434931D02*
X192877506Y-72434931D01*
X192877506Y-72434931D02*
X192972744Y-72387312D01*
X192972744Y-72387312D02*
X193020363Y-72339692D01*
X193020363Y-72339692D02*
X193067982Y-72244454D01*
X193067982Y-72244454D02*
X193067982Y-71958740D01*
X193067982Y-71958740D02*
X193020363Y-71863502D01*
X193020363Y-71863502D02*
X192972744Y-71815883D01*
X192972744Y-71815883D02*
X192877506Y-71768264D01*
X192877506Y-71768264D02*
X192687030Y-71768264D01*
X192687030Y-71768264D02*
X192591792Y-71815883D01*
X192115601Y-71768264D02*
X192115601Y-72434931D01*
X192115601Y-71863502D02*
X192067982Y-71815883D01*
X192067982Y-71815883D02*
X191972744Y-71768264D01*
X191972744Y-71768264D02*
X191829887Y-71768264D01*
X191829887Y-71768264D02*
X191734649Y-71815883D01*
X191734649Y-71815883D02*
X191687030Y-71911121D01*
X191687030Y-71911121D02*
X191687030Y-72434931D01*
X190829887Y-72387312D02*
X190925125Y-72434931D01*
X190925125Y-72434931D02*
X191115601Y-72434931D01*
X191115601Y-72434931D02*
X191210839Y-72387312D01*
X191210839Y-72387312D02*
X191258458Y-72292073D01*
X191258458Y-72292073D02*
X191258458Y-71911121D01*
X191258458Y-71911121D02*
X191210839Y-71815883D01*
X191210839Y-71815883D02*
X191115601Y-71768264D01*
X191115601Y-71768264D02*
X190925125Y-71768264D01*
X190925125Y-71768264D02*
X190829887Y-71815883D01*
X190829887Y-71815883D02*
X190782268Y-71911121D01*
X190782268Y-71911121D02*
X190782268Y-72006359D01*
X190782268Y-72006359D02*
X191258458Y-72101597D01*
X189925125Y-72434931D02*
X189925125Y-71434931D01*
X189925125Y-72387312D02*
X190020363Y-72434931D01*
X190020363Y-72434931D02*
X190210839Y-72434931D01*
X190210839Y-72434931D02*
X190306077Y-72387312D01*
X190306077Y-72387312D02*
X190353696Y-72339692D01*
X190353696Y-72339692D02*
X190401315Y-72244454D01*
X190401315Y-72244454D02*
X190401315Y-71958740D01*
X190401315Y-71958740D02*
X190353696Y-71863502D01*
X190353696Y-71863502D02*
X190306077Y-71815883D01*
X190306077Y-71815883D02*
X190210839Y-71768264D01*
X190210839Y-71768264D02*
X190020363Y-71768264D01*
X190020363Y-71768264D02*
X189925125Y-71815883D01*
X188687029Y-72434931D02*
X188687029Y-71434931D01*
X188687029Y-71815883D02*
X188591791Y-71768264D01*
X188591791Y-71768264D02*
X188401315Y-71768264D01*
X188401315Y-71768264D02*
X188306077Y-71815883D01*
X188306077Y-71815883D02*
X188258458Y-71863502D01*
X188258458Y-71863502D02*
X188210839Y-71958740D01*
X188210839Y-71958740D02*
X188210839Y-72244454D01*
X188210839Y-72244454D02*
X188258458Y-72339692D01*
X188258458Y-72339692D02*
X188306077Y-72387312D01*
X188306077Y-72387312D02*
X188401315Y-72434931D01*
X188401315Y-72434931D02*
X188591791Y-72434931D01*
X188591791Y-72434931D02*
X188687029Y-72387312D01*
X187877505Y-71768264D02*
X187639410Y-72434931D01*
X187401315Y-71768264D02*
X187639410Y-72434931D01*
X187639410Y-72434931D02*
X187734648Y-72673026D01*
X187734648Y-72673026D02*
X187782267Y-72720645D01*
X187782267Y-72720645D02*
X187877505Y-72768264D01*
X187020362Y-72339692D02*
X186972743Y-72387312D01*
X186972743Y-72387312D02*
X187020362Y-72434931D01*
X187020362Y-72434931D02*
X187067981Y-72387312D01*
X187067981Y-72387312D02*
X187020362Y-72339692D01*
X187020362Y-72339692D02*
X187020362Y-72434931D01*
X187020362Y-71815883D02*
X186972743Y-71863502D01*
X186972743Y-71863502D02*
X187020362Y-71911121D01*
X187020362Y-71911121D02*
X187067981Y-71863502D01*
X187067981Y-71863502D02*
X187020362Y-71815883D01*
X187020362Y-71815883D02*
X187020362Y-71911121D01*
X195877506Y-73044875D02*
X195877506Y-73759160D01*
X195877506Y-73759160D02*
X195925125Y-73902017D01*
X195925125Y-73902017D02*
X196020363Y-73997256D01*
X196020363Y-73997256D02*
X196163220Y-74044875D01*
X196163220Y-74044875D02*
X196258458Y-74044875D01*
X195258458Y-74044875D02*
X195353696Y-73997256D01*
X195353696Y-73997256D02*
X195401315Y-73949636D01*
X195401315Y-73949636D02*
X195448934Y-73854398D01*
X195448934Y-73854398D02*
X195448934Y-73568684D01*
X195448934Y-73568684D02*
X195401315Y-73473446D01*
X195401315Y-73473446D02*
X195353696Y-73425827D01*
X195353696Y-73425827D02*
X195258458Y-73378208D01*
X195258458Y-73378208D02*
X195115601Y-73378208D01*
X195115601Y-73378208D02*
X195020363Y-73425827D01*
X195020363Y-73425827D02*
X194972744Y-73473446D01*
X194972744Y-73473446D02*
X194925125Y-73568684D01*
X194925125Y-73568684D02*
X194925125Y-73854398D01*
X194925125Y-73854398D02*
X194972744Y-73949636D01*
X194972744Y-73949636D02*
X195020363Y-73997256D01*
X195020363Y-73997256D02*
X195115601Y-74044875D01*
X195115601Y-74044875D02*
X195258458Y-74044875D01*
X194544172Y-73997256D02*
X194448934Y-74044875D01*
X194448934Y-74044875D02*
X194258458Y-74044875D01*
X194258458Y-74044875D02*
X194163220Y-73997256D01*
X194163220Y-73997256D02*
X194115601Y-73902017D01*
X194115601Y-73902017D02*
X194115601Y-73854398D01*
X194115601Y-73854398D02*
X194163220Y-73759160D01*
X194163220Y-73759160D02*
X194258458Y-73711541D01*
X194258458Y-73711541D02*
X194401315Y-73711541D01*
X194401315Y-73711541D02*
X194496553Y-73663922D01*
X194496553Y-73663922D02*
X194544172Y-73568684D01*
X194544172Y-73568684D02*
X194544172Y-73521065D01*
X194544172Y-73521065D02*
X194496553Y-73425827D01*
X194496553Y-73425827D02*
X194401315Y-73378208D01*
X194401315Y-73378208D02*
X194258458Y-73378208D01*
X194258458Y-73378208D02*
X194163220Y-73425827D01*
X193306077Y-73997256D02*
X193401315Y-74044875D01*
X193401315Y-74044875D02*
X193591791Y-74044875D01*
X193591791Y-74044875D02*
X193687029Y-73997256D01*
X193687029Y-73997256D02*
X193734648Y-73902017D01*
X193734648Y-73902017D02*
X193734648Y-73521065D01*
X193734648Y-73521065D02*
X193687029Y-73425827D01*
X193687029Y-73425827D02*
X193591791Y-73378208D01*
X193591791Y-73378208D02*
X193401315Y-73378208D01*
X193401315Y-73378208D02*
X193306077Y-73425827D01*
X193306077Y-73425827D02*
X193258458Y-73521065D01*
X193258458Y-73521065D02*
X193258458Y-73616303D01*
X193258458Y-73616303D02*
X193734648Y-73711541D01*
X192067981Y-74044875D02*
X192067981Y-73044875D01*
X192067981Y-73044875D02*
X191734648Y-73759160D01*
X191734648Y-73759160D02*
X191401315Y-73044875D01*
X191401315Y-73044875D02*
X191401315Y-74044875D01*
X190925124Y-73949636D02*
X190877505Y-73997256D01*
X190877505Y-73997256D02*
X190925124Y-74044875D01*
X190925124Y-74044875D02*
X190972743Y-73997256D01*
X190972743Y-73997256D02*
X190925124Y-73949636D01*
X190925124Y-73949636D02*
X190925124Y-74044875D01*
X189353696Y-73521065D02*
X189210839Y-73568684D01*
X189210839Y-73568684D02*
X189163220Y-73616303D01*
X189163220Y-73616303D02*
X189115601Y-73711541D01*
X189115601Y-73711541D02*
X189115601Y-73854398D01*
X189115601Y-73854398D02*
X189163220Y-73949636D01*
X189163220Y-73949636D02*
X189210839Y-73997256D01*
X189210839Y-73997256D02*
X189306077Y-74044875D01*
X189306077Y-74044875D02*
X189687029Y-74044875D01*
X189687029Y-74044875D02*
X189687029Y-73044875D01*
X189687029Y-73044875D02*
X189353696Y-73044875D01*
X189353696Y-73044875D02*
X189258458Y-73092494D01*
X189258458Y-73092494D02*
X189210839Y-73140113D01*
X189210839Y-73140113D02*
X189163220Y-73235351D01*
X189163220Y-73235351D02*
X189163220Y-73330589D01*
X189163220Y-73330589D02*
X189210839Y-73425827D01*
X189210839Y-73425827D02*
X189258458Y-73473446D01*
X189258458Y-73473446D02*
X189353696Y-73521065D01*
X189353696Y-73521065D02*
X189687029Y-73521065D01*
X188258458Y-73378208D02*
X188258458Y-74044875D01*
X188687029Y-73378208D02*
X188687029Y-73902017D01*
X188687029Y-73902017D02*
X188639410Y-73997256D01*
X188639410Y-73997256D02*
X188544172Y-74044875D01*
X188544172Y-74044875D02*
X188401315Y-74044875D01*
X188401315Y-74044875D02*
X188306077Y-73997256D01*
X188306077Y-73997256D02*
X188258458Y-73949636D01*
X187782267Y-74044875D02*
X187782267Y-73378208D01*
X187782267Y-73568684D02*
X187734648Y-73473446D01*
X187734648Y-73473446D02*
X187687029Y-73425827D01*
X187687029Y-73425827D02*
X187591791Y-73378208D01*
X187591791Y-73378208D02*
X187496553Y-73378208D01*
X186734648Y-73378208D02*
X186734648Y-74187732D01*
X186734648Y-74187732D02*
X186782267Y-74282970D01*
X186782267Y-74282970D02*
X186829886Y-74330589D01*
X186829886Y-74330589D02*
X186925124Y-74378208D01*
X186925124Y-74378208D02*
X187067981Y-74378208D01*
X187067981Y-74378208D02*
X187163219Y-74330589D01*
X186734648Y-73997256D02*
X186829886Y-74044875D01*
X186829886Y-74044875D02*
X187020362Y-74044875D01*
X187020362Y-74044875D02*
X187115600Y-73997256D01*
X187115600Y-73997256D02*
X187163219Y-73949636D01*
X187163219Y-73949636D02*
X187210838Y-73854398D01*
X187210838Y-73854398D02*
X187210838Y-73568684D01*
X187210838Y-73568684D02*
X187163219Y-73473446D01*
X187163219Y-73473446D02*
X187115600Y-73425827D01*
X187115600Y-73425827D02*
X187020362Y-73378208D01*
X187020362Y-73378208D02*
X186829886Y-73378208D01*
X186829886Y-73378208D02*
X186734648Y-73425827D01*
X186115600Y-74044875D02*
X186210838Y-73997256D01*
X186210838Y-73997256D02*
X186258457Y-73949636D01*
X186258457Y-73949636D02*
X186306076Y-73854398D01*
X186306076Y-73854398D02*
X186306076Y-73568684D01*
X186306076Y-73568684D02*
X186258457Y-73473446D01*
X186258457Y-73473446D02*
X186210838Y-73425827D01*
X186210838Y-73425827D02*
X186115600Y-73378208D01*
X186115600Y-73378208D02*
X185972743Y-73378208D01*
X185972743Y-73378208D02*
X185877505Y-73425827D01*
X185877505Y-73425827D02*
X185829886Y-73473446D01*
X185829886Y-73473446D02*
X185782267Y-73568684D01*
X185782267Y-73568684D02*
X185782267Y-73854398D01*
X185782267Y-73854398D02*
X185829886Y-73949636D01*
X185829886Y-73949636D02*
X185877505Y-73997256D01*
X185877505Y-73997256D02*
X185972743Y-74044875D01*
X185972743Y-74044875D02*
X186115600Y-74044875D01*
X185401314Y-73997256D02*
X185306076Y-74044875D01*
X185306076Y-74044875D02*
X185115600Y-74044875D01*
X185115600Y-74044875D02*
X185020362Y-73997256D01*
X185020362Y-73997256D02*
X184972743Y-73902017D01*
X184972743Y-73902017D02*
X184972743Y-73854398D01*
X184972743Y-73854398D02*
X185020362Y-73759160D01*
X185020362Y-73759160D02*
X185115600Y-73711541D01*
X185115600Y-73711541D02*
X185258457Y-73711541D01*
X185258457Y-73711541D02*
X185353695Y-73663922D01*
X185353695Y-73663922D02*
X185401314Y-73568684D01*
X185401314Y-73568684D02*
X185401314Y-73521065D01*
X185401314Y-73521065D02*
X185353695Y-73425827D01*
X185353695Y-73425827D02*
X185258457Y-73378208D01*
X185258457Y-73378208D02*
X185115600Y-73378208D01*
X185115600Y-73378208D02*
X185020362Y-73425827D01*
X183258457Y-73092494D02*
X183353695Y-73044875D01*
X183353695Y-73044875D02*
X183496552Y-73044875D01*
X183496552Y-73044875D02*
X183639409Y-73092494D01*
X183639409Y-73092494D02*
X183734647Y-73187732D01*
X183734647Y-73187732D02*
X183782266Y-73282970D01*
X183782266Y-73282970D02*
X183829885Y-73473446D01*
X183829885Y-73473446D02*
X183829885Y-73616303D01*
X183829885Y-73616303D02*
X183782266Y-73806779D01*
X183782266Y-73806779D02*
X183734647Y-73902017D01*
X183734647Y-73902017D02*
X183639409Y-73997256D01*
X183639409Y-73997256D02*
X183496552Y-74044875D01*
X183496552Y-74044875D02*
X183401314Y-74044875D01*
X183401314Y-74044875D02*
X183258457Y-73997256D01*
X183258457Y-73997256D02*
X183210838Y-73949636D01*
X183210838Y-73949636D02*
X183210838Y-73616303D01*
X183210838Y-73616303D02*
X183401314Y-73616303D01*
X182353695Y-73378208D02*
X182353695Y-74044875D01*
X182782266Y-73378208D02*
X182782266Y-73902017D01*
X182782266Y-73902017D02*
X182734647Y-73997256D01*
X182734647Y-73997256D02*
X182639409Y-74044875D01*
X182639409Y-74044875D02*
X182496552Y-74044875D01*
X182496552Y-74044875D02*
X182401314Y-73997256D01*
X182401314Y-73997256D02*
X182353695Y-73949636D01*
X181877504Y-73378208D02*
X181877504Y-74044875D01*
X181877504Y-73473446D02*
X181829885Y-73425827D01*
X181829885Y-73425827D02*
X181734647Y-73378208D01*
X181734647Y-73378208D02*
X181591790Y-73378208D01*
X181591790Y-73378208D02*
X181496552Y-73425827D01*
X181496552Y-73425827D02*
X181448933Y-73521065D01*
X181448933Y-73521065D02*
X181448933Y-74044875D01*
X181115599Y-73378208D02*
X180734647Y-73378208D01*
X180972742Y-73044875D02*
X180972742Y-73902017D01*
X180972742Y-73902017D02*
X180925123Y-73997256D01*
X180925123Y-73997256D02*
X180829885Y-74044875D01*
X180829885Y-74044875D02*
X180734647Y-74044875D01*
X180401313Y-74044875D02*
X180401313Y-73378208D01*
X180401313Y-73044875D02*
X180448932Y-73092494D01*
X180448932Y-73092494D02*
X180401313Y-73140113D01*
X180401313Y-73140113D02*
X180353694Y-73092494D01*
X180353694Y-73092494D02*
X180401313Y-73044875D01*
X180401313Y-73044875D02*
X180401313Y-73140113D01*
X179925123Y-73378208D02*
X179925123Y-74044875D01*
X179925123Y-73473446D02*
X179877504Y-73425827D01*
X179877504Y-73425827D02*
X179782266Y-73378208D01*
X179782266Y-73378208D02*
X179639409Y-73378208D01*
X179639409Y-73378208D02*
X179544171Y-73425827D01*
X179544171Y-73425827D02*
X179496552Y-73521065D01*
X179496552Y-73521065D02*
X179496552Y-74044875D01*
X178972742Y-73997256D02*
X178972742Y-74044875D01*
X178972742Y-74044875D02*
X179020361Y-74140113D01*
X179020361Y-74140113D02*
X179067980Y-74187732D01*
X196210839Y-75607200D02*
X196067982Y-75654819D01*
X196067982Y-75654819D02*
X195829887Y-75654819D01*
X195829887Y-75654819D02*
X195734649Y-75607200D01*
X195734649Y-75607200D02*
X195687030Y-75559580D01*
X195687030Y-75559580D02*
X195639411Y-75464342D01*
X195639411Y-75464342D02*
X195639411Y-75369104D01*
X195639411Y-75369104D02*
X195687030Y-75273866D01*
X195687030Y-75273866D02*
X195734649Y-75226247D01*
X195734649Y-75226247D02*
X195829887Y-75178628D01*
X195829887Y-75178628D02*
X196020363Y-75131009D01*
X196020363Y-75131009D02*
X196115601Y-75083390D01*
X196115601Y-75083390D02*
X196163220Y-75035771D01*
X196163220Y-75035771D02*
X196210839Y-74940533D01*
X196210839Y-74940533D02*
X196210839Y-74845295D01*
X196210839Y-74845295D02*
X196163220Y-74750057D01*
X196163220Y-74750057D02*
X196115601Y-74702438D01*
X196115601Y-74702438D02*
X196020363Y-74654819D01*
X196020363Y-74654819D02*
X195782268Y-74654819D01*
X195782268Y-74654819D02*
X195639411Y-74702438D01*
X194829887Y-75607200D02*
X194925125Y-75654819D01*
X194925125Y-75654819D02*
X195115601Y-75654819D01*
X195115601Y-75654819D02*
X195210839Y-75607200D01*
X195210839Y-75607200D02*
X195258458Y-75511961D01*
X195258458Y-75511961D02*
X195258458Y-75131009D01*
X195258458Y-75131009D02*
X195210839Y-75035771D01*
X195210839Y-75035771D02*
X195115601Y-74988152D01*
X195115601Y-74988152D02*
X194925125Y-74988152D01*
X194925125Y-74988152D02*
X194829887Y-75035771D01*
X194829887Y-75035771D02*
X194782268Y-75131009D01*
X194782268Y-75131009D02*
X194782268Y-75226247D01*
X194782268Y-75226247D02*
X195258458Y-75321485D01*
X194353696Y-75654819D02*
X194353696Y-74988152D01*
X194353696Y-75178628D02*
X194306077Y-75083390D01*
X194306077Y-75083390D02*
X194258458Y-75035771D01*
X194258458Y-75035771D02*
X194163220Y-74988152D01*
X194163220Y-74988152D02*
X194067982Y-74988152D01*
X193306077Y-74988152D02*
X193306077Y-75797676D01*
X193306077Y-75797676D02*
X193353696Y-75892914D01*
X193353696Y-75892914D02*
X193401315Y-75940533D01*
X193401315Y-75940533D02*
X193496553Y-75988152D01*
X193496553Y-75988152D02*
X193639410Y-75988152D01*
X193639410Y-75988152D02*
X193734648Y-75940533D01*
X193306077Y-75607200D02*
X193401315Y-75654819D01*
X193401315Y-75654819D02*
X193591791Y-75654819D01*
X193591791Y-75654819D02*
X193687029Y-75607200D01*
X193687029Y-75607200D02*
X193734648Y-75559580D01*
X193734648Y-75559580D02*
X193782267Y-75464342D01*
X193782267Y-75464342D02*
X193782267Y-75178628D01*
X193782267Y-75178628D02*
X193734648Y-75083390D01*
X193734648Y-75083390D02*
X193687029Y-75035771D01*
X193687029Y-75035771D02*
X193591791Y-74988152D01*
X193591791Y-74988152D02*
X193401315Y-74988152D01*
X193401315Y-74988152D02*
X193306077Y-75035771D01*
X192829886Y-75654819D02*
X192829886Y-74988152D01*
X192829886Y-74654819D02*
X192877505Y-74702438D01*
X192877505Y-74702438D02*
X192829886Y-74750057D01*
X192829886Y-74750057D02*
X192782267Y-74702438D01*
X192782267Y-74702438D02*
X192829886Y-74654819D01*
X192829886Y-74654819D02*
X192829886Y-74750057D01*
X192210839Y-75654819D02*
X192306077Y-75607200D01*
X192306077Y-75607200D02*
X192353696Y-75559580D01*
X192353696Y-75559580D02*
X192401315Y-75464342D01*
X192401315Y-75464342D02*
X192401315Y-75178628D01*
X192401315Y-75178628D02*
X192353696Y-75083390D01*
X192353696Y-75083390D02*
X192306077Y-75035771D01*
X192306077Y-75035771D02*
X192210839Y-74988152D01*
X192210839Y-74988152D02*
X192067982Y-74988152D01*
X192067982Y-74988152D02*
X191972744Y-75035771D01*
X191972744Y-75035771D02*
X191925125Y-75083390D01*
X191925125Y-75083390D02*
X191877506Y-75178628D01*
X191877506Y-75178628D02*
X191877506Y-75464342D01*
X191877506Y-75464342D02*
X191925125Y-75559580D01*
X191925125Y-75559580D02*
X191972744Y-75607200D01*
X191972744Y-75607200D02*
X192067982Y-75654819D01*
X192067982Y-75654819D02*
X192210839Y-75654819D01*
X190734648Y-75369104D02*
X190258458Y-75369104D01*
X190829886Y-75654819D02*
X190496553Y-74654819D01*
X190496553Y-74654819D02*
X190163220Y-75654819D01*
X189829886Y-75559580D02*
X189782267Y-75607200D01*
X189782267Y-75607200D02*
X189829886Y-75654819D01*
X189829886Y-75654819D02*
X189877505Y-75607200D01*
X189877505Y-75607200D02*
X189829886Y-75559580D01*
X189829886Y-75559580D02*
X189829886Y-75654819D01*
X188591791Y-75654819D02*
X188591791Y-74654819D01*
X188591791Y-74654819D02*
X188353696Y-74654819D01*
X188353696Y-74654819D02*
X188210839Y-74702438D01*
X188210839Y-74702438D02*
X188115601Y-74797676D01*
X188115601Y-74797676D02*
X188067982Y-74892914D01*
X188067982Y-74892914D02*
X188020363Y-75083390D01*
X188020363Y-75083390D02*
X188020363Y-75226247D01*
X188020363Y-75226247D02*
X188067982Y-75416723D01*
X188067982Y-75416723D02*
X188115601Y-75511961D01*
X188115601Y-75511961D02*
X188210839Y-75607200D01*
X188210839Y-75607200D02*
X188353696Y-75654819D01*
X188353696Y-75654819D02*
X188591791Y-75654819D01*
X187163220Y-75654819D02*
X187163220Y-75131009D01*
X187163220Y-75131009D02*
X187210839Y-75035771D01*
X187210839Y-75035771D02*
X187306077Y-74988152D01*
X187306077Y-74988152D02*
X187496553Y-74988152D01*
X187496553Y-74988152D02*
X187591791Y-75035771D01*
X187163220Y-75607200D02*
X187258458Y-75654819D01*
X187258458Y-75654819D02*
X187496553Y-75654819D01*
X187496553Y-75654819D02*
X187591791Y-75607200D01*
X187591791Y-75607200D02*
X187639410Y-75511961D01*
X187639410Y-75511961D02*
X187639410Y-75416723D01*
X187639410Y-75416723D02*
X187591791Y-75321485D01*
X187591791Y-75321485D02*
X187496553Y-75273866D01*
X187496553Y-75273866D02*
X187258458Y-75273866D01*
X187258458Y-75273866D02*
X187163220Y-75226247D01*
X185972743Y-75607200D02*
X185829886Y-75654819D01*
X185829886Y-75654819D02*
X185591791Y-75654819D01*
X185591791Y-75654819D02*
X185496553Y-75607200D01*
X185496553Y-75607200D02*
X185448934Y-75559580D01*
X185448934Y-75559580D02*
X185401315Y-75464342D01*
X185401315Y-75464342D02*
X185401315Y-75369104D01*
X185401315Y-75369104D02*
X185448934Y-75273866D01*
X185448934Y-75273866D02*
X185496553Y-75226247D01*
X185496553Y-75226247D02*
X185591791Y-75178628D01*
X185591791Y-75178628D02*
X185782267Y-75131009D01*
X185782267Y-75131009D02*
X185877505Y-75083390D01*
X185877505Y-75083390D02*
X185925124Y-75035771D01*
X185925124Y-75035771D02*
X185972743Y-74940533D01*
X185972743Y-74940533D02*
X185972743Y-74845295D01*
X185972743Y-74845295D02*
X185925124Y-74750057D01*
X185925124Y-74750057D02*
X185877505Y-74702438D01*
X185877505Y-74702438D02*
X185782267Y-74654819D01*
X185782267Y-74654819D02*
X185544172Y-74654819D01*
X185544172Y-74654819D02*
X185401315Y-74702438D01*
X184972743Y-75654819D02*
X184972743Y-74988152D01*
X184972743Y-74654819D02*
X185020362Y-74702438D01*
X185020362Y-74702438D02*
X184972743Y-74750057D01*
X184972743Y-74750057D02*
X184925124Y-74702438D01*
X184925124Y-74702438D02*
X184972743Y-74654819D01*
X184972743Y-74654819D02*
X184972743Y-74750057D01*
X184353696Y-75654819D02*
X184448934Y-75607200D01*
X184448934Y-75607200D02*
X184496553Y-75511961D01*
X184496553Y-75511961D02*
X184496553Y-74654819D01*
X184067981Y-74988152D02*
X183829886Y-75654819D01*
X183829886Y-75654819D02*
X183591791Y-74988152D01*
X182782267Y-75654819D02*
X182782267Y-75131009D01*
X182782267Y-75131009D02*
X182829886Y-75035771D01*
X182829886Y-75035771D02*
X182925124Y-74988152D01*
X182925124Y-74988152D02*
X183115600Y-74988152D01*
X183115600Y-74988152D02*
X183210838Y-75035771D01*
X182782267Y-75607200D02*
X182877505Y-75654819D01*
X182877505Y-75654819D02*
X183115600Y-75654819D01*
X183115600Y-75654819D02*
X183210838Y-75607200D01*
X183210838Y-75607200D02*
X183258457Y-75511961D01*
X183258457Y-75511961D02*
X183258457Y-75416723D01*
X183258457Y-75416723D02*
X183210838Y-75321485D01*
X183210838Y-75321485D02*
X183115600Y-75273866D01*
X183115600Y-75273866D02*
X182877505Y-75273866D01*
X182877505Y-75273866D02*
X182782267Y-75226247D01*
X181067981Y-75654819D02*
X181544171Y-75654819D01*
X181544171Y-75654819D02*
X181544171Y-74654819D01*
X180591790Y-75654819D02*
X180687028Y-75607200D01*
X180687028Y-75607200D02*
X180734647Y-75559580D01*
X180734647Y-75559580D02*
X180782266Y-75464342D01*
X180782266Y-75464342D02*
X180782266Y-75178628D01*
X180782266Y-75178628D02*
X180734647Y-75083390D01*
X180734647Y-75083390D02*
X180687028Y-75035771D01*
X180687028Y-75035771D02*
X180591790Y-74988152D01*
X180591790Y-74988152D02*
X180448933Y-74988152D01*
X180448933Y-74988152D02*
X180353695Y-75035771D01*
X180353695Y-75035771D02*
X180306076Y-75083390D01*
X180306076Y-75083390D02*
X180258457Y-75178628D01*
X180258457Y-75178628D02*
X180258457Y-75464342D01*
X180258457Y-75464342D02*
X180306076Y-75559580D01*
X180306076Y-75559580D02*
X180353695Y-75607200D01*
X180353695Y-75607200D02*
X180448933Y-75654819D01*
X180448933Y-75654819D02*
X180591790Y-75654819D01*
X179829885Y-74988152D02*
X179829885Y-75988152D01*
X179829885Y-75035771D02*
X179734647Y-74988152D01*
X179734647Y-74988152D02*
X179544171Y-74988152D01*
X179544171Y-74988152D02*
X179448933Y-75035771D01*
X179448933Y-75035771D02*
X179401314Y-75083390D01*
X179401314Y-75083390D02*
X179353695Y-75178628D01*
X179353695Y-75178628D02*
X179353695Y-75464342D01*
X179353695Y-75464342D02*
X179401314Y-75559580D01*
X179401314Y-75559580D02*
X179448933Y-75607200D01*
X179448933Y-75607200D02*
X179544171Y-75654819D01*
X179544171Y-75654819D02*
X179734647Y-75654819D01*
X179734647Y-75654819D02*
X179829885Y-75607200D01*
X178544171Y-75607200D02*
X178639409Y-75654819D01*
X178639409Y-75654819D02*
X178829885Y-75654819D01*
X178829885Y-75654819D02*
X178925123Y-75607200D01*
X178925123Y-75607200D02*
X178972742Y-75511961D01*
X178972742Y-75511961D02*
X178972742Y-75131009D01*
X178972742Y-75131009D02*
X178925123Y-75035771D01*
X178925123Y-75035771D02*
X178829885Y-74988152D01*
X178829885Y-74988152D02*
X178639409Y-74988152D01*
X178639409Y-74988152D02*
X178544171Y-75035771D01*
X178544171Y-75035771D02*
X178496552Y-75131009D01*
X178496552Y-75131009D02*
X178496552Y-75226247D01*
X178496552Y-75226247D02*
X178972742Y-75321485D01*
X178163218Y-74988152D02*
X177639409Y-74988152D01*
X177639409Y-74988152D02*
X178163218Y-75654819D01*
X178163218Y-75654819D02*
X177639409Y-75654819D01*
X177210837Y-75607200D02*
X177210837Y-75654819D01*
X177210837Y-75654819D02*
X177258456Y-75750057D01*
X177258456Y-75750057D02*
X177306075Y-75797676D01*
X196163220Y-77264763D02*
X196163220Y-76264763D01*
X196163220Y-76740953D02*
X195591792Y-76740953D01*
X195591792Y-77264763D02*
X195591792Y-76264763D01*
X195115601Y-77264763D02*
X195115601Y-76598096D01*
X195115601Y-76264763D02*
X195163220Y-76312382D01*
X195163220Y-76312382D02*
X195115601Y-76360001D01*
X195115601Y-76360001D02*
X195067982Y-76312382D01*
X195067982Y-76312382D02*
X195115601Y-76264763D01*
X195115601Y-76264763D02*
X195115601Y-76360001D01*
X194639411Y-77264763D02*
X194639411Y-76598096D01*
X194639411Y-76788572D02*
X194591792Y-76693334D01*
X194591792Y-76693334D02*
X194544173Y-76645715D01*
X194544173Y-76645715D02*
X194448935Y-76598096D01*
X194448935Y-76598096D02*
X194353697Y-76598096D01*
X193591792Y-77264763D02*
X193591792Y-76740953D01*
X193591792Y-76740953D02*
X193639411Y-76645715D01*
X193639411Y-76645715D02*
X193734649Y-76598096D01*
X193734649Y-76598096D02*
X193925125Y-76598096D01*
X193925125Y-76598096D02*
X194020363Y-76645715D01*
X193591792Y-77217144D02*
X193687030Y-77264763D01*
X193687030Y-77264763D02*
X193925125Y-77264763D01*
X193925125Y-77264763D02*
X194020363Y-77217144D01*
X194020363Y-77217144D02*
X194067982Y-77121905D01*
X194067982Y-77121905D02*
X194067982Y-77026667D01*
X194067982Y-77026667D02*
X194020363Y-76931429D01*
X194020363Y-76931429D02*
X193925125Y-76883810D01*
X193925125Y-76883810D02*
X193687030Y-76883810D01*
X193687030Y-76883810D02*
X193591792Y-76836191D01*
X193115601Y-77264763D02*
X193115601Y-76598096D01*
X193115601Y-76693334D02*
X193067982Y-76645715D01*
X193067982Y-76645715D02*
X192972744Y-76598096D01*
X192972744Y-76598096D02*
X192829887Y-76598096D01*
X192829887Y-76598096D02*
X192734649Y-76645715D01*
X192734649Y-76645715D02*
X192687030Y-76740953D01*
X192687030Y-76740953D02*
X192687030Y-77264763D01*
X192687030Y-76740953D02*
X192639411Y-76645715D01*
X192639411Y-76645715D02*
X192544173Y-76598096D01*
X192544173Y-76598096D02*
X192401316Y-76598096D01*
X192401316Y-76598096D02*
X192306077Y-76645715D01*
X192306077Y-76645715D02*
X192258458Y-76740953D01*
X192258458Y-76740953D02*
X192258458Y-77264763D01*
X190448935Y-77264763D02*
X190782268Y-76788572D01*
X191020363Y-77264763D02*
X191020363Y-76264763D01*
X191020363Y-76264763D02*
X190639411Y-76264763D01*
X190639411Y-76264763D02*
X190544173Y-76312382D01*
X190544173Y-76312382D02*
X190496554Y-76360001D01*
X190496554Y-76360001D02*
X190448935Y-76455239D01*
X190448935Y-76455239D02*
X190448935Y-76598096D01*
X190448935Y-76598096D02*
X190496554Y-76693334D01*
X190496554Y-76693334D02*
X190544173Y-76740953D01*
X190544173Y-76740953D02*
X190639411Y-76788572D01*
X190639411Y-76788572D02*
X191020363Y-76788572D01*
X190020363Y-77169524D02*
X189972744Y-77217144D01*
X189972744Y-77217144D02*
X190020363Y-77264763D01*
X190020363Y-77264763D02*
X190067982Y-77217144D01*
X190067982Y-77217144D02*
X190020363Y-77169524D01*
X190020363Y-77169524D02*
X190020363Y-77264763D01*
X188210840Y-77264763D02*
X188544173Y-76788572D01*
X188782268Y-77264763D02*
X188782268Y-76264763D01*
X188782268Y-76264763D02*
X188401316Y-76264763D01*
X188401316Y-76264763D02*
X188306078Y-76312382D01*
X188306078Y-76312382D02*
X188258459Y-76360001D01*
X188258459Y-76360001D02*
X188210840Y-76455239D01*
X188210840Y-76455239D02*
X188210840Y-76598096D01*
X188210840Y-76598096D02*
X188258459Y-76693334D01*
X188258459Y-76693334D02*
X188306078Y-76740953D01*
X188306078Y-76740953D02*
X188401316Y-76788572D01*
X188401316Y-76788572D02*
X188782268Y-76788572D01*
X187639411Y-77264763D02*
X187734649Y-77217144D01*
X187734649Y-77217144D02*
X187782268Y-77169524D01*
X187782268Y-77169524D02*
X187829887Y-77074286D01*
X187829887Y-77074286D02*
X187829887Y-76788572D01*
X187829887Y-76788572D02*
X187782268Y-76693334D01*
X187782268Y-76693334D02*
X187734649Y-76645715D01*
X187734649Y-76645715D02*
X187639411Y-76598096D01*
X187639411Y-76598096D02*
X187496554Y-76598096D01*
X187496554Y-76598096D02*
X187401316Y-76645715D01*
X187401316Y-76645715D02*
X187353697Y-76693334D01*
X187353697Y-76693334D02*
X187306078Y-76788572D01*
X187306078Y-76788572D02*
X187306078Y-77074286D01*
X187306078Y-77074286D02*
X187353697Y-77169524D01*
X187353697Y-77169524D02*
X187401316Y-77217144D01*
X187401316Y-77217144D02*
X187496554Y-77264763D01*
X187496554Y-77264763D02*
X187639411Y-77264763D01*
X186448935Y-77264763D02*
X186448935Y-76264763D01*
X186448935Y-77217144D02*
X186544173Y-77264763D01*
X186544173Y-77264763D02*
X186734649Y-77264763D01*
X186734649Y-77264763D02*
X186829887Y-77217144D01*
X186829887Y-77217144D02*
X186877506Y-77169524D01*
X186877506Y-77169524D02*
X186925125Y-77074286D01*
X186925125Y-77074286D02*
X186925125Y-76788572D01*
X186925125Y-76788572D02*
X186877506Y-76693334D01*
X186877506Y-76693334D02*
X186829887Y-76645715D01*
X186829887Y-76645715D02*
X186734649Y-76598096D01*
X186734649Y-76598096D02*
X186544173Y-76598096D01*
X186544173Y-76598096D02*
X186448935Y-76645715D01*
X185972744Y-77264763D02*
X185972744Y-76598096D01*
X185972744Y-76788572D02*
X185925125Y-76693334D01*
X185925125Y-76693334D02*
X185877506Y-76645715D01*
X185877506Y-76645715D02*
X185782268Y-76598096D01*
X185782268Y-76598096D02*
X185687030Y-76598096D01*
X185353696Y-77264763D02*
X185353696Y-76598096D01*
X185353696Y-76264763D02*
X185401315Y-76312382D01*
X185401315Y-76312382D02*
X185353696Y-76360001D01*
X185353696Y-76360001D02*
X185306077Y-76312382D01*
X185306077Y-76312382D02*
X185353696Y-76264763D01*
X185353696Y-76264763D02*
X185353696Y-76360001D01*
X184448935Y-76598096D02*
X184448935Y-77407620D01*
X184448935Y-77407620D02*
X184496554Y-77502858D01*
X184496554Y-77502858D02*
X184544173Y-77550477D01*
X184544173Y-77550477D02*
X184639411Y-77598096D01*
X184639411Y-77598096D02*
X184782268Y-77598096D01*
X184782268Y-77598096D02*
X184877506Y-77550477D01*
X184448935Y-77217144D02*
X184544173Y-77264763D01*
X184544173Y-77264763D02*
X184734649Y-77264763D01*
X184734649Y-77264763D02*
X184829887Y-77217144D01*
X184829887Y-77217144D02*
X184877506Y-77169524D01*
X184877506Y-77169524D02*
X184925125Y-77074286D01*
X184925125Y-77074286D02*
X184925125Y-76788572D01*
X184925125Y-76788572D02*
X184877506Y-76693334D01*
X184877506Y-76693334D02*
X184829887Y-76645715D01*
X184829887Y-76645715D02*
X184734649Y-76598096D01*
X184734649Y-76598096D02*
X184544173Y-76598096D01*
X184544173Y-76598096D02*
X184448935Y-76645715D01*
X183544173Y-76598096D02*
X183544173Y-77264763D01*
X183972744Y-76598096D02*
X183972744Y-77121905D01*
X183972744Y-77121905D02*
X183925125Y-77217144D01*
X183925125Y-77217144D02*
X183829887Y-77264763D01*
X183829887Y-77264763D02*
X183687030Y-77264763D01*
X183687030Y-77264763D02*
X183591792Y-77217144D01*
X183591792Y-77217144D02*
X183544173Y-77169524D01*
X182687030Y-77217144D02*
X182782268Y-77264763D01*
X182782268Y-77264763D02*
X182972744Y-77264763D01*
X182972744Y-77264763D02*
X183067982Y-77217144D01*
X183067982Y-77217144D02*
X183115601Y-77121905D01*
X183115601Y-77121905D02*
X183115601Y-76740953D01*
X183115601Y-76740953D02*
X183067982Y-76645715D01*
X183067982Y-76645715D02*
X182972744Y-76598096D01*
X182972744Y-76598096D02*
X182782268Y-76598096D01*
X182782268Y-76598096D02*
X182687030Y-76645715D01*
X182687030Y-76645715D02*
X182639411Y-76740953D01*
X182639411Y-76740953D02*
X182639411Y-76836191D01*
X182639411Y-76836191D02*
X183115601Y-76931429D01*
X182306077Y-76598096D02*
X181782268Y-76598096D01*
X181782268Y-76598096D02*
X182306077Y-77264763D01*
X182306077Y-77264763D02*
X181782268Y-77264763D01*
X180639410Y-77264763D02*
X180639410Y-76264763D01*
X180639410Y-76740953D02*
X180067982Y-76740953D01*
X180067982Y-77264763D02*
X180067982Y-76264763D01*
X179210839Y-77217144D02*
X179306077Y-77264763D01*
X179306077Y-77264763D02*
X179496553Y-77264763D01*
X179496553Y-77264763D02*
X179591791Y-77217144D01*
X179591791Y-77217144D02*
X179639410Y-77121905D01*
X179639410Y-77121905D02*
X179639410Y-76740953D01*
X179639410Y-76740953D02*
X179591791Y-76645715D01*
X179591791Y-76645715D02*
X179496553Y-76598096D01*
X179496553Y-76598096D02*
X179306077Y-76598096D01*
X179306077Y-76598096D02*
X179210839Y-76645715D01*
X179210839Y-76645715D02*
X179163220Y-76740953D01*
X179163220Y-76740953D02*
X179163220Y-76836191D01*
X179163220Y-76836191D02*
X179639410Y-76931429D01*
X178734648Y-77264763D02*
X178734648Y-76598096D01*
X178734648Y-76788572D02*
X178687029Y-76693334D01*
X178687029Y-76693334D02*
X178639410Y-76645715D01*
X178639410Y-76645715D02*
X178544172Y-76598096D01*
X178544172Y-76598096D02*
X178448934Y-76598096D01*
X178115600Y-76598096D02*
X178115600Y-77264763D01*
X178115600Y-76693334D02*
X178067981Y-76645715D01*
X178067981Y-76645715D02*
X177972743Y-76598096D01*
X177972743Y-76598096D02*
X177829886Y-76598096D01*
X177829886Y-76598096D02*
X177734648Y-76645715D01*
X177734648Y-76645715D02*
X177687029Y-76740953D01*
X177687029Y-76740953D02*
X177687029Y-77264763D01*
X176782267Y-77264763D02*
X176782267Y-76740953D01*
X176782267Y-76740953D02*
X176829886Y-76645715D01*
X176829886Y-76645715D02*
X176925124Y-76598096D01*
X176925124Y-76598096D02*
X177115600Y-76598096D01*
X177115600Y-76598096D02*
X177210838Y-76645715D01*
X176782267Y-77217144D02*
X176877505Y-77264763D01*
X176877505Y-77264763D02*
X177115600Y-77264763D01*
X177115600Y-77264763D02*
X177210838Y-77217144D01*
X177210838Y-77217144D02*
X177258457Y-77121905D01*
X177258457Y-77121905D02*
X177258457Y-77026667D01*
X177258457Y-77026667D02*
X177210838Y-76931429D01*
X177210838Y-76931429D02*
X177115600Y-76883810D01*
X177115600Y-76883810D02*
X176877505Y-76883810D01*
X176877505Y-76883810D02*
X176782267Y-76836191D01*
X176306076Y-76598096D02*
X176306076Y-77264763D01*
X176306076Y-76693334D02*
X176258457Y-76645715D01*
X176258457Y-76645715D02*
X176163219Y-76598096D01*
X176163219Y-76598096D02*
X176020362Y-76598096D01*
X176020362Y-76598096D02*
X175925124Y-76645715D01*
X175925124Y-76645715D02*
X175877505Y-76740953D01*
X175877505Y-76740953D02*
X175877505Y-77264763D01*
X174972743Y-77264763D02*
X174972743Y-76264763D01*
X174972743Y-77217144D02*
X175067981Y-77264763D01*
X175067981Y-77264763D02*
X175258457Y-77264763D01*
X175258457Y-77264763D02*
X175353695Y-77217144D01*
X175353695Y-77217144D02*
X175401314Y-77169524D01*
X175401314Y-77169524D02*
X175448933Y-77074286D01*
X175448933Y-77074286D02*
X175448933Y-76788572D01*
X175448933Y-76788572D02*
X175401314Y-76693334D01*
X175401314Y-76693334D02*
X175353695Y-76645715D01*
X175353695Y-76645715D02*
X175258457Y-76598096D01*
X175258457Y-76598096D02*
X175067981Y-76598096D01*
X175067981Y-76598096D02*
X174972743Y-76645715D01*
X174115600Y-77217144D02*
X174210838Y-77264763D01*
X174210838Y-77264763D02*
X174401314Y-77264763D01*
X174401314Y-77264763D02*
X174496552Y-77217144D01*
X174496552Y-77217144D02*
X174544171Y-77121905D01*
X174544171Y-77121905D02*
X174544171Y-76740953D01*
X174544171Y-76740953D02*
X174496552Y-76645715D01*
X174496552Y-76645715D02*
X174401314Y-76598096D01*
X174401314Y-76598096D02*
X174210838Y-76598096D01*
X174210838Y-76598096D02*
X174115600Y-76645715D01*
X174115600Y-76645715D02*
X174067981Y-76740953D01*
X174067981Y-76740953D02*
X174067981Y-76836191D01*
X174067981Y-76836191D02*
X174544171Y-76931429D01*
X173734647Y-76598096D02*
X173210838Y-76598096D01*
X173210838Y-76598096D02*
X173734647Y-77264763D01*
X173734647Y-77264763D02*
X173210838Y-77264763D01*
X172782266Y-77217144D02*
X172782266Y-77264763D01*
X172782266Y-77264763D02*
X172829885Y-77360001D01*
X172829885Y-77360001D02*
X172877504Y-77407620D01*
X196210839Y-78827088D02*
X196067982Y-78874707D01*
X196067982Y-78874707D02*
X195829887Y-78874707D01*
X195829887Y-78874707D02*
X195734649Y-78827088D01*
X195734649Y-78827088D02*
X195687030Y-78779468D01*
X195687030Y-78779468D02*
X195639411Y-78684230D01*
X195639411Y-78684230D02*
X195639411Y-78588992D01*
X195639411Y-78588992D02*
X195687030Y-78493754D01*
X195687030Y-78493754D02*
X195734649Y-78446135D01*
X195734649Y-78446135D02*
X195829887Y-78398516D01*
X195829887Y-78398516D02*
X196020363Y-78350897D01*
X196020363Y-78350897D02*
X196115601Y-78303278D01*
X196115601Y-78303278D02*
X196163220Y-78255659D01*
X196163220Y-78255659D02*
X196210839Y-78160421D01*
X196210839Y-78160421D02*
X196210839Y-78065183D01*
X196210839Y-78065183D02*
X196163220Y-77969945D01*
X196163220Y-77969945D02*
X196115601Y-77922326D01*
X196115601Y-77922326D02*
X196020363Y-77874707D01*
X196020363Y-77874707D02*
X195782268Y-77874707D01*
X195782268Y-77874707D02*
X195639411Y-77922326D01*
X194829887Y-78827088D02*
X194925125Y-78874707D01*
X194925125Y-78874707D02*
X195115601Y-78874707D01*
X195115601Y-78874707D02*
X195210839Y-78827088D01*
X195210839Y-78827088D02*
X195258458Y-78731849D01*
X195258458Y-78731849D02*
X195258458Y-78350897D01*
X195258458Y-78350897D02*
X195210839Y-78255659D01*
X195210839Y-78255659D02*
X195115601Y-78208040D01*
X195115601Y-78208040D02*
X194925125Y-78208040D01*
X194925125Y-78208040D02*
X194829887Y-78255659D01*
X194829887Y-78255659D02*
X194782268Y-78350897D01*
X194782268Y-78350897D02*
X194782268Y-78446135D01*
X194782268Y-78446135D02*
X195258458Y-78541373D01*
X194353696Y-78874707D02*
X194353696Y-78208040D01*
X194353696Y-78398516D02*
X194306077Y-78303278D01*
X194306077Y-78303278D02*
X194258458Y-78255659D01*
X194258458Y-78255659D02*
X194163220Y-78208040D01*
X194163220Y-78208040D02*
X194067982Y-78208040D01*
X193306077Y-78208040D02*
X193306077Y-79017564D01*
X193306077Y-79017564D02*
X193353696Y-79112802D01*
X193353696Y-79112802D02*
X193401315Y-79160421D01*
X193401315Y-79160421D02*
X193496553Y-79208040D01*
X193496553Y-79208040D02*
X193639410Y-79208040D01*
X193639410Y-79208040D02*
X193734648Y-79160421D01*
X193306077Y-78827088D02*
X193401315Y-78874707D01*
X193401315Y-78874707D02*
X193591791Y-78874707D01*
X193591791Y-78874707D02*
X193687029Y-78827088D01*
X193687029Y-78827088D02*
X193734648Y-78779468D01*
X193734648Y-78779468D02*
X193782267Y-78684230D01*
X193782267Y-78684230D02*
X193782267Y-78398516D01*
X193782267Y-78398516D02*
X193734648Y-78303278D01*
X193734648Y-78303278D02*
X193687029Y-78255659D01*
X193687029Y-78255659D02*
X193591791Y-78208040D01*
X193591791Y-78208040D02*
X193401315Y-78208040D01*
X193401315Y-78208040D02*
X193306077Y-78255659D01*
X192829886Y-78874707D02*
X192829886Y-78208040D01*
X192829886Y-77874707D02*
X192877505Y-77922326D01*
X192877505Y-77922326D02*
X192829886Y-77969945D01*
X192829886Y-77969945D02*
X192782267Y-77922326D01*
X192782267Y-77922326D02*
X192829886Y-77874707D01*
X192829886Y-77874707D02*
X192829886Y-77969945D01*
X192210839Y-78874707D02*
X192306077Y-78827088D01*
X192306077Y-78827088D02*
X192353696Y-78779468D01*
X192353696Y-78779468D02*
X192401315Y-78684230D01*
X192401315Y-78684230D02*
X192401315Y-78398516D01*
X192401315Y-78398516D02*
X192353696Y-78303278D01*
X192353696Y-78303278D02*
X192306077Y-78255659D01*
X192306077Y-78255659D02*
X192210839Y-78208040D01*
X192210839Y-78208040D02*
X192067982Y-78208040D01*
X192067982Y-78208040D02*
X191972744Y-78255659D01*
X191972744Y-78255659D02*
X191925125Y-78303278D01*
X191925125Y-78303278D02*
X191877506Y-78398516D01*
X191877506Y-78398516D02*
X191877506Y-78684230D01*
X191877506Y-78684230D02*
X191925125Y-78779468D01*
X191925125Y-78779468D02*
X191972744Y-78827088D01*
X191972744Y-78827088D02*
X192067982Y-78874707D01*
X192067982Y-78874707D02*
X192210839Y-78874707D01*
X190734648Y-78588992D02*
X190258458Y-78588992D01*
X190829886Y-78874707D02*
X190496553Y-77874707D01*
X190496553Y-77874707D02*
X190163220Y-78874707D01*
X189829886Y-78779468D02*
X189782267Y-78827088D01*
X189782267Y-78827088D02*
X189829886Y-78874707D01*
X189829886Y-78874707D02*
X189877505Y-78827088D01*
X189877505Y-78827088D02*
X189829886Y-78779468D01*
X189829886Y-78779468D02*
X189829886Y-78874707D01*
X188591791Y-78874707D02*
X188591791Y-77874707D01*
X188591791Y-77874707D02*
X188258458Y-78588992D01*
X188258458Y-78588992D02*
X187925125Y-77874707D01*
X187925125Y-77874707D02*
X187925125Y-78874707D01*
X187067982Y-78827088D02*
X187163220Y-78874707D01*
X187163220Y-78874707D02*
X187353696Y-78874707D01*
X187353696Y-78874707D02*
X187448934Y-78827088D01*
X187448934Y-78827088D02*
X187496553Y-78731849D01*
X187496553Y-78731849D02*
X187496553Y-78350897D01*
X187496553Y-78350897D02*
X187448934Y-78255659D01*
X187448934Y-78255659D02*
X187353696Y-78208040D01*
X187353696Y-78208040D02*
X187163220Y-78208040D01*
X187163220Y-78208040D02*
X187067982Y-78255659D01*
X187067982Y-78255659D02*
X187020363Y-78350897D01*
X187020363Y-78350897D02*
X187020363Y-78446135D01*
X187020363Y-78446135D02*
X187496553Y-78541373D01*
X186448934Y-78874707D02*
X186544172Y-78827088D01*
X186544172Y-78827088D02*
X186591791Y-78731849D01*
X186591791Y-78731849D02*
X186591791Y-77874707D01*
X185687029Y-78827088D02*
X185782267Y-78874707D01*
X185782267Y-78874707D02*
X185972743Y-78874707D01*
X185972743Y-78874707D02*
X186067981Y-78827088D01*
X186067981Y-78827088D02*
X186115600Y-78731849D01*
X186115600Y-78731849D02*
X186115600Y-78350897D01*
X186115600Y-78350897D02*
X186067981Y-78255659D01*
X186067981Y-78255659D02*
X185972743Y-78208040D01*
X185972743Y-78208040D02*
X185782267Y-78208040D01*
X185782267Y-78208040D02*
X185687029Y-78255659D01*
X185687029Y-78255659D02*
X185639410Y-78350897D01*
X185639410Y-78350897D02*
X185639410Y-78446135D01*
X185639410Y-78446135D02*
X186115600Y-78541373D01*
X185210838Y-78208040D02*
X185210838Y-78874707D01*
X185210838Y-78303278D02*
X185163219Y-78255659D01*
X185163219Y-78255659D02*
X185067981Y-78208040D01*
X185067981Y-78208040D02*
X184925124Y-78208040D01*
X184925124Y-78208040D02*
X184829886Y-78255659D01*
X184829886Y-78255659D02*
X184782267Y-78350897D01*
X184782267Y-78350897D02*
X184782267Y-78874707D01*
X183877505Y-78874707D02*
X183877505Y-77874707D01*
X183877505Y-78827088D02*
X183972743Y-78874707D01*
X183972743Y-78874707D02*
X184163219Y-78874707D01*
X184163219Y-78874707D02*
X184258457Y-78827088D01*
X184258457Y-78827088D02*
X184306076Y-78779468D01*
X184306076Y-78779468D02*
X184353695Y-78684230D01*
X184353695Y-78684230D02*
X184353695Y-78398516D01*
X184353695Y-78398516D02*
X184306076Y-78303278D01*
X184306076Y-78303278D02*
X184258457Y-78255659D01*
X184258457Y-78255659D02*
X184163219Y-78208040D01*
X184163219Y-78208040D02*
X183972743Y-78208040D01*
X183972743Y-78208040D02*
X183877505Y-78255659D01*
X183020362Y-78827088D02*
X183115600Y-78874707D01*
X183115600Y-78874707D02*
X183306076Y-78874707D01*
X183306076Y-78874707D02*
X183401314Y-78827088D01*
X183401314Y-78827088D02*
X183448933Y-78731849D01*
X183448933Y-78731849D02*
X183448933Y-78350897D01*
X183448933Y-78350897D02*
X183401314Y-78255659D01*
X183401314Y-78255659D02*
X183306076Y-78208040D01*
X183306076Y-78208040D02*
X183115600Y-78208040D01*
X183115600Y-78208040D02*
X183020362Y-78255659D01*
X183020362Y-78255659D02*
X182972743Y-78350897D01*
X182972743Y-78350897D02*
X182972743Y-78446135D01*
X182972743Y-78446135D02*
X183448933Y-78541373D01*
X182639409Y-78208040D02*
X182115600Y-78208040D01*
X182115600Y-78208040D02*
X182639409Y-78874707D01*
X182639409Y-78874707D02*
X182115600Y-78874707D01*
X180972742Y-78874707D02*
X180972742Y-77874707D01*
X180972742Y-77874707D02*
X180591790Y-77874707D01*
X180591790Y-77874707D02*
X180496552Y-77922326D01*
X180496552Y-77922326D02*
X180448933Y-77969945D01*
X180448933Y-77969945D02*
X180401314Y-78065183D01*
X180401314Y-78065183D02*
X180401314Y-78208040D01*
X180401314Y-78208040D02*
X180448933Y-78303278D01*
X180448933Y-78303278D02*
X180496552Y-78350897D01*
X180496552Y-78350897D02*
X180591790Y-78398516D01*
X180591790Y-78398516D02*
X180972742Y-78398516D01*
X179544171Y-78874707D02*
X179544171Y-78350897D01*
X179544171Y-78350897D02*
X179591790Y-78255659D01*
X179591790Y-78255659D02*
X179687028Y-78208040D01*
X179687028Y-78208040D02*
X179877504Y-78208040D01*
X179877504Y-78208040D02*
X179972742Y-78255659D01*
X179544171Y-78827088D02*
X179639409Y-78874707D01*
X179639409Y-78874707D02*
X179877504Y-78874707D01*
X179877504Y-78874707D02*
X179972742Y-78827088D01*
X179972742Y-78827088D02*
X180020361Y-78731849D01*
X180020361Y-78731849D02*
X180020361Y-78636611D01*
X180020361Y-78636611D02*
X179972742Y-78541373D01*
X179972742Y-78541373D02*
X179877504Y-78493754D01*
X179877504Y-78493754D02*
X179639409Y-78493754D01*
X179639409Y-78493754D02*
X179544171Y-78446135D01*
X178639409Y-78874707D02*
X178639409Y-77874707D01*
X178639409Y-78827088D02*
X178734647Y-78874707D01*
X178734647Y-78874707D02*
X178925123Y-78874707D01*
X178925123Y-78874707D02*
X179020361Y-78827088D01*
X179020361Y-78827088D02*
X179067980Y-78779468D01*
X179067980Y-78779468D02*
X179115599Y-78684230D01*
X179115599Y-78684230D02*
X179115599Y-78398516D01*
X179115599Y-78398516D02*
X179067980Y-78303278D01*
X179067980Y-78303278D02*
X179020361Y-78255659D01*
X179020361Y-78255659D02*
X178925123Y-78208040D01*
X178925123Y-78208040D02*
X178734647Y-78208040D01*
X178734647Y-78208040D02*
X178639409Y-78255659D01*
X178163218Y-78874707D02*
X178163218Y-78208040D01*
X178163218Y-77874707D02*
X178210837Y-77922326D01*
X178210837Y-77922326D02*
X178163218Y-77969945D01*
X178163218Y-77969945D02*
X178115599Y-77922326D01*
X178115599Y-77922326D02*
X178163218Y-77874707D01*
X178163218Y-77874707D02*
X178163218Y-77969945D01*
X177544171Y-78874707D02*
X177639409Y-78827088D01*
X177639409Y-78827088D02*
X177687028Y-78731849D01*
X177687028Y-78731849D02*
X177687028Y-77874707D01*
X177020361Y-78874707D02*
X177115599Y-78827088D01*
X177115599Y-78827088D02*
X177163218Y-78731849D01*
X177163218Y-78731849D02*
X177163218Y-77874707D01*
X176210837Y-78874707D02*
X176210837Y-78350897D01*
X176210837Y-78350897D02*
X176258456Y-78255659D01*
X176258456Y-78255659D02*
X176353694Y-78208040D01*
X176353694Y-78208040D02*
X176544170Y-78208040D01*
X176544170Y-78208040D02*
X176639408Y-78255659D01*
X176210837Y-78827088D02*
X176306075Y-78874707D01*
X176306075Y-78874707D02*
X176544170Y-78874707D01*
X176544170Y-78874707D02*
X176639408Y-78827088D01*
X176639408Y-78827088D02*
X176687027Y-78731849D01*
X176687027Y-78731849D02*
X176687027Y-78636611D01*
X176687027Y-78636611D02*
X176639408Y-78541373D01*
X176639408Y-78541373D02*
X176544170Y-78493754D01*
X176544170Y-78493754D02*
X176306075Y-78493754D01*
X176306075Y-78493754D02*
X176210837Y-78446135D01*
X175734646Y-78779468D02*
X175687027Y-78827088D01*
X175687027Y-78827088D02*
X175734646Y-78874707D01*
X175734646Y-78874707D02*
X175782265Y-78827088D01*
X175782265Y-78827088D02*
X175734646Y-78779468D01*
X175734646Y-78779468D02*
X175734646Y-78874707D01*
M02*
