M48
; DRILL file {KiCad 9.0.2} date 2026-05-01T14:56:32-0400
; FORMAT={-:-/ absolute / metric / decimal}
; #@! TF.CreationDate,2026-05-01T14:56:32-04:00
; #@! TF.GenerationSoftware,Kicad,Pcbnew,9.0.2
; #@! TF.FileFunction,Plated,1,4,PTH
FMAT,2
METRIC
; #@! TA.AperFunction,Plated,PTH,ViaDrill
T1C0.300
; #@! TA.AperFunction,Plated,PTH,ComponentDrill
T2C0.950
; #@! TA.AperFunction,Plated,PTH,ComponentDrill
T3C1.000
; #@! TA.AperFunction,Plated,PTH,ComponentDrill
T4C1.100
; #@! TA.AperFunction,Plated,PTH,ComponentDrill
T5C1.200
%
G90
G05
T1
X147.1Y-74.2
X147.1Y-81.2
X148.1Y-113.8
X151.2Y-113.1
X152.2Y-67.1
X152.3Y-109.2
X152.7Y-116.6
X154.2Y-74.1
X154.4Y-88.9
X155.25Y-96.65
X155.8Y-93.2
X155.85Y-105.9
X156.5Y-99.2
X157.0Y-107.5
X157.7Y-88.0
X157.85Y-106.0
X157.95Y-97.85
X158.05Y-100.4
X158.15Y-89.05
X158.15Y-108.55
X158.6Y-72.2
X159.3Y-67.7
X161.0Y-92.5
X161.0Y-112.05
X162.0Y-92.9
X162.9Y-100.1
X163.0Y-94.4
X163.6Y-112.2
X163.8Y-74.6
X164.0Y-72.2
X164.1Y-106.4
X165.2Y-113.2
X166.4Y-84.3
X166.55Y-102.15
X166.9Y-71.955
X167.5Y-92.7
X167.5Y-95.4
X167.6Y-84.2
X168.5Y-83.727
X169.0Y-80.5
X169.2Y-72.0
X169.25Y-94.85
X170.0Y-67.7
X170.6Y-90.4
X171.2Y-95.0
X173.2Y-113.2
X173.8Y-91.4
X174.3Y-112.8
X174.4Y-109.9
X174.5Y-89.6
X174.65Y-80.4
X175.0Y-87.8
X175.2Y-91.5
X175.3Y-93.1
X175.35Y-108.35
X175.7Y-74.6
X175.8Y-100.4
X176.5Y-77.4
X176.5Y-85.1
X176.6Y-80.6
X176.7Y-81.75
X177.0Y-86.5
X177.0Y-113.6
X177.5Y-99.1
X177.95Y-81.9
X179.3Y-101.4
X179.6Y-93.3
X179.7Y-70.7
X180.1Y-78.25
X180.1Y-79.5
X180.85Y-108.45
X181.0Y-110.1
X181.3Y-90.85
X181.7Y-81.2
X182.2Y-106.9
X182.4Y-113.5
X182.5Y-91.4
X182.6Y-77.4
X182.9Y-101.1
X183.675Y-94.3
X184.7Y-69.1
X184.7Y-104.2
X184.75Y-94.35
X185.1Y-110.3
X185.3Y-83.8
X185.95Y-77.8
X187.2Y-83.6
X187.2Y-107.0
X187.85Y-101.2
X188.5Y-94.3
X188.5Y-98.9
X188.9Y-92.4
X189.0Y-117.0
X189.25Y-102.856
X189.9Y-80.9
X190.2Y-93.3
X190.4Y-69.0
X192.3Y-94.6
X193.8Y-88.7
X195.8Y-76.5
X196.2Y-81.0
X196.2Y-113.8
T2
X148.6Y-87.4
X148.6Y-89.9
X148.6Y-92.4
X148.675Y-99.85
X148.675Y-102.35
X148.675Y-104.85
X148.675Y-107.35
X166.8Y-116.9
X169.3Y-116.9
X171.8Y-116.9
X195.6Y-84.8
X195.6Y-87.3
X195.6Y-89.8
T3
X149.84Y-78.1
X152.38Y-78.1
X154.92Y-78.1
X157.46Y-78.1
X160.0Y-78.1
X162.54Y-78.1
X165.08Y-78.1
X167.62Y-78.1
T4
X155.65Y-113.55
X155.65Y-118.05
X162.15Y-113.55
X162.15Y-118.05
X185.75Y-113.75
X185.75Y-118.25
X192.25Y-113.75
X192.25Y-118.25
T5
X156.06Y-69.8
X158.6Y-69.8
X164.0Y-69.8
X166.54Y-69.8
X169.08Y-69.8
X174.36Y-69.8
X176.9Y-69.8
X176.92Y-115.9
X179.46Y-115.9
X182.0Y-115.9
X194.7Y-95.3
X194.7Y-97.84
X194.7Y-100.38
M30
